<svg width="32" height="32" viewBox="0 0 32 32" xmlns="http://www.w3.org/2000/svg">
  <defs>
    <!-- Simplified gradients for favicon -->
    <linearGradient id="primaryFav" x1="0%" y1="0%" x2="100%" y2="100%">
      <stop offset="0%" style="stop-color:#0f766e;stop-opacity:1" />
      <stop offset="100%" style="stop-color:#0d9488;stop-opacity:1" />
    </linearGradient>
    <linearGradient id="accentFav" x1="0%" y1="0%" x2="100%" y2="100%">
      <stop offset="0%" style="stop-color:#fb6f5f;stop-opacity:1" />
      <stop offset="100%" style="stop-color:#fd8a7a;stop-opacity:1" />
    </linearGradient>
  </defs>
  
  <!-- Background circle -->
  <circle cx="16" cy="16" r="15" fill="url(#primaryFav)" opacity="0.15"/>
  
  <!-- Compass design -->
  <g transform="translate(16, 16)">
    <!-- Central point -->
    <circle cx="0" cy="0" r="2" fill="url(#primaryFav)"/>
    
    <!-- Cardinal directions -->
    <path d="M 0 -2 L -3 -10 L 0 -12 L 3 -10 Z" fill="url(#accentFav)"/>
    <path d="M 2 0 L 10 -3 L 12 0 L 10 3 Z" fill="url(#primaryFav)"/>
    <path d="M 0 2 L 3 10 L 0 12 L -3 10 Z" fill="url(#accentFav)"/>
    <path d="M -2 0 L -10 3 L -12 0 L -10 -3 Z" fill="url(#primaryFav)"/>
    
    <!-- Simple N -->
    <path d="M -2 -4 L -2 4 L -1 4 L -1 -2 L 1 4 L 2 4 L 2 -4 L 1 -4 L 1 2 L -1 -4 Z" 
          fill="#ffffff" opacity="0.9"/>
  </g>
</svg>
