<svg width="64" height="64" viewBox="0 0 64 64" xmlns="http://www.w3.org/2000/svg">
  <defs>
    <!-- Modern gradient definitions -->
    <linearGradient id="primaryGradient" x1="0%" y1="0%" x2="100%" y2="100%">
      <stop offset="0%" style="stop-color:#0f766e;stop-opacity:1" />
      <stop offset="100%" style="stop-color:#0d9488;stop-opacity:1" />
    </linearGradient>
    <linearGradient id="accentGradient" x1="0%" y1="0%" x2="100%" y2="100%">
      <stop offset="0%" style="stop-color:#fb6f5f;stop-opacity:1" />
      <stop offset="100%" style="stop-color:#fd8a7a;stop-opacity:1" />
    </linearGradient>
    <linearGradient id="backgroundGradient" x1="0%" y1="0%" x2="100%" y2="100%">
      <stop offset="0%" style="stop-color:#0f766e;stop-opacity:0.1" />
      <stop offset="100%" style="stop-color:#fb6f5f;stop-opacity:0.05" />
    </linearGradient>
    <filter id="softGlow">
      <feGaussianBlur stdDeviation="2" result="coloredBlur"/>
      <feMerge> 
        <feMergeNode in="coloredBlur"/>
        <feMergeNode in="SourceGraphic"/>
      </feMerge>
    </filter>
    <filter id="shadow">
      <feDropShadow dx="0" dy="2" stdDeviation="4" flood-color="#0f766e" flood-opacity="0.15"/>
    </filter>
  </defs>
  
  <!-- Background circle with modern gradient -->
  <circle cx="32" cy="32" r="28" fill="url(#backgroundGradient)" opacity="0.8"/>
  
  <!-- Main navigation compass design -->
  <g transform="translate(32, 32)">
    <!-- Central hub -->
    <circle cx="0" cy="0" r="6" fill="url(#primaryGradient)" filter="url(#shadow)"/>
    <circle cx="0" cy="0" r="3" fill="#ffffff" opacity="0.9"/>
    
    <!-- Modern compass directions -->
    <!-- North -->
    <path d="M 0 -6 L -4 -16 L 0 -20 L 4 -16 Z" fill="url(#accentGradient)" filter="url(#softGlow)"/>
    <path d="M 0 -14 L -2 -18 L 0 -20 L 2 -18 Z" fill="#ffffff" opacity="0.8"/>
    
    <!-- East -->
    <path d="M 6 0 L 16 -4 L 20 0 L 16 4 Z" fill="url(#primaryGradient)" filter="url(#softGlow)"/>
    <path d="M 14 0 L 18 -2 L 20 0 L 18 2 Z" fill="#ffffff" opacity="0.8"/>
    
    <!-- South -->
    <path d="M 0 6 L 4 16 L 0 20 L -4 16 Z" fill="url(#accentGradient)" filter="url(#softGlow)"/>
    <path d="M 0 14 L 2 18 L 0 20 L -2 18 Z" fill="#ffffff" opacity="0.8"/>
    
    <!-- West -->
    <path d="M -6 0 L -16 4 L -20 0 L -16 -4 Z" fill="url(#primaryGradient)" filter="url(#softGlow)"/>
    <path d="M -14 0 L -18 2 L -20 0 L -18 -2 Z" fill="#ffffff" opacity="0.8"/>
    
    <!-- Impact ripples -->
    <circle cx="0" cy="0" r="22" stroke="url(#accentGradient)" stroke-width="1.5" fill="none" opacity="0.6"/>
    <circle cx="0" cy="0" r="18" stroke="url(#accentGradient)" stroke-width="1" fill="none" opacity="0.4"/>
    <circle cx="0" cy="0" r="14" stroke="url(#primaryGradient)" stroke-width="1" fill="none" opacity="0.3"/>
    
    <!-- Dynamic directional indicators -->
    <g opacity="0.7">
      <path d="M 10 -10 L 15 -8 L 13 -5" stroke="url(#accentGradient)" stroke-width="2" fill="none" stroke-linecap="round"/>
      <path d="M 10 10 L 8 15 L 5 13" stroke="url(#accentGradient)" stroke-width="2" fill="none" stroke-linecap="round"/>
      <path d="M -10 -10 L -8 -15 L -5 -13" stroke="url(#primaryGradient)" stroke-width="2" fill="none" stroke-linecap="round"/>
      <path d="M -10 10 L -15 8 L -13 5" stroke="url(#primaryGradient)" stroke-width="2" fill="none" stroke-linecap="round"/>
    </g>
  </g>
  
  <!-- Letter 'N' integration -->
  <g transform="translate(26, 24)" opacity="0.8">
    <path d="M 0 0 L 0 16 L 2 16 L 2 4 L 10 16 L 12 16 L 12 0 L 10 0 L 10 12 L 2 0 Z" fill="#ffffff" filter="url(#shadow)"/>
  </g>
</svg> 