<svg width="64" height="64" viewBox="0 0 64 64" xmlns="http://www.w3.org/2000/svg">
  <!-- NavImpact Goose Logo -->
  <defs>
    <!-- Gradient definitions -->
    <linearGradient id="tealGradient" x1="0%" y1="0%" x2="100%" y2="100%">
      <stop offset="0%" style="stop-color:#0f766e;stop-opacity:1" />
      <stop offset="100%" style="stop-color:#0d9488;stop-opacity:1" />
    </linearGradient>
    <linearGradient id="coralGradient" x1="0%" y1="0%" x2="100%" y2="100%">
      <stop offset="0%" style="stop-color:#fb6f5f;stop-opacity:1" />
      <stop offset="100%" style="stop-color:#fd8a7a;stop-opacity:1" />
    </linearGradient>
    <filter id="glow">
      <feGaussianBlur stdDeviation="1.5" result="coloredBlur"/>
      <feMerge> 
        <feMergeNode in="coloredBlur"/>
        <feMergeNode in="SourceGraphic"/>
      </feMerge>
    </filter>
  </defs>
  
  <!-- Background circle with subtle gradient -->
  <circle cx="32" cy="32" r="30" fill="url(#tealGradient)" opacity="0.1" filter="url(#glow)"/>
  
  <!-- Goose Body (Deep Teal) -->
  <g transform="translate(16, 20)">
    <!-- Main body -->
    <ellipse cx="16" cy="12" rx="12" ry="8" fill="url(#tealGradient)"/>
    
    <!-- Neck -->
    <path d="M 24 8 Q 28 4 30 2" stroke="url(#tealGradient)" stroke-width="3" fill="none"/>
    
    <!-- Head -->
    <ellipse cx="30" cy="2" rx="3" ry="2.5" fill="url(#tealGradient)"/>
    
    <!-- Beak (Soft Coral) -->
    <path d="M 32 2 L 36 1 L 36 3 Z" fill="url(#coralGradient)"/>
    
    <!-- Wing -->
    <path d="M 12 8 Q 8 4 6 8 Q 8 12 12 10" fill="url(#tealGradient)" opacity="0.8"/>
    
    <!-- Legs -->
    <line x1="14" y1="20" x2="14" y2="24" stroke="url(#coralGradient)" stroke-width="1.5"/>
    <line x1="18" y1="20" x2="18" y2="24" stroke="url(#coralGradient)" stroke-width="1.5"/>
    
    <!-- Feet -->
    <path d="M 12 24 L 10 26 M 14 24 L 16 26" stroke="url(#coralGradient)" stroke-width="1.5" stroke-linecap="round"/>
  </g>
  
  <!-- Navigation/Compass elements (subtle) -->
  <g transform="translate(32, 32)" opacity="0.3">
    <!-- Compass rose -->
    <path d="M 0 -8 L 2 -6 L 0 -4 L -2 -6 Z" fill="url(#coralGradient)"/>
    <path d="M 0 8 L 2 6 L 0 4 L -2 6 Z" fill="url(#coralGradient)"/>
    <path d="M -8 0 L -6 2 L -4 0 L -6 -2 Z" fill="url(#coralGradient)"/>
    <path d="M 8 0 L 6 2 L 4 0 L 6 -2 Z" fill="url(#coralGradient)"/>
  </g>
  
  <!-- Impact waves emanating from goose -->
  <g transform="translate(32, 32)">
    <path d="M 20 -5 Q 25 -8 30 -5" stroke="url(#coralGradient)" stroke-width="2" fill="none" opacity="0.6"/>
    <path d="M 20 -2 Q 24 -5 28 -2" stroke="url(#coralGradient)" stroke-width="1.5" fill="none" opacity="0.4"/>
  </g>
</svg> 