<svg width="64" height="64" viewBox="0 0 64 64" xmlns="http://www.w3.org/2000/svg">
  <defs>
    <!-- Clean, modern gradients -->
    <linearGradient id="primary" x1="0%" y1="0%" x2="100%" y2="100%">
      <stop offset="0%" style="stop-color:#0f766e;stop-opacity:1" />
      <stop offset="100%" style="stop-color:#0d9488;stop-opacity:1" />
    </linearGradient>
    <linearGradient id="accent" x1="0%" y1="0%" x2="100%" y2="100%">
      <stop offset="0%" style="stop-color:#fb6f5f;stop-opacity:1" />
      <stop offset="100%" style="stop-color:#fd8a7a;stop-opacity:1" />
    </linearGradient>
    <filter id="glow">
      <feGaussianBlur stdDeviation="1" result="coloredBlur"/>
      <feMerge> 
        <feMergeNode in="coloredBlur"/>
        <feMergeNode in="SourceGraphic"/>
      </feMerge>
    </filter>
  </defs>
  
  <!-- Background circle -->
  <circle cx="32" cy="32" r="30" fill="url(#primary)" opacity="0.1"/>
  
  <!-- Simplified compass design -->
  <g transform="translate(32, 32)">
    <!-- Central point -->
    <circle cx="0" cy="0" r="3" fill="url(#primary)" filter="url(#glow)"/>
    
    <!-- Cardinal directions -->
    <path d="M 0 -3 L -6 -18 L 0 -22 L 6 -18 Z" fill="url(#accent)"/>
    <path d="M 3 0 L 18 -6 L 22 0 L 18 6 Z" fill="url(#primary)"/>
    <path d="M 0 3 L 6 18 L 0 22 L -6 18 Z" fill="url(#accent)"/>
    <path d="M -3 0 L -18 6 L -22 0 L -18 -6 Z" fill="url(#primary)"/>
    
    <!-- Navigation 'N' -->
    <g transform="translate(-4, -8)">
      <path d="M 0 0 L 0 16 L 2 16 L 2 3 L 6 16 L 8 16 L 8 0 L 6 0 L 6 13 L 2 0 Z" 
            fill="#ffffff" opacity="0.9"/>
    </g>
    
    <!-- Impact indicators -->
    <circle cx="0" cy="0" r="26" stroke="url(#accent)" stroke-width="1" fill="none" opacity="0.4"/>
    <circle cx="0" cy="0" r="20" stroke="url(#accent)" stroke-width="0.8" fill="none" opacity="0.3"/>
  </g>
</svg> 