<svg width="200" height="60" viewBox="0 0 200 60" xmlns="http://www.w3.org/2000/svg">
  <!-- Enhanced NavImpact Logo with standout effects -->
  <defs>
    <!-- Gradient definitions for more visual impact -->
    <linearGradient id="tealGradient" x1="0%" y1="0%" x2="100%" y2="100%">
      <stop offset="0%" style="stop-color:#0D9488;stop-opacity:1" />
      <stop offset="100%" style="stop-color:#14B8A6;stop-opacity:1" />
    </linearGradient>
    <linearGradient id="coralGradient" x1="0%" y1="0%" x2="100%" y2="100%">
      <stop offset="0%" style="stop-color:#F97316;stop-opacity:1" />
      <stop offset="100%" style="stop-color:#FB923C;stop-opacity:1" />
    </linearGradient>
    <filter id="glow">
      <feGaussianBlur stdDeviation="1.5" result="coloredBlur"/>
      <feMerge> 
        <feMergeNode in="coloredBlur"/>
        <feMergeNode in="SourceGraphic"/>
      </feMerge>
    </filter>
    <filter id="textShadow">
      <feDropShadow dx="1" dy="1" stdDeviation="1" flood-color="#000000" flood-opacity="0.3"/>
    </filter>
  </defs>
  
  <!-- Icon: Enhanced Compass "N" with impact waves -->
  <g transform="translate(10, 10)">
    <!-- Background glow effect -->
    <circle cx="20" cy="20" r="22" fill="url(#tealGradient)" opacity="0.1" filter="url(#glow)"/>
    
    <!-- Enhanced outer circle segments with gradients -->
    <path d="M 20 0 A 20 20 0 0 1 0 20 L 0 0 Z" fill="url(#tealGradient)"/> <!-- Top-left teal -->
    <path d="M 0 20 A 20 20 0 0 1 20 40 L 20 20 Z" fill="url(#coralGradient)"/> <!-- Bottom-right coral -->
    <path d="M 20 40 A 20 20 0 0 1 40 20 L 20 20 Z" fill="url(#tealGradient)"/> <!-- Top-right teal -->
    
    <!-- Enhanced inner "N" shape with stronger contrast -->
    <path d="M 8 32 L 8 8 L 16 8 L 16 24 L 32 8 L 32 32 L 24 32 L 24 16 L 8 32 Z" fill="#0D9488" stroke="#0F766E" stroke-width="0.5"/> <!-- Left and diagonal teal -->
    <path d="M 24 16 L 32 8 L 32 32 L 24 32 L 24 16 Z" fill="#F97316" stroke="#EA580C" stroke-width="0.5"/> <!-- Right stroke coral -->
    
    <!-- Enhanced impact waves with more dynamic curves -->
    <path d="M 35 5 Q 45 0 50 5 Q 55 10 60 5" stroke="url(#coralGradient)" stroke-width="3" fill="none" filter="url(#glow)"/>
    <path d="M 35 8 Q 42 3 47 8 Q 52 13 57 8" stroke="url(#coralGradient)" stroke-width="2" fill="none" filter="url(#glow)"/>
    <path d="M 35 11 Q 40 6 44 11 Q 48 16 52 11" stroke="url(#coralGradient)" stroke-width="1.5" fill="none" filter="url(#glow)"/>
    
    <!-- Additional dynamic elements for more impact -->
    <circle cx="45" cy="15" r="2" fill="#F97316" opacity="0.8"/>
    <circle cx="50" cy="12" r="1.5" fill="#FB923C" opacity="0.6"/>
    <circle cx="55" cy="8" r="1" fill="#FED7AA" opacity="0.4"/>
  </g>
  
  <!-- Enhanced Wordmark: "NavImpact" with standout effects -->
  <g transform="translate(70, 15)">
    <!-- "Nav" in Impact Teal with gradient and shadow -->
    <text x="0" y="25" font-family="Inter, -apple-system, BlinkMacSystemFont, sans-serif" font-size="26" font-weight="700" fill="url(#tealGradient)" filter="url(#textShadow)">Nav</text>
    <!-- "Impact" in Energy Coral with gradient and shadow -->
    <text x="48" y="25" font-family="Inter, -apple-system, BlinkMacSystemFont, sans-serif" font-size="26" font-weight="700" fill="url(#coralGradient)" filter="url(#textShadow)">Impact</text>
    
    <!-- Subtle underline effect for extra impact -->
    <path d="M 0 30 L 120 30" stroke="url(#coralGradient)" stroke-width="2" opacity="0.6" filter="url(#glow)"/>
  </g>
</svg> 