<?xml version="1.0" encoding="UTF-8"?>
<svg id="Layer_1" data-name="Layer 1" xmlns="http://www.w3.org/2000/svg" viewBox="0 0 804.16 920.33">
  <g>
    <path d="M90.51,820.38h22.2v3.47h-18.24v9.93h16.57v3.34h-16.57v11.03h18.77v3.65h-22.73v-31.43Z"/>
    <path d="M140.69,820.38h4.17l14.33,21.85c1.06,1.63,2.29,4.04,2.29,4.04h.09v-25.89h3.69v31.43h-4.04l-14.42-21.89c-1.01-1.54-2.33-3.91-2.33-3.91h-.09v25.8h-3.69v-31.43Z"/>
    <path d="M192.01,820.38h24.88v3.47h-10.46v27.96h-3.96v-27.96h-10.46v-3.47Z"/>
    <path d="M243.64,820.38h22.2v3.47h-18.24v9.93h16.57v3.34h-16.57v11.03h18.77v3.65h-22.73v-31.43Z"/>
    <path d="M293.82,820.38h14.68c5.54,0,9.27,3.47,9.27,8.62,0,3.82-1.67,6.55-5.45,7.78v.13c3.21,1.14,4.22,3.34,4.53,8,.35,5.05.88,6.33,1.45,6.72v.18h-4.27c-.66-.57-.79-1.76-1.14-7.03-.31-4.62-2.15-6.24-6.38-6.24h-8.75v13.27h-3.96v-31.43ZM297.78,835.32h9.32c4.39,0,6.59-2.2,6.59-5.76,0-3.82-1.76-5.76-6.38-5.76h-9.54v11.52Z"/>
    <path d="M342.78,820.38h24.88v3.47h-10.46v27.96h-3.96v-27.96h-10.46v-3.47Z"/>
    <path d="M399.51,820.38h4.44l11.61,31.43h-4.31l-3.34-9.58h-12.53l-3.39,9.58h-4.04l11.56-31.43ZM396.52,839.02h10.29l-3.6-10.55c-.61-1.76-1.41-4.44-1.41-4.44h-.09s-.83,2.64-1.45,4.44l-3.74,10.55Z"/>
    <path d="M441.86,820.38h3.96v31.43h-3.96v-31.43Z"/>
    <path d="M474.64,820.38h4.17l14.33,21.85c1.06,1.63,2.29,4.04,2.29,4.04h.09v-25.89h3.69v31.43h-4.04l-14.42-21.89c-1.01-1.54-2.33-3.91-2.33-3.91h-.09v25.8h-3.69v-31.43Z"/>
    <path d="M527.94,820.38h5.05l10.2,26.11h.09l10.11-26.11h5.14v31.43h-3.78v-25.85h-.09s-.83,2.46-1.41,3.96l-8.62,21.89h-3.03l-8.62-21.89c-.61-1.58-1.41-3.96-1.41-3.96h-.09v25.85h-3.56v-31.43Z"/>
    <path d="M587.26,820.38h22.2v3.47h-18.24v9.93h16.57v3.34h-16.57v11.03h18.77v3.65h-22.73v-31.43Z"/>
    <path d="M637.45,820.38h4.17l14.33,21.85c1.06,1.63,2.29,4.04,2.29,4.04h.09v-25.89h3.69v31.43h-4.04l-14.42-21.89c-1.01-1.54-2.33-3.91-2.33-3.91h-.09v25.8h-3.69v-31.43Z"/>
    <path d="M688.77,820.38h24.88v3.47h-10.46v27.96h-3.96v-27.96h-10.46v-3.47Z"/>
  </g>
  <g>
    <path d="M213.88,270.13c.97-9.22,7.43-29.17,11.54-37.7,4.25-8.82,14.46-16.26,19.62-24.81,1.08-1.8,5.57-15.23,4.87-16.14-1.48.77-3.02,1.48-4.62,1.98-8.09,2.51-15.39,3.3-23.68,6.34-5.14,1.89-12.07,3.39-16.5,6.32-6.69,4.43-11.35,13.45-19.94,14.48-2.22.27-2.85-.68-3.9-.68-1.47,0-2.65,1.46-5.38.56-1.2-.4-7.98-4.15-9.03-4.98-1.39-1.1-2.87-3.22-3.02-4.98-.42-4.81,2.54-4.61,3.75-7.9,2.29-6.2,2.65-15.46,5.79-21.83.9-1.82,5.09-4.3,5.25-4.78.45-1.37-1.18-1.96-1.47-3.22-1.12-4.8,2.64-4.55,4.66-7.18,1.01-1.32,3.5-7.85,3.95-9.66,1.06-4.24,1.24-12.26,2.62-15.79.37-.95,1.58-1.93,2.09-3.11.88-2,1.18-4.6,2.01-6.8,3.76-9.94,10.23-20.59,16.6-29.03l-.2-.59-1.4.8c-.79-.88,2.57-3.25,3.23-3.77,12.97-10.06,32.71-23.37,49.1-25.75,7.5-1.09,10.38,1.49,15.11,6.7.22-1.65-1.06-3.18-.18-4.8,4.23.64,8.26.08,12.39,1.6-3.31-2.88-7.31-5.28-11.61-6.41-.1-.69.95-.42,1.39-.39,7.58.6,16,8.4,21.04,13.79,2.1,2.25,3.4,5.48,5.57,7.64,1.43,1.43,3.51,2.46,5.01,3.8,3.74,3.33,11.87,14.57,12.21,19.45.15,2.12-.75,4.97-.36,7.53.27,1.82,1.97,4.14,2.28,6.13.41,2.63-.17,5.61.14,8.27.24,2.08,1.38,3.92,1.57,6.03.39,4.21.34,12.18-.02,16.42-.06.75-.39,1.45-.4,2.2-1.3,1.15-1.9-5.24-1.92-5.8-.1-3.74.68-8.07.31-12-.21-2.24-1.31-4.37-1.55-6.45-.29-2.42.25-5.16-.08-7.53-.51-3.72-4.28-7.23-3.54-11.22.17-.94,1.12-1.74,1.16-2.86.09-2.51-7.95-15.27-10.18-17.39-1.36-1.29-3.23-2.18-4.62-3.38-6.08-5.26-11.25-13.71-19.61-16.41-2.32-.75-4.55-.31-6.8-1-.04,2.3,2.05,3.79,3.15,5.45.45.68.26,1.58.55,2.05.33.53,6,4.63,6.97,5.24s4.16,1.11,2.27,2.42c-2.53.79-7.57-4.15-9.61-5.49-5.14-3.37-11.1-7.47-16.27-10.55-4.76-2.84-11.9,1.32-16.97,2.4l-10.39,8.43-.94-.14c-.23-1.85,1.79-2.71,2.8-4l-.59-.19c-4.08,3.22-8.75,5.65-12.98,8.64-12.09,8.55-15.26,12.35-22.26,25.37-4,7.45-7.38,15.26-11.24,22.78-.45.88-1.66,1.82-1.98,2.83-.69,2.22-.63,5.65-1.38,8.02,5.76-3.04,12.54-8.61,19.11-9.5,5.54-.75,15.59,1.03,20.08,4.53,5.11,3.98,6.01,12.22,11.22,16.8,4.2,3.68,10.6,3.52,14.43,7.58,4.01,4.25,4.19,8.13,2.18,13.41-.53,1.39-3.33,5.7-3.41,6.23-.25,1.72,1.71,2.43,2,4,1.42,7.74-6.19,21.29-8.22,28.97-.23.39-.6.9-1.12.81-1.92-.32-.69-5.78-.84-7.18-1.41,1.52-3.02,2.86-4.41,4.4-5.64,6.21-10.18,11.67-13.3,19.52-3.93,9.89-7.7,21.58-9.59,32.04-.52,2.9.11,4.41-.09,6.69-.07.81-.73,1.78-.72,2.01.12,1.63,12.43,9.6,14.32,11.59.63.67,1.08,1.26,1.21,2.21l4.78-.8-1.6-.4v-1.2c7.51.63,15,1.25,22.56.33.74-.24,1.17-1.99,1.69-2.71,1.44-2.01,3.81-1.75,6.17-2.64,9.39-3.53,20.47-12.98,27.63-20,1.72-1.68,12.29-13.07,12.27-14.41-1.07-1.65-.76-4-1.17-5.91-.08-.39-.14-1.2-.69-1.1-.69,2.97-1.38,6.24-2.3,9.13-.21.68.17,1.05-.91.87.05-1.39-.09-2.81,0-4.2.29-4.16,2.56-10.88,1.39-14.62-.12-.38-.06-.91-.59-.79l-11.29,20.72-1.12.09c-.68-.67,4.02-8.93,4.73-10.27,5.66-10.67,11.83-21.07,17.49-31.75,2.02-7.74,1.11-15.86,2.6-23.62.4-.17.8.93.8,1v8.21l4.42-19.8-3.55-1.08c-1-2.53,2.48-4.21,3.75-6.73,1.25-2.47,1.33-5.36,2.38-7.63,1.05-2.26,2.32-2.16,2.12.48-.77,10.25-6.21,22.71-7.14,33.32.25,1.27-1.92,2.2-1.99,2.5-.4,1.7-.17,5.05-.39,6.93,3.44-1.61,2.7-4.77,3.98-7.83.6-1.44,2.26-3.96,3.41-5,1.04-.95,2.52-1.25,3.24-1.96,1.49-1.48,3.27-12.39,3.72-15.09,1.48-8.9,2.35-18,3.26-26.95-.64,0-.85,1.58-1.4,1.59-1.72.02.93-6.35,3-5.59,1.17,1.25-2.62,29.43-3.33,33.29-.6,3.3-1.92,10.52-3.68,13.14-.71,1.06-2.92,2.09-3.79,3.01-1.86,1.95-3.24,4.95-4.14,7.47-.35.98-.08,2.03-.64,2.96-.57.95-2.94,2.36-4.03,1.37l-1.1,7.07-9.71,17.98,1.19,6.57c.4-1.36.77-2.78,1.31-4.1.66-1.62,1.36-4.87,3.5-4.3-1.18,3.93-5.24,10.51-3.51,14.53.26.61.95.61,1.13.96.48.91.44,2.19,1.39,2.92l.55-.05c-.2-1.27,2.06-.76,2.48-.08.7,1.13,1.22,6.44,2.06,8.65,1.1,2.88,2.64,5.05,4.92,7.09,1.66,1.48,8.3,4.74,6.8,7.22-.93,1.54-3.77-.46-3.81,1.99,2.16.63,4.09,2.99,6.11,3.7,1.78.63,4.21.76,6.2,1.4,9.6,3.07,20.04,7.4,29.19,11.64,17.67,8.19,34.9,19.77,51.33,30.33,7.8,5.01,22.39,16.79,30.44,19.19,9.31,2.78,18.93,5.34,28.68,6.54,7.86.97,15.07.85,22.96.46-.35.62-2.02.91-2.72,1.08-2.22.55-4.61,1-6.89.92.11.99.68,1.49.81,2.59.58,4.91-3.68,12.76-6.83,16.41-2.14,2.49-4.64,4.71-7.8,5.81-.54,1,1.13,0,1.2,0h6c.29,0,1.82.83,2.01,1.19,1.71,3.35-5.6,10.04-5.81,13.62,4.95-3.89,9.11-8.63,13.41-13.21l.2.59c-1.71,1.82-2.85,4.06-4.41,6-5.68,7.08-16.88,15.44-24.43,20.8-.98.69-2.41,1.51-3.57,1.83,4.64,5.33,8.07,9.56,3.95,16.55-2.28,3.87-6.07,6.62-10.75,6.26,1.66,8.59-10.36,10.03-16.41,8.41-.49.43,2.05,2.14.69,3.5-.42.42-7.34,2.97-8.49,3.32-6.17,1.89-10.52,1.5-16.33,2.48-1.26.21-2.28,1.12-3.41,1.39-4.52,1.11-8.66,1.62-13.32,1.49-.79.55-.16,2.95-.38,3.95-.07.33-.72.29-.92.76-.47,1.1-.21,2.69-1.06,3.73-.61.74-2.23,1.19-3.08,1.92-2.71,2.35-6.13,7.75-8.74,10.68-.89,1-1.94,2-3,2.8,1.06-3.97,4.16-6.75,6.4-10l-11.48,6.34c-1.26.11-.47-1.97-1.74-2.16l.04-.76,15.2-9.62c1.45-1.63.52-5.61,1.02-7.84-1.75-.48-3.5-.64-5.25-1.17-12.51-3.78-27.54-14.66-35.8-24.64-2.3-2.78-4.15-5.94-6.62-8.59.08,2.37,1.19,4.64,1.4,7.01.27,3.1.37,6.42-2.42,8.37-2.5,1.75-4.64,1.53-7.15,0-6.54-4-16.69-19-19.99-26.05-2.76-5.9-4.92-12.54-6.07-18.95-.7-.09-.38.91-.4,1.39-.13,3.19.1,6.82.4,10.01.32,3.32.62,6.74,2,9.8-1.54,1.49-3.05-6.46-3.15-7.05-3.91-24.05-.01-63.08,10.15-85.41.6-1.32,2.12-3.07,2.6-4.21.1-.24.07-.68-.19-.59-1.23.62-8.35,5.88-9.01,5.2.04-.58-.11-1.25,0-1.8.21-1.05,5.51-4.08,6.8-4.81,8.08-4.55,17.32-8.01,26.43-9.79l-10.27,5.53c-18.54,11.07-24.01,42.64-24.97,62.69-.99,20.71,9.34,43.71,23.83,58.26,5.48,5.5,9.55,5.81,8.17-3.37-.99-6.57-4.81-13.03-5.45-19.37-.04-.44-.47-1.36.28-1.28,4.78,6.69,9.5,13.52,14.83,19.8,5.18,6.11,9.97,10.87,16.67,15.35,5.82,3.88,18.81,10.88,25.54,10.88h13.61c.07,0,1.17-.39,1-.8-6.67-1.54-12.97-5.38-18.62-9.2-2.5-1.69-14.59-10.47-14.93-12.7-.11-.71-.03-.88.54-1.32,9.59,6.72,20.81,16.67,32.3,19.73,6.8,1.81,17.66.49,24.02-2.64,1.05-.52,3.37-1.55,3.13-2.87-3.18-2.12-15.51-6.98-16.84-10-.24-.55-.62-.35.21-1.01,7.88,3.01,21.01,10.5,29.44,9.02,2.85-.5,6.09-2.28,6.73-5.28.17-.82-.04-.42-.53-.55-9.26-2.61-19.1-4.18-25.65-12.39-.5-.62-1.87-2.19-.78-2.81.96-.2,3.66,2.69,4.63,3.37,6.12,4.28,17.87,9.52,25.38,8.64,5.64-.66,9.09-8.85,6.02-13.63-10.32-6.99-19.39-15.47-28.24-24.2.64-.41,1.81.48,2.41.79,4.06,2.11,8.11,5.08,12.41,6.81,5.95,2.39,8.58,2.6,4.86-4.06-4.16-7.46-11.97-12.64-18.09-18.34-1.88-1.75-3.51-3.95-5.6-5.41-.08-.76.81-.32,1.2-.2,2.81.85,5.12,3.41,6.79,3.96,1.08.35,6.97.43,8.13.17,4.16-.93,2.87-6.29,1.56-8.99-3.63-7.47-13.58-9.38-19.09-14.94.85-2.18,3.81.36,5.41.2l-16.01-13.41c1.76.54,3.6,1.68,5.17,2.63,6.54,3.94,13.13,9.73,18.86,14.76,1.91,1.68,6.3,6.38,7.53,8.48,4.62,7.92,4.14,16.53-7.14,15.15,3.15,2.75,6.67,5.44,9.41,8.6,3.38,3.92,11.24,14.39,1.4,15.41,1.17.58,3.19,2.72,4.3,2.94,1.89.38,6.15-3.63,8.08-4.4l-.37-1.94,4.4-1.21-2.01-.58c-.62-.54-.48-.69,0-1.23.61-.7,4.51-1.71,5.9-2.51,2.66-1.52,9.2-7.52,10.7-10.11.38-.66.78-1.73.58-2.48-.85-3.17-9.76,1.51-10.35.91l.79-2.97-1.21-1.2c.11-1.25,4.25-4.53,5.42-5.83,3.15-3.48,8.94-10.83,9.33-15.52.04-.47-.6-2.34-.77-2.47-.26-.19-1.87.37-2.54.39-33.96.71-52.61-16.42-79.51-33.01-21.1-13.01-47.18-24.73-70.53-33.14-.95-.34-8.39-2.42-8.82-2.28-3.97,4.48-7.9,8.98-11.41,13.84-7.53,10.4-16.08,25.11-20.95,37.09-1.52,3.72-2.77,7.53-3.54,11.48-1.13.04-1.71-1.19-2.21-1.99-1.93-3.07-2.77-7.05-3.99-10.42-2.36,5.24-2.39,11.54-7,15.61,1.45-3.83-.85-7-1.81-10.8-1.21-4.79-2.3-10.17-2.95-15.06-.22-1.68-.66-11.18-1.24-11.58-1.81.66-2.73-.42-4.41-.58l-1.61,10.01-.99-1.6c-.85.95-1.78,1.17-2.41,2.39-.25.48-2.06,5.42-2.07,5.73-.04,1.17.42,7.84.67,8.81.1.39.87.35,1.13.95.38.88.38,2.72.49,3.73l2-.8c.64,1.49-1.37,2.77-1.5,3.45-.29,1.54,1.16,5.46,1.13,7.18-.02.78-.61,1.17-.63,1.81-.07,2.79,2.29,6.74,3.12,9.26,1.47,4.42,2.55,8.99,4.27,13.33-.3.73-.67,2.14-1.76,1.81l-2.42-4.02c-.78,1.49.63,3,.89,4.31.48,2.39.37,4.84,1.24,7.17,1.26,3.38,4.47,5.85,6.49,8.73l-1.35.97-4.66-4.36c-.23,1.67.78,3.45.79,5.01.02,2.44-.09,7.69-.37,10.03-.03.29-1.81,2.55-1.87,3.18-.08.8,1.15,2.62,1.09,4.02-.03.7-.7.59-.81.9-.66,1.86-.4,3.76-.43,5.69l3.8-9.6.98.59-7.81,28.22c1.46.96,2.32,2.41,3.64,3.6,2.69,2.43,7.01,5.46,10.07,7.54,1.5,1.02,11.93,7.67,12.67,7.59.81-.08,1.24-.84,2.82-.7.68.06,6.09,2.02,6.48,2.36.56.49.81,1.78,1.38,2.42-2.59.71-4.01-.2-6.4-.79l1.24,9.96c2.12.17,8.86,3.01,10.37,2.25.73-.37.84-2.25,2.92-1.84.39.08.69,1.62,1.76,1.94,1.82.55,4.09-.82,6.04.16l.48,4.72c.7-.14.67-1.16,1.37-1.63,2.05-1.38,2.16,1,2.86,1.17.34.08,1.27-.37,1.96-.36,2.38.03,1.62,1.37,1.84,1.57.41.38,1.78-.52,1.58.65-.16.95-1.75,2.66-2.01,3.79.4.34,4.09-3.05,4.77-.94.41,1.27-2.08,4.96-1.97,6.55.39.43,5.22-3.5,5.82-4,1.75-1.46,1.12-.59,1.8-.99s.64-2.75,2.38-2.21l-4,18.01c2.97-1.79,7.15-9.16,10.02-10.2s1.52,1.34,1.67,2.67c.55,4.82,3.32,10.92,5.72,15.13l4.41-23.61c.14-.69,3.08.24,3.2.37.41.45,1.71,5.06,2.4,6.44.78,1.58,2.05,3.71,3.41,4.79.87-6.18-.98-11.87-2.38-17.78l.8-.45c1.55.37,2.33,4.1,4.39,4.22.64-.73-1.79-5.19-1.92-6.3-.11-.96,1.56-3.5,2.52-3.32.24.05,2.29,3.02,4.21,2.02l-1.2-4.4c1.45.65,4.86,4.82,2.93,6.04-2.2.98-4.04.04-6.14-.43,1.22,2.78,2.76,6.12,1.55,9.15l-3.15-.34c.64,3.13,1.57,11.38-.23,13.98-1.9,2.75-3.77-1.64-4.98-2.78.06,1.66-.09,3.36-.02,5.02.13,2.98,1.04,23.75.55,24.9-.22.52-.87.29-.96,1.08-.48,3.97.47,9.36.44,13.65,0,.94-.42,1.82-.43,2.77-.06,3.93.38,7.98-.38,11.82,1.85.13,3.07-1.7,4.52-2.48,4.26-2.31,12.85-3.25,17.71-3.13,2.97.07,6.84,1.31,9.58,1.25,1.28-.03,8.78-1.49,9.61-2.03,4.26-2.73,7.82-6.06,12.73-8.48,9.14-4.5,19.27-6.47,28.84-2.01,2.35-2.16,4.68-4.62,7.86-5.53.1-.73-.83-.33-1.22-.22-1.66.47-3.39,2.26-4.78,1.22,4.4-5.76,13.01-3.91,19.43-4.18,3.51-.15,6.68-1.05,10.41-.83,3.13.18,8.99,2.42,10.8,2.38.71-.01,3.13-1.36,4.28-1.67,4.76-1.31,10.76-.9,15.52.31,2.63.67,7.74,3.19,9.84,3.39,1.56.15,5.27-1.28,7.22-1.55,6.42-.88,12.64.2,18.67,2.46,1.96.73,6.28,3.29,7.74,3.49,1.82.24,4.43-.71,6.35-.8,8.36-.4,15.7.34,23.54,3.31,1.77.67,8.08,4.24,8.92,4.29,1.9.12,6.35-1.4,8.79-1.58,3.67-.27,7.38.41,10.8.39,1.69,0,4.36-1.08,6.39-1.22,12.68-.83,24.5,6.7,30.97,17.09,2.88,4.62-.74,12.21-3.95,15.93-1.07,1.24-2.63,2.8-4.39,2.61l-.2-1.59c-3.59,2.8-7.37,5.42-11.54,7.28-1.3.58-3.22.37-3.88,1.92.48.38,4.99-2.94,5.97-.55.59,2.46-9.98,5.55-11.57,7.17-.17.91.4.55.99.6.98.07,2.24.08,3.22.02,1.91-.12,6.26-1.42,7.58-1.23,1.24.17,1.36,1.27.43,2.04-6.15,2.21-13.78,2.52-19.75,5.07-2.55,1.09-5.12,3.01-7.82,4.19-8.5,3.71-17.18,5.56-26.48,5.13-1.05-.05-2.77-.81-3.55-.68-.49.08-1.27.92-1.98,1.17-4.2,1.44-8.99.6-13.28-.09l-.21,1.21c-.71-.02-.49-1.1-1-1.6-.42-.41-1.25-.52-1.79-.8.13,1.5-1.37,2.24-2.53,2.88-10.14,5.62-32.71,8.23-43.91,5.73-5.95-1.33-7.85-3.58-14.6-3-3.4.29-5.82,1.9-9.01,2.8,2.57,4.68-6.83,6.16-10.01,5.8l8.79-3.42-.38-1.39c-2.58-1.07-3.43.5-5.07,1.35-9.9,5.12-16.77,5.68-27.35,1.05-1.03-.45-3-2.12-3.83-2.2-.83-.08-5.52,2.19-7.59,2.4-4.76.48-9.28-.71-13.41-2.99-2.01-1.11-4.58-2.61-5.19-5.01,2.56,1.14,4.74,2.97,7.33,4.07,3.71,1.58,7.18,2.29,11.24,1.89l3.44-1.15c-6.66-.74-12.76-1.92-18.69-5.13-.81-.44-2.09-1.85-2.78-1.96-1.66-.27-7.52,1.68-10.77,1.5-3.55-.2-6.99-1.91-10.01-2.39-1.8-.29-11.66-.16-12.83.74-1.06.81-.22,2.6-.76,3.64-1.04-.83-1.48-1.85-1.42-3.18-1.37-.13-2.81.12-4.18-.02-4.37-.46-8.11-2.58-12.8-2.81-6.69-.33-12.37,5.45-18.86,2.83-14.83,2.52-29.4,6.73-44.13,9.91-1.66.33-2.85-.69-1.88-2.32.99-1.66,22.67-8.15,26.03-9.19.72-.22,2.29-.5,2.59-1.2l-18.63.82c-3.99-.75-8.39-.22-12.35-.86-4.95-.8-10.32-3.7-15.35-4.64-.7-.44-1.62-1.75-1.13-2.54,1.19-1.91,16.18-1.01,19.24-1.19,5.25-.31,10.43-1.74,15.62-2.39,7.5-.94,11.58.1,18.51-4.01,2.89-1.71,4.97-2.84,6.89-5.81.42-.96-1.75-.58-2.01-1.21.03-1.56,1.93-1.93,2.21-2.56.17-.39-.3-1.18-.2-1.79s.69-1.04.78-1.66c.35-2.35-.37-4.66-.39-6.98-.31-.09-.48.4-.6.4h-15.01c.19,2.03,1,4.28-.39,6.11-2.49,3.27-9.95,2.67-13.76,3.16-8.22,1.04-16.17,3.75-24.49,3.56-8.22-.18-17.73-1.5-26-2.42-.57-.06-3.43-.47-3.4-1,.65-.37,1.68-1.54,2.28-1.72,2.24-.64,6.13-.6,8.85-1.16,5.46-1.11,13.74-2.93,18.88-4.73.6-.21,1.43-.24,1.6-1-3.26.36-6.66-.33-9.79-.42-6.75-.2-14.22.56-20.83.01-1.13-.09-5.4-.72-5.77-1.86-.15-.48-.07-.9.15-1.34,1.15-2.34,10.29-1.41,12.81-1.6,10.39-.78,21.85-3.17,32.03-3.59,2.06-.08,3.1.12,5,.79-1.06-1.57-4.18-1.69-3.6-4l5.2.79c-.97-1.35-3.43-1.45-3.59-3.37.21-.95,3.39-.92,4.19-1.04.54-.08,1.25-.19.6-.79-1.73-.26-4.05-.54-3.6-2.8l5.61-.4-1.21-12.81-1.98.39c-.21-2.59-2.22-4.25,1.2-5.46.12-.49-.34-4.79-.5-5.46-.2-.81-1.07-1.39-1.14-2.11-.1-1.15.91-1.34,1.14-2.05.57-1.84-.36-4.24-.32-6.12-1.38,1.93-5.18,2.54-3.54-.55,1.05-1.98,3.76-2.38,2.74-5.86-.17-.2-2.88,1.79-3.2.19-.25-1.27,3.55-3.23,2.4-5.39-.49.17-2.81,2.95-3.19,1.39-.47-1.89,2.48-3.35,2.62-4.77.22-2.23-.41-3.64-2.77-2.65-2.28-1.95,1.35-2.71,1.69-3.86l-.4-5.07-.6-.6c-13.02-1.17-2.56-4.88-2.55-5.86-2.94-2.65-11.15-.25-4.8-6.2-3.19.42-6.07.46-9.2-.41-.14-.68.16-.82.68-1.11,2.43-1.35,10.06-.35,10.77-2.87.38-1.36-1.51-1.46-2.38-2.08-1.95-1.4-3.65-3.07-5.87-4.14-.04-.51.26-.95.82-.82.88.19,4.6,3.23,5.19,2.63l-.83-9.18c-2.23-.02-4-.56-6.08-1.32-9.1-3.33-17.7-10.46-25.31-16.31l-4.62,9.99c-.43.06-.81.07-1.19-.18-1.03-.68-3.76-5.99-5.16-7.15-.56-.46-.99-.26-1.63-.26l5.8,7.21c.51,1.4.41,1.93-1.11,1.51-6.92-7.99-14.52-15.1-22.9-21.53-.6.31.11.97.27,1.33,4.43,10.47,14.06,20.51,22.15,28.29l.59-.8.4,1.59c-.98.79-8.81-7.28-9.81-8.4-4.11-4.56-8.85-10.82-11.87-16.15-.71-1.24-4.51-8.3-3.93-9.07l1.97,1.02,13.23,11.38-4.4-7.41-.4,1.01c-.44.03-.81.03-1.21-.19-.82-.45-5-9.28-5.13-10.52-.07-.62.04-.93.52-1.34.78-.67,1.57.67,1.41-.55-.85-.6-4.26-5.17-3.6-5.81l5.2.8c-.44-2.51,1.98-5.74-1.19-6.8.16,1.16-.83,1.36-1.17,1.92-.07.12-.96,3.39-1.61,1.03-.25-.89.75-3.69.75-4.81,0-1.18-4.31-5.56-5.35-6.98-3.3-4.48-6.3-9.81-8.85-14.77-4.41-8.59-8.57-18.28-9-28.03-6.47-.43-6.35-1.11-5.42-6.81.61-3.74,1.79-7.31,2.62-10.99-1.07-.48-1.63,1.27-2.92.94-2.13-.53-2.13-5.73-1.92-7.38.1-.73.71-.5.81-.86.27-.9.17-2.67.41-3.71l-4.5,12.91-2.7,5.9c2.29-5.81,3.33-11.95,5.09-17.92,1.97-6.66,6.08-16.06,7.23-22.41.49-2.68-1.57-4.98-1.4-6.65.08-.8,1.27-2.26,1.63-3.51.94-3.29,2.53-18.75,4.36-20.25,1.31-1.08,4.31.3,5.3,1.49.12.05.6-.94.6-1,0-2.01-.2-4.48,0-6.4ZM250.45,178.41c2.79-2.91,5.45-1.61,2.34-6.82-3.28-5.51-9.64-4.74-14.5-8.72-5.6-4.58-7.32-14.09-13.47-17.75-2.57-1.53-7.78-3.02-10.74-3.27-9.16-.76-16.45,5.32-24.61,8.41.95,3.64,6.75,8.12,10.43,7.02.7-.21,1.44-1.06,2.23-1.37,2.96-1.16,10.72-3.15,13.36-1.05,2.5,1.99-5.15,5.07-6.7,5.31-2.38.37-8.11-.75-9.13-.34-2.93,1.18-4.63,7.13-.98,8.45.12.62-.57.45-.97.38-2.92-.57-3.03-4.31-2.25-6.6.45-1.32,1.77-2.06,2.02-3.38-2.69-.4-4.94-2.02-7.17-3.44l-2.84-2.56c.02,1.36.07,2.67-.18,4.02-.23,1.22-4.13,10.09-4.82,10.79-.88.9-3.32,1.74-3.72,3.08-.76,2.54,1.74,3.54,1.04,5.84-.27.88-2.59,2.71-3.03,3.79-2.64,6.6-3.73,15.51-6.3,22.12-1.78,4.6-6.75,5.4-2.45,11.06,1.26,1.66,7.2,5.58,9.24,5.77.99.09,3.48-.36,4.31-.82.51-.28.6-1.24,1.09-1.81,2.12-2.41,4.12-4.94,6.41-7.2l-5.51,2.1-1.69.1c-1-.91,3.75-2.06,4.27-2.33,2.65-1.35,5.96-3.86,8.13-5.88-.59-.44-1.81-.2-1.6-1.4,3.95.45,4.51-1.83,6.8-3.81,9.72-8.41,17.78-13.84,29.48-19.35,1.44-.68,10.66-4.8,11.35-4.06.4,2.69-1.71,1.99-3.2,2.6-12.61,5.19-24.24,12.27-34.56,21.08-.35.3-1.3.78-.08.72,7.48-1.51,13.44-6.31,20.21-9.41,4.04-1.85,8.79-3.53,13.13-4.49,2.73-.6,10.55-1.04,12.38-3.03.71-.76,1.38-2.82,2.26-3.74ZM213.88,155.86c-3.16-.36-7.1.22-10.11,1.29-.5.18-1.81.52-1.89,1.1,3.99.89,8.98.62,12.01-2.39ZM248.15,188.03c-.55-.45-2.2-1.63-2.76-1.85-1.53-.6-7.24.25-9.18.61-9.36,1.71-15.8,7.11-23.13,12.69,7.36-.21,12.54-4.77,19.59-6.22,5.72-1.17,11.58-.68,16.83-3.79-.26-.38-1.03-1.18-1.35-1.44ZM205.08,200.69c-7.61.36-10.59,5.8-15.2,10.61-2.45,2.55-5.05,4.96-7.62,7.39,9.35-2.56,16.57-10.99,22.82-18ZM320.76,270.34c-5.71-1.9-8.79-7.86-11.28-12.94l-1.52-5.07c-3.28,7.31-9.06,13.97-15.26,18.97-6.91,5.57-17.57,11.61-25.7,15.12-1.47.64-6.87,1.91-7.5,3.01-.59,1.04-.1,2.63-1.48,3.52l2.51,3.4,1.8-4.18c-4.06-1.81-.83-3.22,1.59-1.2,1.47,1.22,2.35,6.1,2.72,8.09,1.07,5.88,1.54,11.88,2.63,17.78,1.09,5.9,2.54,11.7,3.88,17.54,1.04.18.62-.15.83-.57.86-1.68,1.42-3.96,2.29-5.71,5.95-11.99,23.76-41.67,33.29-49.97,3.48-3.04,7.84-4.77,11.21-7.8ZM229.41,294.43c-.15-.23-1.08-.35-1.5-.7-1.58-1.31-3.05-2.87-4.63-4.18-4.51-3.71-9.54-6.81-13.79-10.82-1.65,6.4-2.2,13.32-3.73,19.69-.27,1.15-.66,1.97-1.32,2.92l15.06,39.83,1.79-10.01c3.16-9.14,3.98-21.47,7.38-30.25.48-1.24,1.96-2.78,2.51-4.09,1.08-.62,2.99,1.16,3.73,1.92l.6-2.4h1.2s.4,1.6.4,1.6l1.2-2.2c-1.59-.38-7.81,1.43-8.63.21-.26-.39-.04-1.18-.26-1.53ZM308.34,295.95l4.82-7.02-1.62-8.18c-.67-.11-.44.97-.41,1.41.15,2.69,1.18,5.42.81,8.19l-.8-2.8-.79,2-.81-5.6c-2.66,1.62-.19,5.46-.8,8l-1.2-5.6c-.46-.13-.58.46-.61.79-.15,1.35.43,5,.67,6.56.08.53.14,2.17.74,2.25ZM301.14,306.76l6.34-9.91-1.53-8.1c-.74.83-2.98,3.39-3.14,4.3-.33,1.85,1.35,6.3,1.14,8.51-.72-.41-1.09-2.1-1.31-2.89-.35-1.27-.6-2.61-.69-3.92-.93-.23-.66.19-.91.51-.29.37-1.31,1.87-1.4,2.2-.19.74.53,7.08.73,8.29.08.47.24.95.78,1.02ZM242.3,292.75c-2.89.01-6.35-.07-9.14.68-.71.19-1.04-.12-.86.92,2.73-.68,5.78-.52,8.57-.83.39-.04,1.5-.18,1.43-.76ZM255.91,293.15l-6.4,1.19c2.22.04,4.25-.45,6,1.2l.4-2.4ZM265.12,307.16l-2.2-11.2c-.41.58-1.51.81-1.74,1.46-.14.39-.55,7.9-.41,8.29.95,1.04,2.98.96,4.35,1.45ZM297.15,312.76c1.43-1.26,1.98-3.49,3.12-5.06l-2.12-8.14c-3.93,3.7-.94,8.57-1,13.2ZM293.54,319.57c.82-.72,3.45-5.47,3.45-6.2,0-1.36-2.58-6.1-2.26-8.21-4.48,3.57-1.18,9.55-1.19,14.41ZM291.13,325.17l2.26-5c-1.24-2.96-2.2-6.16-2.26-9.41-.86.82-2.71,3.52-2.74,4.58-.05,1.39,1.45,7.58,1.93,9.24.17.58-.23.7.81.58ZM232.69,311.16c-1.67.72-4.32.84-4,3.2,1.2-1.36,4.25-.97,4-3.2ZM252.31,311.56c-.93-.25-.67.22-.92.51-.32.37-2.93,3.67-2.68,3.89l3.99-.81-.4-3.59ZM219.49,346.79l-12.4-33.06-2.54.73c-1.65,7.6-5.79,14.72-5.08,22.72,1.86-.16,3.3-3.65,4.71-.91,1.53,2.98-.48,7.02-.99,10.03-.42,2.47-.52,4.94-.86,7.41.76,2.2,3.43-.25,4.55,1.08.52.63,2.04,7.8,2.58,9.43,2.58,7.76,6.47,15.24,10.5,22.32l8.72,13.49c-.11-1.23.54-2.29.76-3.45.64-3.44,1.62-9.86,1.63-13.22,0-1.34-1.34-1.84-.61-4.16.17-.54.85-1,.95-1.47.14-.69-.4-1.48-.34-2.29.07-1.03.63-2.11.45-3.24.12-.85-.89-.52-1.44-.96-1.35-1.07-1.45-2.12-1.35-3.77.14-2.2,1.12-6.88,1.77-9.05,2.05-6.91,8.24-12.66,8.19-20.42-1.24.95-3.04,1.16-3.58-.57,1.7-1.77,6.38-4.9,5.88-7.67-.07-.38-.85-.42-.97-.67-.75-1.53-1.71-2.97-2.33-4.29-.6-1.3-.89-4.84-1.17-5.24-.35-.5-1.53-.19-2.03-.77-.69-.79-.48-3.45-1.79-4.01l1.2,4.8-1.19-.8-6.41,32.02c-.74.18-.78-.25-1.13-.66-1.47-1.69-1.99-4.41-3.47-6.14l-1.05,2.75-1.15.05ZM286.73,335.18c-.16-2.46,3.58-7.03,3.58-9.01,0-1.47-3.5-6.56-2.78-9.01l-1.2,1.41,1.6,11-1.72-3.28-1.09-5.52c-.71.26-1.2,1.98-1.22,2.6-.08,1.78,1.37,8.54,1.97,10.46.17.53.14,1.22.85,1.34ZM240.7,325.97c.86-2.25-.29-5.17-2.39-6.4.3,2.14.34,5.14,2.39,6.4ZM227.86,322.39l-1.2.21c-.47.92-.24,1.63.04,2.56,1.7-.13,1.8-1.51,1.17-2.77ZM284.74,339.58c2.42-2.28.52-3.97-.12-6.09-.86-2.87-1.14-5.88-2.08-8.72l-1.02.67c.21,4.88,2.15,9.44,3.23,14.14ZM226.29,349.19l3.12-16.62c-.11-2.21-1.7-3.73-2.92-5.4-3.1,3.14,1.07,5.08,1.4,8.4l-2.8-4c-2.84,2.75,1.43,6.57,2,9.61-1.59-.96-2.55-2.71-3.2-4.4-2.88,2.9,1.61,6.94,2.4,10.01l-4-4.6c.62,2.13,1.92,4.63,3.11,6.49.25.39-.04.71.9.52ZM284.33,342.78c.88-2.26-1.47-4.68-2.01-6.99l-2.38-8.22c.01.66-.63,1.27-.69,1.85-.14,1.43,2.92,9.1,3.69,10.95.28.67.76,2.08,1.39,2.4ZM235.49,353.19c-1.62,1.53-2.81,4.99-3.39,7.21-.35,1.35-1.24,3.31,0,4.39,3.08-3.03,2.01-7.79,3.4-11.6ZM239.9,372.8l.4-7.6c-.58-.09-.56.71-.67,1.12-.41,1.46-1.19,4.71-.63,5.99.25.57.1.61.9.5ZM233.1,366h-2.4c-.14,2.02-.88,3.36,1.4,4.4l1-4.4ZM247.51,372.4l-1.62.67c.67,3.25-2.65,8.01,2.42,8.13.7-2.4-.8-2.25-.8-2.4v-6.4ZM260.25,390.08c-.09-.14-2.89-1.5-3.13-1.26l1.6,7.6.82-3.71c.93-.28,1.12-1.96.71-2.63ZM231.89,397.62c.43-2.47,1.61-4.43.4-6.8l-.79,4.61.39,2.19ZM238.7,401.42c.44-1.49-.32-4.86,0-6.6l-2.27,6.66.87,1.75c.13-.6,1.35-1.62,1.41-1.8ZM258.71,411.23l-.1-1.7-1.9-5.9.8,7.61h1.2ZM249.1,420.43c-.76-2.55-1.52-5.23-2.5-7.7-.17-.42-.12-1.19-.69-1.1l-.33,3.31,3.52,5.5ZM239.1,420.84l-2.2-4.8c-1.89.78,1.09,4.35,2.2,4.8ZM257.11,428.04l-.51-4.88-1.48-5.52.52,4.88,1.47,5.53ZM241.5,432.04l.71-2.54-3.1-4.27c-.02.71.97,7.94,2.39,6.8ZM236.29,432.04c-.04-2.32-1.72-4.64-4-5.2l4,5.2ZM249.42,433.73l-2.92-2.48c-.3-.06-.26.39-.19.59.54,1.72,2.76,4.75,3.99,6.21l-.88-4.32ZM326.76,486.48c-.58-.49-5.2,4.31-6.84,2.23-1.16-1.47.87-4.51.83-6.24-3.31,1.55-1.81,7.95-2.39,11.21,1.52-.41.17-2.69,1.19-3.2v19.83s1.22,23.58,1.22,23.58v23.83s15.6-2.8,15.6-2.8c-.58-5.33.78-12.26-.03-17.39-.32-2.02-2.93-6.59-3.69-9.12-.7-2.33-1.66-6.17-1.89-8.53-.04-.43-.24-1.1.39-.99,1,2.32,2.35,4.45,3.51,6.7.49.96.52.79.51-.11-.07-6.52-2.49-15.65-3.92-22.1-.37-1.66.06-3.65-1.09-5.31l-4.81,4.39c-1.41.02-1.04-5.51-.95-6.55.29-3.13,1.47-6.45,2.35-9.45ZM317.15,488.88l-1.76.38-.84-1.18c-1.95,2.44-4.15,4.66-6.4,6.81-1.16,1.12-5.23,4.02-5.84,4.96-.48.74-.41,1.41-.37,2.23,3.59-2.55,6.3-6.17,9.81-8.8,1.08-.81,4.57-2.55,4.99-3.01s.48-.76.4-1.4ZM354.38,498.09l-.79-8c-1.69,2.61-.15,5.17-.4,8h1.2ZM317.55,491.69c-1.45-.1-1.45,1.63-2.17,2.43-.46.52-1.22.74-1.63,1.17-3.28,3.53-6.36,7.81-10.91,9.71l.1,3.5c2.63-2.56,5.12-5.32,8.02-7.6.53-.42,4.7-3.48,5-3.21-1.78,2.03-3.23,4.37-5,6.41-1.33,1.52-7.12,6.76-7.4,8.21-.32,1.64.11,3.82.59,5.39,3.48-3.55,7-7.16,11.41-9.6l-4.59,6.01c-1.19,1.32-5.95,5.41-6.4,6.41-1,2.21.6,6.34.2,8.8l7.2-7.01,4.41-3.39c-2.75,5.83-8.05,9.81-11.52,15.09l.42,15.88c.41.98,2.46.95,1.92,3.2l-4.43,1.26,4.23,3.02.11.5c-.96,2.53-1.72,2.5-4.34,2.29,1.97,3.58-1.41,1.15-2.13,1.27-.44.08-1.08.87-2.1,1.1-3.04.7-6.56.15-9.58.43-3.27.3-6.49,1.34-9.81,1.2.72,1.02,3.28,1.03,4.61,1.19,2.74.33,5.66.6,8.41.8,2.51.18,8.98-1.26,6.19,2.6l-32.01,7.81c6.91-.35,14.18,2.49,21.01,2,5.53-.4,13.49-2.45,19.02-3.79,1.89-.46,12.06-2.91,12.62-3.8.53-1.28-.5-2.43-.62-3.8-.36-4.18.16-8.95.02-13.23-.46-14.59-.55-29.03-.4-43.6.07-6.23-.03-12.42-.42-18.63ZM348.38,506.1c-.16,1.21-1.22,3.2-2.6,1.99-.83-.73-3.31-5.63-3.88-6.93l-3.13-9.07c-.05,1-.94,2.91-.82,3.75.04.27.74.22.81.52.35,1.49.21,4.61.41,6.33.92,8.14,2.11,16.24,2.82,24.4l-.42,2.62-3.2-32.62h-.8s3.26,36.77,3.26,36.77l.55.65c.4-1.2,3.27-.41,3.41.22l-2.01,2.99-.59-.8-.6,1,4.01,24.01-1.2.2-1.61-6c-.58,8.26,2.46,15.57,4.39,23.38l-.98.63-2.6-5.6c-.25,4-4.03,14.53-7.89,15.93-2.88,1.04-.11-2.63.68-3.32-1.7-.17-3.54,2.04-5.07,2.93-6.78,3.92-22.92,5.32-31.16,6.07-4.45.41-9.63-.03-13.97.44-.39.04-1.51.18-1.43.76,2.97.26,5.7,1.57,8.65,1.96,6.55.87,12.68-.59,19.15-.77,3.72-.1,7.27.39,10.81.44,1.94.02,12.98-.42,13.55-.06.93.58.42,1.88-.32,2.45l-6.41,2.8,18.23-3c1.02-.04.8-1.04,1.15-1.52.29-.39.91-.47,1.04-.69.3-.5-.23-1.14-.14-1.72.15-.92,1.39-2.2,1.46-2.97.06-.73-1.31-1.39-1.46-2.41-.46-2.99,3.33-5.3,4.68-7.58-1.91-2.71-3.92-4.69-4.36-8.34-.45-3.82,1.04-3.61,1.23-5.18.22-1.78-.21-3.99-.03-5.83l-1.62-.25c.14-3.31-.11-6.65,0-9.97.51-14.63-.16-28.16-1.19-42.81l-.79-5.81ZM507.29,530.11c-7.96-2.3-16.76-5.66-24.81-1.81,3.86,3.96,9.13,1.24,14.22,1.38,2.78.08,7.65,1.51,9.99,1.23.55-.07,1.19-.26.6-.81ZM466.06,527.31l7.02,5.61c2.5,0,2.6-2.52,4.18-3.81,0-1-9.92-2.27-11.2-1.8ZM462.46,530.11c-3.17-2.93-6.88-.86-10.4,0,.23,1.14,2.29,0,2.6,0h7.81ZM481.67,530.52c-2.23-1.17-3.71-.95-5.2,1.19l5.2-1.19ZM534.51,532.12c-5.19-1.63-10.98-3.2-16.41-2l13.45,2.35,2.95-.35ZM500.29,532.11c-2.92-.29-6.24.21-9.21,0l-.56.63.36,1.77h9.81c.15,0,2.82-1.54,2.2-2-.95.37-1.97-.34-2.6-.4ZM422.23,534.11c3.24-.18,6.73,0,10.01,0,.27,0,2.03,1.11,2.2,0-3.45-.82-6.63-1.47-10.22-1.22-.44.03-5.43.5-4.18,1.62.79.35,1.76-.37,2.2-.4ZM463.26,532.91h-8.61c-1.05,0-4.83,1.14-6.06,1.55-1.06.36-.93.53.06.46,3.83-.27,7.66-1.46,11.55-1.26l3.05-.75ZM516.5,535.31c-1.09-1.79-2.66-2.73-4.8-2.4-.24,1.04.31.7.76,1.03,1.32.98,2.33,1.97,4.05,1.36ZM530.91,534.52c-4.67-.62-9.24-1.99-14.01-1.6,1.84,3.38,6.24,1.56,9.43,1.58,1.14,0,2.08.37,3.17.43.44.03,1.52.26,1.41-.41ZM578.14,541.32c-9.66-4.57-20.13-6.85-30.82-5.2.24.75,1.13,1.06,1.83,1.17,2.92.46,6.87-.2,9.98.03,5.55.41,11.69,2.36,16.51,5.12l2.51-1.12ZM432.84,536.12c-4.2-.25-8.36.29-12.41,1.39,3.15,4.24,9.08,1.07,12.41-1.39ZM435.64,536.92c-1.28-.62-1.66.03-2.8.41l.81,1.99c1.05-.35,2-1.19,1.99-2.4ZM461.26,537.72c-5.23.14-10.7.88-15.69,2.52-.61.2-2.09.52-2.32,1.08l18.01-3.59ZM419.23,541.31l-2.66-2.72-4.95,1.53,3.11,1.13,2.09-.34-.41.79,2.81-.4ZM531.51,538.52c-3.86-.38-8.28.28-12.21,0-.09.7.91.38,1.4.4,4.53.17,9.14.27,13.61.8.32-.71-2.39-1.16-2.8-1.21ZM613.57,539.32c-2.06-.21-4.66,0-6.8,0-.07,0-1.17.39-1,.8l25.41,7.21c.19-.7-1.12-1.3-1.59-1.61-3.96-2.64-11.31-5.92-16.02-6.39ZM572.54,543.33c-6.72-2.78-13.92-3.99-21.21-3.6l5.52,3.48c4.45,1.1,8.8,2.31,13.46,1.7.41-.05,2.9-.83,2.22-1.57ZM552.52,542.53c-2.48-1.14-3.88-2.59-6.8-1.6,1.6,1.44,4.52,2,6.6,2.4l.2-.8ZM590.55,541.72h9.21l-4.2-.83-5,.83ZM412.42,542.52l-3.71-1.14-6.7,3.13c3-.06,6.95-.32,9.82-1.18.58-.17.7.22.58-.81ZM538.9,542.13c-3.08.81-5.97-.95-9.19-.4l4.6,1.59c.24.41.37,1.6.15,1.96-.25.4-1.96.06-1.95.84l4.63.68c.92-1,1.38-2.2,2.97-2.28l-1.21-2.39ZM482.47,543.32l-6.4-1.2c-.27,1.09.82.9,1.52,1.07.99.23,2.46.49,3.47.55.44.02,1.52.26,1.41-.41ZM548.52,543.72l-4.8-1.2v1.59c1.54-.25,3.82,1.36,4.8-.39ZM448.05,542.92c-2.27.4-4.57.83-6.8,1.4-.45.12-1.3-.02-1.2.59,2.92-.06,6.02.71,8-1.99ZM521.7,545.73l-23.82.4-.59.8c7.46.58,14.37,1.14,21.76-.45l2.66-.74ZM600.56,546.52c-.52.5,3.32,6.16,4.2,6.81.72.53,5.72,2.81,6.6,3.04,1.4.37,1.78-1.56,1.45-2.66-.95-3.12-9-6.99-12.24-7.19ZM616.56,553.33c.68-4.21-3.93-5.86-7.2-6.8l7.2,6.8ZM547.45,548.39c-.21-.13-.37-.78-.76-1.02-1.13-.69-4.04-.83-4.57.56-.28.74.41.58.79.79,4.71,2.62,11.09,3.84,16.42,4.21.09-.59-.7-.53-1.12-.67-3.6-1.22-7.47-1.87-10.76-3.86ZM624.17,555.33c1.55,3.61-.33,7.11,1.6,10.63,4.6-.97,8.55-3.07,6.5-8.52-1.33-3.55-11.88-10.68-16.1-10.11.6,1.13,2.01,1.73,2.32,3.08.38,1.66-.44,4.18-.03,5.2.57,1.41,3.49,3.75,4.12,5.53.6.55.44-.44.41-.81-.1-1.45-.72-2.84-.35-4.33l.31-.48,1.22-.18ZM530.11,548.13c-4.2.02-8.89,0-13,.8-.58.11-1.24,0-1.41.79,4.04.04,8.16-.22,12.15-.85.53-.08,2.17-.14,2.26-.74ZM579.34,548.93c-1.82-.35-3.18-.44-5,0-.6.15-.71-.29-.6.79l1.75.37,3.85-1.16ZM420.43,550.53c-3.82.76-9.65-.8-12.41,1.99,3.45-.76,7.09-.67,10.55-1.25.47-.08,1.86-.12,1.85-.74ZM529.7,550.93l-7.6.99,2.55.56,5.05-1.56ZM374.39,551.73c-3.85-.02-8.39.6-12.09,1.71-.5.15-1.84.48-1.91,1.08l10.98.83c.38-.07.15-1.23.59-1.85.74-1.06,2.58-.4,2.43-1.77ZM539.71,552.13l-10,1.8c1.53,2.59,4.6.08,6.9-.3l3.1-1.5ZM546.92,553.72c-1.81-1.75-3.98-2.13-5.2.4l5.2-.4ZM635.24,554.67c-.41-.45-3.89-2.88-4.26-2.54,4.42,3.98,6.48,11.15.27,14.48-.77.41-4.11,1.37-4.27,1.54-.82.85,1.18.8,1.42,1.17.28.41.15,1.13.18,1.63,2.12-1.51,5.99-4.02,6.89-6.51.79-2.19,1.37-8.01-.24-9.76ZM596.48,553.79c-.56.14-3.47.03-3.12.93.33.84,1.94,2.22,2.56,3.04.5.65,1.53,2.79,1.83,2.99,1.16.74,3.76-1.13,5.19-1.04-.13-2.49-2-5.58-4.78-5.59l.6,2-2.28-2.33ZM374.6,556.13c1.99.28,5.06,0,7.21,0,.27,0,2.23-.31,2.81-.39s1.23-.06,1.39-.81l-12.41.4c-.15.4.83.77,1,.8ZM595.75,561.73c.26-.34-4.32-6.37-4.8-6.61-.79-.39-3.85.12-4,.83l3.6,6.81,5.2-1.02ZM523.7,556.92c-1.27-2.47-4.73-.34-6.95-.39-.99,3.24,5.12.23,6.95.39ZM537.68,556.16l-8.38,2.16c-.67.5-.34,1.83-.39,2.61l9.21-3.21-.44-1.56ZM572.94,556.53h-9.01c-1.17,0-2.58-1.44-1.78,1.58.44.42,5.94-1.84,5.99,1.22l4.8-2.8ZM588.15,562.93c.31-.3-2.79-7.95-4.39-6.8l-.37,1.73c2.08,1.37,2.37,2.71,1.57,5.06h3.2ZM510.89,558.93l-1.04-1.5-2.96.3v1.2s4,0,4,0ZM620.17,561.33l-3-4-1,1.39,4,2.61ZM503.29,559.33c-.76-1.49-2.63-1.21-4-1.19l.67,1.13,3.33.07ZM622.17,566.93c.16-.59-.16-.67-.39-1-.71-1.05-6.7-5.85-7.61-5.59-.2.06-1.56,1.06-1.6,1.21,1.43,3.47,8.01,1.36,7.61,6.19l2-.81ZM510.89,561.33c-.42-.1-4.12-.09-3.6.99,1.23,1.53,3.78,1.16,3.6-.99ZM352.38,591.75c2-.74,4.1-.15,6.11-.49,3.35-.57,8.86-3.07,12.78-4.04,6.21-1.53,13.96-3.23,20.25-4.17,2.63-.39,6.64-.14,8.83-.78,1.71-.5,4.88-2.92,7-3.81,4.07-1.71,12.44-2.69,14.85-6.36.26-.4,2.78-5.26,2.87-5.56.49-1.62-.97-3.4-2.48-3.9l-6.34.7c-8.2-2.26-14.76-.78-22.84-.02-4.11.39-8.73.29-12.76.85-3.64.5-6.97,2.21-11.31,2.33-1.62.05-2.26-1.65-5.13-1.15-2.15.38-3.02,2.65-4.05,2.79l-6.18-.81c.52,5.65,2.49,10.97,3.49,16.55.16,1.8-6,6.83-5.09,7.86ZM546.52,562.14l-12.91,4.09-4.7,2.7c4.41.48,8.17-2.3,12.15-3.65l5.46-3.14ZM569.33,563.74c-3.12.48-6.95,1.33-6.8,5.2.37.35,5.36-3.29,5.96-3.84.44-.4,1-.59.84-1.36ZM556.52,564.14c-.4-.33-5.73,3.27-6.4,4,1.94-.59,3.92-1.9,5.61-3.01.19-.13,1.57-.36.8-.99ZM603.76,564.94c-5.14-2.24-6.34,1.25-1.42,3.19l1.42-3.19ZM616.57,567.74c-1.43-.36-2.11-1.77-3.52-2.29-1.25-.46-6.85-1-7.49-.13-.43.59-.79,3.25-1.75,4.15l1.73,2.13c.92-.35,2.7-.29,3.41-.88,1.45-1.21,1.38-5.51,5.41-1.5l2.21-1.49ZM494.88,565.34c-1.64.49-3.75-.08-4.79,1.4,1.75,1.91,4.21.94,4.79-1.4ZM339.17,574.94v-7.41c0-.19-.5-.62-.41-1h-.39c-.41.89.4,2.16.4,2.6v5.8h.4ZM590.14,566.93l-4.78.83-1.22,6.78,7.18-.81-1.19-6.79ZM596.91,568.18l-5.16-1.24c1.08,2.43.78,6.32,4.61,4.8l.55-3.56ZM583.34,568.94l-2.38.62-6.43,6.58c5.56-.66,8.57-.63,8.8-7.2ZM552.79,575.2c.72-.67,2.31-3.18,2.86-4.14.2-.35.87-1.01.28-1.32-3.79,2.58-7.69,4.49-9.81,8.8.29.25,6.05-2.77,6.67-3.34ZM622.97,570.54c-.85.16-1.77-.31-2.55-.26s-6.32,1.28-5.06,2.66c2.14-.76,5.1-.59,7.1-1.5.54-.25.63-.03.51-.89ZM572.94,571.34c-1.99-.36-3.71-1.59-4.8.79l2.92,1.16,1.88-1.95ZM432.44,570.94l-6,3.59c3.17-.1,4.44-.9,6-3.59ZM602.16,571.34c-.24-.26-3.9,1.6-3.6,1.99,1.04.29,1.92.64,2.93.03l.67-2.03ZM512.89,573.74c.94-2.34-2.98-2.64-3.6-1.39-.38.77.8.64,1.21.77s2.29.73,2.39.62ZM595.76,578.54c5.05.12,9.58-2.03,14-4.2-.78-1.1-2.45-.18-3.5.1-2.45.64-7.4,1.93-9.53,2.88-.6.27-1.12.42-.97,1.23ZM442.05,575.34c-1.61.07-3.86-.51-4.81,1.2h4.81s0-1.2,0-1.2ZM511.29,577.74c.87-1.16-4.85-2.41-5.6-2.39,2.09,2.6,1.81,4.29,5.6,2.39ZM417.63,580.95l-7.82,2.38-4.19,2.01,10.55-1.65,1.46-2.74ZM596.95,583.35c-1.78-.29-5.79-.95-7.33-.03-.36.22-.7,1.14-1.28,1.62-.75.63-4.04,2.62-4.18,2.84-.07.12.64,1.96-.03,2.77,4.47-1.81,9.75-3.22,12.81-7.2ZM586.95,583.35c-5.49-.08-11.04-.06-16.41,1.2.18.85,1.53.36,1.15,1.74-1.17.68-2.71,2.61-3.67,3.15-3.7,2.06-9.65,1.79-13.6,2.81-.58.15-1.33.46-1.49,1.1,6,0,11.46-.87,16.96-3.26,1.16-.5,6.16-3.45,6.53-3.49.93-.09,1.32,1.15,1.37,1.9l3.16-.96c-.88-.82-2.27-1.06-2-2.6,1.47-.59,3,1.6,4.03,1.41,1-.18,3.28-2.11,3.97-3.01ZM528.91,585.35c.69,1.23,4.91,2.43,4.71.19-.16-1.81-3.67.05-4.71-.19ZM453.65,589.75c-1.67-.75-1.12.31-1.89.81s-2.11.55-2.51,1.58l3.99.38.42-2.78ZM577.74,591.35c-3.45.69-6.99,1.33-10.4,2.21-.45.12-1.3-.02-1.2.59,3.88.62,7.1-.88,10.67-1.95.66-.2,1.13.32.93-.85ZM503.69,593.36c-2-.24-4.19-.66-6.21-.41-.55.07-1.24.28-.6.8l3.4.44,3.4-.83ZM452.45,594.56c-2.23.2-4.87-1.2-6.96-1.16-.57.01-6.25,1.04-6.25,1.36,3.01,1.63,7.21.97,10.56.55.58-.07,2.42-.21,2.65-.75ZM538.48,596.59c-.2-.19-3.77-.52-4.37-.03,1.56,1.75,3.9,1.79,2.8,4.8h5.2s-2.98-2.42-2.98-2.42c-.66-.42-.51-2.22-.65-2.36ZM367.99,600.16c.15.72.79.75,1.39.81,5.06.54,10.53.42,15.64.8,2.47-1.1,6.8,1.03,7.32-2.23-.05-.48-1.11-.65-1.53-.79-1.46-.5-8.06-1.98-9.41-2.03-1.08-.04-1.84,1.08-2.81,1.43-3.01,1.07-7.4,1.32-10.6,2.01ZM591.35,596.96l-3.81.78-3.39,1.61,4.31-1.09,2.89-1.31ZM460.85,599.36c-2.88-1.44-5.37-.08-8.19.01-3.65.12-7.53-.55-11.02.58,1.04.66,3.4.95,4.61,1,3.53.16,8.78.09,12.22-.58.59-.11,2.22-.35,2.38-1.02ZM473.87,603.76c3.15.44,8.21,0,11.61,0,.14,0,.59-.53,1-.41-1.02-1.22-1.01-1.57,0-2.79l-6.8-.4c3.21,5.23-4.13,2.47-6.8,2.8-.15.4.83.77,1,.8ZM422.03,601.76c.12-1.11-.88-1.34-1.78-1.21l-3.42,2.01,5.2-.8ZM521.7,600.56l-2.01.18-3.59,1.81c1.77-.18,4.36-.69,5.6-1.99ZM409.22,602.96c-4.05-.34-7.65-1.51-11.61.2,3.28,1.14,6.81,1.26,10.21.6.58-.11,1.24,0,1.41-.79ZM426.02,602.57c-2.41-.12-4.85.02-7.21.57-.37.09-3.24.58-2.39,1.41,5.65,1.44,11.33,3.06,17.21,3.2l-.43-2.37-6.79-1.01-.39-1.81ZM530.11,602.96l-7.77-.37-5.44,1.97c4.17-.42,8.46-.3,12.62-.79.6-.07,1.22-.32.59-.8ZM544.92,602.56c-2.69.61-6.36.17-7.79,2.81l-3.41,1.99c2.97-.53,6.32-1.41,9.01-2.79.28-.14,2.9-1.39,2.2-2ZM460.46,604.16c-.84-.06-1.65,0-2.49.11-.4.05-1.6.11-1.51.68l3.59.81.41-1.6ZM527.7,605.37c-1.84-.34-3.68.35-5.39.41-5.34.19-11.18-.44-16.43-.02-.47.04-1.79.12-1.8.8l12.22.42,11.39-1.61ZM440.44,607.36c-.9-1.97-3.43-.99-5.2-1.19,1.11,2.31,3.13,1.59,5.2,1.19ZM455.25,607.37c-2.38.59-6.14-.79-8.2-.4-.69.13-1.13.43-1,1.2l2.58.42,6.62-1.21ZM476.87,608.57l-8-.8,4.63,1.97c.93-.22,2.87-.25,3.37-1.17ZM512.49,610.57l-16.01-2c.21.64,1.83.77,2.47.92,3.43.81,7.39,1.3,10.92,1.49.54.03,2.5.29,2.62-.41ZM459.66,615.37c-.16-.8-.82-.69-1.4-.8-5.85-1.11-5.88-1.27-10.9-3.91-2.88-1.52-3.75-.42-6.51.31-.51.49,5.05,2.79,5.62,2.98.89.29,4.77,1.42,5.39,1.42h7.81Z"/>
    <path d="M243,132.71c2.35-.45,7.13,2.59,7.29,4.95.22,3.27-2.45,7.26-5.49,8.48-7.38,2.97-9.48-11.95-1.8-13.43Z"/>
    <path d="M318.72,343.94c-3.84.48-2.22-6.32-1.69-8.7,1.26-5.7,3.88-12.08,7.73-16.48-1.43,5.64-3.83,11.16-4.93,16.88-.55,2.88-.6,5.47-1.11,8.29Z"/>
    <path d="M355.58,385.21l4.46,12.55c1.1,2.38,2.39,4.66,4.34,6.46-1.98,1.87-4.31-1.01-5.36-2.64-1.09-1.69-3.44-7.92-3.44-9.77v-6.6Z"/>
    <path d="M380,412.83c-2.76.37-5.21-3.15-6.47-5.33-2.19-3.79-2.99-7.92-3.13-12.27l4.88,10.13c1.11,2.84,4.81,4.36,4.72,7.48Z"/>
    <path d="M338.37,368.4l1.19-1.2c-1.12,4.14.43,8.42-.45,12.35-1.82.59-1.85-.83-2.23-2.26-1.18-4.45.1-8.2,1.09-12.49l.4,3.6Z"/>
    <path d="M327.97,343.59l.41,3.82c-.63,1.46-.22,8.89-2.17,8.57-2.32-.38-.35-7.75.24-9.3.41-1.09,1.39-1.87,1.52-3.08Z"/>
    <path d="M355.59,458.86c1.57-.21,3.24,2.18,3.51,3.49.37,1.77-.55,8.17-1.9,4.71-.41-1.04-2.08-7.7-1.6-8.2Z"/>
    <path d="M275.92,420.44c-.45,1.58-4.03,9.16-5.79,8.81-.67-.13-.64-.98-.4-1.59.89-2.24,4.32-5.6,6.19-7.22Z"/>
    <path d="M279.53,434.84c-1.67-1.7,5.84-4.82,7.2-4.8.69.68-3.94,4.17-4.57,4.43-.95.4-1.61.49-2.63.37Z"/>
    <path d="M332.36,368.8c-3.41.05-2.35-7.27-.2-8.8l.2,8.8Z"/>
    <path d="M364.73,462l-1.5.02-1.24-6.76c2.12-.13,3.96,6,2.74,6.74Z"/>
    <path d="M305.15,164.26c-.06,1.18.2,2.48-.18,3.63-.74,2.25-3.71,1.99-2.84-1.24.44-1.63,1.2-2.92,3.02-2.39Z"/>
    <path d="M344.38,383.61c-.38-.35-.95-7.45.79-8.01-.1,2.23,2.59,7.95-.79,8.01Z"/>
    <path d="M291.13,436.45c.78,2.22-5.04,5.48-5.59,3.37-.4-1.51,4.37-3.11,5.59-3.37Z"/>
    <path d="M303.86,189.79c-.34.29-3.45.83-3.5-.11.04-1.58,4.31-5.14,4.79-2.8.03.16-1.17,2.8-1.29,2.9Z"/>
    <path d="M215.48,122.23l-5.18,3.82c-.49.39-1.58.04-1.61-.42-.08-1.13,5.32-4.2,6.79-3.4Z"/>
    <path d="M307.95,147.45c.2,2.18-2.73,2.85-4.34,1.94l.17-1.98c1.45-.68,2.71-.18,4.17.05Z"/>
    <path d="M391.92,413.71c.2.34.06.76.09,1.12-3.56.47-3.64-2.95-4-5.6l2.8,3.81c.18.35,1.01.51,1.11.67Z"/>
    <path d="M291.54,226.3l-.18,1.22c-7.14,1.62-7.25-2.13.18-1.22Z"/>
    <path d="M299.13,201.49c1.59,2.03-3.07,4.34-3.59,2.58-.4-1.36,2.42-2.69,3.59-2.58Z"/>
    <path d="M291.4,215.53c.96-.12,3.38.34,2.94,1.76-.71,1.19-3.61.35-3.61-.79l.67-.97Z"/>
    <polygon points="285.93 243.92 285.76 245.14 285.27 245.46 281.53 245.11 281.72 243.91 285.93 243.92"/>
    <path d="M369.28,457.16c-.55-.7-.48-2.96-.49-3.9,1.43.76,2.92,2.95,1.4,4.39-.2-.31-.74-.27-.91-.49Z"/>
    <path d="M309.15,125.43c.34,1.95-1.09,2.5-2.8,2.4l.46-2.34,2.35-.05Z"/>
    <path d="M217.08,111.43l-3.18,2.22-1.21-.43c.57-1.95,2.8-1.91,4.4-1.79Z"/>
    <path d="M279.13,288.75c.24.21-3.53,4.56-4,5-1.14,1.09-3.27,3.16-4.81,3-1.04-1.04,3.91-5.07,4.84-5.77.51-.39,3.59-2.56,3.97-2.23Z"/>
    <path d="M274.72,286.75l-6,5.81c-.36.51-1.15-.14-1.21-.42-.28-1.4,5.27-6.22,7.2-5.39Z"/>
    <path d="M278.33,299.16c.46.42-3.82,4.47-4.57,4.83-1.7.8-2.69.37-1.17-1.17.65-.65,5.15-4.21,5.74-3.66Z"/>
    <path d="M274.33,311.96c.01-2.5,2.55-3.78,4.4-4.8.32.34-3.37,5.8-4.4,4.8Z"/>
    <path d="M306.35,537.71c-.17-.75.43-.95.8-1.4,1.24-1.51,2.94-2.9,4.4-4.2-.42,1.3-1.67,3.03-2.59,4.01-.7.74-1.4,1.8-2.6,1.6Z"/>
    <path d="M218.29,304.35c-1.95.59-9.11-4.22-8.81-5.79.13-.67.98-.64,1.59-.4,1.78.69,5.8,4.65,7.22,6.19Z"/>
    <path d="M214.68,307.96c-1.62.14-2.59-1.17-3.59-2.2l.79-.82c.7-.33,3.25,1.91,2.81,3.02Z"/>
    <path d="M215.48,293.95c.11.7-.91.4-1.3.3-1.12-.26-2.63-.92-2.69-2.31,1.97-.46,2.31,1.68,4,2Z"/>
  </g>
  <g>
    <path d="M85.17,659.84c-2.53.17-3.54-2.87-5.06-4.38-.84-.84-1.86-1.52-2.53-2.19-1.18-1.01-1.85-2.36-3.03-3.03-3.71-2.36-9.27-4.89-13.65-4.89-2.69,0-7.75,1.85-8.93,4.38-.34.51-.84,8.09-.84,9.1,0,1.69.5,3.2.84,4.72.17,1.85,0,3.54.34,5.23.67,2.36,2.19,4.04,3.04,6.07,1.01,2.53,1.18,5.06,2.19,7.42,1.68,3.71,4.38,6.74,6.07,10.45,1.35,2.87,2.53,6.07,3.54,9.1.67,2.19,1.01,4.55,2.19,6.57.34.84,1.35,1.52,1.68,2.53,1.18,3.2,1.01,6.74,1.69,9.94.34,1.52,1.01,2.53,1.01,4.04,0,2.02-.51,4.04-.51,5.9v7.25c0,3.88-.17,8.6-2.19,11.97-1.01,1.52-2.87,2.36-3.88,3.88-1.52,1.86-3.03,3.71-4.38,5.56-1.68,2.36-4.38,3.88-6.57,5.73-1.69,1.52-3.2,3.2-5.06,4.38-.67-.17-1.35-.34-2.02-.34-3.37,0-4.38,2.36-6.74,2.87-1.18.34-2.53,0-3.71,0-1.35,0-2.69.51-4.21.51-1.35,0-3.37-1.68-4.72-2.19-1.35-.67-3.03-1.01-4.21-1.85-.84-.34-1.18-1.18-1.86-1.68-.67-.34-1.52-.34-2.19-.84-3.2-2.36-8.76-7.75-8.76-12.14,0-1.85,1.35-4.04,3.37-4.04,4.05,0,6.07,8.26,8.93,10.62,1.69,1.18,3.71,1.18,5.23,2.53,1.01.84,5.22,3.03,6.57,3.03,2.19,0,4.38-1.18,6.4-2.19,4.04-1.69,5.9-2.53,9.1-5.56,3.2-3.2,6.57-8.26,6.57-12.81,0-6.07-3.2-12.98-4.38-18.88-.5-2.36-.34-4.72-.84-6.91-1.01-3.71-3.2-6.91-3.88-10.45-.51-2.02-.67-4.21-2.19-5.73v-.84c0-2.02-1.01-3.03-1.69-4.72-1.68-4.55-4.55-8.43-6.07-12.64-.34-.84-.51-1.69-1.01-2.53-.67-1.69-2.19-2.87-2.53-4.89-.34-1.35,0-2.7,0-4.04,0-1.85-.34-3.71-.34-5.56,0-4.89,1.35-12.64,4.72-16.35.17-.34.51-.51.84-.84.67-1.01.67-2.19,1.35-3.03l.84-.51c1.35-3.2,6.91-5.23,9.44-7.75h3.04c2.36,0,5.39,0,7.42-1.35,4.55.51,7.75,3.2,11.29,5.73,4.21,2.87,8.09,4.38,10.79,9.1.67,1.01,1.68,2.36,1.68,3.71,0,1.18-.67,2.19-1.68,2.7l-.51.17Z"/>
    <path d="M151.92,741.25c0,1.01.17,2.02.17,3.03,0,3.71-4.21,6.07-7.42,6.07-2.7,0-4.38-1.35-6.24-3.03-3.88-4.04-2.53-7.75-2.53-12.64,0-6.24-1.18-12.47-2.19-18.71-.67-3.88-1.52-6.57-3.54-9.94-1.18-2.19-2.19-4.38-5.06-4.38-3.2,0-6.58,4.89-8.77,6.91-2.69,2.36-3.71,3.71-3.88,7.42-2.19,2.19-3.71,4.72-4.89,7.42-.67,1.52-.5,4.72-.84,6.57-.34,1.35-1.01,2.7-1.35,4.21-.17,1.68-.17,3.37-.17,5.22,0,4.21.51,8.43.51,12.64,0,2.7-.51,4.21-2.36,6.07-1.52,1.35-4.89,3.37-7.08,3.37-1.18,0-3.54-.34-3.88-1.69h-.51c-2.87,0-2.87-10.79-2.87-12.47-.17-2.19-1.01-4.04-1.01-6.24,0-1.85.34-3.88.34-5.9,0-2.7-1.18-5.06-1.18-6.91,0-1.52.51-3.03.51-4.38,0-6.74-1.86-13.15-1.86-19.89,0-1.69.51-3.2.51-4.89,0-2.02-1.01-4.04-1.35-6.07-.17-2.36-.17-4.55-.17-6.91,0-5.56.5-11.29.5-16.85,0-1.85-.17-3.54-.34-5.39,0-1.52-.67-2.87-.84-4.21-.17-1.85.17-3.54.17-5.39,0-3.03-1.86-5.56-1.86-8.6,0-2.19.85-4.55.85-6.91,0-3.2-1.01-6.24-1.01-9.44,0-.84.17-1.85.67-2.7,1.01-.34,1.86-1.35,3.03-1.35,1.52,0,3.03.17,4.21,1.35,3.88,3.71,4.05,11.12,4.89,16.01.17,1.01.34,2.02.34,3.03,0,1.52-.34,2.87-.34,4.38,0,1.85,1.35,4.21,1.68,6.07.17,1.18.34,2.36.51,3.54.84,6.07.34,12.3.84,18.54.34,5.23.84,10.45.84,15.68,0,2.19-.5,4.21-.5,6.4,0,2.02,1.01,3.88,1.01,6.07,0,1.52-.51,3.2-.51,4.89,0,.67.17,1.52.34,2.19,3.2-.34,3.03-4.04,4.04-6.07,1.86-1.69,3.88-3.03,5.56-4.89,1.68-1.68,2.7-3.88,4.38-5.56,3.71-4.04,8.43-8.26,14.33-8.26,6.74,0,13.15,5.23,16.01,11.29.67,1.52.67,3.54,1.35,5.23.51,1.52,1.69,2.7,2.19,4.38.51,1.52.34,3.37.85,5.06.67,3.2,1.68,6.4,2.19,9.61.17,1.69,0,3.54.34,5.22.51,2.19,1.86,4.38,1.86,6.74,0,1.69-.51,3.37-.51,5.06Z"/>
    <path d="M204.85,708.55c-.17,3.03-1.52,5.9-1.52,8.77,0,1.68.34,3.37.34,5.06,0,2.36-.5,4.55-1.18,6.74-.51,1.18-1.18,2.19-1.52,3.37-.34,1.52-.17,3.03-.51,4.38-.17,1.18-.84,2.19-1.01,3.37-.17,1.69.17,3.37.17,5.06,0,2.36-1.18,4.04-1.52,6.24-.34,2.02-.17,7.25-.67,8.76-1.01,2.53-4.38,7.75-7.42,7.75-3.2,0-7.42-3.54-7.42-6.91,0-2.19,1.18-4.05,1.18-6.07,0-.67-.17-1.35-.34-2.02.84-2.36,1.52-2.87,1.52-5.56,0-.84-.17-2.02-.5-2.87-.85-.34-1.69-.51-2.53-.51-2.87,0-5.56,1.35-8.43,1.35-2.19,0-4.38-.34-6.4-.34-1.35,0-2.69.17-4.04.17-.51,0-1.01,0-1.52-.17-2.19-.51-11.13-8.76-11.8-10.62-.17-.84-.34-1.86-.34-2.7,0-2.87,1.52-5.22,2.87-7.58.84-1.52,1.68-3.71,2.87-4.89.5-.67,1.68-.84,2.36-1.52.84-.51,1.18-1.35,2.02-1.85,3.54-2.53,8.26-3.71,12.47-3.71,1.18,0,2.53,0,3.71.17,2.53.51,4.38,2.02,6.74,3.03.84.34,3.37.51,3.88,1.01.34.17.51.51.51.84.84.34,1.68.17,2.53.51,1.69-1.35.85-4.55.85-6.57,0-3.37,1.01-6.74,1.01-10.28,0-4.38-3.2-14.49-8.26-15.34h-1.18c-4.21,0-6.4,3.88-11.46,3.88-3.54,3.03-5.56,5.73-9.78,7.92-.84.34-1.85,1.35-2.87,1.35-.34,0-.67-.17-1.01-.51-.51-.67-.84-1.52-.84-2.36,0-4.72,5.22-6.57,6.57-9.78,1.01-.34,1.85-.84,2.53-1.52l.51-.84c1.35-.67,3.03-1.18,4.38-2.02.51-.34.84-1.01,1.35-1.52,2.7-1.52,7.59-2.53,10.79-2.53,2.02,0,6.4.34,8.26,1.18.67.17,1.01.67,1.52,1.01,3.2,1.35,5.06,2.53,7.25,5.22,4.38,5.23,6.07,13.15,6.07,19.72,0,1.18,0,2.53-.17,3.71ZM183.44,726.59c-2.53-2.53-11.12-4.05-14.66-4.05-3.2,0-7.42.84-7.42,4.89,0,2.7,1.86,6.4,4.05,7.92,2.19,1.52,5.56,1.35,8.26,1.52,1.52.17,3.03.51,4.55.51,2.7,0,6.07-.51,7.58-2.87l.17-1.01c0-2.36-.85-5.23-2.53-6.91Z"/>
    <path d="M270.08,651.42c-.84,5.06-.17,10.28-.84,15.34-.17,1.18-.67,2.02-1.01,3.2,0,.84.17,1.85.17,2.87,0,2.36-1.01,4.89-1.01,7.42-.17,5.73-1.18,11.46-1.69,17.19-.17,1.69-.84,3.2-.84,4.89,0,1.01.34,1.85.34,2.87,0,1.18-.67,1.52-.85,2.53-.67,2.87-.17,6.07-.5,9.1-.34,2.87-1.52,5.56-1.69,8.6-.34,2.53-.17,5.06-1.85,7.08-.17,3.2,0,6.4-.51,9.61-.34,1.52-1.01,2.87-1.35,4.38-.84,4.04-.51,10.79-2.7,13.99-2.19,1.18-5.22,1.35-7.75,1.35-1.86-2.02-4.05-3.54-4.05-6.74,0-2.87,1.52-5.56,1.52-8.6,0-.84-.17-1.85-.51-2.7-.5-.17-1.01-.17-1.35-.17-1.69,0-3.04.84-4.55,1.18-2.7.34-5.39.34-7.92.34-2.36,0-4.72,0-6.91-.34-1.18-.34-2.19-1.01-3.2-1.35-1.01-.51-2.19-.34-3.2-1.01-1.01-.51-1.69-1.86-2.7-2.7-2.19-2.02-5.39-3.71-7.25-6.24-2.36-3.71-4.21-9.27-4.21-13.48,0-5.06,2.53-8.09,4.72-12.3.5-1.01.67-2.19,1.35-3.03,1.86-2.7,6.58-5.9,9.44-7.25,1.01-.51,2.19-.51,3.2-1.01.84-.17,1.35-1.01,2.19-1.35,1.35-.34,7.42-.84,8.76-.84,2.7,0,4.89,2.19,7.75,2.19.84,0,1.68-.17,2.53-.34,3.03,1.18,4.04,5.06,7.08,6.24,2.7-2.7,2.87-7.25,3.2-10.79,1.01-8.6,1.01-17.53,2.7-26.12.67-3.03,2.36-5.9,2.36-8.93,0-1.01-.51-1.85-.51-2.86,0-1.52,1.01-3.2,1.35-4.89.67-3.88.17-15.34,5.73-15.34,3.2,0,5.9,6.07,5.9,8.77,0,3.03-.84,6.24-1.35,9.27ZM245.31,710.91c-1.18-2.36-2.87-3.54-4.38-5.39-.51-.51-.51-1.35-1.01-1.85-.84-1.18-5.39-2.36-6.91-2.36-.51,0-.67,0-1.18.17-3.2,1.18-8.76,1.52-10.79,4.55-.51.67-.67,1.85-.84,2.7-1.01,2.7-1.52,5.56-1.52,8.26,0,3.88,1.68,5.22,3.2,8.43.34.67.51,1.52,1.01,2.19,1.01,2.02,4.04,5.9,6.23,6.74,1.52.51,3.37.51,4.89.51,6.4,0,9.94-1.52,12.64-7.25.84-1.52,1.52-3.2,1.52-4.89,0-2.7-1.52-9.27-2.87-11.8Z"/>
    <path d="M315.43,742.43c-1.01,1.01-1.85,2.36-3.03,3.03-1.52,1.01-3.54,1.52-5.22,2.19-1.35.67-3.37,1.85-4.72,2.19s-2.87,0-4.21,0c-1.68,0-3.37.34-5.06.34s-3.2-.51-4.72-1.69c-4.55-.34-9.1-2.02-12.47-5.22-.67-.51-.84-1.18-1.35-1.69-.51-.34-1.18-.51-1.69-.84-5.22-3.88-6.23-7.92-6.23-14.16,0-5.9,3.03-11.12,5.73-16.18.17-.51.17-1.01.51-1.35.51-.67,1.52-1.01,2.19-1.69,1.18-1.35,1.86-3.2,3.37-4.38.51-.51,1.18-.51,1.68-.84,1.01-.67,1.69-2.19,2.7-2.7,3.2-1.69,8.76-2.02,12.3-2.02,7.08,0,16.86,2.36,20.56,9.1.84,1.18,1.18,2.36,2.19,3.37,1.35,1.18,3.03,2.02,4.04,3.54.17.34.17.84.34,1.18,1.52,3.2,2.02,6.4,2.02,9.94,0,7.92-3.37,12.64-8.93,17.87ZM310.71,716.47c-.51-.51-1.01-.84-1.35-1.35-1.52-1.69-2.53-4.89-4.72-5.56-1.18-.51-10.79-2.7-11.63-2.7-1.01,0-3.71,2.02-4.55,2.7-.67.51-1.35.84-2.19,1.18-4.72,2.7-5.73,5.06-5.73,10.62,0,4.04,1.52,6.91,4.04,9.78,1.52,1.69,5.56,6.24,7.42,6.91,2.87,1.18,7.25.67,10.45,1.01,2.36-1.52,5.73-4.04,6.91-6.57l.84-.51c.51-.67.51-1.68.84-2.53,1.18-2.7,2.02-2.53,2.02-6.4,0-2.36-1.01-4.72-2.36-6.57Z"/>
    <path d="M430.9,706.53c-1.01,2.02-1.18,4.38-2.02,6.4-1.01,2.19-4.55,8.93-5.9,10.95-2.02,3.2-3.88,4.21-3.88,8.26v.51c-3.03,3.88-4.89,8.6-7.42,12.98-1.35,2.02-2.7,3.71-4.21,5.56-.17.34-.34.84-.34,1.18,0,.51.17,1.01.17,1.69,0,4.21-6.07,4.21-9.1,4.21-3.54,0-4.05-1.69-6.07-4.21-2.19-2.53-2.7-4.89-3.88-7.92-.5-1.01-1.18-1.85-1.68-2.87-.34-1.18-.34-2.53-.84-3.88-.67-2.02-1.86-4.04-2.7-6.24-.51-1.01-.67-2.19-1.18-3.37-1.18-2.36-2.19-4.55-3.03-7.08-.17-.84-.34-1.69-.67-2.53-.17-.67-.67-1.01-1.01-1.69-.84-2.02-.17-5.73-2.87-6.57-2.53,1.18-1.86,3.54-1.86,5.73,0,3.54-4.21,13.65-6.23,16.85-1.01,1.52-2.36,2.7-3.2,4.21-.51,1.01-.51,2.19-.84,3.2-1.01,2.19-2.53,4.21-3.71,6.4-.84,1.35-2.02,5.9-2.36,7.58-.17,1.18-.17,2.53-.5,3.54-1.18,3.71-5.73,4.55-9.1,4.89-2.02-.84-2.53-3.2-3.54-4.89-1.01-1.69-2.36-3.37-3.2-5.39-.67-1.52-.34-3.37-.84-5.06-.34-.84-1.01-1.35-1.18-2.02-.17-.84,0-1.85-.17-2.7-.67-2.02-1.52-3.88-2.36-5.9-.84-1.85-1.35-3.88-2.02-5.9-.34-1.01-.85-2.19-1.18-3.37-.17-1.18,0-2.53-.34-3.88-.34-1.35-1.35-2.7-1.69-4.05-.34-1.18-.17-2.36-.34-3.54-.34-.84-.84-1.69-1.18-2.53-.67-1.86-.84-4.05-1.52-5.9-.34-.84-.84-1.68-1.01-2.53-.17-.17-.17-.34-.17-.67,0-.67.17-1.52.17-2.19,0-3.2-2.53-6.24-2.53-9.78,0-.51,0-1.01.17-1.52,1.18-1.18,3.71-1.85,5.39-1.85,1.01,0,1.85,0,2.36,1.01,2.19.84,2.87,2.7,3.88,4.38,1.01,1.68,2.19,3.37,2.7,5.06.34,1.18.17,2.36.34,3.37.5,1.52,1.68,2.7,2.19,4.21.5,1.35.5,2.87.84,4.21.34,1.35.84,2.53,1.35,3.88,1.35,4.55,1.68,11.97,5.06,15.68.17,1.69.67,6.24,3.2,6.24,3.03,0,3.54-3.37,4.72-5.39.5-1.01,1.68-1.68,2.36-2.87.51-1.01.67-2.36,1.35-3.54,1.18-2.19,2.53-4.21,3.71-6.57.84-1.69,1.18-3.71,2.02-5.39.34-.51,1.01-1.01,1.18-1.35.67-1.52.17-4.04.67-5.9.67-2.02,2.36-3.71,3.03-5.9.5-1.86-.17-4.05,1.01-5.73,1.86-1.01,3.71-2.19,5.73-2.19,1.18,0,2.36.34,3.37.84,3.54,1.52,4.89,5.22,6.57,8.43,1.52,3.2,2.87,6.4,4.38,9.61.67,1.52.84,3.2,1.35,4.72.17.51.84,1.01,1.01,1.52.51,1.52.34,3.2,1.01,4.72.5,1.52,1.35,2.87,2.02,4.21,1.35,2.7,2.86,5.56,3.88,8.26.51,1.18.51,3.71,2.19,3.71,2.36,0,2.7-2.19,3.54-3.71,2.19-1.68,3.2-5.56,4.38-7.92,1.35-2.7,3.37-5.06,5.06-7.42.84-1.35,1.18-2.87,2.19-4.21,1.68-2.7,6.24-10.11,6.24-13.31,0-1.69-.34-3.2-.34-4.89s.34-4.89,1.69-6.07c.67-.67,3.03-1.68,4.04-1.68,4.55,0,5.73,5.9,6.24,9.27-.84,2.7-3.37,4.21-4.55,6.57Z"/>
    <path d="M576.54,694.56c-.34,1.52-1.01,2.7-1.01,4.05,0,1.18.17,2.19.17,3.37,0,2.87-1.68,4.04-2.19,6.57-.51,1.85-.17,3.88-.17,5.9,0,4.38-2.19,6.4-4.21,10.11-2.02,3.71-3.03,7.08-5.56,10.79-1.35,2.02-2.87,3.71-4.05,5.73-.34.51-.5,1.18-.84,1.68l-.84.51c-1.35,3.03-3.54,2.87-5.22,4.72-.67.84-.67,1.85-1.18,2.7-.51.67-4.72,4.72-5.22,5.06-1.52,1.01-3.54,1.18-5.22,1.85-4.05,1.68-10.11,5.56-14.33,5.56-1.52,0-10.79-2.7-12.64-3.37-3.03-1.18-8.6-4.72-11.29-4.89-2.19-2.53-5.9-2.87-6.4-6.91-1.35-.67-2.7-1.01-4.05-1.69-.67-1.18-1.18-3.03-2.02-3.88-.84-.67-1.68-.17-3.54-2.7-.67-.84-.84-2.02-1.35-3.03-1.35-2.7-4.04-4.89-5.22-7.75-1.18-3.03-4.89-22.59-4.89-25.96,0-4.55,2.53-7.75,2.53-11.46,0-.51,0-1.18-.17-1.69,2.02-2.7,3.04-5.39,3.88-8.6.84-3.2,2.19-5.56,3.88-8.26,1.01-1.52,2.53-2.87,3.54-4.38.67-1.01,1.01-2.19,1.69-3.03,1.01-1.18,2.36-2.02,3.54-3.03,3.54-3.54,6.91-7.42,11.29-9.94,1.18-.84,2.53-1.52,3.88-2.19.34-.17,1.01-.17,1.35-.51.17-.17.34-.51.34-.84,1.35-.67,3.03-1.01,4.38-1.69s2.53-1.69,3.88-2.19c4.05-1.69,11.63-2.87,16.01-2.87,3.54,0,8.43.17,11.8,1.18,2.87.67,5.56,2.7,8.26,3.88,2.19,1.01,6.91,2.19,8.59,3.37,1.01.84,5.39,6.4,5.73,7.42,0,.51.17,1.01.17,1.35,0,.67-.34,1.18-.67,1.69-.51.34-1.01.34-1.52.34-2.87,0-3.54-2.87-5.39-4.21-.34-.34-1.01-.17-1.35-.34-.17-.34-.17-.67-.34-1.01-1.35-1.35-3.37-2.19-4.89-3.37-6.4-.17-11.63-4.38-18.2-4.38-2.87,0-5.39,1.35-8.26,1.35-1.18,0-2.36-.51-3.54-.51-2.02,0-5.73,3.71-7.75,4.72-.67.51-1.52.51-2.19,1.01-.5.34-1.01.84-1.68,1.18-1.18.84-2.7,1.35-3.88,2.19-2.19,1.85-4.38,6.24-6.07,8.77-1.01,1.35-2.02,2.87-3.03,4.21-1.01,1.35-2.36,2.53-3.03,4.05-.84,1.68-.84,3.71-1.35,5.56-.51,1.69-1.35,3.03-1.68,4.72-.67,3.54-.34,7.42-.51,10.96-.17,2.7-.34,5.56-.34,8.26,0,3.37.34,6.91,2.19,9.94-.17.84-.34,1.69-.34,2.7,0,6.57,2.87,11.29,5.9,16.85,1.69,2.87,3.03,6.57,5.22,9.1,1.52,1.85,3.88,3.03,5.56,4.72,4.21,3.88,5.23,5.39,11.29,5.39,5.56,0,11.46-2.36,16.18-5.39,1.52-1.01,2.87-2.36,4.21-3.54,2.53-1.85,5.9-6.74,8.26-9.44.84-.84,2.02-1.69,2.7-2.7,1.35-2.36,2.69-4.72,3.88-7.25.51-1.01.84-2.19,1.35-3.03,1.35-2.7,2.53-5.39,3.37-8.26.85-2.87,1.35-5.9,2.7-8.76.84-1.86,1.35-3.03,1.35-5.39,0-1.85-.34-6.91-1.35-8.43-.67-.84-1.85-.67-2.19-1.69-.84.17-1.68.17-2.53.17-3.37,0-6.4-.84-9.78-.84-3.88,0-7.92.67-11.8.67-2.7,0-5.39-.34-7.59-1.85l-1.52.17c-1.86,0-3.37-.67-3.37-2.87,0-2.7,4.72-3.37,6.74-3.37,2.87,0,5.39,1.01,8.09,1.01,2.87,0,5.9-.51,8.76-.51,3.2,0,6.4.17,9.61.17,4.04,0,7.42-1.18,10.45-1.18,2.7,0,4.38,1.01,6.4,2.7,0,3.71-.51,7.25-1.35,10.79Z"/>
    <path d="M638.57,726.42c0,1.52.5,3.03.34,4.55v.51c-.84,1.35-1.52,3.03-2.53,4.21-1.01,1.35-2.69,2.02-3.54,3.54-1.01,2.02-.67,4.38-1.69,6.57-1.52,3.03-8.26,6.74-11.29,9.1-.51-.17-1.18-.34-1.69-.34-3.03,0-5.73,2.02-8.93,2.02-.67,0-13.65-1.69-13.65-1.69-1.69-.84-2.19-2.02-3.54-3.03-1.18-1.01-2.53-1.35-3.88-2.19-7.58-5.39-10.45-11.63-12.13-20.39-.17-1.52-.85-2.87-.85-4.38,0-1.01.51-1.69.85-2.53.84-2.87,1.01-5.73,2.19-8.26.67-1.69,1.85-2.87,2.53-4.38,1.18-2.02,2.19-4.21,3.54-6.07,1.18-1.69,4.72-3.88,6.57-5.23,2.7-2.19,7.92-6.57,11.29-7.42.84-.17,1.68,0,2.53,0,1.35,0,2.87-.17,4.21-.17,5.39,0,12.47,2.87,16.18,6.74.5.51.84,1.18,1.35,1.69,1.52,1.52,3.71,2.19,5.22,3.88.67,1.01,6.57,9.44,6.91,10.45.34,1.35.17,2.7.34,3.88.34,1.18,1.01,2.36,1.01,3.54,0,1.85-1.35,3.54-1.35,5.39ZM628.97,715.29c-1.68-.51-2.02-3.88-3.37-5.22-2.53-2.19-7.75-2.87-9.61-5.56-1.35-2.02-1.18-4.72-3.03-6.57-1.52-.34-2.87-.51-4.38-.51-6.24,0-12.81,6.4-15.17,11.8.17.34.17.84.17,1.18,0,3.54-1.86,6.57-1.86,10.11,0,6.74.85,11.97,4.38,17.86.51,1.01,1.35,2.7,2.02,3.37,1.18,1.01,3.88,2.02,5.23,2.7,2.02,1.01,4.04,2.53,6.57,2.53,1.18,0,3.54,0,4.72-.34.84-.34,5.73-3.71,6.07-4.38.34-.51.17-.84.5-1.35,1.52-2.53,4.55-3.71,6.07-6.4,1.18-2.19,1.68-5.39,1.68-7.92,1.01-1.69,1.86-3.37,1.86-5.39,0-2.53-.84-3.71-1.86-5.9ZM698.07,731.48c-1.01,2.19-4.89,4.89-6.23,7.75-.34.84-.34,1.85-.85,2.53-.67,1.35-5.06,4.89-6.57,4.89-.5,0-1.01-.17-1.68-.17-1.86,0-3.2,1.85-5.22,1.85-1.35,0-2.53-.51-3.88-.51-2.19,0-4.04,1.85-6.4,1.85-3.2,0-5.9-2.19-7.42-4.89-2.36-.84-4.72-2.19-6.07-4.21-.67-1.01-1.01-2.19-1.69-3.03-.67-.84-1.35-1.35-1.85-2.19-.34-1.01-.17-2.02-.34-3.03-.34-1.01-.84-2.02-.84-3.03,0-1.69,1.01-9.94,1.68-11.29.51-1.01,1.52-1.69,2.19-2.7.51-.84.67-2.02,1.35-3.03,1.01-1.35,2.53-2.19,3.88-3.37,1.01-1.01,2.69-3.03,3.88-3.54,2.02-.84,4.72-.84,6.91-1.35,2.53-.51,5.06-1.52,7.75-1.52,1.69,0,3.37.34,4.89,1.18,1.35-.51,2.7-1.18,4.21-1.18s2.7.51,4.05,1.18c5.9,3.03,3.71,5.06,6.4,6.91v1.18c0,4.21,2.69,7.75,2.69,11.8,0,1.01-.67,7.08-.84,7.92ZM690.15,717.49c-2.36-5.39-10.45-6.4-15.68-6.4-1.35,0-2.87,0-4.21.34-2.53.67-5.06,3.54-5.23,6.07-1.52,1.18-2.36,2.7-2.36,4.72,0,4.55,3.2,13.15,7.92,14.83,1.52.51,3.37.51,4.72.51,2.02,0,4.21-.17,6.23,0,3.71-2.87,6.07-6.91,8.26-10.95-.17-.51-.17-1.01-.17-1.52,0-2.36.5-4.72.5-7.08v-.51Z"/>
    <path d="M734.49,697.6c-3.71,0-1.85-7.42-11.12-7.42-6.24,0-7.42,2.87-7.42,8.43,0,5.06,1.69,7.25,3.54,11.46.67,1.52,1.01,3.2,1.69,4.89,1.18,2.36,2.69,4.21,3.54,6.91.5,2.02,1.01,4.05,1.68,6.07,1.01,2.7,2.36,5.06,3.54,7.75.34,1.01.34,2.02.84,3.03.34.84,1.01,1.35,1.35,2.19.34,1.52.34,3.2.34,4.72,0,5.39-.5,8.93-3.37,13.48-.85,1.01-1.35,2.53-2.19,3.54-1.01,1.01-2.36,1.35-3.54,2.19-1.86,1.01-3.54,2.36-5.23,3.88-.67-.34-1.35-.34-2.02-.34-1.86,0-3.37.84-4.89,1.52-2.36.17-4.89.17-7.25.17-2.02,0-4.38-1.18-5.9-2.19l-.5-.84h-.84c-1.18-1.18-1.69-3.03-2.7-4.38-.67-1.01-2.7-2.36-3.03-3.54-.17-.84-.34-1.69-.34-2.53,0-2.02,1.18-4.21,3.37-4.21,1.52,0,2.7.84,3.54,2.02.5.51.5,1.52.84,2.19,1.35,2.36,6.07,7.42,8.93,7.42,1.69,0,4.38-1.35,5.9-2.19,4.04-2.7,3.54-8.26,3.88-12.64,0-1.01.51-2.19.51-3.2l-.17-.34c0-.84-3.37-9.78-3.88-10.28-.17-.34-.51-.34-.84-.51-1.68-3.71-1.01-7.92-2.53-10.79-1.52-2.53-2.53-5.22-3.88-7.92-2.36-4.21-4.72-7.42-4.72-12.64,0-5.9,3.71-12.64,8.6-16.01.34-.17.85-.51,1.18-.84,1.52-1.01,6.07-3.54,7.59-3.88,1.68-.34,3.54-.51,5.22-.51,5.39,0,13.48,5.73,13.48,11.46,0,2.02-.85,3.88-3.2,3.88Z"/>
    <path d="M781.86,751.2c-.84.67-1.52,2.02-2.53,2.53-1.85,1.01-8.76,2.53-10.79,2.53s-3.88-.51-5.56-1.69c-.84.17-1.69.34-2.53.34-2.53,0-5.06-.51-7.58-.67-1.69-.17-4.55-3.03-5.73-4.04-.67-.51-1.52-.84-2.19-1.35-1.52-.84-3.37-3.71-4.55-5.22-4.04-5.39-5.22-8.6-5.22-15.51,0-2.7.17-6.07.84-8.77.51-1.52,4.72-10.62,5.73-11.8.34-.34.67-.67,1.01-1.01.17-.34.17-.84.34-1.18,1.01-1.52,8.26-7.08,10.11-8.43,2.87-2.19,5.9-4.38,9.78-4.38.67,0,8.26,1.52,8.76,1.69,1.52.67,9.44,7.92,10.11,9.27.51.84.17,2.19.51,3.03.67,2.7,3.03,4.72,3.03,7.58,0,1.85-.84,3.54-.84,5.39,0,1.01-2.87,2.53-3.71,2.53-1.18,0-2.19-.84-3.37-.84s-2.36.34-3.54.34c-4.55,0-9.1-1.01-13.65-1.01-6.4,0-9.27,0-9.27,6.91,0,2.87.17,6.4.84,9.1.67,2.7,3.71,8.77,6.24,10.11.67.51,1.85.34,2.7.51.67.17,1.01.67,1.68.84,1.01.34,2.36.34,3.37.34,4.04,0,11.29-2.19,13.82-5.56l.84-.51c.17-.34,0-.67,0-1.01,0-2.02,5.39-5.73,7.75-5.73,2.53,0,3.2,4.05,3.2,5.73,0,5.56-6.07,6.91-9.61,9.94ZM770.9,702.15c-.67-.17-2.7-.34-3.54-.34-1.18-.17-2.36-.51-3.71-.51-2.36,0-6.91,3.37-8.26,5.23-.51.84-.51,1.85-.84,2.7-.34.67-1.01,1.52-1.01,2.19,0,2.36,3.37,3.2,5.22,3.2,2.53,0,4.89-.67,7.25-1.01h4.72c1.69,0,3.88,0,5.06-1.68,0-3.54-1.35-8.26-4.89-9.78Z"/>
  </g>
</svg>