<?xml version="1.0" encoding="UTF-8"?>
<svg id="Layer_1" data-name="Layer 1" xmlns="http://www.w3.org/2000/svg" viewBox="0 0 1230.9 536.54">
  <defs>
    <style>
      .cls-1 {
        fill: none;
      }

      .cls-2 {
        fill: #fff;
      }
    </style>
  </defs>
  <g>
    <path class="cls-1" d="M226.99,423.7c-2.24.67-5.3.87-7.63.92l5.21-2.43,2.88.88c.09.8,0,.49-.45.63Z"/>
    <polygon class="cls-1" points="230.55 422.45 230.86 421.83 229.24 422.09 226.82 421.21 230.66 420.02 232.73 422.13 230.55 422.45"/>
    <path class="cls-1" d="M206.92,432.71c-.12.58-.61.56-1.08.63-.45.06-1.97.3-2.18.3-1.67,0-4.05.21-5.6,0-.13-.02-.89-.31-.78-.62l9.64-.31Z"/>
    <path class="cls-1" d="M233.66,429.29c0,.48-1.07.52-1.44.58-2.69.45-5.52.39-8.2.97,2.14-2.17,6.67-.96,9.64-1.55Z"/>
    <path class="cls-1" d="M242.99,445.15c-1.21,2.09-2.2,2.72-4.66,2.79l4.66-2.79Z"/>
    <path class="cls-1" d="M128.26,265.44c-.84-3.65-2.35-7.19-2.51-10.98l.79-.52c.73,2.2.95,4.54,1.62,6.77.5,1.64,1.98,2.96.09,4.73Z"/>
    <path class="cls-1" d="M243.3,418.1c-2.58,1.91-7.19,4.37-9.64,1.08,3.14-.86,6.37-1.28,9.64-1.08Z"/>
    <path class="cls-1" d="M132.59,255.03c0,1.53-2.9,5.08-2.78,7-.56-.1-.53-.63-.66-1.05-.47-1.49-1.59-6.74-1.53-8.12.02-.48.4-1.82.95-2.02l.85,4.29,1.33,2.55-1.24-8.54.93-1.09c-.56,1.9,2.16,5.85,2.16,7Z"/>
    <path class="cls-1" d="M127.95,267.93c-.49-.25-.86-1.35-1.08-1.87-.6-1.43-2.97-7.39-2.87-8.5.05-.45.54-.93.53-1.44l1.85,6.38c.41,1.79,2.24,3.67,1.56,5.43Z"/>
    <path class="cls-1" d="M147.48,201.61l-1.19-3.94c-2.55,5.68-7.04,10.85-11.85,14.73-5.36,4.33-13.65,9.01-19.96,11.75-1.15.49-5.34,1.49-5.83,2.33-.46.8-.07,2.04-1.15,2.73l1.95,2.64,1.39-3.24c-3.16-1.4-.65-2.5,1.24-.93,1.14.95,1.83,4.74,2.11,6.28.83,4.56,1.2,9.23,2.05,13.81.84,4.58,1.97,9.09,3.01,13.62.81.14.48-.12.65-.44.67-1.31,1.11-3.07,1.78-4.43,4.62-9.31,18.46-32.36,25.86-38.81,2.71-2.36,6.09-3.71,8.71-6.06-4.44-1.47-6.83-6.11-8.76-10.05ZM115.83,228.92c-.28.4-.89-.11-.94-.33-.22-1.09,4.09-4.83,5.6-4.18l-4.66,4.51ZM119.74,237.79c-1.32.62-2.09.29-.91-.91.5-.51,4-3.27,4.46-2.84.36.33-2.96,3.47-3.55,3.75ZM120.18,243.99c0-1.94,1.98-2.94,3.42-3.73.25.26-2.62,4.51-3.42,3.73ZM120.8,229.85c-.88.85-2.54,2.45-3.73,2.33-.81-.81,3.04-3.94,3.76-4.48.4-.3,2.79-1.99,3.08-1.73.19.17-2.74,3.54-3.1,3.89Z"/>
    <path class="cls-1" d="M196.01,431.6c-.34.49-.17,1.39-.46,1.44l-8.53-.65c.06-.46,1.1-.73,1.49-.84,2.88-.86,6.4-1.35,9.39-1.33.11,1.06-1.31.55-1.89,1.38Z"/>
    <path class="cls-1" d="M298.02,436.12l-2.59-.05-.52-.88c1.06,0,2.52-.22,3.11.93Z"/>
    <path class="cls-1" d="M281.23,413.74l-4.04.93c1.16-1.67,2.31-1.84,4.04-.93Z"/>
    <path class="cls-1" d="M266.31,413.43h-6.07c-.24,0-1.84.89-2.02,0,2.74-.67,5.61-2.28,8.08,0Z"/>
    <path class="cls-1" d="M298.33,462.56l-2.64.65-2.64-.34c-.5-.4.04-.57.46-.62,1.57-.2,3.27.13,4.82.32Z"/>
    <path class="cls-1" d="M296,416.85h-7.62l-.28-1.37.44-.49c2.31.17,4.88-.23,7.15,0,.49.05,1.28.59,2.02.31.48.36-1.59,1.55-1.71,1.55Z"/>
    <path class="cls-1" d="M250.45,448.57v.93h-3.73c.73-1.32,2.48-.87,3.73-.93Z"/>
    <path class="cls-1" d="M255.12,423.38c-1.54,2.1-3.96,1.5-6.22,1.55-.07-.47.58-.37.93-.46,1.73-.44,3.52-.78,5.28-1.09Z"/>
    <path class="cls-1" d="M244.54,416.54c-.13.86-1.5,0-1.71,0-2.54,0-5.26-.14-7.77,0-.34.02-1.09.58-1.71.31-.97-.87,2.91-1.23,3.25-1.25,2.79-.19,5.27.32,7.94.95Z"/>
    <path class="cls-1" d="M259.47,459.75l-.33,2.16-3.1-.3c.31-.8,1.35-.84,1.95-1.23.6-.39.18-1.21,1.47-.63Z"/>
    <path class="cls-1" d="M258.53,463.49c-.17.42-1.6.53-2.05.58-2.61.32-5.87.84-8.21-.43,0-.25,4.41-1.05,4.86-1.06,1.62-.03,3.68,1.06,5.41.9Z"/>
    <path class="cls-1" d="M88.15,285.96l-.78,3.42c-1.77-.81-1.19-1.85-1.08-3.42h1.86Z"/>
    <path class="cls-1" d="M89.72,263.75c.42,1.35,1.82,1.18,2.78.45.04,6.03-4.77,10.5-6.36,15.86-.5,1.69-1.27,5.32-1.37,7.03-.08,1.27,0,2.09,1.05,2.92.44.35,1.22.09,1.12.75.13.87-.3,1.72-.35,2.51-.04.63.38,1.25.26,1.78-.07.37-.6.73-.73,1.14-.57,1.81.47,2.19.47,3.23-.01,2.61-.77,7.59-1.27,10.27-.17.9-.67,1.72-.59,2.68l-6.78-10.48c-3.13-5.5-6.15-11.31-8.16-17.34-.42-1.26-1.59-6.84-2-7.32-.86-1.04-2.94.87-3.53-.84.26-1.92.34-3.84.66-5.75.4-2.34,1.96-5.48.77-7.79-1.09-2.13-2.21.58-3.66.71-.56-6.21,2.66-11.75,3.94-17.65l1.97-.56,9.64,25.68.89-.04.81-2.14c1.15,1.34,1.56,3.45,2.7,4.76.28.32.31.65.88.52l4.98-24.87.93.62-.93-3.73c1.02.44.86,2.51,1.39,3.11.4.45,1.31.21,1.58.6.21.31.44,3.05.91,4.07.47,1.02,1.22,2.14,1.81,3.33.1.2.7.23.75.53.39,2.15-3.24,4.58-4.56,5.95Z"/>
    <path class="cls-1" d="M84.74,245.85c-.25-1.83,1.81-1.92,3.1-2.48.2,1.73-2.18,1.43-3.1,2.48Z"/>
    <path class="cls-1" d="M134.99,250.36l-1.75,3.89c-.8.09-.5,0-.63-.45-.38-1.29-1.54-6.1-1.5-7.18.03-.82,1.46-2.92,2.13-3.56.04,2.53.79,5.01,1.75,7.31Z"/>
    <path class="cls-1" d="M83.18,254.25c-.21-.72-.39-1.27-.02-1.99l.93-.16c.5.98.41,2.05-.91,2.15Z"/>
    <path class="cls-1" d="M85.49,231.56c-.2-.3-.03-.92-.2-1.19-.12-.18-.84-.27-1.16-.54-1.23-1.02-2.37-2.23-3.6-3.24-3.5-2.88-7.41-5.28-10.71-8.4-1.28,4.97-1.71,10.35-2.89,15.3-.21.89-.52,1.53-1.03,2.27l11.7,30.94,1.39-7.78c2.45-7.1,3.1-16.67,5.73-23.5.37-.96,1.52-2.16,1.95-3.18.84-.48,2.32.9,2.9,1.49l.47-1.86h.93l.31,1.24.93-1.71c-1.23-.29-6.06,1.11-6.7.16ZM74.47,230c.08.54-.71.31-1.01.24-.87-.2-2.05-.72-2.09-1.79,1.53-.36,1.79,1.3,3.1,1.56ZM73.85,240.88c-1.25.11-2.01-.91-2.79-1.71l.61-.64c.54-.26,2.52,1.48,2.18,2.35ZM69.81,233.58c.1-.53.76-.5,1.23-.31,1.38.53,4.5,3.61,5.61,4.81-1.52.46-7.08-3.28-6.84-4.49Z"/>
    <path class="cls-1" d="M94.06,254.87c-1.59-.98-1.62-3.31-1.86-4.97,1.64.96,2.53,3.23,1.86,4.97Z"/>
    <path class="cls-1" d="M90.02,276.01c-1.08,2.96-.25,6.66-2.64,9.01-.96-.84-.27-2.36,0-3.41.45-1.72,1.38-4.42,2.64-5.6Z"/>
    <path class="cls-1" d="M92.51,313.48c-.05.14-.99.94-1.09,1.4l-.67-1.36,1.77-5.17c-.25,1.36.34,3.97,0,5.13Z"/>
    <path class="cls-1" d="M305.48,447.32c-.07.08-1.53-.39-1.85-.48-.32-.1-1.23,0-.94-.6.47-.97,3.52-.73,2.79,1.08Z"/>
    <path class="cls-1" d="M93.75,285.34l-.31,5.9c-.63.09-.51.06-.7-.39-.44-.99.17-3.51.49-4.65.09-.32.07-.94.53-.87Z"/>
    <path class="cls-1" d="M85.29,260l-2.43,12.91c-.73.15-.5-.09-.7-.4-.92-1.44-1.93-3.38-2.41-5.04l3.1,3.57c-.61-2.38-4.1-5.53-1.86-7.78.51,1.32,1.25,2.67,2.49,3.42-.45-2.36-3.76-5.33-1.56-7.46l2.18,3.11c-.25-2.58-3.5-4.09-1.09-6.53.95,1.29,2.19,2.48,2.27,4.19Z"/>
    <path class="cls-1" d="M73.23,122.74c-2.35,2.34-6.22,2.55-9.32,1.86.07-.45,1.08-.72,1.47-.86,2.34-.84,5.41-1.29,7.85-1Z"/>
    <path class="cls-1" d="M140.33,240.68c-.89,1.23-1.32,2.96-2.42,3.94.05-3.59-2.28-7.38.77-10.25l1.65,6.32Z"/>
    <path class="cls-1" d="M150.35,226.1l-3.75,5.46c-.46-.06-.51-1.34-.58-1.75-.18-1.21-.64-4.04-.52-5.09.03-.25.12-.71.47-.61l.93,4.35c.48-1.98-1.44-4.96.62-6.21l.63,4.35.62-1.55.62,2.18c.28-2.15-.51-4.28-.63-6.36-.02-.34-.2-1.18.32-1.1l1.26,6.35Z"/>
    <path class="cls-1" d="M137.78,245.08c0,.57-2.04,4.26-2.68,4.82,0-3.77-2.55-8.42.92-11.19-.26,1.64,1.75,5.31,1.75,6.37Z"/>
    <path class="cls-1" d="M145.93,232.25l-4.92,7.7c-.42-.05-.54-.42-.6-.79-.15-.94-.72-5.87-.57-6.44.07-.26.86-1.42,1.09-1.71.2-.25-.01-.57.71-.4.07,1.02.26,2.06.54,3.04.17.61.46,1.92,1.01,2.24.17-1.72-1.13-5.17-.88-6.61.12-.7,1.86-2.69,2.44-3.34l1.19,6.29Z"/>
    <path class="cls-1" d="M100.9,148.85c-4.08,2.41-8.63,2.03-13.07,2.94-5.48,1.12-9.5,4.67-15.22,4.83,5.7-4.34,10.69-8.52,17.97-9.85,1.5-.28,5.94-.93,7.13-.47.44.17,1.72,1.09,2.15,1.43.25.2.84.82,1.05,1.12Z"/>
    <path class="cls-1" d="M101.63,140.25c-.69.72-1.21,2.32-1.76,2.91-1.43,1.54-7.5,1.88-9.62,2.35-3.37.74-7.06,2.05-10.19,3.48-5.26,2.41-9.89,6.14-15.7,7.31-.95.05-.21-.33.06-.56,8.01-6.85,17.05-12.34,26.84-16.37,1.16-.47,2.8.07,2.49-2.02-.54-.58-7.7,2.62-8.82,3.15-9.09,4.28-15.35,8.5-22.9,15.03-1.78,1.53-2.21,3.3-5.28,2.96-.16.93.79.74,1.24,1.09-1.69,1.57-4.25,3.52-6.32,4.56-.4.2-4.09,1.1-3.32,1.81l1.32-.08,4.28-1.63c-1.78,1.76-3.33,3.72-4.98,5.6-.39.44-.45,1.19-.85,1.4-.64.35-2.57.7-3.34.63-1.58-.14-6.2-3.19-7.18-4.48-3.34-4.4.52-5.02,1.9-8.59,1.99-5.14,2.84-12.06,4.89-17.18.33-.84,2.14-2.26,2.35-2.94.54-1.78-1.4-2.56-.81-4.53.31-1.04,2.2-1.7,2.89-2.39.53-.54,3.57-7.43,3.75-8.38.2-1.05.16-2.06.14-3.12l2.2,1.99c1.73,1.11,3.47,2.37,5.57,2.67-.2,1.03-1.22,1.6-1.57,2.63-.61,1.78-.52,4.69,1.74,5.13.31.06.85.19.76-.29-2.83-1.02-1.52-5.65.76-6.56.79-.32,5.24.56,7.09.26,1.21-.19,7.15-2.58,5.21-4.12-2.05-1.63-8.08-.08-10.38.82-.62.24-1.19.9-1.73,1.06-2.85.86-7.36-2.62-8.1-5.45,6.34-2.39,12-7.12,19.12-6.53,2.3.2,6.35,1.35,8.34,2.54,4.77,2.85,6.12,10.23,10.46,13.79,3.77,3.09,8.71,2.49,11.26,6.77,2.41,4.04.34,3.04-1.82,5.29Z"/>
    <path class="cls-1" d="M113.02,240.26c-1.06-.38-2.64-.32-3.37-1.12-.11-.31.21-6.14.32-6.44.17-.5,1.03-.68,1.35-1.13l1.71,8.7Z"/>
    <path class="cls-1" d="M66.39,157.56c-4.85,5.44-10.46,12-17.72,13.99,1.99-1.89,4.02-3.76,5.91-5.74,3.59-3.74,5.9-7.96,11.81-8.25Z"/>
    <polygon class="cls-1" points="388.8 437.68 385.7 435.65 386.47 434.58 388.8 437.68"/>
    <path class="cls-1" d="M352.12,433.95l-3.72,2.18c-.04-2.38-4.31-.63-4.65-.95-.62-2.35.47-1.23,1.38-1.23h7Z"/>
    <path class="cls-1" d="M363.93,438.92h-2.49c.63-1.83.4-2.87-1.22-3.93l.29-1.35c1.25-.89,3.65,5.05,3.41,5.28Z"/>
    <path class="cls-1" d="M376.06,440.48l-1.11,2.48c-3.82-1.51-2.89-4.22,1.11-2.48Z"/>
    <path class="cls-1" d="M369.84,437.99l-4.04.8-2.8-5.29c.12-.55,2.5-.95,3.11-.64.38.19,3.93,4.87,3.73,5.13Z"/>
    <polygon class="cls-1" points="372.95 422.45 365.8 422.45 369.69 421.8 372.95 422.45"/>
    <polygon class="cls-1" points="366.4 447.31 360.82 447.94 361.77 442.67 365.48 442.03 366.4 447.31"/>
    <path class="cls-1" d="M357.09,428.05l-2.99.9-1.36-.29c-.08-.83,0-.5.46-.61,1.41-.34,2.47-.28,3.89,0Z"/>
    <path class="cls-1" d="M348.67,440.6c-.47.43-4.35,3.26-4.63,2.98-.12-3,2.86-3.67,5.28-4.04.13.6-.31.74-.65,1.06Z"/>
    <path class="cls-1" d="M352.12,445.46l-1.46,1.52-2.26-.91c.85-1.85,2.18-.89,3.73-.61Z"/>
    <path class="cls-1" d="M356.16,422.14l-1.95.87c-3.74-2.15-8.51-3.66-12.83-3.98-2.41-.18-5.48.33-7.75-.02-.54-.09-1.23-.33-1.42-.91,8.31-1.28,16.43.49,23.94,4.04Z"/>
    <path class="cls-1" d="M360.2,443.59c-.18,5.1-2.51,5.08-6.84,5.59l4.99-5.11,1.85-.48Z"/>
    <path class="cls-1" d="M397.35,426.81l-19.73-5.61c-.13-.31.73-.62.78-.62,1.66,0,3.69-.16,5.28,0,3.65.37,9.37,2.92,12.44,4.97.37.24,1.38.71,1.23,1.25Z"/>
    <path class="cls-1" d="M390.36,442.03l-1.55.63c.32-3.75-4.8-2.11-5.91-4.81.03-.11,1.08-.89,1.24-.94.71-.2,5.36,3.52,5.91,4.34.18.26.43.32.31.78Z"/>
    <path class="cls-1" d="M87.22,310.52l-.31-1.7.62-3.58c.94,1.84.02,3.37-.31,5.28Z"/>
    <path class="cls-1" d="M381.96,433.83c-.69-.18-4.57-1.95-5.13-2.36-.68-.5-3.66-4.89-3.26-5.28,2.52.15,8.77,3.16,9.51,5.58.26.86-.04,2.35-1.12,2.06Z"/>
    <path class="cls-1" d="M370.74,443l-.43,2.77c-2.97,1.18-2.74-1.85-3.58-3.73l4.01.97Z"/>
    <path class="cls-1" d="M375.42,436.43c-1.11-.07-3.13,1.38-4.03.8-.24-.15-1.04-1.82-1.42-2.32-.49-.64-1.73-1.71-1.99-2.37-.27-.69,1.99-.61,2.43-.72l1.77,1.81-.46-1.55c2.16,0,3.62,2.4,3.71,4.34Z"/>
    <path class="cls-1" d="M374.81,445.46l-.52,1.58c-.79.47-1.47.2-2.28-.03-.23-.3,2.61-1.75,2.8-1.55Z"/>
    <path class="cls-1" d="M386,431.46l-5.6-5.28c2.54.73,6.12,2.02,5.6,5.28Z"/>
    <path class="cls-1" d="M301.13,438.46c-.4-.85,2.46-.85,2.79-.77.15,1.67-1.83,1.96-2.79.77Z"/>
    <path class="cls-1" d="M322.11,420.9c-3.47-.42-7.05-.49-10.57-.63-.38-.01-1.16.24-1.08-.31,3.04.22,6.48-.3,9.48,0,.32.03,2.42.39,2.17.94Z"/>
    <path class="cls-1" d="M318.85,427.42c-.06.47-1.34.51-1.75.58-3.1.49-6.3.7-9.44.66.13-.62.64-.53,1.09-.62,3.2-.62,6.84-.61,10.1-.62Z"/>
    <path class="cls-1" d="M319.47,416.85c.08.52-.76.34-1.1.32-.84-.05-1.58-.33-2.46-.33-2.48-.02-5.89,1.4-7.33-1.23,3.7-.31,7.25.76,10.88,1.24Z"/>
    <polygon class="cls-1" points="318.54 429.6 314.61 430.81 312.63 430.37 318.54 429.6"/>
    <path class="cls-1" d="M326.31,430.53l-2.41,1.16c-1.78.3-4.17,2.24-5.36.23l7.77-1.39Z"/>
    <path class="cls-1" d="M322.27,414.99l-2.29.27-10.45-1.82c4.21-.93,8.71.28,12.74,1.55Z"/>
    <path class="cls-1" d="M308.28,417.47c-1.33.46-2.11-.3-3.14-1.06-.35-.26-.77,0-.59-.8,1.66-.26,2.89.47,3.73,1.86Z"/>
    <polygon class="cls-1" points="303.92 435.81 300.81 435.82 300.81 434.88 303.11 434.65 303.92 435.81"/>
    <path class="cls-1" d="M350.08,424.92c-3.62.47-7-.46-10.46-1.32l-4.29-2.7c5.66-.3,11.26.64,16.48,2.8.53.58-1.41,1.18-1.73,1.22Z"/>
    <path class="cls-1" d="M312.32,425.56l-2.06.58c-5.74,1.24-11.11.8-16.9.35l.46-.62,18.5-.31Z"/>
    <path class="cls-1" d="M304.23,450.43c-2.94,1.47-2.73.16-4.35-1.86.58,0,5.02.96,4.35,1.86Z"/>
    <path class="cls-1" d="M333.15,424.01c-.76,1.35-2.53.11-3.73.3v-1.23s3.73.93,3.73.93Z"/>
    <path class="cls-1" d="M312.32,468.15c-.96,1.01-2.98,1.41-4.35,1.55l2.78-1.4,1.57-.14Z"/>
    <path class="cls-1" d="M341.54,431.15c-4.14-.29-9.09-1.24-12.75-3.27-.29-.16-.83-.04-.61-.61.41-1.08,2.67-.97,3.55-.43.31.19.43.69.59.79,2.56,1.55,5.57,2.05,8.36,3,.33.11.94.07.86.53Z"/>
    <path class="cls-1" d="M336.26,423.08l-.15.62c-1.62-.31-3.89-.75-5.13-1.87,2.27-.76,3.36.36,5.28,1.25Z"/>
    <path class="cls-1" d="M338.75,440.63c-1.31.86-2.85,1.88-4.36,2.34.52-.57,4.66-3.36,4.97-3.1.6.49-.46.66-.62.77Z"/>
    <path class="cls-1" d="M331.91,431.77l-4.04.31c.95-1.97,2.63-1.67,4.04-.31Z"/>
    <path class="cls-1" d="M317.92,437.37c.04-.6-.22-1.64.3-2.03l6.51-1.68.34,1.21-7.15,2.49Z"/>
    <path class="cls-1" d="M313.87,434.26c-1.42-.12-6.16,2.22-5.4-.3,1.72.04,4.41-1.62,5.4.3Z"/>
    <path class="cls-1" d="M326.62,424.62c-1.24.06-1.59.99-2.31,1.77l-3.6-.53c0-.61,1.32-.35,1.52-.66.18-.27.07-1.2-.11-1.52l-3.58-1.24c2.51-.42,4.75.95,7.14.32l.94,1.85Z"/>
    <path class="cls-1" d="M281.85,423.7c.08.52-.75.34-1.1.32-.78-.04-1.92-.24-2.7-.42-.54-.13-1.39.01-1.18-.83l4.97.93Z"/>
    <path class="cls-1" d="M265.06,467.22c-.13.52-1.39.7-1.85.79-2.67.52-6.76.57-9.5.45-.94-.04-2.77-.26-3.58-.78,2.71-.88,5.72-.36,8.56-.45,2.19-.08,4.12-1.13,6.36,0Z"/>
    <path class="cls-1" d="M264.75,470.95l-.32,1.24-2.79-.62c-.07-.44.86-.49,1.17-.53.65-.09,1.28-.14,1.93-.09Z"/>
    <path class="cls-1" d="M260.31,473.51l-4.75.86-2-.32c-.09-.6.25-.83.78-.93,1.49-.28,4.12.63,5.97.39Z"/>
    <path class="cls-1" d="M249.21,473.43c-1.61.31-3.18.87-4.04-.92,1.38.15,3.35-.6,4.04.92Z"/>
    <path class="cls-1" d="M265.37,419.34l-13.99,2.79c.18-.43,1.33-.68,1.8-.84,3.87-1.27,8.12-1.85,12.19-1.96Z"/>
    <path class="cls-1" d="M277.5,474.37c-.4.72-1.9.74-2.62.91l-3.6-1.53,6.22.62Z"/>
    <path class="cls-1" d="M284.96,470.32c-.32-.1-.67.32-.78.32-2.64,0-6.57.34-9.02,0-.13-.02-.89-.31-.78-.62,2.08-.26,7.78,1.88,5.28-2.18l5.28.31c-.78.95-.79,1.22,0,2.17Z"/>
    <path class="cls-1" d="M245.48,418.72c0,.94-.73,1.59-1.55,1.86l-.63-1.55c.89-.3,1.19-.8,2.18-.32Z"/>
    <path class="cls-1" d="M266.93,415.61l-2.37.59c-3.02-.16-6,.77-8.98.98-.77.06-.86-.08-.05-.36.95-.33,3.89-1.21,4.7-1.21h6.69Z"/>
    <path class="cls-1" d="M277.8,412.65c-1.22,1-1.31,2.97-3.24,2.97l-5.45-4.36c.99-.36,8.71.62,8.7,1.39Z"/>
    <path class="cls-1" d="M181.43,388.56c.2-2.2-1-4.19.32-6.22l.61,6.22h-.93Z"/>
    <path class="cls-1" d="M179.31,465.58c-.07.45.34.94.11,1.33-.1.17-.59.23-.81.53-.28.37-.1,1.15-.9,1.18l-14.16,2.32,4.98-2.17c.58-.45.97-1.45.25-1.91-.45-.28-9.02.07-10.53.05-2.74-.03-5.5-.42-8.39-.34-5.02.14-9.78,1.27-14.87.6-2.29-.31-4.42-1.32-6.72-1.52-.06-.46.81-.56,1.11-.59,3.37-.37,7.39-.03,10.85-.34,6.4-.59,18.94-1.67,24.2-4.71,1.19-.69,2.62-2.42,3.94-2.28-.62.53-2.77,3.39-.53,2.58,3-1.08,5.94-9.26,6.13-12.37l2.02,4.35.76-.49c-1.5-6.07-3.86-11.74-3.41-18.16l1.25,4.66.93-.16-3.11-18.65.47-.78.46.62,1.56-2.32c-.1-.48-2.34-1.1-2.64-.17l-.43-.5-2.53-28.56h.62l2.49,25.34.32-2.03c-.55-6.34-1.47-12.63-2.19-18.95-.15-1.34-.04-3.76-.32-4.92-.06-.24-.6-.2-.63-.4-.09-.66.6-2.14.64-2.91l2.43,7.05c.45,1,2.37,4.81,3.02,5.38,1.07.94,1.89-.61,2.02-1.55l.61,4.51c.8,11.37,1.32,21.88.92,33.25-.09,2.57.1,5.16,0,7.74l1.25.2c-.14,1.43.2,3.15.02,4.53-.15,1.21-1.31,1.06-.96,4.02.34,2.84,1.91,4.37,3.38,6.48-1.05,1.77-3.99,3.57-3.63,5.89.12.79,1.19,1.31,1.14,1.87-.05.59-1.01,1.59-1.13,2.31Z"/>
    <path class="cls-1" d="M237.26,441.73c-.07.23-2.02,4.01-2.23,4.32-1.87,2.85-8.37,3.62-11.54,4.94-1.65.69-4.11,2.57-5.44,2.96-1.7.5-4.82.3-6.86.61-4.89.73-10.91,2.04-15.73,3.23-3.04.75-7.32,2.7-9.92,3.13-1.56.26-3.19-.19-4.74.39-.71-.8,4.08-4.71,3.95-6.1-.78-4.34-2.31-8.47-2.71-12.86l4.8.63c.79-.11,1.48-1.87,3.14-2.17,2.23-.4,2.73.93,3.98.89,3.37-.09,5.95-1.42,8.78-1.81,3.13-.43,6.72-.36,9.91-.66,6.28-.59,11.37-1.74,17.74.01l4.92-.54c1.18.39,2.31,1.77,1.93,3.03Z"/>
    <path class="cls-1" d="M170.55,442.5v5.75h-.31v-4.5c0-.34-.63-1.33-.31-2.02h.3c-.07.29.32.63.32.78Z"/>
    <path class="cls-1" d="M243.92,473.74c-4.56-.11-8.98-1.37-13.37-2.49-.66-.65,1.57-1.03,1.85-1.1,1.83-.43,3.72-.53,5.6-.45l.31,1.4,5.28.79.33,1.84Z"/>
    <path class="cls-1" d="M300.66,414.06c-1.82.22-5.6-.89-7.76-.95-3.96-.12-8.05,2-11.04-1.07,6.25-2.99,13.09-.39,19.27,1.4.46.42-.04.58-.47.63Z"/>
    <polygon class="cls-1" points="231.49 452.92 230.35 455.05 222.16 456.33 225.41 454.77 231.49 452.92"/>
    <path class="cls-1" d="M234.9,469.08l-4.04.62,2.65-1.56c.7-.11,1.48.07,1.39.94Z"/>
    <path class="cls-1" d="M224.95,470.02c-.13.62-.64.53-1.09.62-2.64.51-5.38.42-7.93-.46,3.08-1.32,5.87-.42,9.02-.15Z"/>
    <path class="cls-1" d="M211.85,467.36c-.41,2.53-3.77.88-5.69,1.73-3.97-.29-8.22-.2-12.15-.62-.46-.05-.96-.07-1.08-.63,2.49-.53,5.89-.73,8.24-1.56.76-.27,1.35-1.14,2.18-1.11,1.04.04,6.17,1.19,7.3,1.58.33.11,1.16.24,1.19.61Z"/>
    <path class="cls-1" d="M338.68,445.23c-.42.75-1.66,2.7-2.22,3.22-.48.45-4.95,2.78-5.18,2.59,1.65-3.35,4.68-4.83,7.62-6.84.46.24-.07.75-.22,1.02Z"/>
    <path class="cls-1" d="M386,442.66l-1.72,1.16c-3.13-3.12-3.08.22-4.2,1.16-.55.46-1.94.41-2.65.69l-1.35-1.65c.75-.7,1.02-2.77,1.36-3.23.5-.67,4.85-.25,5.82.1,1.1.4,1.63,1.5,2.73,1.78Z"/>
    <path class="cls-1" d="M380.72,447.79c-3.43,1.68-6.95,3.36-10.88,3.26-.12-.63.28-.74.75-.95,1.65-.74,5.5-1.74,7.4-2.24.81-.21,2.11-.93,2.72-.07Z"/>
    <path class="cls-1" d="M370.77,454.79c-2.37,3.09-6.47,4.19-9.95,5.59.52-.62-.04-2.05.02-2.15.1-.17,2.66-1.72,3.24-2.2.45-.38.71-1.09.99-1.26,1.19-.71,4.31-.2,5.69.02Z"/>
    <polygon class="cls-1" points="366.42 465.35 364.17 466.37 360.83 467.21 363.45 465.96 366.42 465.35"/>
    <path class="cls-1" d="M393.15,441.27c-1.5-2.73-.03-5.45-1.24-8.25l-.95.14-.24.38c-.29,1.15.19,2.24.27,3.37.02.28.14,1.06-.33.63-.48-1.38-2.75-3.19-3.19-4.29-.32-.79.32-2.75.02-4.04-.24-1.06-1.33-1.52-1.8-2.39,3.28-.44,11.47,5.1,12.5,7.86,1.59,4.23-1.48,5.86-5.05,6.61Z"/>
    <path class="cls-1" d="M400.69,440.08c-.7,1.93-3.7,3.89-5.35,5.06-.02-.39.08-.95-.14-1.27-.2-.28-1.75-.25-1.11-.91.12-.13,2.71-.87,3.32-1.19,4.82-2.58,3.23-8.15-.21-11.24.29-.26,2.98,1.62,3.31,1.98,1.25,1.36.79,5.88.18,7.58Z"/>
    <path class="cls-1" d="M90.64,337.26l-3.11-4.04c1.78.44,3.08,2.24,3.11,4.04Z"/>
    <path class="cls-1" d="M390.59,445.53c-1.55.71-3.85.58-5.51,1.17-.98-1.07,3.35-2.03,3.93-2.07.6-.04,1.32.33,1.98.2.1.66.02.5-.4.69Z"/>
    <path class="cls-1" d="M363,454.79c-.53.7-2.31,2.2-3.09,2.34-.8.14-1.98-1.55-3.13-1.1-.21,1.19.87,1.39,1.55,2.02l-2.46.74c-.04-.59-.34-1.55-1.06-1.48-.28.03-4.17,2.32-5.07,2.71-4.27,1.85-8.51,2.53-13.17,2.53.13-.5.71-.74,1.16-.86,3.07-.79,7.7-.58,10.56-2.18.75-.42,1.94-1.91,2.85-2.44.29-1.07-.76-.69-.9-1.35,4.17-.98,8.48-.99,12.74-.93Z"/>
    <path class="cls-1" d="M355.12,461.66c-2.77.83-5.28,1.99-8.29,1.52-.07-.48.58-.37.93-.46,2.65-.68,5.4-1.18,8.08-1.72.15.91-.21.51-.73.66Z"/>
    <path class="cls-1" d="M318.39,470.64c-3.23.38-6.56.29-9.8.62l4.23-1.53,6.03.29c.49.37,0,.57-.46.62Z"/>
    <path class="cls-1" d="M321.58,456.49c.16,1.74-3.12.81-3.66-.15.81.19,3.53-1.26,3.66.15Z"/>
    <path class="cls-1" d="M316.98,471.89l-8.84,1.25-9.5-.33c0-.53,1.03-.59,1.39-.62,4.08-.33,8.61.16,12.76.01,1.33-.05,2.76-.59,4.18-.32Z"/>
    <path class="cls-1" d="M291.49,440.79c-.46,1.82-2.37,2.57-3.72,1.09.81-1.15,2.45-.71,3.72-1.09Z"/>
    <path class="cls-1" d="M305.17,475.93c-.09.54-1.62.34-2.04.32-2.74-.15-5.81-.53-8.48-1.16-.5-.12-1.76-.22-1.92-.72l12.43,1.56Z"/>
    <path class="cls-1" d="M328.65,471.26c-2.09,1.07-4.69,1.76-7,2.17l2.65-1.54c1.11-2.05,3.96-1.71,6.05-2.18.55.48-1.49,1.45-1.7,1.56Z"/>
    <path class="cls-1" d="M331.6,438.31l-4.24,2.44c-3.09,1.06-6.01,3.21-9.44,2.84l3.65-2.1,10.03-3.18Z"/>
    <path class="cls-1" d="M126.27,339.15c-.73.31-1.25.38-2.05.28-1.29-1.32,4.54-3.74,5.6-3.73.53.53-3.06,3.23-3.55,3.44ZM128.9,343.3c-.31-1.18,3.39-2.42,4.34-2.62.61,1.72-3.91,4.26-4.34,2.62ZM193.56,353.74c1.11.59,2.26,2.29,1.09,3.41-.16-.24-.58-.21-.71-.38-.43-.54-.38-2.3-.38-3.03ZM190.4,360.53h-1.17s-.96-5.24-.96-5.24c1.65-.1,3.08,4.66,2.13,5.24ZM183.3,358.09c1.22-.16,2.51,1.7,2.72,2.71.28,1.38-.43,6.34-1.48,3.66-.32-.81-1.61-5.98-1.25-6.37ZM155.52,262.39c-.43,2.24-.46,4.25-.86,6.44-2.98.37-1.72-4.91-1.32-6.76.98-4.42,3.02-9.38,6.01-12.8-1.11,4.38-2.97,8.66-3.83,13.12ZM160.48,278.17c-1.8-.3-.27-6.02.19-7.22.32-.85,1.08-1.45,1.18-2.39l.32,2.97c-.49,1.13-.17,6.9-1.69,6.65ZM165.11,281.3l.15,6.84c-2.65.04-1.83-5.65-.15-6.84ZM170.5,296.49c-1.41.46-1.44-.65-1.73-1.76-.91-3.45.08-6.37.85-9.7l.31,2.8.92-.93c-.87,3.22.33,6.54-.35,9.59ZM174.59,299.64c-.29-.27-.74-5.79.62-6.22-.07,1.73,2.01,6.17-.62,6.22ZM185.96,313.61c-.85-1.31-2.67-6.15-2.67-7.59v-5.13l3.46,9.75c.86,1.85,1.85,3.62,3.37,5.02-1.53,1.45-3.35-.79-4.16-2.05ZM197.23,318.19c-1.71-2.94-2.32-6.15-2.43-9.53l3.79,7.86c.86,2.21,3.73,3.39,3.67,5.81-2.14.29-4.05-2.45-5.02-4.14ZM211.59,323.89c-2.76.36-2.83-2.29-3.1-4.35l2.18,2.96c.14.27.79.4.86.52.15.26.05.59.07.87ZM274.86,287.21c2.44-2.7,6.94-8.41,7.25-12.05.03-.37-.46-1.82-.59-1.92-.2-.14-1.45.29-1.98.3-26.38.55-40.86-12.75-61.75-25.64-16.39-10.11-36.65-19.21-54.78-25.74-.73-.26-6.52-1.88-6.85-1.77-3.09,3.48-6.14,6.98-8.86,10.75-5.85,8.08-12.48,19.5-16.27,28.81-1.18,2.9-2.15,5.85-2.75,8.91-.87.04-1.33-.92-1.72-1.54-1.5-2.39-2.15-5.48-3.1-8.09-1.84,4.07-1.86,8.96-5.44,12.12,1.12-2.97-.66-5.43-1.41-8.39-.93-3.72-1.78-7.9-2.29-11.7-.17-1.31-.52-8.68-.97-8.99-1.4.51-2.12-.33-3.43-.45l-1.25,7.78-.77-1.24c-.66.73-1.38.91-1.87,1.85-.2.38-1.6,4.22-1.61,4.45-.03.91.33,6.09.52,6.84.07.3.67.27.87.74.29.68.3,2.11.38,2.9l1.55-.62c.49,1.16-1.07,2.15-1.17,2.68-.23,1.2.9,4.24.87,5.58-.01.61-.47.91-.49,1.4-.05,2.17,1.78,5.24,2.43,7.19,1.14,3.43,1.98,6.98,3.32,10.35-.24.57-.52,1.66-1.37,1.41l-1.88-3.12c-.61,1.16.49,2.33.7,3.35.37,1.86.29,3.76.96,5.57.98,2.63,3.47,4.55,5.04,6.78l-1.05.75-3.62-3.39c-.18,1.3.6,2.68.61,3.89.02,1.89-.07,5.97-.28,7.79-.03.23-1.4,1.98-1.45,2.47-.07.62.89,2.03.84,3.12-.02.54-.54.46-.63.69-.51,1.44-.31,2.92-.33,4.42l2.96-7.46.76.46-6.07,21.92c1.14.75,1.8,1.87,2.83,2.79,2.09,1.89,5.45,4.24,7.82,5.86,1.17.79,9.26,5.95,9.83,5.9.63-.07.96-.66,2.19-.54.53.05,4.73,1.57,5.03,1.84.44.38.63,1.38,1.07,1.88-2.01.55-3.11-.15-4.97-.61l.97,7.74c1.64.13,6.88,2.34,8.06,1.75.57-.28.65-1.74,2.26-1.43.31.06.53,1.26,1.37,1.51,1.41.42,3.18-.64,4.69.13l.38,3.67c.54-.1.52-.9,1.06-1.26,1.59-1.07,1.68.78,2.23.91.26.06.99-.29,1.52-.28,1.85.03,1.26,1.07,1.43,1.22.32.3,1.38-.4,1.23.51-.13.74-1.37,2.07-1.56,2.95.31.26,3.17-2.37,3.7-.73.32.99-1.62,3.85-1.52,5.08.3.33,4.05-2.72,4.52-3.1,1.35-1.13.86-.46,1.4-.77.56-.32.49-2.14,1.85-1.72l-3.1,13.99c2.31-1.39,5.55-7.12,7.79-7.92,2.21-.79,1.18,1.04,1.3,2.07.43,3.75,2.58,8.48,4.44,11.75l3.42-18.34c.11-.53,2.39.19,2.48.28.32.35,1.33,3.93,1.86,5.01.61,1.22,1.59,2.88,2.65,3.72.67-4.8-.76-9.22-1.85-13.81l.62-.35c1.2.29,1.81,3.18,3.41,3.28.5-.56-1.39-4.03-1.49-4.89-.09-.74,1.21-2.72,1.95-2.57.19.03,1.78,2.34,3.27,1.56l.95-4.17,11.81-7.48c1.12-1.27.4-4.36.79-6.08-1.36-.38-2.72-.5-4.08-.91-9.71-2.94-21.39-11.39-27.8-19.14-1.79-2.16-3.22-4.62-5.14-6.67.06,1.84.92,3.61,1.08,5.44.21,2.41.29,4.99-1.88,6.5-1.94,1.36-3.61,1.19-5.55,0-5.08-3.1-12.96-14.76-15.52-20.23-2.14-4.58-3.82-9.74-4.71-14.72-.54-.07-.29.71-.31,1.08-.1,2.47.07,5.3.31,7.77.25,2.58.48,5.23,1.55,7.62-1.2,1.16-2.37-5.02-2.44-5.48-3.04-18.68,0-48.99,7.89-66.33.46-1.03,1.65-2.39,2.02-3.27.07-.18.06-.53-.15-.46-.95.48-6.48,4.57-7,4.03.03-.45-.09-.97,0-1.4.16-.81,4.28-3.17,5.28-3.73,6.27-3.54,13.45-6.22,20.53-7.61l-7.98,4.29c-14.4,8.6-18.65,33.12-19.39,48.7-.77,16.09,7.26,33.95,18.51,45.26,4.25,4.27,7.42,4.51,6.34-2.62-.77-5.1-3.74-10.12-4.23-15.05-.04-.34-.37-1.06.21-.99,3.71,5.2,7.38,10.5,11.52,15.38,4.03,4.75,7.74,8.44,12.95,11.92,4.52,3.02,14.6,8.45,19.84,8.45h10.57c.05,0,.91-.31.78-.62-5.18-1.2-10.07-4.18-14.46-7.15-1.95-1.32-11.34-8.13-11.6-9.86-.08-.56-.02-.69.42-1.02,7.46,5.21,16.17,12.94,25.09,15.32,5.28,1.41,13.71.38,18.66-2.05.81-.4,2.62-1.2,2.44-2.23-2.47-1.65-12.05-5.42-13.08-7.77-.19-.43-.48-.27.17-.79,6.12,2.34,16.32,8.15,22.87,7,2.22-.39,4.74-1.77,5.23-4.1.14-.64-.03-.33-.41-.43-7.19-2.03-14.84-3.25-19.92-9.62-.39-.49-1.45-1.71-.61-2.18.74-.16,2.84,2.09,3.6,2.61,4.75,3.32,13.88,7.39,19.71,6.71,4.38-.51,7.06-6.87,4.68-10.58-8.02-5.43-15.06-12.02-21.93-18.8.5-.32,1.4.37,1.87.62,3.15,1.64,6.3,3.94,9.64,5.28,4.62,1.86,6.67,2.02,3.78-3.16-3.23-5.8-9.3-9.82-14.05-14.25-1.46-1.36-2.73-3.07-4.35-4.21-.07-.59.62-.25.93-.16,2.18.66,3.98,2.65,5.27,3.08.84.27,5.42.33,6.32.13,3.23-.73,2.23-4.88,1.21-6.99-2.82-5.81-10.54-7.28-14.83-11.6.66-1.7,2.96.28,4.2.15l-12.44-10.41c1.37.41,2.79,1.3,4.02,2.04,5.08,3.06,10.2,7.56,14.65,11.47,1.48,1.3,4.89,4.95,5.85,6.59,3.59,6.15,3.22,12.84-5.54,11.76,2.44,2.13,5.18,4.22,7.31,6.68,2.63,3.04,8.73,11.17,1.08,11.97.91.45,2.48,2.11,3.34,2.29,1.46.29,4.77-2.82,6.27-3.42l-.29-1.51,3.42-.94-1.56-.45c-.48-.42-.37-.53,0-.96.47-.55,3.5-1.33,4.58-1.95,2.06-1.18,7.15-5.84,8.31-7.86.3-.51.61-1.34.45-1.93-.66-2.46-7.58,1.18-8.04.71l.62-2.31-.94-.93c.09-.97,3.3-3.52,4.21-4.53ZM116.92,335.08c-.52-.1-.5-.76-.31-1.24.69-1.74,3.36-4.35,4.81-5.6-.35,1.22-3.14,7.11-4.5,6.84Z"/>
    <path class="cls-1" d="M324.14,468.77c.85-2.33-.97-2.37-2.18-3.73.46-.38,3.23-.13,3.39.02.11.1,0,1.5.51,1.83l2.31,1.88h-4.04Z"/>
    <path class="cls-1" d="M264.13,479.65h-6.06c-.48,0-3.5-.87-4.18-1.1-.44-.15-4.76-1.93-4.36-2.32,2.14-.57,2.82-1.42,5.06-.24,3.9,2.05,3.92,2.18,8.46,3.04.46.09.97,0,1.09.62Z"/>
    <polygon class="cls-1" points="108.05 321.09 107.12 321.09 106.5 315.19 107.98 319.77 108.05 321.09"/>
    <polygon class="cls-1" points="106.81 334.15 105.66 329.85 105.26 326.07 106.41 330.36 106.81 334.15"/>
    <path class="cls-1" d="M103.38,246.47l-3.1.63c-.19-.17,1.84-2.74,2.09-3.03.19-.22-.01-.59.71-.4l.31,2.79Z"/>
    <path class="cls-1" d="M108.69,306.7l-.63,2.89-1.25-5.91c.19-.19,2.37.87,2.44.98.32.52.17,1.83-.56,2.04Z"/>
    <path class="cls-1" d="M153.14,382.5c-.33.36-3.04,1.71-3.88,2.34-2.72,2.04-4.83,4.86-7.62,6.83-.03-.64-.08-1.16.29-1.73.48-.74,3.63-2.99,4.54-3.86,1.74-1.68,3.46-3.4,4.97-5.29l.66.92,1.36-.3c.07.5.04.71-.31,1.09Z"/>
    <path class="cls-1" d="M95.3,229.07c.06.45-.81.56-1.11.59-2.17.25-4.54.13-6.66.65-.13-.8.12-.56.67-.71,2.17-.58,4.85-.52,7.1-.53Z"/>
    <path class="cls-1" d="M95.23,335.29l-.55,1.97c-1.11.88-1.87-4.73-1.86-5.28l2.41,3.31Z"/>
    <path class="cls-1" d="M99.97,297.78c-3.94-.09-1.36-3.79-1.88-6.32l1.25-.52v4.97c0,.12,1.16,0,.62,1.86Z"/>
    <path class="cls-1" d="M157.48,112.02c-.16-1.74-1.01-3.4-1.2-5.02-.22-1.88.19-4.01-.06-5.85-.4-2.89-3.32-5.61-2.75-8.71.13-.73.87-1.35.9-2.22.07-1.96-6.18-11.86-7.91-13.51-1.06-1-2.51-1.69-3.59-2.63-4.72-4.09-8.73-10.65-15.23-12.75-1.8-.58-3.54-.24-5.28-.78-.03,1.79,1.59,2.95,2.45,4.23.35.53.2,1.23.43,1.59.26.41,4.66,3.6,5.41,4.07.78.5,3.23.86,1.76,1.88-1.97.62-5.87-3.22-7.46-4.26-3.99-2.62-8.62-5.8-12.64-8.2-3.69-2.2-9.24,1.03-13.18,1.86l-8.06,6.55-.73-.11c-.18-1.44,1.39-2.11,2.18-3.11l-.46-.15c-3.17,2.51-6.8,4.39-10.08,6.71-9.39,6.64-11.85,9.59-17.29,19.71-3.11,5.79-5.73,11.86-8.73,17.69-.35.68-1.3,1.42-1.54,2.19-.53,1.73-.49,4.39-1.07,6.23,4.48-2.36,9.74-6.69,14.85-7.38,4.3-.59,12.11.8,15.6,3.52,3.97,3.09,4.67,9.5,8.71,13.05,3.26,2.86,8.23,2.73,11.21,5.89,3.12,3.3,3.25,6.31,1.7,10.42-.41,1.08-2.59,4.43-2.65,4.84-.2,1.34,1.32,1.89,1.55,3.1,1.1,6.01-4.81,16.54-6.38,22.5-.18.3-.46.7-.87.63-1.49-.25-.54-4.49-.66-5.58-1.09,1.18-2.35,2.23-3.43,3.41-4.38,4.83-7.91,9.06-10.33,15.16-3.05,7.68-5.98,16.76-7.45,24.89-.4,2.25.08,3.42-.07,5.19-.06.63-.57,1.38-.56,1.56.09,1.27,9.65,7.46,11.12,9,.49.52.85.98.94,1.72l3.71-.62-1.25-.31v-.93c5.83.49,11.66.97,17.52.26.57-.19.91-1.54,1.31-2.11,1.12-1.56,2.97-1.36,4.8-2.05,7.29-2.74,15.9-10.08,21.46-15.53,1.33-1.31,9.53-10.14,9.53-11.19-.84-1.28-.59-3.1-.92-4.59-.06-.3-.11-.93-.53-.86-.53,2.31-1.07,4.85-1.78,7.09-.16.53.13.82-.7.67.04-1.08-.07-2.18,0-3.26.23-3.23,1.99-8.45,1.08-11.35-.09-.29-.05-.71-.46-.61l-8.77,16.09-.87.07c-.53-.52,3.12-6.93,3.68-7.98,4.4-8.28,9.19-16.37,13.58-24.66,1.57-6.01.86-12.32,2.02-18.35.31-.13.62.73.62.77v6.38l3.43-15.38-2.76-.84c-.78-1.96,1.92-3.27,2.91-5.22.98-1.92,1.04-4.16,1.85-5.93.28-.61.59-1,.86-1.17-.08-2.2.3-6.15.29-6.45-.08-2.9.53-6.27.24-9.32ZM70.45,99.59c-.38.31-1.23.03-1.25-.33-.06-.88,4.13-3.26,5.28-2.64l-4.03,2.97ZM73.24,89.96l-.94-.33c.45-1.52,2.18-1.48,3.42-1.39l-2.48,1.73ZM97.25,115.2c-5.74,2.31-7.36-9.28-1.4-10.43,1.83-.35,5.54,2.01,5.66,3.84.17,2.54-1.91,5.64-4.26,6.59ZM129.06,192.09l-.38.25-2.9-.27.15-.94h3.27s-.13.96-.13.96ZM133.41,178.41c-5.54,1.26-5.63-1.65.14-.95l-.14.95ZM135.72,170.46c-.55.92-2.8.27-2.8-.62l.52-.75c.74-.09,2.62.26,2.28,1.37ZM136.66,160.19c-.31-1.06,1.88-2.09,2.79-2.01,1.23,1.58-2.38,3.37-2.79,2.01ZM143.12,149.09c-.26.23-2.69.64-2.72-.08.03-1.23,3.35-3.99,3.73-2.17.02.12-.91,2.18-1,2.25ZM143.98,132.08c-.57,1.75-2.88,1.55-2.21-.96.33-1.26.93-2.27,2.34-1.86-.05.92.16,1.93-.13,2.82ZM142.92,117.72l.13-1.54c1.12-.53,2.11-.14,3.24.04.15,1.7-2.12,2.21-3.37,1.51ZM145.05,100.97l.35-1.82,1.83-.04c.26,1.52-.85,1.94-2.18,1.86Z"/>
    <path class="cls-1" d="M101.52,341.93c-.96-1.13-2.68-3.49-3.1-4.82-.05-.16-.09-.51.15-.46l2.26,1.93.69,3.36Z"/>
    <path class="cls-1" d="M105.88,229.38l-.31,1.86c-1.36-1.28-2.94-.91-4.66-.93l4.97-.92Z"/>
    <path class="cls-1" d="M100.59,328.24l-2.73-4.27.25-2.57c.45-.07.41.53.54.86.76,1.92,1.36,4,1.94,5.98Z"/>
    <path class="cls-1" d="M168.37,432.71l-12.13,2.18v-18.51s-.95-18.32-.95-18.32v-15.4c-.78.39.26,2.17-.92,2.49.46-2.53-.71-7.5,1.86-8.71.03,1.34-1.55,3.7-.65,4.84,1.27,1.62,4.86-2.11,5.31-1.73-.69,2.34-1.6,4.91-1.83,7.34-.07.81-.36,5.1.74,5.08l3.73-3.41c.9,1.29.56,2.83.85,4.12,1.11,5.01,2.99,12.1,3.04,17.16,0,.7-.01.83-.4.09-.9-1.75-1.95-3.41-2.73-5.21-.49-.08-.34.44-.31.77.18,1.83.92,4.81,1.46,6.62.59,1.96,2.63,5.51,2.87,7.08.63,3.98-.42,9.37.02,13.51Z"/>
    <path class="cls-1" d="M154.38,442.19c-.28-3.25.12-6.95.01-10.28-.36-11.33-.43-22.55-.31-33.86.05-4.84-.02-9.65-.33-14.47-1.13-.07-1.12,1.26-1.69,1.89-.36.4-.95.58-1.26.91-2.54,2.74-4.94,6.07-8.47,7.54l.07,2.71c2.04-1.99,3.97-4.13,6.22-5.9.41-.33,3.65-2.7,3.88-2.49-1.38,1.58-2.51,3.4-3.88,4.98-1.03,1.18-5.53,5.25-5.75,6.37-.25,1.27.08,2.97.46,4.19,2.71-2.76,5.44-5.57,8.86-7.46l-3.56,4.67c-.92,1.02-4.62,4.2-4.97,4.98-.78,1.72.46,4.92.15,6.83l5.59-5.45,3.43-2.64c-2.14,4.53-6.26,7.62-8.95,11.72l.33,12.33c.33.76,1.91.74,1.49,2.48l-3.43.98,3.29,2.34.08.39c-.74,1.97-1.33,1.94-3.37,1.78,1.53,2.78-1.1.89-1.66.99-.34.06-.84.67-1.63.86-2.36.54-5.09.12-7.44.33-2.54.23-5.04,1.04-7.62.93.56.79,2.54.8,3.58.92,2.13.26,4.39.47,6.53.62,1.95.14,6.97-.98,4.81,2.02l-24.87,6.07c5.36-.27,11.02,1.94,16.32,1.55,4.29-.31,10.48-1.9,14.78-2.94,1.47-.36,9.37-2.26,9.8-2.96.41-1-.39-1.89-.48-2.95ZM147.07,418.1c-.54.57-1.09,1.39-2.02,1.24-.13-.59.33-.73.62-1.09.96-1.17,2.28-2.25,3.42-3.26-.33,1.01-1.3,2.35-2.02,3.11Z"/>
    <path class="cls-1" d="M92.82,328.55c-.86-.34-3.17-3.12-1.71-3.73l1.71,3.73Z"/>
    <g>
      <path class="cls-2" d="M224.02,430.84c2.68-.59,5.51-.52,8.2-.97.37-.06,1.45-.09,1.44-.58-2.97.59-7.5-.62-9.64,1.55Z"/>
      <path class="cls-2" d="M242.99,445.15l-4.66,2.79c2.46-.07,3.45-.7,4.66-2.79Z"/>
      <path class="cls-2" d="M281.23,413.74c-1.73-.91-2.88-.74-4.04.93l4.04-.93Z"/>
      <path class="cls-2" d="M248.27,463.64c2.34,1.26,5.6.75,8.21.43.45-.06,1.88-.16,2.05-.58-1.73.15-3.78-.93-5.41-.9-.45,0-4.86.8-4.86,1.06Z"/>
      <path class="cls-2" d="M255.12,423.38c-1.76.31-3.55.65-5.28,1.09-.35.09-1.01-.01-.93.46,2.26-.05,4.68.55,6.22-1.55Z"/>
      <path class="cls-2" d="M259.47,459.75c-1.29-.58-.87.24-1.47.63-.6.39-1.64.43-1.95,1.23l3.1.3.33-2.16Z"/>
      <path class="cls-2" d="M235.06,416.54c2.51-.14,5.23,0,7.77,0,.21,0,1.58.86,1.71,0-2.68-.63-5.15-1.14-7.94-.95-.34.02-4.22.39-3.25,1.25.62.27,1.37-.29,1.71-.31Z"/>
      <path class="cls-2" d="M250.45,448.57c-1.25.06-3-.4-3.73.92h3.73s0-.92,0-.92Z"/>
      <polygon class="cls-2" points="230.86 421.83 230.55 422.45 232.73 422.13 230.66 420.02 226.82 421.21 229.24 422.09 230.86 421.83"/>
      <path class="cls-2" d="M260.24,413.43h6.07c-2.47-2.28-5.34-.67-8.08,0,.18.89,1.78,0,2.02,0Z"/>
      <path class="cls-2" d="M233.66,419.18c2.45,3.29,7.06.83,9.64-1.08-3.27-.2-6.5.22-9.64,1.08Z"/>
      <path class="cls-2" d="M109.97,232.69c-.11.31-.43,6.14-.32,6.44.74.81,2.31.74,3.37,1.12l-1.71-8.7c-.32.45-1.18.63-1.35,1.13Z"/>
      <path class="cls-2" d="M146.6,231.55l3.75-5.46-1.26-6.35c-.52-.08-.34.75-.32,1.1.12,2.09.91,4.21.63,6.36l-.62-2.18-.62,1.55-.63-4.35c-2.06,1.25-.14,4.24-.62,6.21l-.93-4.35c-.35-.1-.45.36-.47.61-.12,1.05.34,3.88.52,5.09.07.41.12,1.69.58,1.75Z"/>
      <path class="cls-2" d="M54.58,165.81c-1.9,1.98-3.92,3.85-5.91,5.74,7.26-1.99,12.87-8.54,17.72-13.99-5.91.28-8.22,4.5-11.81,8.25Z"/>
      <path class="cls-2" d="M141,239.95l4.92-7.7-1.19-6.29c-.58.65-2.31,2.64-2.44,3.34-.26,1.44,1.05,4.9.88,6.61-.55-.32-.85-1.64-1.01-2.24-.27-.98-.47-2.02-.54-3.04-.72-.18-.51.15-.71.4-.23.29-1.02,1.45-1.09,1.71-.15.57.41,5.5.57,6.44.06.37.19.73.6.79Z"/>
      <path class="cls-2" d="M103.45,134.96c-2.55-4.29-7.49-3.69-11.26-6.77-4.35-3.56-5.69-10.94-10.46-13.79-1.99-1.19-6.04-2.34-8.34-2.54-7.12-.59-12.78,4.14-19.12,6.53.74,2.83,5.25,6.31,8.1,5.45.54-.16,1.12-.82,1.73-1.06,2.3-.9,8.32-2.45,10.38-.82,1.95,1.54-4,3.94-5.21,4.12-1.85.29-6.3-.59-7.09-.26-2.28.92-3.59,5.54-.76,6.56.09.48-.45.35-.76.29-2.26-.45-2.35-3.35-1.74-5.13.35-1.03,1.38-1.6,1.57-2.63-2.1-.31-3.84-1.57-5.57-2.67l-2.2-1.99c.01,1.06.05,2.07-.14,3.12-.18.95-3.21,7.84-3.75,8.38-.68.69-2.57,1.35-2.89,2.39-.59,1.97,1.35,2.75.81,4.53-.21.68-2.02,2.11-2.35,2.94-2.05,5.13-2.9,12.05-4.89,17.18-1.39,3.57-5.24,4.19-1.9,8.59.98,1.28,5.6,4.34,7.18,4.48.77.07,2.7-.28,3.34-.63.4-.22.46-.97.85-1.4,1.65-1.88,3.2-3.83,4.98-5.6l-4.28,1.63-1.32.08c-.78-.71,2.91-1.6,3.32-1.81,2.06-1.05,4.63-3,6.32-4.56-.46-.34-1.4-.15-1.24-1.09,3.07.35,3.5-1.42,5.28-2.96,7.55-6.53,13.81-10.76,22.9-15.03,1.12-.53,8.28-3.73,8.82-3.15.31,2.09-1.33,1.54-2.49,2.02-9.79,4.03-18.83,9.53-26.84,16.37-.27.23-1.01.61-.06.56,5.81-1.17,10.44-4.9,15.7-7.31,3.13-1.44,6.82-2.74,10.19-3.48,2.12-.47,8.19-.81,9.62-2.35.55-.59,1.07-2.19,1.76-2.91,2.16-2.26,4.23-1.25,1.82-5.29Z"/>
      <path class="cls-2" d="M227.44,423.07l-2.88-.88-5.21,2.43c2.33-.05,5.4-.25,7.63-.92.45-.13.54.18.45-.63Z"/>
      <path class="cls-2" d="M99.85,147.73c-.43-.34-1.71-1.26-2.15-1.43-1.19-.46-5.62.19-7.13.47-7.27,1.33-12.27,5.52-17.97,9.85,5.71-.16,9.74-3.71,15.22-4.83,4.44-.91,8.99-.53,13.07-2.94-.2-.3-.8-.91-1.05-1.12Z"/>
      <path class="cls-2" d="M140.33,240.68l-1.65-6.32c-3.05,2.88-.73,6.66-.77,10.25,1.11-.98,1.53-2.71,2.42-3.94Z"/>
      <path class="cls-2" d="M65.37,123.74c-.39.14-1.4.41-1.47.86,3.1.69,6.97.48,9.32-1.86-2.45-.28-5.51.17-7.85,1Z"/>
      <path class="cls-2" d="M196.01,431.6c.58-.83,2-.31,1.89-1.38-2.99-.02-6.52.46-9.39,1.33-.39.12-1.43.38-1.49.84l8.53.65c.29-.06.12-.95.46-1.44Z"/>
      <path class="cls-2" d="M128.17,260.71c-.67-2.24-.89-4.57-1.62-6.77l-.79.52c.16,3.79,1.66,7.33,2.51,10.98,1.88-1.77.4-3.09-.09-4.73Z"/>
      <path class="cls-2" d="M147.48,201.6l-1.19-3.94c-2.55,5.68-7.04,10.85-11.85,14.74-5.36,4.33-13.64,9.01-19.96,11.75-1.15.49-5.34,1.48-5.83,2.33-.46.8-.07,2.04-1.15,2.73l1.95,2.64,1.39-3.24c-3.15-1.4-.65-2.5,1.24-.94,1.14.95,1.83,4.74,2.11,6.29.83,4.56,1.2,9.23,2.05,13.82.84,4.58,1.97,9.09,3.01,13.62.81.14.48-.12.65-.44.67-1.31,1.1-3.07,1.78-4.43,4.62-9.31,18.46-32.36,25.86-38.81,2.7-2.36,6.09-3.71,8.71-6.05-4.44-1.48-6.84-6.11-8.76-10.06ZM115.83,228.92c-.28.39-.9-.11-.94-.32-.22-1.09,4.09-4.83,5.6-4.19l-4.66,4.51ZM119.74,237.79c-1.32.63-2.09.29-.91-.91.5-.51,4-3.26,4.46-2.84.35.33-2.96,3.48-3.55,3.75ZM120.18,243.99c0-1.94,1.98-2.94,3.42-3.73.25.26-2.62,4.51-3.42,3.73ZM120.81,229.85c-.88.85-2.54,2.45-3.74,2.33-.81-.81,3.04-3.94,3.76-4.48.4-.3,2.8-1.99,3.09-1.73.18.16-2.75,3.54-3.1,3.89Z"/>
      <path class="cls-2" d="M137.78,245.08c0-1.06-2.01-4.73-1.75-6.37-3.48,2.77-.92,7.42-.92,11.19.64-.56,2.68-4.25,2.68-4.82Z"/>
      <path class="cls-2" d="M198.06,433.64c1.55.21,3.93,0,5.6,0,.21,0,1.73-.24,2.18-.3.47-.07.96-.05,1.08-.63l-9.64.31c-.12.32.65.6.78.62Z"/>
      <path class="cls-2" d="M124,257.56c-.11,1.11,2.27,7.07,2.87,8.5.22.52.59,1.62,1.08,1.87.68-1.76-1.15-3.64-1.56-5.43l-1.85-6.38c0,.51-.49.99-.53,1.44Z"/>
      <path class="cls-2" d="M133.23,254.25l1.75-3.89c-.97-2.3-1.72-4.78-1.75-7.31-.67.64-2.1,2.74-2.13,3.56-.04,1.08,1.12,5.89,1.5,7.18.13.45-.18.54.63.45Z"/>
      <path class="cls-2" d="M129.81,262.02c-.13-1.91,2.78-5.47,2.78-7,0-1.15-2.71-5.09-2.16-7l-.93,1.09,1.24,8.54-1.33-2.55-.85-4.29c-.55.2-.92,1.54-.95,2.02-.07,1.39,1.06,6.63,1.53,8.12.13.41.11.95.66,1.05Z"/>
      <path class="cls-2" d="M278.06,423.59c.78.18,1.91.38,2.7.42.34.02,1.18.2,1.1-.32l-4.97-.93c-.21.84.64.7,1.18.83Z"/>
      <path class="cls-2" d="M353.2,428.05c-.46.11-.55-.22-.46.61l1.36.29,2.99-.9c-1.41-.27-2.47-.34-3.89,0Z"/>
      <path class="cls-2" d="M360.2,443.59l-1.85.48-4.99,5.11c4.32-.51,6.66-.49,6.84-5.59Z"/>
      <path class="cls-2" d="M361.45,438.92h2.49c.24-.23-2.17-6.17-3.41-5.28l-.29,1.35c1.62,1.06,1.85,2.1,1.22,3.93Z"/>
      <path class="cls-2" d="M333.64,419.01c2.27.36,5.34-.16,7.75.02,4.31.32,9.09,1.83,12.83,3.98l1.95-.87c-7.51-3.55-15.64-5.32-23.94-4.04.19.58.88.82,1.42.91Z"/>
      <polygon class="cls-2" points="361.77 442.67 360.82 447.94 366.4 447.31 365.48 442.03 361.77 442.67"/>
      <path class="cls-2" d="M336.26,423.08c-1.92-.89-3.01-2.01-5.28-1.25,1.25,1.12,3.51,1.56,5.13,1.87l.15-.62Z"/>
      <path class="cls-2" d="M369.84,437.99c.2-.26-3.35-4.95-3.73-5.13-.61-.31-2.99.09-3.11.64l2.8,5.29,4.04-.8Z"/>
      <path class="cls-2" d="M350.08,424.92c.32-.04,2.25-.65,1.73-1.22-5.21-2.16-10.82-3.1-16.48-2.8l4.29,2.7c3.45.86,6.84,1.79,10.46,1.32Z"/>
      <path class="cls-2" d="M349.32,439.55c-2.42.37-5.4,1.04-5.28,4.04.29.27,4.16-2.55,4.63-2.98.34-.31.78-.46.65-1.06Z"/>
      <path class="cls-2" d="M345.12,433.95c-.91,0-2-1.12-1.38,1.23.34.33,4.62-1.43,4.65.95l3.72-2.18h-7Z"/>
      <path class="cls-2" d="M352.12,445.46c-1.55-.28-2.88-1.24-3.73.61l2.26.91,1.46-1.52Z"/>
      <path class="cls-2" d="M333.15,424.01l-3.73-.93v1.23c1.2-.19,2.97,1.06,3.73-.3Z"/>
      <path class="cls-2" d="M380.41,426.18l5.6,5.28c.53-3.26-3.05-4.55-5.6-5.28Z"/>
      <path class="cls-2" d="M376.83,431.47c.56.41,4.44,2.18,5.13,2.36,1.08.28,1.38-1.21,1.12-2.06-.74-2.42-6.99-5.43-9.51-5.58-.4.39,2.57,4.78,3.26,5.28Z"/>
      <polygon class="cls-2" points="385.7 435.65 388.8 437.68 386.47 434.58 385.7 435.65"/>
      <polygon class="cls-2" points="369.69 421.8 365.8 422.45 372.95 422.45 369.69 421.8"/>
      <path class="cls-2" d="M390.36,442.03c.13-.46-.13-.52-.31-.78-.55-.82-5.2-4.54-5.91-4.34-.16.05-1.21.83-1.24.94,1.11,2.7,6.22,1.06,5.91,4.81l1.55-.63Z"/>
      <path class="cls-2" d="M397.35,426.81c.15-.54-.86-1.01-1.23-1.25-3.08-2.05-8.79-4.6-12.44-4.97-1.6-.16-3.63,0-5.28,0-.05,0-.91.31-.78.62l19.73,5.61Z"/>
      <path class="cls-2" d="M374.29,447.03l.52-1.58c-.19-.2-3.03,1.25-2.8,1.55.81.22,1.49.5,2.28.03Z"/>
      <path class="cls-2" d="M376.06,440.48c-3.99-1.74-4.93.97-1.11,2.48l1.11-2.48Z"/>
      <path class="cls-2" d="M370.31,445.77l.43-2.77-4.01-.97c.84,1.89.6,4.91,3.58,3.73Z"/>
      <path class="cls-2" d="M371.39,437.23c.9.57,2.92-.88,4.03-.8-.1-1.94-1.56-4.33-3.71-4.34l.46,1.55-1.77-1.81c-.43.11-2.7.03-2.43.72.26.66,1.51,1.73,1.99,2.37.39.5,1.19,2.17,1.42,2.32Z"/>
      <path class="cls-2" d="M312.32,468.15l-1.57.14-2.78,1.4c1.37-.13,3.39-.53,4.35-1.55Z"/>
      <path class="cls-2" d="M293.36,426.49c5.79.45,11.16.88,16.9-.35l2.06-.58-18.5.31-.46.62Z"/>
      <path class="cls-2" d="M328.79,427.88c3.66,2.03,8.61,2.98,12.75,3.27.07-.46-.54-.41-.86-.53-2.79-.95-5.8-1.45-8.36-3-.16-.1-.28-.6-.59-.79-.88-.54-3.14-.65-3.55.43-.22.58.32.45.61.61Z"/>
      <path class="cls-2" d="M305.14,416.41c1.03.77,1.81,1.53,3.14,1.06-.84-1.39-2.06-2.12-3.73-1.86-.19.81.24.54.59.8Z"/>
      <path class="cls-2" d="M315.91,416.84c.88,0,1.62.28,2.46.33.34.02,1.18.2,1.1-.32-3.63-.48-7.18-1.55-10.88-1.24,1.43,2.63,4.85,1.21,7.33,1.23Z"/>
      <path class="cls-2" d="M301.13,438.46c.96,1.19,2.94.9,2.79-.77-.33-.08-3.19-.07-2.79.77Z"/>
      <path class="cls-2" d="M304.23,450.43c.67-.9-3.77-1.87-4.35-1.86,1.62,2.02,1.41,3.33,4.35,1.86Z"/>
      <path class="cls-2" d="M322.27,414.99c-4.03-1.27-8.53-2.48-12.74-1.55l10.45,1.82,2.29-.27Z"/>
      <path class="cls-2" d="M295.69,463.2l2.64-.65c-1.55-.19-3.25-.52-4.82-.32-.43.06-.96.22-.46.62l2.64.34Z"/>
      <path class="cls-2" d="M297.71,415.3c-.74.28-1.53-.26-2.02-.31-2.26-.23-4.84.17-7.15,0l-.44.49.28,1.37h7.62c.12,0,2.19-1.19,1.71-1.55Z"/>
      <path class="cls-2" d="M305.48,447.32c.73-1.82-2.32-2.05-2.79-1.08-.29.59.62.5.94.6.32.1,1.78.57,1.85.48Z"/>
      <polygon class="cls-2" points="300.81 434.88 300.81 435.82 303.92 435.81 303.11 434.65 300.81 434.88"/>
      <path class="cls-2" d="M325.07,434.88l-.34-1.21-6.51,1.68c-.52.39-.26,1.42-.3,2.03l7.15-2.49Z"/>
      <path class="cls-2" d="M319.94,419.96c-3-.3-6.44.22-9.48,0-.07.55.7.3,1.08.31,3.52.13,7.1.21,10.57.63.25-.55-1.85-.91-2.17-.94Z"/>
      <path class="cls-2" d="M334.39,442.97c1.51-.46,3.05-1.47,4.36-2.34.15-.1,1.22-.28.62-.77-.31-.26-4.45,2.54-4.97,3.1Z"/>
      <path class="cls-2" d="M313.87,434.26c-.99-1.92-3.67-.26-5.4-.3-.77,2.52,3.97.18,5.4.3Z"/>
      <path class="cls-2" d="M327.87,432.08l4.04-.31c-1.41-1.36-3.09-1.66-4.04.31Z"/>
      <path class="cls-2" d="M318.54,422.45l3.58,1.24c.19.32.29,1.25.11,1.52-.2.31-1.52.05-1.52.66l3.6.53c.72-.78,1.07-1.71,2.31-1.77l-.94-1.85c-2.39.63-4.63-.74-7.14-.32Z"/>
      <path class="cls-2" d="M318.54,431.93c1.19,2.01,3.58.07,5.36-.23l2.41-1.16-7.77,1.39Z"/>
      <polygon class="cls-2" points="318.54 429.6 312.63 430.37 314.61 430.81 318.54 429.6"/>
      <path class="cls-2" d="M318.85,427.42c-3.26.01-6.9,0-10.1.62-.45.09-.96,0-1.09.62,3.14.03,6.34-.18,9.44-.66.41-.07,1.69-.11,1.75-.58Z"/>
      <path class="cls-2" d="M294.91,435.19l.52.88,2.59.05c-.59-1.15-2.05-.94-3.11-.93Z"/>
      <path class="cls-2" d="M292.9,413.11c2.16.07,5.94,1.17,7.76.95.43-.05.92-.2.47-.63-6.18-1.78-13.02-4.39-19.27-1.4,2.99,3.07,7.09.96,11.04,1.07Z"/>
      <path class="cls-2" d="M262.82,471.04c-.31.04-1.24.09-1.17.53l2.79.62.32-1.24c-.65-.05-1.29,0-1.93.09Z"/>
      <path class="cls-2" d="M263.04,479.03c-4.55-.86-4.56-.99-8.46-3.04-2.24-1.18-2.92-.33-5.06.24-.4.39,3.92,2.17,4.36,2.32.69.23,3.7,1.1,4.18,1.1h6.06c-.12-.62-.63-.53-1.09-.62Z"/>
      <path class="cls-2" d="M251.38,422.13l13.99-2.79c-4.06.11-8.32.68-12.19,1.96-.47.15-1.62.4-1.8.84Z"/>
      <path class="cls-2" d="M260.31,473.51c-1.85.25-4.48-.67-5.97-.39-.53.1-.87.33-.78.93l2,.32,4.75-.86Z"/>
      <path class="cls-2" d="M258.7,467.23c-2.84.09-5.85-.43-8.56.45.81.51,2.64.73,3.58.78,2.74.12,6.82.07,9.5-.45.46-.09,1.72-.27,1.85-.79-2.24-1.12-4.17-.07-6.36,0Z"/>
      <path class="cls-2" d="M274.88,475.28c.73-.17,2.23-.19,2.62-.91l-6.22-.62,3.6,1.53Z"/>
      <path class="cls-2" d="M279.67,467.84c2.5,4.06-3.21,1.92-5.28,2.18-.11.31.65.6.78.62,2.45.34,6.38,0,9.02,0,.11,0,.46-.41.78-.32-.79-.95-.78-1.22,0-2.17l-5.28-.31Z"/>
      <path class="cls-2" d="M255.54,416.82c-.82.28-.73.41.05.36,2.97-.21,5.95-1.14,8.98-.98l2.37-.59h-6.69c-.81,0-3.75.88-4.7,1.21Z"/>
      <path class="cls-2" d="M287.77,441.88c1.36,1.48,3.27.73,3.72-1.09-1.27.38-2.91-.06-3.72,1.09Z"/>
      <path class="cls-2" d="M277.8,412.65c0-.77-7.7-1.76-8.7-1.39l5.45,4.36c1.94,0,2.02-1.96,3.24-2.97Z"/>
      <path class="cls-2" d="M210.65,466.75c-1.13-.39-6.26-1.54-7.3-1.58-.84-.03-1.43.84-2.18,1.11-2.34.83-5.75,1.03-8.24,1.56.12.56.61.58,1.08.63,3.93.42,8.18.33,12.15.62,1.92-.86,5.28.79,5.69-1.73-.04-.37-.86-.5-1.19-.61Z"/>
      <path class="cls-2" d="M215.93,470.17c2.55.89,5.29.98,7.93.46.45-.09.97,0,1.09-.62-3.15-.26-5.94-1.17-9.02.15Z"/>
      <path class="cls-2" d="M233.52,468.14l-2.65,1.56,4.04-.62c.09-.86-.68-1.05-1.39-.94Z"/>
      <path class="cls-2" d="M245.16,472.51c.86,1.79,2.43,1.24,4.04.92-.7-1.53-2.67-.77-4.04-.92Z"/>
      <path class="cls-2" d="M211.21,454.56c2.04-.31,5.16-.11,6.86-.61,1.33-.39,3.79-2.26,5.44-2.96,3.17-1.32,9.66-2.09,11.54-4.94.2-.31,2.16-4.09,2.23-4.32.38-1.26-.75-2.64-1.93-3.03l-4.92.54c-6.37-1.76-11.46-.6-17.74-.01-3.19.3-6.78.23-9.91.66-2.83.39-5.41,1.72-8.78,1.81-1.25.04-1.75-1.28-3.98-.89-1.66.29-2.35,2.06-3.14,2.17l-4.8-.63c.4,4.39,1.93,8.52,2.71,12.86.13,1.39-4.66,5.3-3.95,6.1,1.55-.58,3.18-.12,4.74-.39,2.61-.44,6.88-2.38,9.92-3.13,4.82-1.19,10.84-2.51,15.73-3.23ZM190.07,457.11c-1.63.58-3.3,1.19-4.51,1.45.99-1.23,1.63-2.33,1.52-3.56v-.1s-.03-.1-.03-.1c-.33-1.83-.78-3.62-1.22-5.34-.38-1.51-.75-2.96-1.04-4.41l2.06.27.31-.04c1.15-.15,1.86-.92,2.39-1.47.3-.32.63-.67.85-.71.14-.02.27-.04.39-.04.26,0,.39.07.8.28.51.27,1.28.68,2.34.68h.12c2.29-.07,4.23-.61,5.94-1.1,1.08-.31,2.11-.59,3.1-.73,1.68-.23,3.6-.31,5.45-.39,1.45-.06,2.94-.12,4.36-.26,1.19-.11,2.34-.25,3.44-.37,2.42-.28,4.7-.54,6.98-.54s4.38.27,6.48.85l.43.12,4.64-.51s.07.07.09.1c-.45.91-1.63,3.18-1.88,3.61-.85,1.24-4.3,2.19-6.59,2.82-1.43.4-2.78.77-3.89,1.23-.93.39-1.95,1.01-2.94,1.62-.73.45-1.84,1.12-2.25,1.25-.71.21-2.1.26-3.32.31-1.1.04-2.24.09-3.22.23-4.29.64-10.11,1.84-15.95,3.28-1.49.37-3.2.99-4.85,1.58Z"/>
      <polygon class="cls-2" points="225.41 454.77 222.16 456.33 230.35 455.05 231.49 452.92 225.41 454.77"/>
      <path class="cls-2" d="M243.3,419.03l.63,1.55c.81-.27,1.55-.93,1.55-1.86-.99-.48-1.29.02-2.18.32Z"/>
      <path class="cls-2" d="M238.31,471.12l-.31-1.4c-1.87-.09-3.76.02-5.6.45-.28.07-2.51.45-1.85,1.1,4.39,1.12,8.8,2.38,13.37,2.49l-.33-1.84-5.28-.79Z"/>
      <path class="cls-2" d="M321.57,441.49l-3.65,2.1c3.43.37,6.35-1.78,9.44-2.84l4.24-2.44-10.03,3.18Z"/>
      <path class="cls-2" d="M78.98,258.91c2.45-7.1,3.1-16.67,5.73-23.5.37-.96,1.52-2.16,1.95-3.18.84-.48,2.32.9,2.9,1.49l.47-1.86h.93l.31,1.24.93-1.71c-1.23-.29-6.06,1.11-6.7.16-.2-.3-.03-.92-.2-1.19-.12-.18-.84-.27-1.16-.54-1.23-1.02-2.37-2.23-3.6-3.24-3.5-2.88-7.41-5.28-10.71-8.4-1.28,4.97-1.71,10.35-2.89,15.3-.21.89-.52,1.53-1.03,2.27l11.7,30.94,1.39-7.78ZM74.47,230c.08.54-.71.31-1.01.24-.87-.2-2.05-.72-2.09-1.79,1.53-.36,1.79,1.3,3.1,1.56ZM73.85,240.88c-1.25.11-2.01-.91-2.79-1.71l.61-.64c.54-.26,2.52,1.48,2.18,2.35ZM69.81,233.58c.1-.53.76-.5,1.23-.31,1.38.53,4.5,3.61,5.61,4.81-1.52.46-7.08-3.28-6.84-4.49Z"/>
      <path class="cls-2" d="M378,447.86c-1.9.49-5.75,1.5-7.4,2.24-.47.21-.87.32-.75.95,3.92.09,7.44-1.58,10.88-3.26-.61-.86-1.91-.13-2.72.07Z"/>
      <polygon class="cls-2" points="360.83 467.21 364.17 466.37 366.42 465.35 363.45 465.96 360.83 467.21"/>
      <path class="cls-2" d="M383.27,440.88c-.97-.35-5.33-.78-5.82-.1-.33.46-.61,2.53-1.36,3.23l1.35,1.65c.71-.27,2.1-.23,2.65-.69,1.12-.94,1.07-4.28,4.2-1.16l1.72-1.16c-1.11-.27-1.64-1.37-2.73-1.78Z"/>
      <path class="cls-2" d="M397.2,430.53c3.43,3.09,5.03,8.66.21,11.24-.6.33-3.2,1.07-3.32,1.19-.64.66.91.62,1.11.91.22.32.12.88.14,1.27,1.65-1.18,4.65-3.13,5.35-5.06.61-1.7,1.06-6.21-.18-7.58-.33-.35-3.02-2.24-3.31-1.98Z"/>
      <path class="cls-2" d="M363,454.79c-4.26-.06-8.57-.05-12.74.93.14.66,1.19.27.9,1.35-.91.53-2.11,2.03-2.85,2.44-2.87,1.6-7.5,1.39-10.56,2.18-.45.12-1.03.36-1.16.86,4.66,0,8.9-.68,13.17-2.53.9-.39,4.79-2.68,5.07-2.71.73-.07,1.03.89,1.06,1.48l2.46-.74c-.68-.64-1.77-.83-1.55-2.02,1.14-.46,2.32,1.24,3.13,1.1.78-.14,2.55-1.64,3.09-2.34Z"/>
      <path class="cls-2" d="M405.66,431.69c-5.54-8.9-14.94-14.42-24.54-14.42-.54,0-1.1.01-1.64.05-.98.07-1.98.32-2.94.56-.7.18-1.5.38-1.89.38h-.09c-.99,0-2.03-.08-3.14-.17-1.2-.09-2.45-.19-3.73-.19-.56,0-1.08.02-1.58.06-1.05.08-2.34.38-3.58.67-.94.22-2.09.49-2.73.54-.6-.26-2-.98-2.96-1.48-1.71-.88-2.8-1.44-3.49-1.7-5.03-1.91-10.12-2.8-16.01-2.8-1.02,0-2.1.02-3.21.08-.79.04-1.6.2-2.38.36-.71.14-1.44.29-1.94.29-.07,0-.12,0-.16,0-.47-.12-1.92-.86-2.79-1.29-1.03-.52-2-1.01-2.74-1.29-4.12-1.54-7.99-2.3-11.83-2.3-1.27,0-2.55.09-3.81.26-.77.11-1.66.35-2.61.62-.81.23-2.05.57-2.44.57-.6-.06-2.41-.78-3.61-1.25-1.37-.54-2.66-1.06-3.7-1.32-2.42-.62-5-.95-7.47-.95-2.11,0-4.05.24-5.76.71-.59.16-1.25.46-1.96.78-.3.13-.71.32-.97.42-.56-.08-1.78-.42-2.69-.68-1.88-.52-3.82-1.06-5.35-1.15-.35-.02-.7-.03-1.04-.03-1.54,0-2.93.19-4.29.37-1.03.13-2,.26-2.99.31-.35.02-.72.02-1.09.02-.7,0-1.43-.02-2.17-.04-.79-.02-1.61-.04-2.44-.04-3.92,0-8.32.5-11.15,4.22l-1.34,1.76c-2.29-.73-4.69-1.1-7.16-1.1-4.57,0-9.45,1.26-14.52,3.75-2.6,1.28-4.69,2.83-6.72,4.32-1.11.82-2.16,1.59-3.26,2.31-1.03.36-5.55,1.26-6.4,1.3h-.09c-.87,0-2.08-.22-3.25-.44-1.33-.24-2.71-.5-4-.53-.22,0-.45,0-.68,0-3.11,0-9.95.55-13.96,2.58,0-.8-.01-1.6-.03-2.38-.02-.92-.04-1.79-.02-2.66,0-.11.06-.36.11-.57.1-.43.22-.97.23-1.59,0-1.45-.11-3.01-.23-4.52-.13-1.77-.28-3.6-.2-5.09.24-.22.47-.53.65-.93.29-.67.56-1.31-.19-19.01.16.02.32.03.49.03.66,0,1.91-.22,2.93-1.7,1.5-2.16,1.33-6.55,1-9.54l1.21.13.66-1.64c.68-1.71.6-3.42.22-4.99.74-.04,1.45-.22,2.13-.52l.15-.07.14-.09c.3-.19.57-.42.8-.68l-1.13,4.25,5.36-4.01c1.14-.85,2.09-1.82,2.68-2.48.87-.98,1.8-2.21,2.77-3.52,1.28-1.7,2.72-3.63,3.79-4.56.1-.08.44-.25.67-.37.67-.33,1.43-.72,2.01-1.42.81-.99.97-2.14,1.07-2.9,0-.03,0-.07.01-.11.48-.38.79-.86.92-1.46.09-.4.1-.82.09-1.23,2.89-.07,5.72-.46,8.84-1.22.67-.17,1.23-.46,1.69-.7.29-.15.62-.33.79-.35,1.58-.26,3.05-.4,4.49-.53,2.57-.23,5.23-.47,8.49-1.47.06-.02,6.57-2.18,7.56-3.16.4-.4.76-.92.92-1.59.23,0,.46.01.69.01,2.05,0,7.12-.36,9.83-3.64.83-1.01,1.34-2.18,1.51-3.47,3.21-.56,6.05-2.63,7.97-5.88,3.37-5.72,1.37-9.79-1.38-13.27.18-.11.33-.21.44-.29,9.56-6.78,15.92-12.2,19.45-16.6.57-.71,1.05-1.43,1.52-2.13.59-.88,1.14-1.71,1.78-2.39l.94-1-1.78-5.51-2.7,2.87c-.53.56-1.06,1.13-1.59,1.71-.04.04-.07.07-.11.11-.04-.55-.18-1.08-.45-1.61-.38-.73-1.38-1.45-2.32-1.86.3-.32.6-.66.91-1.01,2.69-3.11,6.21-9.47,5.89-14.13,1.12-.16,2.15-.4,2.94-.59l.22-.05c1.04-.24,2.6-.59,3.35-1.89l2.11-3.69-4.24.21c-3.08.15-5.44.22-7.66.22-3.55,0-6.65-.18-9.77-.56-7.74-.95-15.41-3.06-21.9-5-4.07-1.22-11.03-6.18-16.63-10.17-2.38-1.7-4.63-3.3-6.43-4.46-1.54-.99-3.09-1.99-4.64-2.99-11.45-7.4-23.29-15.05-35.51-20.72-5.74-2.66-14.39-6.41-22.94-9.15-.9-.29-1.81-.45-2.69-.6-.78-.14-1.52-.27-2.06-.46-.25-.09-.58-.3-.92-.55.13-.15.25-.31.35-.48,2.02-3.35-2.2-6.15-4.47-7.66-.5-.33-1.06-.7-1.25-.88-1.53-1.37-2.49-2.74-3.2-4.6-.24-.64-.5-2.03-.71-3.15-.39-2.06-.6-3.17-1.09-3.96-.68-1.11-2.07-1.62-3.17-1.65-.06-.13-.12-.27-.2-.41-.26-.47-.61-.78-.9-.97-.23-1.51.94-4.28,1.74-6.17.47-1.11.91-2.16,1.2-3.12l.69-2.31-2.33-.61c-.19-.05-.38-.08-.56-.1l5.09-9.43.59-3.85c1.35-.4,2.59-1.36,3.14-2.27.53-.87.6-1.73.65-2.3.01-.15.03-.36.05-.42.78-2.19,1.74-3.96,2.7-4.97.13-.13.59-.44.89-.64.85-.57,1.72-1.15,2.3-2,1.46-2.16,2.41-6.61,3.22-11.09.28-1.54,1.17-7.85,1.86-13.84,1.46-12.61.96-13.15.13-14.03l-.37-.4-.52-.19c-.34-.13-.71-.2-1.07-.2-1.42,0-2.59.93-3.42,2.13-.03-1.44-.1-2.79-.2-3.88-.11-1.12-.45-2.1-.74-2.96-.22-.64-.43-1.25-.49-1.78-.09-.79-.06-1.71-.01-2.68.05-1.24.1-2.53-.1-3.83-.18-1.12-.67-2.18-1.11-3.11-.28-.6-.6-1.28-.66-1.64-.13-.81,0-1.84.13-2.83.12-.93.24-1.9.18-2.84-.33-4.83-7.46-14.19-10.26-16.68-.65-.58-1.34-1.05-2.02-1.51-.68-.46-1.32-.9-1.78-1.35-.69-.69-1.3-1.65-1.94-2.66-.69-1.09-1.4-2.22-2.33-3.22-6.72-7.18-12.73-11.02-17.84-11.43h-.08c-.18-.03-.44-.07-.74-.07-1.13,0-1.8.51-2.17.93-.49.57-.7,1.33-.59,2.1l.19,1.28-.35.66c-2-1.57-4.22-2.53-7.32-2.53-.86,0-1.76.07-2.76.21-13.05,1.89-28.54,12.17-39.22,20.46l-.15.12c-2.01,1.5-3.2,2.66-3.35,4.12-.04.42,0,.83.14,1.2-4.96,6.94-9.12,14.44-11.57,20.9-.35.92-.58,1.86-.8,2.77-.22.9-.43,1.75-.71,2.39-.08.18-.34.51-.56.78-.39.48-.83,1.03-1.11,1.72-.72,1.84-1.03,4.55-1.36,7.43-.22,1.89-.45,3.83-.77,5.12-.33,1.33-2.11,5.87-2.65,6.65-.27.36-.71.65-1.22.98-1.32.86-3.77,2.45-2.82,6.56.13.52.34.93.57,1.28-1.48,1.12-2.73,2.17-3.32,3.37-1.52,3.1-2.24,6.79-2.94,10.36-.49,2.52-.96,4.91-1.65,6.81-.19.5-.45.79-.95,1.3-.95.99-2.39,2.48-2.1,5.83.19,2.17,1.8,4.37,3.22,5.5.97.77,6.45,3.83,7.72,4.26.69.23,1.39.34,2.05.34,1.1,0,1.94-.31,2.5-.52.1-.04.22-.08.31-.11.02,0,.04.02.07.02.47.19,1.27.51,2.44.51.27,0,.56-.02.86-.05,5.1-.61,8.6-4.18,11.69-7.32,1.62-1.65,3.15-3.21,4.81-4.3,2.14-1.42,5.3-2.4,8.37-3.36,1.4-.44,2.72-.85,3.96-1.31,3.51-1.29,6.75-2.03,10.18-2.81,2.53-.58,5.15-1.18,7.87-2.01-.87,2.95-2.17,6.68-2.64,7.52-1.7,2.83-4.2,5.52-6.84,8.37-3.22,3.47-6.55,7.06-8.5,11.1-3.36,6.96-8.41,22.78-9.18,30.04-.08.75-.09,1.55-.08,2.35-.4-.09-.8-.14-1.2-.14-.95,0-1.8.29-2.45.83-1.4,1.15-2.02,3.89-3.3,12.08-.31,2.01-.64,4.08-.85,4.81-.06.21-.31.65-.49.97-.38.67-.78,1.36-.86,2.16-.12,1.12.28,2.12.63,3,.3.75.58,1.45.48,2-.52,2.85-1.91,6.7-3.25,10.42-.87,2.42-1.7,4.7-2.31,6.75-.51,1.73-.94,3.48-1.37,5.18-.74,2.99-1.45,5.81-2.52,8.54l4.27,1.82,2.14-4.68c.29.23.63.42,1.01.55-.45,1.7-.9,3.45-1.2,5.28-.45,2.72-.75,4.53.46,6.05.87,1.1,2.18,1.52,3.87,1.74.81,7.64,4.17,15.01,7.09,20.7,2.5,4.86,4.81,8.71,7.07,11.78.31.42.8.99,1.43,1.7.59.68,1.75,1.98,2.22,2.68-.05.24-.12.53-.17.76-.27,1.16-.51,2.17-.32,3.08l-.28.26c-.55.53-.84,1.3-.78,2.1.08,1.01.9,2.45,1.78,3.67-.36.62-.5,1.32-.42,2.13.02.16.06.5.41,1.45l-1.93-1-1.18,1.58c-.61.82-1.45,1.95,2.9,9.58,2.27,4,5.92,8.96,9.52,12.95.46.52,2.08,2.18,3.71,3.72,3.23,3.05,4.39,3.61,5.5,3.61.59,0,1.14-.19,1.59-.55l1.16-.94-1.4-5.51c.47-.17.88-.45,1.19-.84.02,0,1.33-.19,1.33-.19l2.9-6.26c5.39,4.18,11.48,8.85,17.98,11.23,1.08.39,2.16.76,3.38.98l.09.99c-.3-.15-.56-.26-.85-.32-.21-.04-.42-.07-.63-.07-.79,0-1.52.32-2.05.89-.55.6-.83,1.43-.76,2.28l.11,1.32,1.19.58c.93.45,1.78,1.13,2.69,1.85.05.03.09.07.13.1-.11,0-.21.02-.32.03-1.74.15-3.38.3-4.61.98-1.73.95-1.85,2.34-1.65,3.34l.28,1.39,1.37.39c1.18.33,2.38.53,3.62.59,0,.27.04.55.13.84.45,1.52,1.78,2.07,3.04,2.37-.55.72-.87,1.6-.61,2.65.52,2.1,2.97,2.8,5.58,3.14l.11,1.34c-.7.51-1.75,1.38-1.82,2.84-.03.73.18,1.8,1.39,2.84l.65.56c-.76.87-1.71,2.24-1.28,4,.13.54.4,1,.75,1.35-.2.49-.28,1.03-.16,1.65.16.82.62,1.48,1.25,1.89-.23.28-.46.6-.66.97-.92,1.72-.59,2.93-.16,3.65.55.92,1.53,1.44,2.7,1.44.11,0,.22,0,.34-.01,0,.08,0,.15,0,.22-.43.45-1.14,1.33-1.02,2.76.08.96.58,1.63.88,2.03l.08.11c.07.45.17,1.39.24,2.18-2.12,1.55-1.42,3.82-1.12,4.77.12.37.23.73.25,1.04l.22,2.58,1.57-.31.47,5.02-3.76.27-.34,1.74c-.15.79-.09,1.44.07,1.97-.47.36-.83.87-.99,1.57l-.73-.11-.52,2.05c-.07.28-.11.54-.12.79-4.12.24-8.47.85-12.69,1.43-3.7.51-7.52,1.04-11.07,1.31-.17,0-.38.01-.63.01-.38,0-.82,0-1.31-.02-.62-.01-1.3-.02-2-.02-4,0-6.87.43-7.92,2.56-.45.92-.53,1.85-.24,2.78.69,2.14,3.92,2.84,6.5,3.04,1.35.11,2.84.17,4.57.17,1.1,0,2.21-.02,3.31-.05-.1.02-.2.04-.29.06-.84.17-1.93.26-2.99.36-1.49.13-2.9.25-4.04.58-.78.22-1.36.73-1.92,1.22-.13.12-.32.28-.41.34l-1.06.61-.07,1.26c-.15,2.66,3.24,3.05,4.7,3.22,1.34.15,2.73.31,4.14.48,5.46.64,11.1,1.3,16.26,1.42.23,0,.46,0,.69,0,4.1,0,8.05-.81,11.88-1.58,2.24-.46,4.54-.93,6.8-1.21.6-.07,1.42-.12,2.28-.16,3.49-.17,7.84-.38,9.97-3.19.97-1.26,1.14-2.64,1.08-3.83h7.4c.1.78.18,1.52.12,2.2-.2.31-.52.81-.63,1.52-.04.26-.05.51-.03.73-.7.55-1.53,1.47-1.56,2.96v.49s.18.45.18.45c.08.19.17.36.27.51-.74.65-1.61,1.16-2.73,1.83l-.38.22c-3.5,2.07-5.78,2.22-9.23,2.44-1.25.08-2.66.17-4.26.37-1.72.21-3.42.53-5.07.84-2.39.45-4.64.87-6.91,1-.21.01-.51.01-.86.01-.61,0-1.39,0-2.26-.02-1.15-.02-2.45-.04-3.77-.04-6.66,0-8.87.46-9.87,2.06-1.21,1.94.16,4.24,1.61,5.16l.38.24.44.08c1.71.32,3.52.98,5.44,1.68,2.13.78,4.34,1.58,6.53,1.93,1.64.27,3.3.3,4.91.33,1.39.03,2.71.05,3.94.22-7.77,2.63-8.17,3.3-8.63,4.08-.73,1.23-.8,2.56-.18,3.65.61,1.07,1.79,1.72,3.16,1.72.31,0,.62-.03.96-.1,4.37-.94,8.78-2.02,13.04-3.05,6.72-1.64,13.66-3.33,20.53-4.52.95.31,1.95.46,2.97.46,2.29,0,4.36-.75,6.36-1.48,1.78-.65,3.46-1.26,5.11-1.26.11,0,.21,0,.31,0,1.68.08,3.23.55,4.88,1.05,1.55.46,3.15.94,4.93,1.13.31.03.64.05,1,.05.2,0,.4,0,.59-.01.33.75.85,1.41,1.55,1.97l2.21,1.75,1.3-2.5c.37-.71.42-1.43.42-1.99,1.09-.13,3.03-.26,5.4-.26,1.49,0,2.17.06,2.31.08.81.13,1.75.42,2.75.73,1.58.49,3.37,1.05,5.27,1.15.15,0,.31.01.47.01,1.58,0,3.48-.4,5.15-.75.09-.02.19-.04.29-.06.87,2.71,3.58,4.2,5.07,5.02,3.24,1.78,6.58,2.7,9.92,2.7.62,0,1.24-.03,1.85-.1,1.1-.11,2.45-.6,4.24-1.29.38-.14.84-.32,1.19-.45.21.13.46.3.64.42.57.38,1.11.74,1.63.97,4.13,1.8,7.59,2.64,10.93,2.64,2.64,0,5.29-.53,8.25-1.67l.14,1.08c.33.04.69.06,1.09.06.28,0,6.94-.04,9.03-3.57.33-.55.52-1.14.57-1.75.27-.11.54-.21.81-.32,1.3-.52,2.43-.97,3.74-1.09.49-.04.97-.07,1.41-.07,2.05,0,3.3.45,5.02,1.07,1.16.42,2.48.89,4.2,1.28,2.36.53,5.28.79,8.68.79,8.27,0,20.26-1.72,27.06-5.48l.14-.08c.29-.15.68-.37,1.09-.66.59.53,1.26.65,1.72.66l2.01.05.11-.66c1.39.2,2.86.36,4.32.36,1.82,0,3.41-.25,4.86-.74.52-.18.94-.46,1.28-.7.12.03.23.06.33.09.56.15,1.19.33,1.82.36.72.03,1.45.05,2.16.05,6.58,0,12.94-1.38,19.45-4.22,1.17-.51,2.26-1.15,3.31-1.77.97-.57,1.88-1.11,2.74-1.47,2.28-.97,4.95-1.5,7.78-2.05,2.49-.48,5.06-.99,7.43-1.84l.38-.14.31-.25c1.1-.9,1.56-2.23,1.21-3.46-.29-1.05-1.13-1.83-2.23-2.13,1.05-.92,1.6-1.98,1.32-3.32,1.37-.78,2.78-1.7,4.29-2.79l.66.07c.16.02.32.03.48.03,2.5,0,4.27-2.07,4.95-2.85,2.84-3.31,6.25-10.34,3.27-15.11ZM160.06,129.49c.03-.37.03-.71,0-1.02.13-.4.28-.83.44-1.26.15-.44.28-.8.39-1.12-.46,4.29-.99,8.62-1.69,12.84l-.05.26c-1.25,7.46-1.98,9.61-2.26,10.22-.11.06-.26.13-.39.19-.33.16-.74.35-1.16.62.53-2.41,1.21-4.89,1.88-7.33,1.24-4.5,2.51-9.15,2.83-13.4ZM400.61,445.29c-.83.97-2.04,2.18-3.41,2.03l-.15-1.24c-2.78,2.17-5.73,4.21-8.96,5.65-1.01.45-2.5.29-3.01,1.49.37.29,3.88-2.28,4.64-.43.46,1.91-7.75,4.31-8.99,5.57-.13.71.31.43.77.46.76.06,1.74.06,2.5.01,1.49-.09,4.87-1.11,5.89-.96.96.13,1.06.99.33,1.59-4.77,1.72-10.7,1.96-15.33,3.94-1.98.84-3.98,2.34-6.07,3.25-6.6,2.88-13.34,4.31-20.57,3.98-.81-.04-2.15-.63-2.76-.53-.38.07-.98.72-1.53.91-3.26,1.12-6.99.47-10.32-.07l-.16.94c-.55-.01-.39-.85-.78-1.24-.32-.32-.97-.4-1.39-.63.11,1.17-1.06,1.74-1.97,2.24-7.87,4.36-25.41,6.4-34.11,4.46-4.62-1.03-6.1-2.78-11.34-2.33-2.64.23-4.52,1.47-7,2.18,2,3.64-5.3,4.79-7.78,4.5l6.83-2.66-.29-1.07c-2-.83-2.67.39-3.94,1.05-7.69,3.97-13.03,4.41-21.25.82-.79-.35-2.33-1.65-2.97-1.71-.65-.06-4.29,1.71-5.89,1.87-3.7.37-7.2-.55-10.42-2.32-1.56-.86-3.56-2.03-4.03-3.89,1.98.89,3.68,2.31,5.69,3.17,2.88,1.22,5.57,1.78,8.73,1.46l2.67-.9c-5.17-.57-9.91-1.49-14.52-3.98-.63-.34-1.62-1.44-2.16-1.52-1.29-.21-5.84,1.3-8.36,1.16-2.76-.15-5.43-1.48-7.78-1.85-1.39-.22-9.05-.13-9.96.57-.82.63-.17,2.02-.59,2.83-.81-.64-1.15-1.44-1.1-2.47-1.07-.1-2.18.09-3.25-.02-3.39-.35-6.3-2-9.94-2.18-5.2-.25-9.61,4.23-14.65,2.2-11.52,1.96-22.84,5.23-34.27,7.7-1.29.26-2.21-.54-1.46-1.8.77-1.29,17.61-6.33,20.21-7.14.56-.17,1.78-.39,2.02-.93l-14.47.63c-3.1-.59-6.51-.17-9.59-.67-3.85-.62-8.01-2.87-11.92-3.6-.54-.34-1.26-1.36-.88-1.97.92-1.48,12.57-.79,14.94-.92,4.08-.24,8.1-1.35,12.14-1.86,5.82-.73,8.99.08,14.38-3.11,2.24-1.33,3.86-2.2,5.35-4.51.33-.74-1.36-.45-1.56-.94.02-1.21,1.5-1.5,1.72-1.99.13-.3-.23-.92-.16-1.39.08-.48.54-.81.61-1.29.27-1.82-.29-3.63-.3-5.42-.24-.07-.38.31-.46.31h-11.66c.14,1.58.78,3.33-.31,4.75-1.93,2.54-7.73,2.08-10.69,2.45-6.38.81-12.55,2.91-19.02,2.77-6.39-.14-13.77-1.17-20.2-1.88-.44-.05-2.66-.37-2.64-.78.51-.29,1.3-1.2,1.77-1.33,1.74-.5,4.76-.47,6.87-.9,4.24-.86,10.67-2.28,14.67-3.67.46-.16,1.11-.19,1.24-.78-2.53.28-5.17-.26-7.6-.33-5.24-.16-11.04.43-16.17,0-.87-.07-4.2-.56-4.48-1.44-.12-.37-.05-.7.12-1.04.9-1.82,7.99-1.1,9.95-1.25,8.07-.6,16.97-2.46,24.88-2.79,1.6-.07,2.4.09,3.89.61-.82-1.22-3.25-1.32-2.8-3.1l4.04.62c-.75-1.05-2.66-1.13-2.79-2.62.16-.74,2.64-.72,3.25-.8.42-.06.98-.14.47-.61-1.34-.2-3.14-.42-2.8-2.18l4.35-.32-.93-9.95-1.54.3c-.17-2.01-1.73-3.3.93-4.24.1-.38-.26-3.72-.39-4.24-.15-.63-.84-1.08-.88-1.64-.08-.9.71-1.04.88-1.59.44-1.43-.28-3.29-.26-4.75-1.07,1.5-4.03,1.98-2.75-.42.82-1.54,2.92-1.85,2.13-4.55-.13-.15-2.24,1.39-2.49.14-.2-.99,2.76-2.51,1.86-4.19-.38.13-2.18,2.3-2.48,1.08-.36-1.47,1.92-2.6,2.03-3.7.17-1.73-.32-2.83-2.15-2.06-1.77-1.51,1.05-2.11,1.32-3l-.31-3.93-.46-.47c-10.11-.91-1.99-3.79-1.98-4.55-2.29-2.05-8.66-.2-3.73-4.82-2.47.33-4.71.36-7.15-.32-.11-.53.13-.64.53-.86,1.89-1.05,7.82-.27,8.37-2.23.3-1.05-1.18-1.13-1.85-1.62-1.52-1.08-2.84-2.38-4.56-3.22-.03-.4.2-.73.63-.64.68.15,3.58,2.51,4.03,2.04l-.64-7.13c-1.73-.01-3.11-.44-4.73-1.03-7.07-2.58-13.74-8.12-19.66-12.67l-3.59,7.76c-.33.05-.63.06-.92-.14-.8-.53-2.92-4.65-4.01-5.55-.44-.36-.77-.2-1.27-.2l4.5,5.6c.4,1.09.32,1.49-.86,1.17-5.37-6.2-11.28-11.73-17.79-16.72-.46.24.09.75.21,1.04,3.44,8.13,10.92,15.93,17.21,21.97l.46-.62.32,1.24c-.76.61-6.84-5.66-7.62-6.52-3.19-3.54-6.87-8.4-9.22-12.54-.55-.96-3.5-6.44-3.05-7.05l1.53.79,10.28,8.84-3.42-5.75-.31.79c-.34.02-.63.02-.94-.15-.63-.35-3.88-7.2-3.98-8.18-.05-.48.04-.73.4-1.04.6-.52,1.22.52,1.1-.43-.66-.46-3.31-4.02-2.8-4.51l4.04.62c-.34-1.95,1.54-4.46-.92-5.28.13.9-.65,1.06-.91,1.49-.05.09-.74,2.63-1.25.8-.2-.7.58-2.87.59-3.74,0-.91-3.35-4.31-4.16-5.42-2.56-3.48-4.89-7.62-6.87-11.47-3.43-6.67-6.66-14.2-6.99-21.78-5.03-.33-4.94-.86-4.21-5.29.48-2.9,1.39-5.68,2.03-8.54-.83-.38-1.26.98-2.27.73-1.65-.41-1.66-4.45-1.49-5.73.07-.56.55-.39.63-.66.21-.7.13-2.08.33-2.89l-3.5,10.03-2.1,4.58c1.78-4.51,2.59-9.28,3.96-13.92,1.53-5.17,4.72-12.47,5.61-17.41.38-2.08-1.22-3.87-1.09-5.17.07-.62.99-1.76,1.27-2.72.73-2.56,1.97-14.56,3.39-15.73,1.02-.84,3.35.23,4.11,1.16.09.04.46-.73.46-.78,0-1.56-.16-3.48,0-4.97.76-7.16,5.77-22.66,8.97-29.28,3.3-6.86,11.23-12.63,15.24-19.27.84-1.4,4.33-11.83,3.78-12.54-1.15.59-2.35,1.15-3.59,1.53-6.28,1.95-11.95,2.57-18.39,4.93-4,1.46-9.37,2.63-12.81,4.91-5.2,3.44-8.81,10.45-15.49,11.25-1.72.2-2.21-.53-3.03-.53-1.15,0-2.06,1.13-4.18.43-.93-.31-6.2-3.23-7.01-3.87-1.08-.86-2.23-2.5-2.34-3.87-.33-3.73,1.97-3.58,2.91-6.13,1.78-4.82,2.06-12.01,4.5-16.96.69-1.42,3.95-3.35,4.08-3.72.35-1.06-.92-1.52-1.15-2.5-.87-3.73,2.05-3.54,3.62-5.58.79-1.02,2.72-6.1,3.07-7.5.82-3.3.96-9.52,2.04-12.27.29-.74,1.23-1.5,1.63-2.41.68-1.56.92-3.57,1.56-5.28,2.92-7.72,7.94-15.99,12.89-22.55l-.15-.46-1.09.62c-.61-.68,1.99-2.52,2.51-2.92,10.08-7.81,25.41-18.15,38.14-20,5.82-.85,8.06,1.16,11.74,5.2.17-1.28-.82-2.47-.14-3.73,3.29.5,6.42.06,9.63,1.24-2.57-2.24-5.68-4.1-9.02-4.98-.08-.53.74-.33,1.08-.3,5.89.47,12.43,6.53,16.34,10.71,1.64,1.75,2.64,4.26,4.33,5.94,1.11,1.11,2.73,1.91,3.89,2.95,2.9,2.59,9.23,11.32,9.49,15.11.11,1.65-.59,3.86-.28,5.85.21,1.41,1.53,3.21,1.77,4.76.32,2.05-.13,4.36.11,6.42.19,1.61,1.07,3.04,1.23,4.69.3,3.27.26,9.46-.02,12.76-.04.44-.92,2.76-1.36,4.12.07.26.08.62.05,1.07-.59,7.96-4.82,17.64-5.55,25.88.2.99-1.49,1.71-1.54,1.94-.31,1.32-.13,3.92-.3,5.38,2.67-1.25,2.1-3.71,3.09-6.08.47-1.12,1.76-3.08,2.64-3.89.8-.74,1.96-.97,2.51-1.52,1.16-1.16,2.54-9.62,2.89-11.73,1.15-6.91,1.83-13.99,2.53-20.93-.5,0-.66,1.23-1.08,1.24-1.34.02.72-4.94,2.33-4.35.92.97-2.04,22.86-2.58,25.86-.46,2.57-1.49,8.17-2.86,10.21-.56.82-2.27,1.62-2.95,2.33-1.44,1.52-2.52,3.85-3.21,5.8-.27.77-.07,1.58-.5,2.3-.45.74-2.28,1.84-3.13,1.06l-.85,5.5-7.54,13.96.92,5.1c.31-1.06.6-2.16,1.01-3.18.51-1.26,1.05-3.78,2.72-3.34-.92,3.06-4.07,8.17-2.73,11.29.2.47.73.48.88.74.38.7.34,1.71,1.08,2.27l.43-.04c-.16-.99,1.6-.59,1.92-.07.54.88.95,5,1.6,6.72.86,2.24,2.05,3.93,3.82,5.51,1.29,1.15,6.44,3.69,5.28,5.61-.72,1.19-2.93-.36-2.96,1.54,1.68.49,3.18,2.32,4.75,2.88,1.39.49,3.27.59,4.82,1.09,7.45,2.38,15.56,5.75,22.67,9.04,13.73,6.36,27.11,15.36,39.87,23.56,6.06,3.89,17.4,13.04,23.65,14.91,7.23,2.16,14.71,4.15,22.28,5.08,6.11.75,11.7.66,17.84.35-.27.48-1.57.71-2.11.84-1.72.43-3.58.78-5.35.71.08.77.53,1.16.63,2.01.45,3.82-2.86,9.91-5.3,12.74-1.66,1.93-3.6,3.66-6.06,4.52-.41.77.88,0,.94,0h4.66c.22,0,1.41.64,1.56.93,1.33,2.6-4.35,7.8-4.51,10.57,3.85-3.02,7.07-6.7,10.42-10.26l.15.46c-1.33,1.41-2.22,3.15-3.43,4.66-4.41,5.5-13.11,12-18.98,16.15-.76.54-1.87,1.18-2.77,1.43,3.61,4.14,6.27,7.42,3.06,12.85-1.78,3.01-4.72,5.14-8.35,4.87,1.29,6.67-8.05,7.79-12.74,6.53-.38.33,1.59,1.66.54,2.71-.33.33-5.7,2.31-6.6,2.58-4.79,1.47-8.17,1.17-12.68,1.93-.98.16-1.78.87-2.65,1.08-3.51.86-6.73,1.26-10.35,1.15-.61.43-.13,2.3-.29,3.07-.06.25-.56.22-.72.59-.37.86-.16,2.09-.82,2.9-.47.58-1.74.92-2.39,1.49-2.1,1.83-4.76,6.02-6.79,8.29-.69.77-1.51,1.55-2.33,2.17.82-3.08,3.23-5.24,4.97-7.77l-8.91,4.93c-.07,0-.13,0-.19,0,.22,1.26.07,2.68-.74,3.19-1.71.76-3.14.03-4.76-.33.95,2.16,2.14,4.75,1.2,7.11l-2.44-.27c.5,2.43,1.22,8.84-.17,10.86-1.47,2.14-2.93-1.27-3.87-2.16.05,1.29-.07,2.61-.01,3.9.1,2.31.81,18.45.43,19.34-.17.4-.67.23-.75.84-.38,3.08.37,7.27.34,10.6,0,.73-.33,1.42-.33,2.15-.05,3.05.29,6.2-.3,9.18,1.44.1,2.38-1.32,3.51-1.92,3.31-1.79,9.98-2.52,13.76-2.44,2.31.06,5.31,1.01,7.45.97,1-.02,6.81-1.16,7.47-1.58,3.31-2.12,6.07-4.71,9.89-6.59,7.1-3.49,14.96-5.02,22.4-1.56,1.83-1.68,3.63-3.59,6.1-4.29.07-.57-.65-.26-.95-.17-1.29.36-2.64,1.75-3.72.95,3.42-4.47,10.11-3.04,15.1-3.24,2.73-.12,5.19-.82,8.08-.65,2.43.14,6.99,1.88,8.39,1.85.55-.01,2.43-1.06,3.33-1.3,3.7-1.01,8.36-.7,12.05.25,2.05.52,6.01,2.47,7.65,2.64,1.21.12,4.09-.99,5.6-1.2,4.99-.68,9.82.16,14.5,1.91,1.52.57,4.88,2.56,6.01,2.7,1.41.19,3.44-.55,4.94-.62,6.49-.31,12.2.26,18.28,2.57,1.37.52,6.28,3.29,6.93,3.33,1.48.09,4.94-1.09,6.83-1.23,2.85-.21,5.73.32,8.39.31,1.31,0,3.38-.84,4.96-.94,9.85-.65,19.02,5.21,24.05,13.28,2.24,3.58-.58,9.48-3.06,12.37ZM99.87,354.74l-.33.45c-2.51-2.46-5.13-5.2-7.52-8.08,2.23,2.19,4.36,4.46,6.43,6.84l.46.54.68.19c.1.02.19.05.28.07Z"/>
      <path class="cls-2" d="M398.2,434.66c-1.04-2.76-9.23-8.29-12.5-7.86.46.87,1.56,1.34,1.8,2.39.29,1.29-.34,3.25-.02,4.04.44,1.1,2.71,2.91,3.19,4.29.46.43.34-.34.33-.63-.08-1.12-.56-2.21-.27-3.37l.24-.38.95-.14c1.2,2.81-.26,5.52,1.24,8.25,3.57-.75,6.64-2.38,5.05-6.61Z"/>
      <path class="cls-2" d="M389.01,444.63c-.59.04-4.91,1-3.93,2.07,1.66-.59,3.96-.46,5.51-1.17.42-.19.49-.03.4-.69-.66.12-1.38-.24-1.98-.2Z"/>
      <path class="cls-2" d="M318.85,470.02l-6.03-.29-4.23,1.53c3.24-.33,6.57-.24,9.8-.62.46-.06.94-.25.46-.62Z"/>
      <path class="cls-2" d="M347.77,462.71c-.35.09-1.01-.02-.93.46,3.02.48,5.52-.69,8.29-1.52.51-.15.87.25.73-.66-2.68.54-5.43,1.04-8.08,1.72Z"/>
      <path class="cls-2" d="M294.65,475.09c2.67.62,5.74,1,8.48,1.16.42.02,1.94.22,2.04-.32l-12.43-1.56c.16.5,1.42.6,1.92.72Z"/>
      <path class="cls-2" d="M324.3,471.89l-2.65,1.54c2.31-.41,4.91-1.1,7-2.17.21-.11,2.25-1.08,1.7-1.56-2.09.48-4.94.13-6.05,2.18Z"/>
      <path class="cls-2" d="M312.8,472.21c-4.15.14-8.69-.34-12.76-.01-.36.03-1.39.09-1.39.62l9.5.33,8.84-1.25c-1.43-.27-2.85.27-4.18.32Z"/>
      <path class="cls-2" d="M317.92,456.34c.54.96,3.82,1.89,3.66.15-.13-1.41-2.85.04-3.66-.15Z"/>
      <path class="cls-2" d="M328.18,468.77l-2.31-1.88c-.51-.33-.4-1.72-.51-1.83-.16-.15-2.93-.4-3.39-.02,1.21,1.36,3.03,1.39,2.18,3.73h4.04Z"/>
      <path class="cls-2" d="M338.91,444.21c-2.95,2.01-5.98,3.49-7.62,6.84.23.19,4.7-2.15,5.18-2.59.56-.52,1.8-2.47,2.22-3.22.15-.27.68-.79.22-1.02Z"/>
      <path class="cls-2" d="M169.93,441.72c-.33.69.31,1.68.31,2.02v4.5h.31v-5.75c0-.14-.39-.48-.32-.78h-.3Z"/>
      <path class="cls-2" d="M365.08,454.76c-.28.17-.54.88-.99,1.26-.58.49-3.14,2.04-3.24,2.2-.06.09.5,1.52-.02,2.15,3.48-1.4,7.58-2.51,9.95-5.59-1.39-.22-4.5-.73-5.69-.02Z"/>
      <path class="cls-2" d="M87.53,333.22l3.11,4.04c-.03-1.8-1.33-3.6-3.11-4.04Z"/>
      <path class="cls-2" d="M92.82,328.55l-1.71-3.73c-1.47.61.84,3.38,1.71,3.73Z"/>
      <path class="cls-2" d="M87.53,305.24l-.62,3.58.31,1.7c.33-1.91,1.25-3.44.31-5.28Z"/>
      <path class="cls-2" d="M94.68,337.26l.55-1.97-2.41-3.31c-.01.55.75,6.16,1.86,5.28Z"/>
      <path class="cls-2" d="M105.56,231.24l.31-1.86-4.97.92c1.72.03,3.3-.35,4.66.93Z"/>
      <path class="cls-2" d="M98.64,322.26c-.13-.33-.09-.92-.54-.86l-.25,2.57,2.73,4.27c-.59-1.98-1.18-4.06-1.94-5.98Z"/>
      <path class="cls-2" d="M87.38,289.38l.78-3.42h-1.86c-.11,1.57-.69,2.61,1.08,3.42Z"/>
      <path class="cls-2" d="M87.54,230.31c2.11-.53,4.49-.4,6.66-.65.3-.03,1.17-.14,1.11-.59-2.24,0-4.93-.05-7.1.53-.55.15-.8-.09-.67.71Z"/>
      <path class="cls-2" d="M106.61,227.77c.57-.19.91-1.54,1.31-2.11,1.12-1.56,2.97-1.36,4.8-2.05,7.29-2.74,15.9-10.08,21.46-15.53,1.33-1.31,9.53-10.14,9.53-11.19-.84-1.28-.59-3.1-.92-4.59-.06-.3-.11-.93-.53-.86-.53,2.31-1.07,4.85-1.78,7.09-.16.53.13.82-.7.67.04-1.08-.07-2.18,0-3.26.23-3.23,1.99-8.45,1.08-11.35-.09-.29-.05-.71-.46-.61l-8.77,16.09-.87.07c-.53-.52,3.12-6.93,3.68-7.98,4.4-8.28,9.19-16.37,13.58-24.66,1.57-6.01.86-12.32,2.02-18.35.31-.13.62.73.62.77v6.38l3.43-15.38-2.76-.84c-.78-1.96,1.92-3.27,2.91-5.22.98-1.92,1.04-4.16,1.85-5.93.28-.61.59-1,.86-1.17-.08-2.2.3-6.15.29-6.45-.08-2.9.53-6.27.24-9.32-.16-1.74-1.01-3.4-1.2-5.02-.22-1.88.19-4.01-.06-5.85-.4-2.89-3.32-5.61-2.75-8.71.13-.73.87-1.35.9-2.22.07-1.96-6.18-11.86-7.91-13.51-1.06-1-2.51-1.69-3.59-2.63-4.72-4.09-8.73-10.65-15.23-12.75-1.8-.58-3.54-.24-5.28-.78-.03,1.79,1.59,2.95,2.45,4.23.35.53.2,1.23.43,1.59.26.41,4.66,3.6,5.41,4.07.78.5,3.23.86,1.76,1.88-1.97.62-5.87-3.22-7.46-4.26-3.99-2.62-8.62-5.8-12.64-8.2-3.69-2.2-9.24,1.03-13.18,1.86l-8.06,6.55-.73-.11c-.18-1.44,1.39-2.11,2.18-3.11l-.46-.15c-3.17,2.51-6.8,4.39-10.08,6.71-9.39,6.64-11.85,9.59-17.29,19.71-3.11,5.79-5.73,11.86-8.73,17.69-.35.68-1.3,1.42-1.54,2.19-.53,1.73-.49,4.39-1.07,6.23,4.48-2.36,9.74-6.69,14.85-7.38,4.3-.59,12.11.8,15.6,3.52,3.97,3.09,4.67,9.5,8.71,13.05,3.26,2.86,8.23,2.73,11.21,5.89,3.12,3.3,3.25,6.31,1.7,10.42-.41,1.08-2.59,4.43-2.65,4.84-.2,1.34,1.32,1.89,1.55,3.1,1.1,6.01-4.81,16.54-6.38,22.5-.18.3-.46.7-.87.63-1.49-.25-.54-4.49-.66-5.58-1.09,1.18-2.35,2.23-3.43,3.41-4.38,4.83-7.91,9.06-10.33,15.16-3.05,7.68-5.98,16.76-7.45,24.89-.4,2.25.08,3.42-.07,5.19-.06.63-.57,1.38-.56,1.56.09,1.27,9.65,7.46,11.12,9,.49.52.85.98.94,1.72l3.71-.62-1.25-.31v-.93c5.83.49,11.66.97,17.52.26ZM145.41,99.15l1.83-.04c.26,1.52-.85,1.94-2.18,1.86l.35-1.82ZM143.06,116.17c1.12-.53,2.11-.14,3.24.04.15,1.7-2.12,2.21-3.37,1.51l.13-1.54ZM141.78,131.12c.33-1.26.93-2.27,2.34-1.86-.05.92.16,1.93-.13,2.82-.57,1.75-2.88,1.55-2.21-.96ZM144.12,146.84c.02.12-.91,2.18-1,2.25-.26.23-2.69.64-2.72-.08.03-1.23,3.35-3.99,3.73-2.17ZM139.45,158.18c1.23,1.58-2.38,3.37-2.79,2.01-.31-1.06,1.88-2.09,2.79-2.01ZM133.44,169.09c.74-.09,2.62.26,2.28,1.37-.55.92-2.8.27-2.8-.62l.52-.75ZM133.55,177.46l-.14.95c-5.54,1.26-5.63-1.65.14-.95ZM125.93,191.13h3.27s-.13.96-.13.96l-.38.25-2.9-.27.15-.94ZM70.45,99.59c-.38.31-1.23.03-1.25-.33-.06-.88,4.13-3.26,5.28-2.64l-4.03,2.97ZM73.24,89.96l-.94-.33c.45-1.52,2.18-1.48,3.42-1.39l-2.48,1.73ZM97.25,115.2c-5.74,2.31-7.36-9.28-1.4-10.43,1.83-.35,5.54,2.01,5.66,3.84.17,2.54-1.91,5.64-4.26,6.59Z"/>
      <path class="cls-2" d="M99.97,297.78c.54-1.87-.62-1.75-.62-1.86v-4.97l-1.25.52c.52,2.52-2.06,6.22,1.88,6.32Z"/>
      <path class="cls-2" d="M87.84,243.37c-1.3.56-3.36.65-3.1,2.48.93-1.06,3.3-.75,3.1-2.48Z"/>
      <path class="cls-2" d="M84.09,252.1l-.93.16c-.37.72-.19,1.27.02,1.99,1.32-.1,1.4-1.18.91-2.15Z"/>
      <path class="cls-2" d="M87.38,281.61c-.28,1.05-.97,2.57,0,3.41,2.39-2.35,1.56-6.05,2.64-9.01-1.26,1.19-2.18,3.88-2.64,5.6Z"/>
      <path class="cls-2" d="M82.17,272.5c.2.31-.03.55.7.4l2.43-12.91c-.08-1.72-1.32-2.9-2.27-4.19-2.41,2.44.84,3.95,1.09,6.53l-2.18-3.11c-2.2,2.13,1.11,5.1,1.56,7.46-1.24-.75-1.98-2.11-2.49-3.42-2.24,2.25,1.25,5.39,1.86,7.78l-3.1-3.57c.48,1.65,1.49,3.6,2.41,5.04Z"/>
      <path class="cls-2" d="M86.94,290.77c.09-.66-.69-.4-1.12-.75-1.05-.83-1.12-1.65-1.05-2.92.1-1.71.87-5.35,1.37-7.03,1.59-5.36,6.4-9.83,6.36-15.86-.96.73-2.37.9-2.78-.45,1.32-1.37,4.95-3.8,4.56-5.95-.05-.3-.66-.33-.75-.53-.59-1.19-1.33-2.31-1.81-3.33-.47-1.01-.69-3.76-.91-4.07-.27-.39-1.19-.15-1.58-.6-.53-.61-.37-2.68-1.39-3.11l.93,3.73-.93-.62-4.98,24.87c-.57.13-.6-.2-.88-.52-1.14-1.31-1.54-3.43-2.7-4.76l-.81,2.14-.89.04-9.64-25.68-1.97.56c-1.28,5.9-4.5,11.44-3.94,17.65,1.45-.13,2.57-2.84,3.66-.71,1.19,2.32-.38,5.46-.77,7.79-.33,1.91-.4,3.83-.66,5.75.59,1.71,2.67-.2,3.53.84.41.48,1.58,6.06,2,7.32,2.01,6.02,5.02,11.84,8.16,17.34l6.78,10.48c-.09-.96.42-1.78.59-2.68.5-2.68,1.25-7.66,1.27-10.27,0-1.04-1.04-1.43-.47-3.23.13-.42.66-.78.73-1.14.11-.53-.31-1.15-.26-1.78.05-.8.49-1.64.35-2.51Z"/>
      <path class="cls-2" d="M92.2,249.9c.24,1.66.27,3.99,1.86,4.97.67-1.74-.22-4.02-1.86-4.97Z"/>
      <path class="cls-2" d="M93.44,291.24l.31-5.9c-.45-.07-.44.55-.53.87-.32,1.13-.92,3.65-.49,4.65.19.44.07.47.7.39Z"/>
      <path class="cls-2" d="M180.45,463.27c.05-.56-1.02-1.08-1.14-1.87-.36-2.32,2.58-4.12,3.63-5.89-1.48-2.11-3.04-3.64-3.38-6.48-.35-2.97.81-2.81.96-4.02.17-1.38-.16-3.1-.02-4.53l-1.25-.2c.1-2.57-.09-5.17,0-7.74.4-11.37-.13-21.88-.92-33.25l-.61-4.51c-.13.94-.95,2.49-2.02,1.55-.65-.57-2.57-4.38-3.02-5.38l-2.43-7.05c-.04.77-.73,2.25-.64,2.91.03.21.58.17.63.4.27,1.16.17,3.58.32,4.92.72,6.32,1.64,12.61,2.19,18.95l-.32,2.03-2.49-25.34h-.62l2.53,28.56.43.5c.31-.93,2.54-.32,2.64.17l-1.56,2.32-.46-.62-.47.78,3.11,18.65-.93.16-1.25-4.66c-.45,6.42,1.91,12.09,3.41,18.16l-.76.49-2.02-4.35c-.2,3.11-3.13,11.29-6.13,12.37-2.24.81-.09-2.05.53-2.58-1.32-.13-2.75,1.59-3.94,2.28-5.27,3.04-17.81,4.13-24.2,4.71-3.46.32-7.48-.02-10.85.34-.3.03-1.17.13-1.11.59,2.31.2,4.43,1.21,6.72,1.52,5.09.67,9.85-.46,14.87-.6,2.89-.08,5.65.31,8.39.34,1.51.02,10.08-.33,10.53-.05.73.46.33,1.46-.25,1.91l-4.98,2.17,14.16-2.32c.79-.03.62-.81.9-1.18.22-.3.71-.37.81-.53.23-.39-.18-.89-.11-1.33.12-.72,1.08-1.72,1.13-2.31Z"/>
      <path class="cls-2" d="M90.74,313.52l.67,1.36c.1-.46,1.05-1.26,1.09-1.4.34-1.16-.25-3.77,0-5.13l-1.77,5.17Z"/>
      <path class="cls-2" d="M98.57,336.64c-.24-.05-.2.3-.15.46.42,1.34,2.14,3.69,3.1,4.82l-.69-3.36-2.26-1.93Z"/>
      <path class="cls-2" d="M154.38,442.19c-.28-3.25.12-6.95.01-10.28-.36-11.33-.43-22.55-.31-33.86.05-4.84-.02-9.65-.32-14.47-1.13-.08-1.13,1.26-1.69,1.88-.36.4-.95.58-1.26.91-2.55,2.74-4.94,6.06-8.47,7.54l.07,2.71c2.04-1.99,3.98-4.13,6.22-5.9.41-.33,3.65-2.7,3.88-2.49-1.38,1.58-2.5,3.4-3.88,4.97-1.03,1.18-5.53,5.25-5.75,6.37-.25,1.28.08,2.96.45,4.19,2.71-2.76,5.44-5.57,8.86-7.46l-3.57,4.67c-.93,1.02-4.62,4.2-4.97,4.97-.78,1.72.46,4.92.15,6.84l5.59-5.45,3.43-2.64c-2.14,4.53-6.26,7.62-8.95,11.72l.32,12.33c.33.76,1.91.74,1.49,2.48l-3.44.98,3.29,2.34.08.39c-.74,1.97-1.33,1.94-3.36,1.78,1.53,2.78-1.09.89-1.66.99-.34.06-.84.67-1.62.85-2.36.54-5.1.12-7.44.33-2.54.24-5.04,1.04-7.62.93.55.79,2.54.81,3.58.93,2.13.26,4.39.47,6.53.62,1.95.14,6.97-.97,4.81,2.02l-24.87,6.06c5.37-.27,11.01,1.94,16.32,1.55,4.29-.3,10.47-1.9,14.77-2.94,1.47-.36,9.37-2.26,9.8-2.95.41-1-.39-1.89-.48-2.95ZM147.08,418.1c-.54.58-1.09,1.4-2.02,1.24-.13-.59.33-.74.62-1.09.96-1.17,2.28-2.25,3.42-3.26-.33,1.01-1.3,2.35-2.01,3.11Z"/>
      <path class="cls-2" d="M182.36,388.56l-.61-6.22c-1.32,2.03-.12,4.02-.32,6.22h.93Z"/>
      <path class="cls-2" d="M153.14,382.5c.35-.38.37-.59.31-1.09l-1.36.3-.66-.92c-1.51,1.89-3.23,3.62-4.97,5.29-.9.87-4.06,3.12-4.54,3.86-.37.57-.32,1.09-.29,1.73,2.79-1.98,4.9-4.79,7.62-6.83.84-.63,3.55-1.98,3.88-2.34Z"/>
      <path class="cls-2" d="M171.23,381.78c.43,3.75,2.58,8.48,4.44,11.75l3.42-18.34c.11-.53,2.39.19,2.48.28.32.35,1.33,3.93,1.86,5.01.61,1.22,1.59,2.88,2.65,3.72.67-4.8-.76-9.22-1.85-13.81l.62-.35c1.2.29,1.81,3.18,3.41,3.28.5-.56-1.39-4.03-1.49-4.89-.09-.74,1.21-2.72,1.95-2.57.19.03,1.78,2.34,3.27,1.56l.95-4.17,11.81-7.48c1.12-1.27.4-4.36.79-6.08-1.36-.38-2.72-.5-4.08-.91-9.71-2.94-21.39-11.39-27.8-19.14-1.79-2.16-3.22-4.62-5.14-6.67.06,1.84.92,3.61,1.08,5.44.21,2.41.29,4.99-1.88,6.5-1.94,1.36-3.61,1.19-5.55,0-5.08-3.1-12.96-14.76-15.52-20.23-2.14-4.58-3.82-9.74-4.71-14.72-.54-.07-.29.71-.31,1.08-.1,2.47.07,5.3.31,7.77.25,2.58.48,5.23,1.55,7.62-1.2,1.16-2.37-5.02-2.44-5.48-3.04-18.68,0-48.99,7.89-66.33.46-1.03,1.65-2.39,2.02-3.27.07-.18.06-.53-.15-.46-.95.48-6.48,4.57-7,4.03.03-.45-.09-.97,0-1.4.16-.81,4.28-3.17,5.28-3.73,6.27-3.54,13.45-6.22,20.53-7.61l-7.98,4.29c-14.4,8.6-18.65,33.12-19.39,48.7-.77,16.09,7.26,33.95,18.51,45.26,4.25,4.27,7.42,4.51,6.34-2.62-.77-5.1-3.74-10.12-4.23-15.05-.04-.34-.37-1.06.21-.99,3.71,5.2,7.38,10.5,11.52,15.38,4.03,4.75,7.74,8.44,12.95,11.92,4.52,3.02,14.6,8.45,19.84,8.45h10.57c.05,0,.91-.31.78-.62-5.18-1.2-10.07-4.18-14.46-7.15-1.95-1.32-11.34-8.13-11.6-9.86-.08-.56-.02-.69.42-1.02,7.46,5.21,16.17,12.94,25.09,15.32,5.28,1.41,13.71.38,18.66-2.05.81-.4,2.62-1.2,2.44-2.23-2.47-1.65-12.05-5.42-13.08-7.77-.19-.43-.48-.27.17-.79,6.12,2.34,16.32,8.15,22.87,7,2.22-.39,4.74-1.77,5.23-4.1.14-.64-.03-.33-.41-.43-7.19-2.03-14.84-3.25-19.92-9.62-.39-.49-1.45-1.71-.61-2.18.74-.16,2.84,2.09,3.6,2.61,4.75,3.32,13.88,7.39,19.71,6.71,4.38-.51,7.06-6.87,4.68-10.58-8.02-5.43-15.06-12.02-21.93-18.8.5-.32,1.4.37,1.87.62,3.15,1.64,6.3,3.94,9.64,5.28,4.62,1.86,6.67,2.02,3.78-3.16-3.23-5.8-9.3-9.82-14.05-14.25-1.46-1.36-2.73-3.07-4.35-4.21-.07-.59.62-.25.93-.16,2.18.66,3.98,2.65,5.27,3.08.84.27,5.42.33,6.32.13,3.23-.73,2.23-4.88,1.21-6.99-2.82-5.81-10.54-7.28-14.83-11.6.66-1.7,2.96.28,4.2.15l-12.44-10.41c1.37.41,2.79,1.3,4.02,2.04,5.08,3.06,10.2,7.56,14.65,11.47,1.48,1.3,4.89,4.95,5.85,6.59,3.59,6.15,3.22,12.84-5.54,11.76,2.44,2.13,5.18,4.22,7.31,6.68,2.63,3.04,8.73,11.17,1.08,11.97.91.45,2.48,2.11,3.34,2.29,1.46.29,4.77-2.82,6.27-3.42l-.29-1.51,3.42-.94-1.56-.45c-.48-.42-.37-.53,0-.96.47-.55,3.5-1.33,4.58-1.95,2.06-1.18,7.15-5.84,8.31-7.86.3-.51.61-1.34.45-1.93-.66-2.46-7.58,1.18-8.04.71l.62-2.31-.94-.93c.09-.97,3.3-3.52,4.21-4.53,2.44-2.7,6.94-8.41,7.25-12.05.03-.37-.46-1.82-.59-1.92-.2-.14-1.45.29-1.98.3-26.38.55-40.86-12.75-61.75-25.64-16.39-10.11-36.65-19.21-54.78-25.74-.73-.26-6.52-1.88-6.85-1.77-3.09,3.48-6.14,6.98-8.86,10.75-5.85,8.08-12.48,19.5-16.27,28.81-1.18,2.9-2.15,5.85-2.75,8.91-.87.04-1.33-.92-1.72-1.54-1.5-2.39-2.15-5.48-3.1-8.09-1.84,4.07-1.86,8.96-5.44,12.12,1.12-2.97-.66-5.43-1.41-8.39-.93-3.72-1.78-7.9-2.29-11.7-.17-1.31-.52-8.68-.97-8.99-1.4.51-2.12-.33-3.43-.45l-1.25,7.78-.77-1.24c-.66.73-1.38.91-1.87,1.85-.2.38-1.6,4.22-1.61,4.45-.03.91.33,6.09.52,6.84.07.3.67.27.87.74.29.68.3,2.11.38,2.9l1.55-.62c.49,1.16-1.07,2.15-1.17,2.68-.23,1.2.9,4.24.87,5.58-.01.61-.47.91-.49,1.4-.05,2.17,1.78,5.24,2.43,7.19,1.14,3.43,1.98,6.98,3.32,10.35-.24.57-.52,1.66-1.37,1.41l-1.88-3.12c-.61,1.16.49,2.33.7,3.35.37,1.86.29,3.76.96,5.57.98,2.63,3.47,4.55,5.04,6.78l-1.05.75-3.62-3.39c-.18,1.3.6,2.68.61,3.89.02,1.89-.07,5.97-.28,7.79-.03.23-1.4,1.98-1.45,2.47-.07.62.89,2.03.84,3.12-.02.54-.54.46-.63.69-.51,1.44-.31,2.92-.33,4.42l2.96-7.46.76.46-6.07,21.92c1.14.75,1.8,1.87,2.83,2.79,2.09,1.89,5.45,4.24,7.82,5.86,1.17.79,9.26,5.95,9.83,5.9.63-.07.96-.66,2.19-.54.53.05,4.73,1.57,5.03,1.84.44.38.63,1.38,1.07,1.88-2.01.55-3.11-.15-4.97-.61l.97,7.74c1.64.13,6.88,2.34,8.06,1.75.57-.28.65-1.74,2.26-1.43.31.06.53,1.26,1.37,1.51,1.41.42,3.18-.64,4.69.13l.38,3.67c.54-.1.52-.9,1.06-1.26,1.59-1.07,1.68.78,2.23.91.26.06.99-.29,1.52-.28,1.85.03,1.26,1.07,1.43,1.22.32.3,1.38-.4,1.23.51-.13.74-1.37,2.07-1.56,2.95.31.26,3.17-2.37,3.7-.73.32.99-1.62,3.85-1.52,5.08.3.33,4.05-2.72,4.52-3.1,1.35-1.13.86-.46,1.4-.77.56-.32.49-2.14,1.85-1.72l-3.1,13.99c2.31-1.39,5.55-7.12,7.79-7.92,2.21-.79,1.18,1.04,1.3,2.07ZM193.56,353.74c1.11.59,2.26,2.29,1.09,3.41-.16-.24-.58-.21-.71-.38-.43-.54-.38-2.3-.38-3.03ZM190.4,360.53h-1.17s-.96-5.24-.96-5.24c1.65-.1,3.08,4.66,2.13,5.24ZM183.3,358.09c1.22-.16,2.51,1.7,2.72,2.71.28,1.38-.43,6.34-1.48,3.66-.32-.81-1.61-5.98-1.25-6.37ZM155.53,262.39c-.43,2.24-.47,4.25-.86,6.44-2.98.37-1.72-4.91-1.32-6.76.98-4.42,3.01-9.38,6.01-12.8-1.11,4.38-2.97,8.66-3.83,13.11ZM160.48,278.17c-1.8-.3-.27-6.02.18-7.22.32-.85,1.08-1.45,1.18-2.39l.32,2.96c-.49,1.14-.17,6.9-1.69,6.65ZM210.66,322.5c.14.27.79.39.86.52.16.26.05.59.07.87-2.76.36-2.83-2.29-3.11-4.35l2.18,2.96ZM198.59,316.53c.86,2.21,3.73,3.39,3.67,5.81-2.14.29-4.05-2.45-5.03-4.14-1.7-2.94-2.32-6.15-2.43-9.53l3.79,7.87ZM183.3,300.88l3.46,9.75c.85,1.85,1.86,3.62,3.37,5.02-1.53,1.45-3.35-.79-4.16-2.05-.85-1.31-2.67-6.15-2.67-7.59v-5.13ZM165.11,281.3l.15,6.84c-2.65.04-1.83-5.65-.15-6.84ZM175.21,293.42c-.07,1.73,2.01,6.17-.62,6.22-.3-.27-.74-5.78.62-6.22ZM169.93,287.83l.93-.93c-.87,3.21.33,6.54-.35,9.59-1.41.46-1.44-.65-1.73-1.76-.91-3.45.08-6.37.84-9.7l.31,2.8ZM116.92,335.08c-.52-.1-.5-.76-.31-1.24.69-1.74,3.36-4.35,4.81-5.6-.35,1.22-3.14,7.11-4.5,6.84ZM126.27,339.15c-.73.31-1.25.38-2.05.28-1.29-1.32,4.54-3.74,5.6-3.73.53.53-3.06,3.23-3.55,3.44ZM128.9,343.3c-.31-1.18,3.39-2.42,4.34-2.62.61,1.72-3.91,4.26-4.34,2.62Z"/>
      <path class="cls-2" d="M165.48,412.12c-.54-1.81-1.29-4.79-1.46-6.62-.03-.33-.18-.86.31-.77.78,1.8,1.83,3.46,2.73,5.21.38.74.4.61.4-.09-.05-5.06-1.94-12.15-3.04-17.16-.29-1.29.05-2.84-.85-4.12l-3.73,3.41c-1.1.02-.81-4.28-.74-5.08.22-2.44,1.14-5.01,1.83-7.34-.45-.38-4.04,3.35-5.31,1.73-.9-1.14.67-3.5.65-4.84-2.57,1.2-1.4,6.17-1.86,8.71,1.18-.32.13-2.1.92-2.49v15.4s.95,18.32.95,18.32v18.51s12.12-2.18,12.12-2.18c-.45-4.14.6-9.52-.02-13.51-.24-1.57-2.28-5.12-2.87-7.08Z"/>
      <polygon class="cls-2" points="105.26 326.07 105.66 329.85 106.81 334.15 106.41 330.36 105.26 326.07"/>
      <polygon class="cls-2" points="107.98 319.77 106.5 315.19 107.12 321.09 108.05 321.09 107.98 319.77"/>
      <path class="cls-2" d="M102.37,244.07c-.25.29-2.28,2.85-2.09,3.03l3.1-.63-.31-2.79c-.73-.19-.52.17-.71.4Z"/>
      <path class="cls-2" d="M108.69,306.7c.73-.21.87-1.52.56-2.04-.07-.11-2.25-1.17-2.44-.98l1.25,5.91.63-2.89Z"/>
    </g>
  </g>
  <g>
    <g>
      <path class="cls-2" d="M426.49,356.61h24.46v3.83h-20.1v10.95h18.26v3.68h-18.26v12.16h20.68v4.02h-25.04v-34.63Z"/>
      <path class="cls-2" d="M481.79,356.61h4.6l15.79,24.07c1.16,1.79,2.52,4.46,2.52,4.46h.1v-28.53h4.07v34.63h-4.46l-15.89-24.12c-1.11-1.7-2.57-4.31-2.57-4.31h-.1v28.43h-4.07v-34.63Z"/>
      <path class="cls-2" d="M538.34,356.61h27.41v3.83h-11.53v30.81h-4.36v-30.81h-11.53v-3.83Z"/>
      <path class="cls-2" d="M595.23,356.61h24.46v3.83h-20.1v10.95h18.26v3.68h-18.26v12.16h20.68v4.02h-25.04v-34.63Z"/>
      <path class="cls-2" d="M650.53,356.61h16.18c6.1,0,10.22,3.83,10.22,9.49,0,4.21-1.84,7.22-6.01,8.57v.15c3.54,1.26,4.65,3.68,4.99,8.82.39,5.57.97,6.97,1.6,7.41v.19h-4.7c-.73-.63-.87-1.94-1.26-7.75-.34-5.09-2.37-6.88-7.03-6.88h-9.64v14.63h-4.36v-34.63ZM654.89,373.08h10.27c4.84,0,7.27-2.42,7.27-6.35,0-4.21-1.94-6.34-7.03-6.34h-10.51v12.69Z"/>
      <path class="cls-2" d="M704.47,356.61h27.41v3.83h-11.53v30.81h-4.36v-30.81h-11.53v-3.83Z"/>
      <path class="cls-2" d="M766.98,356.61h4.89l12.79,34.63h-4.75l-3.68-10.56h-13.8l-3.73,10.56h-4.45l12.74-34.63ZM763.69,377.15h11.33l-3.97-11.62c-.68-1.94-1.55-4.89-1.55-4.89h-.1s-.92,2.91-1.6,4.89l-4.12,11.62Z"/>
      <path class="cls-2" d="M813.66,356.61h4.36v34.63h-4.36v-34.63Z"/>
      <path class="cls-2" d="M849.78,356.61h4.6l15.79,24.07c1.16,1.79,2.52,4.46,2.52,4.46h.1v-28.53h4.07v34.63h-4.46l-15.89-24.12c-1.11-1.7-2.57-4.31-2.57-4.31h-.1v28.43h-4.07v-34.63Z"/>
      <path class="cls-2" d="M908.52,356.61h5.57l11.24,28.77h.09l11.14-28.77h5.67v34.63h-4.17v-28.48h-.1s-.92,2.71-1.55,4.36l-9.49,24.12h-3.34l-9.49-24.12c-.68-1.74-1.55-4.36-1.55-4.36h-.1v28.48h-3.92v-34.63Z"/>
      <path class="cls-2" d="M973.88,356.61h24.46v3.83h-20.1v10.95h18.26v3.68h-18.26v12.16h20.68v4.02h-25.04v-34.63Z"/>
      <path class="cls-2" d="M1029.18,356.61h4.6l15.79,24.07c1.16,1.79,2.52,4.46,2.52,4.46h.1v-28.53h4.07v34.63h-4.46l-15.89-24.12c-1.11-1.7-2.57-4.31-2.57-4.31h-.1v28.43h-4.07v-34.63Z"/>
      <path class="cls-2" d="M1085.73,356.61h27.41v3.83h-11.53v30.81h-4.36v-30.81h-11.53v-3.83Z"/>
    </g>
    <g>
      <path class="cls-2" d="M420.6,179.71c-2.78.18-3.9-3.16-5.57-4.83-.93-.93-2.04-1.67-2.79-2.41-1.3-1.11-2.04-2.6-3.34-3.34-4.09-2.6-10.22-5.39-15.04-5.39-2.97,0-8.54,2.04-9.84,4.83-.37.56-.93,8.91-.93,10.03,0,1.86.55,3.53.93,5.2.18,2.04,0,3.9.37,5.76.74,2.6,2.41,4.46,3.35,6.69,1.11,2.79,1.3,5.57,2.41,8.17,1.86,4.09,4.83,7.43,6.68,11.51,1.49,3.16,2.79,6.69,3.9,10.03.74,2.41,1.11,5.01,2.41,7.24.37.93,1.49,1.67,1.86,2.79,1.3,3.53,1.12,7.43,1.86,10.96.37,1.67,1.11,2.79,1.11,4.46,0,2.23-.56,4.46-.56,6.5v7.99c0,4.27-.18,9.47-2.41,13.19-1.11,1.67-3.16,2.6-4.27,4.27-1.67,2.04-3.34,4.09-4.83,6.13-1.86,2.6-4.83,4.27-7.24,6.31-1.86,1.67-3.53,3.53-5.57,4.83-.74-.18-1.49-.37-2.23-.37-3.72,0-4.83,2.6-7.43,3.16-1.3.37-2.78,0-4.09,0-1.49,0-2.97.56-4.64.56-1.48,0-3.71-1.86-5.2-2.41-1.49-.74-3.34-1.11-4.64-2.04-.93-.37-1.3-1.3-2.04-1.86-.74-.37-1.67-.37-2.41-.93-3.53-2.6-9.66-8.54-9.66-13.37,0-2.04,1.49-4.46,3.72-4.46,4.46,0,6.68,9.1,9.84,11.7,1.86,1.3,4.09,1.3,5.76,2.79,1.11.93,5.76,3.34,7.24,3.34,2.41,0,4.83-1.3,7.06-2.41,4.46-1.86,6.5-2.79,10.03-6.13,3.53-3.53,7.24-9.1,7.24-14.12,0-6.69-3.53-14.3-4.83-20.8-.55-2.6-.37-5.2-.93-7.62-1.11-4.09-3.53-7.61-4.27-11.51-.56-2.23-.74-4.64-2.41-6.31v-.93c0-2.23-1.12-3.34-1.86-5.2-1.86-5.02-5.01-9.29-6.68-13.93-.37-.93-.56-1.86-1.11-2.79-.74-1.86-2.41-3.16-2.79-5.39-.37-1.49,0-2.97,0-4.46,0-2.04-.37-4.09-.37-6.13,0-5.39,1.48-13.93,5.2-18.01.18-.37.56-.56.93-.93.74-1.11.74-2.42,1.49-3.34l.93-.56c1.49-3.53,7.62-5.76,10.4-8.54h3.35c2.6,0,5.94,0,8.17-1.49,5.01.56,8.54,3.53,12.44,6.31,4.64,3.16,8.91,4.83,11.89,10.03.74,1.11,1.86,2.6,1.86,4.09,0,1.3-.74,2.41-1.86,2.97l-.56.19Z"/>
      <path class="cls-2" d="M494.16,269.42c0,1.11.18,2.23.18,3.34,0,4.09-4.64,6.69-8.17,6.69-2.97,0-4.83-1.49-6.87-3.34-4.27-4.46-2.78-8.54-2.78-13.93,0-6.87-1.3-13.74-2.41-20.62-.74-4.27-1.67-7.24-3.9-10.96-1.3-2.41-2.41-4.83-5.57-4.83-3.53,0-7.25,5.39-9.66,7.61-2.97,2.6-4.09,4.09-4.27,8.17-2.41,2.41-4.09,5.2-5.39,8.17-.74,1.67-.55,5.2-.93,7.24-.37,1.49-1.11,2.97-1.49,4.64-.18,1.86-.18,3.71-.18,5.76,0,4.64.56,9.29.56,13.93,0,2.97-.56,4.64-2.6,6.69-1.67,1.49-5.38,3.72-7.8,3.72-1.3,0-3.9-.37-4.27-1.86h-.56c-3.16,0-3.16-11.89-3.16-13.74-.18-2.41-1.11-4.46-1.11-6.87,0-2.04.37-4.27.37-6.5,0-2.97-1.3-5.57-1.3-7.61,0-1.67.56-3.34.56-4.83,0-7.43-2.04-14.49-2.04-21.92,0-1.86.56-3.53.56-5.39,0-2.23-1.12-4.46-1.49-6.69-.18-2.6-.18-5.01-.18-7.61,0-6.13.55-12.44.55-18.57,0-2.04-.18-3.9-.37-5.94,0-1.67-.74-3.16-.93-4.64-.19-2.04.18-3.9.18-5.94,0-3.34-2.04-6.13-2.04-9.47,0-2.41.93-5.01.93-7.61,0-3.53-1.12-6.87-1.12-10.4,0-.93.18-2.04.74-2.97,1.11-.37,2.04-1.49,3.34-1.49,1.67,0,3.34.18,4.64,1.49,4.27,4.09,4.46,12.26,5.39,17.64.18,1.11.37,2.23.37,3.34,0,1.67-.37,3.16-.37,4.83,0,2.04,1.49,4.64,1.86,6.69.18,1.3.37,2.6.56,3.9.93,6.69.37,13.56.93,20.43.37,5.76.93,11.51.93,17.27,0,2.41-.55,4.64-.55,7.06,0,2.23,1.11,4.27,1.11,6.69,0,1.67-.56,3.53-.56,5.39,0,.74.19,1.67.37,2.41,3.53-.37,3.34-4.46,4.46-6.69,2.04-1.86,4.27-3.34,6.13-5.39,1.86-1.86,2.97-4.27,4.83-6.13,4.09-4.46,9.29-9.1,15.79-9.1,7.43,0,14.49,5.76,17.64,12.44.74,1.67.74,3.9,1.49,5.76.56,1.67,1.86,2.97,2.41,4.83.56,1.67.37,3.72.93,5.57.74,3.53,1.86,7.06,2.41,10.59.18,1.86,0,3.9.37,5.76.56,2.42,2.04,4.83,2.04,7.43,0,1.86-.56,3.72-.56,5.57Z"/>
      <path class="cls-2" d="M552.48,233.39c-.18,3.34-1.67,6.5-1.67,9.66,0,1.86.37,3.71.37,5.57,0,2.6-.55,5.01-1.3,7.43-.56,1.3-1.3,2.41-1.67,3.71-.37,1.67-.19,3.34-.56,4.83-.18,1.3-.93,2.41-1.12,3.71-.18,1.86.19,3.72.19,5.57,0,2.6-1.3,4.46-1.67,6.87-.37,2.23-.19,7.99-.74,9.66-1.12,2.79-4.83,8.54-8.17,8.54-3.53,0-8.17-3.9-8.17-7.61,0-2.41,1.3-4.46,1.3-6.69,0-.74-.19-1.49-.37-2.23.93-2.6,1.67-3.16,1.67-6.13,0-.93-.18-2.23-.55-3.16-.93-.37-1.86-.56-2.79-.56-3.16,0-6.13,1.49-9.29,1.49-2.41,0-4.83-.37-7.06-.37-1.48,0-2.97.19-4.46.19-.56,0-1.12,0-1.67-.19-2.41-.56-12.26-9.66-13-11.7-.18-.93-.37-2.04-.37-2.97,0-3.16,1.67-5.76,3.16-8.36.93-1.67,1.86-4.09,3.16-5.39.55-.74,1.86-.93,2.6-1.67.93-.56,1.3-1.49,2.23-2.04,3.9-2.79,9.1-4.09,13.74-4.09,1.3,0,2.79,0,4.09.18,2.79.56,4.83,2.23,7.43,3.34.93.37,3.71.56,4.27,1.11.37.19.56.56.56.93.93.37,1.86.18,2.78.56,1.86-1.49.93-5.02.93-7.24,0-3.72,1.11-7.43,1.11-11.33,0-4.83-3.53-15.97-9.1-16.9h-1.3c-4.64,0-7.06,4.27-12.63,4.27-3.9,3.34-6.13,6.31-10.77,8.73-.93.37-2.04,1.49-3.16,1.49-.37,0-.74-.18-1.11-.56-.56-.74-.93-1.67-.93-2.6,0-5.2,5.76-7.24,7.24-10.77,1.11-.37,2.04-.93,2.78-1.67l.56-.93c1.49-.74,3.34-1.3,4.83-2.23.56-.37.93-1.11,1.49-1.67,2.97-1.67,8.36-2.79,11.89-2.79,2.23,0,7.06.37,9.1,1.3.74.18,1.11.74,1.67,1.11,3.53,1.48,5.57,2.79,7.99,5.76,4.83,5.76,6.68,14.49,6.68,21.73,0,1.3,0,2.79-.18,4.09ZM528.9,253.26c-2.78-2.79-12.26-4.46-16.16-4.46-3.53,0-8.17.93-8.17,5.39,0,2.97,2.04,7.06,4.46,8.73,2.41,1.67,6.13,1.49,9.1,1.67,1.67.19,3.34.56,5.01.56,2.97,0,6.68-.56,8.36-3.16l.19-1.11c0-2.6-.93-5.76-2.79-7.61Z"/>
      <path class="cls-2" d="M624.37,170.42c-.93,5.57-.18,11.33-.93,16.9-.18,1.3-.74,2.23-1.11,3.53,0,.93.18,2.04.18,3.16,0,2.6-1.11,5.39-1.11,8.17-.19,6.31-1.3,12.63-1.86,18.94-.18,1.86-.93,3.53-.93,5.39,0,1.11.37,2.04.37,3.16,0,1.3-.74,1.67-.93,2.79-.74,3.16-.18,6.69-.55,10.03-.37,3.16-1.67,6.13-1.86,9.47-.37,2.79-.18,5.57-2.04,7.8-.18,3.53,0,7.06-.56,10.59-.37,1.67-1.11,3.16-1.49,4.83-.93,4.46-.56,11.89-2.97,15.42-2.41,1.3-5.76,1.48-8.54,1.48-2.04-2.23-4.46-3.9-4.46-7.43,0-3.16,1.67-6.13,1.67-9.47,0-.93-.18-2.04-.56-2.97-.55-.18-1.11-.18-1.48-.18-1.86,0-3.35.93-5.02,1.3-2.97.37-5.94.37-8.73.37-2.6,0-5.2,0-7.61-.37-1.3-.37-2.41-1.11-3.53-1.49-1.11-.56-2.41-.37-3.53-1.11-1.12-.56-1.86-2.04-2.97-2.97-2.41-2.23-5.94-4.09-7.99-6.87-2.6-4.09-4.64-10.22-4.64-14.86,0-5.57,2.78-8.91,5.2-13.56.55-1.11.74-2.41,1.48-3.34,2.04-2.97,7.25-6.5,10.4-7.99,1.11-.56,2.41-.56,3.53-1.11.93-.19,1.49-1.11,2.41-1.49,1.49-.37,8.17-.93,9.66-.93,2.97,0,5.39,2.41,8.54,2.41.93,0,1.86-.19,2.79-.37,3.34,1.3,4.46,5.57,7.8,6.87,2.97-2.97,3.16-7.99,3.53-11.89,1.11-9.47,1.11-19.32,2.97-28.79.74-3.34,2.6-6.5,2.6-9.84,0-1.11-.56-2.04-.56-3.16,0-1.67,1.12-3.53,1.49-5.39.74-4.27.18-16.9,6.31-16.9,3.53,0,6.5,6.69,6.5,9.66,0,3.34-.93,6.87-1.49,10.21ZM597.07,235.99c-1.3-2.6-3.16-3.9-4.83-5.94-.56-.56-.56-1.49-1.12-2.04-.93-1.3-5.94-2.6-7.61-2.6-.56,0-.74,0-1.3.19-3.53,1.3-9.66,1.67-11.89,5.01-.56.74-.74,2.04-.93,2.97-1.11,2.97-1.67,6.13-1.67,9.1,0,4.27,1.86,5.76,3.53,9.29.37.74.56,1.67,1.12,2.41,1.11,2.23,4.46,6.5,6.87,7.43,1.67.56,3.72.56,5.39.56,7.06,0,10.96-1.67,13.93-7.99.93-1.67,1.67-3.53,1.67-5.39,0-2.97-1.67-10.22-3.16-13Z"/>
      <path class="cls-2" d="M674.34,270.72c-1.11,1.11-2.04,2.6-3.34,3.34-1.67,1.11-3.9,1.67-5.76,2.41-1.49.74-3.72,2.04-5.2,2.41s-3.16,0-4.64,0c-1.86,0-3.71.37-5.57.37s-3.53-.56-5.2-1.86c-5.02-.37-10.03-2.23-13.75-5.76-.74-.56-.93-1.3-1.48-1.86-.56-.37-1.3-.56-1.86-.93-5.76-4.27-6.87-8.73-6.87-15.6,0-6.5,3.34-12.26,6.31-17.83.19-.56.19-1.11.56-1.48.56-.74,1.67-1.11,2.41-1.86,1.3-1.49,2.04-3.53,3.72-4.83.56-.56,1.3-.56,1.86-.93,1.12-.74,1.86-2.42,2.97-2.97,3.53-1.86,9.66-2.23,13.56-2.23,7.8,0,18.57,2.6,22.66,10.03.93,1.3,1.3,2.6,2.41,3.71,1.49,1.3,3.34,2.23,4.46,3.9.19.37.19.93.37,1.3,1.67,3.53,2.23,7.06,2.23,10.96,0,8.73-3.72,13.93-9.85,19.69ZM669.14,242.11c-.56-.56-1.12-.93-1.49-1.48-1.67-1.86-2.79-5.39-5.2-6.13-1.3-.56-11.89-2.97-12.81-2.97-1.11,0-4.09,2.23-5.01,2.97-.74.56-1.49.93-2.41,1.3-5.2,2.97-6.31,5.57-6.31,11.7,0,4.46,1.67,7.61,4.46,10.77,1.67,1.86,6.13,6.87,8.17,7.61,3.16,1.3,7.99.74,11.51,1.11,2.6-1.67,6.31-4.46,7.62-7.24l.93-.56c.56-.74.56-1.86.93-2.79,1.3-2.97,2.23-2.79,2.23-7.06,0-2.6-1.11-5.2-2.6-7.24Z"/>
      <path class="cls-2" d="M801.57,231.16c-1.12,2.23-1.3,4.83-2.23,7.06-1.12,2.41-5.02,9.84-6.5,12.07-2.23,3.53-4.27,4.64-4.27,9.1v.56c-3.34,4.27-5.39,9.47-8.17,14.3-1.49,2.23-2.97,4.09-4.64,6.13-.18.37-.37.93-.37,1.3,0,.56.18,1.11.18,1.86,0,4.64-6.69,4.64-10.03,4.64-3.9,0-4.46-1.86-6.68-4.64-2.41-2.79-2.97-5.39-4.27-8.73-.55-1.11-1.3-2.04-1.86-3.16-.37-1.3-.37-2.79-.93-4.27-.74-2.23-2.04-4.46-2.97-6.87-.56-1.11-.74-2.41-1.3-3.72-1.3-2.6-2.41-5.01-3.34-7.8-.18-.93-.37-1.86-.74-2.79-.18-.74-.74-1.11-1.11-1.86-.93-2.23-.18-6.31-3.16-7.24-2.79,1.3-2.04,3.9-2.04,6.31,0,3.9-4.64,15.04-6.87,18.57-1.12,1.67-2.6,2.97-3.53,4.64-.56,1.11-.56,2.41-.93,3.53-1.11,2.41-2.79,4.64-4.09,7.06-.93,1.49-2.23,6.5-2.6,8.36-.18,1.3-.18,2.79-.55,3.9-1.3,4.09-6.31,5.02-10.03,5.39-2.23-.93-2.78-3.53-3.9-5.39-1.11-1.86-2.6-3.71-3.53-5.94-.74-1.67-.37-3.71-.93-5.57-.37-.93-1.12-1.49-1.3-2.23-.18-.93,0-2.04-.18-2.97-.74-2.23-1.67-4.27-2.6-6.5-.93-2.04-1.48-4.27-2.23-6.5-.37-1.11-.93-2.41-1.3-3.71-.18-1.3,0-2.79-.37-4.27-.37-1.49-1.49-2.97-1.86-4.46-.37-1.3-.18-2.6-.37-3.9-.37-.93-.93-1.86-1.3-2.79-.74-2.04-.93-4.46-1.67-6.5-.37-.93-.93-1.86-1.11-2.79-.19-.18-.19-.37-.19-.74,0-.74.19-1.67.19-2.41,0-3.53-2.79-6.87-2.79-10.77,0-.56,0-1.11.18-1.67,1.3-1.3,4.09-2.04,5.94-2.04,1.11,0,2.04,0,2.6,1.11,2.41.93,3.16,2.97,4.27,4.83,1.12,1.86,2.41,3.71,2.97,5.57.37,1.3.18,2.6.37,3.71.55,1.67,1.86,2.97,2.41,4.64.55,1.49.55,3.16.93,4.64.37,1.48.93,2.79,1.49,4.27,1.49,5.02,1.86,13.19,5.57,17.27.18,1.86.74,6.87,3.53,6.87,3.34,0,3.9-3.71,5.2-5.94.55-1.11,1.86-1.86,2.6-3.16.56-1.11.74-2.6,1.49-3.9,1.3-2.41,2.78-4.64,4.09-7.24.93-1.86,1.3-4.09,2.23-5.94.37-.56,1.11-1.11,1.3-1.49.74-1.67.18-4.46.74-6.5.74-2.23,2.6-4.09,3.34-6.5.55-2.04-.19-4.46,1.11-6.31,2.04-1.11,4.09-2.41,6.31-2.41,1.3,0,2.6.37,3.72.93,3.9,1.67,5.39,5.76,7.24,9.29,1.67,3.53,3.16,7.06,4.83,10.59.74,1.67.93,3.53,1.49,5.2.18.56.93,1.11,1.11,1.67.56,1.67.37,3.53,1.12,5.2.55,1.67,1.49,3.16,2.23,4.64,1.48,2.97,3.15,6.13,4.27,9.1.56,1.3.56,4.09,2.41,4.09,2.6,0,2.97-2.42,3.9-4.09,2.41-1.86,3.53-6.13,4.83-8.73,1.49-2.97,3.72-5.57,5.57-8.17.93-1.49,1.3-3.16,2.41-4.64,1.86-2.97,6.87-11.14,6.87-14.67,0-1.86-.37-3.53-.37-5.39s.37-5.39,1.86-6.69c.74-.74,3.34-1.86,4.46-1.86,5.02,0,6.31,6.5,6.87,10.21-.93,2.97-3.72,4.64-5.01,7.24Z"/>
      <path class="cls-2" d="M962.06,217.97c-.37,1.67-1.11,2.97-1.11,4.46,0,1.3.18,2.41.18,3.71,0,3.16-1.86,4.46-2.41,7.24-.56,2.04-.18,4.27-.18,6.5,0,4.83-2.41,7.06-4.64,11.14-2.23,4.09-3.34,7.8-6.13,11.89-1.49,2.23-3.16,4.09-4.46,6.31-.37.56-.55,1.3-.93,1.86l-.93.56c-1.49,3.34-3.9,3.16-5.76,5.2-.74.93-.74,2.04-1.3,2.97-.56.74-5.2,5.2-5.76,5.57-1.67,1.11-3.9,1.3-5.76,2.04-4.46,1.86-11.14,6.13-15.79,6.13-1.67,0-11.89-2.97-13.93-3.71-3.34-1.3-9.47-5.2-12.44-5.39-2.41-2.79-6.5-3.16-7.05-7.61-1.49-.74-2.97-1.11-4.46-1.86-.74-1.3-1.3-3.34-2.23-4.27-.93-.74-1.86-.19-3.9-2.97-.74-.93-.93-2.23-1.49-3.34-1.49-2.97-4.46-5.39-5.76-8.54-1.3-3.34-5.39-24.89-5.39-28.6,0-5.02,2.79-8.54,2.79-12.63,0-.56,0-1.3-.19-1.86,2.23-2.97,3.35-5.94,4.27-9.47.93-3.53,2.41-6.13,4.27-9.1,1.12-1.67,2.79-3.16,3.9-4.83.74-1.11,1.12-2.41,1.86-3.34,1.11-1.3,2.6-2.23,3.9-3.34,3.9-3.9,7.62-8.17,12.44-10.96,1.3-.93,2.79-1.67,4.27-2.41.37-.19,1.11-.19,1.48-.56.19-.18.37-.56.37-.93,1.49-.74,3.34-1.11,4.83-1.86s2.79-1.86,4.27-2.41c4.46-1.86,12.82-3.16,17.65-3.16,3.9,0,9.28.19,13,1.3,3.16.74,6.13,2.97,9.1,4.27,2.41,1.11,7.61,2.41,9.47,3.72,1.12.93,5.94,7.06,6.31,8.17,0,.56.19,1.11.19,1.49,0,.74-.37,1.3-.74,1.86-.56.37-1.12.37-1.67.37-3.16,0-3.9-3.16-5.94-4.64-.37-.37-1.11-.19-1.49-.37-.18-.37-.18-.74-.37-1.11-1.49-1.49-3.72-2.41-5.39-3.71-7.06-.19-12.81-4.83-20.06-4.83-3.16,0-5.94,1.48-9.1,1.48-1.3,0-2.6-.56-3.9-.56-2.23,0-6.31,4.09-8.54,5.2-.74.56-1.67.56-2.42,1.11-.55.37-1.11.93-1.86,1.3-1.3.93-2.97,1.49-4.27,2.41-2.41,2.04-4.83,6.87-6.69,9.66-1.11,1.48-2.23,3.16-3.34,4.64-1.11,1.49-2.6,2.79-3.34,4.46-.93,1.86-.93,4.09-1.49,6.13-.56,1.86-1.49,3.34-1.86,5.2-.74,3.9-.37,8.17-.56,12.07-.18,2.97-.37,6.13-.37,9.1,0,3.71.37,7.61,2.42,10.96-.19.93-.37,1.86-.37,2.97,0,7.24,3.16,12.44,6.5,18.57,1.86,3.16,3.34,7.24,5.76,10.03,1.67,2.04,4.27,3.34,6.13,5.2,4.64,4.27,5.76,5.94,12.44,5.94,6.13,0,12.63-2.6,17.83-5.94,1.67-1.11,3.16-2.6,4.64-3.9,2.79-2.04,6.5-7.43,9.1-10.4.93-.93,2.23-1.86,2.97-2.97,1.48-2.6,2.97-5.2,4.27-7.99.56-1.11.93-2.41,1.49-3.34,1.49-2.97,2.78-5.94,3.71-9.1.93-3.16,1.49-6.5,2.97-9.66.93-2.04,1.49-3.34,1.49-5.94,0-2.04-.37-7.61-1.49-9.29-.74-.93-2.04-.74-2.41-1.86-.93.19-1.86.19-2.78.19-3.72,0-7.06-.93-10.77-.93-4.27,0-8.73.74-13,.74-2.97,0-5.94-.37-8.36-2.04l-1.67.19c-2.04,0-3.72-.74-3.72-3.16,0-2.97,5.2-3.72,7.43-3.72,3.16,0,5.94,1.11,8.91,1.11,3.16,0,6.5-.56,9.66-.56,3.53,0,7.06.18,10.59.18,4.46,0,8.17-1.3,11.51-1.3,2.97,0,4.83,1.11,7.06,2.97,0,4.09-.56,7.99-1.49,11.89Z"/>
      <path class="cls-2" d="M1030.43,253.07c0,1.67.55,3.34.37,5.02v.56c-.93,1.49-1.67,3.34-2.79,4.64-1.11,1.49-2.97,2.23-3.9,3.9-1.12,2.23-.74,4.83-1.86,7.24-1.67,3.34-9.1,7.43-12.44,10.03-.56-.18-1.3-.37-1.86-.37-3.34,0-6.31,2.23-9.84,2.23-.74,0-15.04-1.86-15.04-1.86-1.86-.93-2.41-2.23-3.9-3.34-1.3-1.11-2.79-1.49-4.27-2.41-8.36-5.94-11.51-12.82-13.37-22.47-.19-1.67-.93-3.16-.93-4.83,0-1.11.56-1.86.93-2.79.93-3.16,1.11-6.31,2.41-9.1.74-1.86,2.04-3.16,2.78-4.83,1.3-2.23,2.41-4.64,3.9-6.69,1.3-1.86,5.2-4.27,7.24-5.76,2.97-2.41,8.73-7.24,12.44-8.17.93-.19,1.86,0,2.78,0,1.49,0,3.16-.19,4.64-.19,5.94,0,13.75,3.16,17.83,7.43.55.56.93,1.3,1.49,1.86,1.67,1.67,4.09,2.41,5.76,4.27.74,1.11,7.24,10.4,7.62,11.51.37,1.49.18,2.97.37,4.27.37,1.3,1.11,2.6,1.11,3.9,0,2.04-1.48,3.9-1.48,5.94ZM1019.84,240.81c-1.86-.56-2.23-4.27-3.72-5.76-2.78-2.42-8.54-3.16-10.59-6.13-1.49-2.23-1.3-5.2-3.34-7.24-1.67-.37-3.16-.56-4.83-.56-6.87,0-14.12,7.06-16.72,13,.18.37.18.93.18,1.3,0,3.9-2.04,7.24-2.04,11.15,0,7.43.93,13.19,4.83,19.69.56,1.11,1.49,2.97,2.23,3.72,1.3,1.11,4.27,2.23,5.76,2.97,2.23,1.11,4.46,2.79,7.24,2.79,1.3,0,3.9,0,5.2-.37.93-.37,6.31-4.09,6.69-4.83.37-.56.18-.93.55-1.49,1.67-2.79,5.02-4.09,6.69-7.06,1.3-2.42,1.86-5.94,1.86-8.73,1.12-1.86,2.04-3.72,2.04-5.94,0-2.79-.93-4.09-2.04-6.5ZM1095.98,258.64c-1.11,2.41-5.39,5.39-6.87,8.54-.37.93-.37,2.04-.93,2.79-.74,1.48-5.57,5.39-7.24,5.39-.55,0-1.11-.18-1.86-.18-2.04,0-3.53,2.04-5.76,2.04-1.49,0-2.79-.56-4.27-.56-2.41,0-4.46,2.04-7.06,2.04-3.53,0-6.5-2.41-8.17-5.39-2.6-.93-5.2-2.41-6.68-4.64-.74-1.11-1.12-2.41-1.86-3.34-.74-.93-1.49-1.49-2.04-2.41-.37-1.11-.19-2.23-.37-3.34-.37-1.11-.93-2.23-.93-3.34,0-1.86,1.11-10.96,1.86-12.44.56-1.11,1.67-1.86,2.41-2.97.56-.93.74-2.23,1.49-3.34,1.12-1.49,2.79-2.41,4.27-3.72,1.11-1.11,2.97-3.34,4.27-3.9,2.23-.93,5.2-.93,7.62-1.48,2.78-.56,5.57-1.67,8.54-1.67,1.86,0,3.72.37,5.39,1.3,1.49-.56,2.97-1.3,4.64-1.3s2.97.56,4.46,1.3c6.5,3.34,4.09,5.57,7.06,7.61v1.3c0,4.64,2.97,8.54,2.97,13,0,1.11-.74,7.8-.93,8.73ZM1087.26,243.23c-2.6-5.94-11.51-7.06-17.27-7.06-1.48,0-3.16,0-4.64.37-2.79.74-5.57,3.9-5.76,6.69-1.67,1.3-2.6,2.97-2.6,5.2,0,5.02,3.53,14.49,8.73,16.35,1.67.56,3.72.56,5.2.56,2.23,0,4.64-.18,6.87,0,4.09-3.16,6.69-7.61,9.1-12.07-.18-.56-.18-1.11-.18-1.67,0-2.6.55-5.2.55-7.8v-.56Z"/>
      <path class="cls-2" d="M1136.12,221.31c-4.09,0-2.04-8.17-12.26-8.17-6.87,0-8.17,3.16-8.17,9.29,0,5.57,1.86,7.99,3.9,12.63.74,1.67,1.12,3.53,1.86,5.39,1.3,2.6,2.97,4.64,3.9,7.61.55,2.23,1.11,4.46,1.86,6.69,1.11,2.97,2.6,5.57,3.9,8.54.37,1.11.37,2.23.93,3.34.37.93,1.11,1.49,1.49,2.41.37,1.67.37,3.53.37,5.2,0,5.94-.55,9.84-3.71,14.86-.93,1.11-1.49,2.79-2.41,3.9-1.12,1.11-2.6,1.49-3.9,2.41-2.04,1.11-3.9,2.6-5.76,4.27-.74-.37-1.48-.37-2.23-.37-2.04,0-3.72.93-5.39,1.67-2.6.18-5.39.18-7.99.18-2.23,0-4.83-1.3-6.5-2.41l-.55-.93h-.93c-1.3-1.3-1.86-3.34-2.97-4.83-.74-1.11-2.97-2.6-3.34-3.9-.19-.93-.37-1.86-.37-2.79,0-2.23,1.3-4.64,3.72-4.64,1.67,0,2.97.93,3.9,2.23.55.56.55,1.67.93,2.41,1.49,2.6,6.68,8.17,9.84,8.17,1.86,0,4.83-1.49,6.5-2.42,4.46-2.97,3.9-9.1,4.27-13.93,0-1.11.56-2.41.56-3.53l-.19-.37c0-.93-3.71-10.77-4.27-11.33-.18-.37-.56-.37-.93-.56-1.86-4.09-1.12-8.73-2.79-11.89-1.67-2.79-2.78-5.76-4.27-8.73-2.6-4.64-5.2-8.17-5.2-13.93,0-6.5,4.09-13.93,9.47-17.64.37-.19.93-.56,1.3-.93,1.67-1.11,6.68-3.9,8.36-4.27,1.86-.37,3.9-.56,5.76-.56,5.94,0,14.86,6.31,14.86,12.63,0,2.23-.93,4.27-3.53,4.27Z"/>
      <path class="cls-2" d="M1188.31,280.37c-.93.74-1.67,2.23-2.79,2.79-2.04,1.11-9.66,2.79-11.89,2.79s-4.27-.56-6.13-1.86c-.93.19-1.86.37-2.79.37-2.78,0-5.57-.56-8.36-.74-1.86-.18-5.02-3.34-6.31-4.46-.74-.56-1.67-.93-2.41-1.49-1.67-.93-3.72-4.09-5.02-5.76-4.46-5.94-5.76-9.47-5.76-17.09,0-2.97.18-6.69.93-9.66.56-1.67,5.2-11.7,6.31-13,.37-.37.74-.74,1.12-1.11.18-.37.18-.93.37-1.3,1.11-1.67,9.1-7.8,11.14-9.29,3.16-2.41,6.5-4.83,10.77-4.83.74,0,9.1,1.67,9.66,1.86,1.67.74,10.4,8.73,11.14,10.21.56.93.18,2.41.56,3.34.74,2.97,3.34,5.2,3.34,8.36,0,2.04-.93,3.9-.93,5.94,0,1.11-3.16,2.79-4.09,2.79-1.3,0-2.42-.93-3.72-.93s-2.6.37-3.9.37c-5.01,0-10.03-1.11-15.04-1.11-7.06,0-10.22,0-10.22,7.61,0,3.16.18,7.06.93,10.03.74,2.97,4.09,9.66,6.87,11.14.74.56,2.04.37,2.97.56.74.18,1.11.74,1.86.93,1.11.37,2.6.37,3.72.37,4.46,0,12.44-2.41,15.23-6.13l.93-.56c.18-.37,0-.74,0-1.11,0-2.23,5.94-6.31,8.54-6.31,2.78,0,3.53,4.46,3.53,6.31,0,6.13-6.68,7.62-10.59,10.96ZM1176.24,226.33c-.74-.19-2.97-.37-3.9-.37-1.3-.19-2.6-.56-4.09-.56-2.6,0-7.62,3.72-9.1,5.76-.56.93-.56,2.04-.93,2.97-.37.74-1.11,1.67-1.11,2.41,0,2.6,3.71,3.53,5.76,3.53,2.78,0,5.39-.74,7.99-1.11h5.2c1.86,0,4.27,0,5.58-1.86,0-3.9-1.49-9.1-5.39-10.77Z"/>
    </g>
  </g>
</svg>