<?xml version="1.0" encoding="UTF-8"?>
<svg id="Layer_1" data-name="Layer 1" xmlns="http://www.w3.org/2000/svg" viewBox="0 0 804.16 920.33">
  <defs>
    <style>
      .cls-1 {
        fill: none;
      }

      .cls-2 {
        fill: #fff;
      }
    </style>
  </defs>
  <path class="cls-1" d="M417.81,782.61c-4.64,1.39-11,1.81-15.83,1.91l10.8-5.04,5.97,1.83c.18,1.67,0,1.02-.94,1.3Z"/>
  <polygon class="cls-1" points="425.19 780.01 425.84 778.72 422.48 779.26 417.46 777.44 425.43 774.98 429.71 779.36 425.19 780.01"/>
  <path class="cls-1" d="M376.17,801.31c-.25,1.21-1.26,1.17-2.24,1.3-.94.13-4.09.63-4.53.63-3.46,0-8.4.44-11.61,0-.27-.04-1.85-.64-1.61-1.29l19.99-.64Z"/>
  <path class="cls-1" d="M431.65,794.21c0,1-2.23,1.07-2.99,1.2-5.58.94-11.45.8-17.01,2.02,4.44-4.5,13.84-1.99,20-3.21Z"/>
  <path class="cls-1" d="M451,827.1c-2.52,4.34-4.56,5.64-9.67,5.79l9.67-5.79Z"/>
  <path class="cls-1" d="M213,454.3c-1.75-7.57-4.87-14.91-5.2-22.77l1.65-1.08c1.51,4.57,1.97,9.41,3.36,14.05,1.03,3.4,4.1,6.14.19,9.81Z"/>
  <path class="cls-1" d="M451.64,770.99c-5.36,3.96-14.92,9.07-20,2.25,6.52-1.78,13.22-2.65,20-2.25Z"/>
  <path class="cls-1" d="M221.98,432.7c0,3.17-6.03,10.54-5.77,14.51-1.16-.2-1.11-1.31-1.38-2.17-.97-3.1-3.31-13.98-3.17-16.85.05-1,.83-3.78,1.97-4.19l1.75,8.9,2.77,5.28-2.57-17.72,1.93-2.27c-1.16,3.94,4.47,12.13,4.47,14.51Z"/>
  <path class="cls-1" d="M212.35,459.46c-1.02-.52-1.79-2.8-2.25-3.88-1.24-2.97-6.17-15.34-5.95-17.64.1-.94,1.13-1.93,1.11-2.99l3.85,13.24c.86,3.71,4.66,7.62,3.24,11.26Z"/>
  <path class="cls-1" d="M252.87,321.87l-2.46-8.17c-5.28,11.77-14.6,22.5-24.59,30.57-11.13,8.98-28.31,18.7-41.41,24.37-2.38,1.02-11.08,3.09-12.09,4.84-.95,1.67-.15,4.23-2.39,5.67l4.04,5.49,2.89-6.73c-6.55-2.91-1.34-5.18,2.56-1.94,2.36,1.97,3.8,9.83,4.38,13.04,1.73,9.47,2.49,19.14,4.24,28.66,1.75,9.51,4.09,18.86,6.25,28.26,1.68.3.99-.24,1.34-.92,1.39-2.72,2.29-6.37,3.7-9.2,9.59-19.32,38.29-67.14,53.64-80.51,5.61-4.89,12.63-7.69,18.07-12.56-9.21-3.06-14.17-12.67-18.18-20.86ZM187.21,378.53c-.58.82-1.85-.22-1.95-.67-.45-2.26,8.49-10.02,11.61-8.68l-9.66,9.35ZM195.31,396.95c-2.74,1.29-4.33.6-1.88-1.88,1.04-1.05,8.29-6.78,9.25-5.9.74.67-6.14,7.2-7.37,7.78ZM196.23,409.8c.02-4.03,4.11-6.09,7.09-7.74.51.55-5.44,9.35-7.09,7.74ZM197.53,380.46c-1.83,1.76-5.26,5.09-7.74,4.83-1.68-1.68,6.31-8.17,7.79-9.29.83-.63,5.79-4.14,6.39-3.6.39.35-5.69,7.35-6.44,8.06Z"/>
  <path class="cls-1" d="M353.54,798.99c-.7,1.01-.35,2.87-.95,2.99l-17.69-1.34c.13-.96,2.29-1.5,3.09-1.75,5.97-1.79,13.28-2.8,19.49-2.76.23,2.21-2.72,1.14-3.92,2.85Z"/>
  <path class="cls-1" d="M565.16,808.38l-5.37-.11-1.08-1.82c2.21-.02,5.23-.46,6.45,1.93Z"/>
  <path class="cls-1" d="M530.32,761.96l-8.38,1.93c2.4-3.46,4.79-3.81,8.38-1.93Z"/>
  <path class="cls-1" d="M499.37,761.31h-12.58c-.49,0-3.82,1.84-4.18,0,5.69-1.39,11.65-4.72,16.77,0Z"/>
  <path class="cls-1" d="M565.8,863.22l-5.48,1.34-5.49-.7c-1.03-.84.08-1.18.96-1.29,3.26-.41,6.78.27,10,.66Z"/>
  <path class="cls-1" d="M560.96,768.4h-15.8l-.58-2.84.91-1.02c4.78.35,10.13-.47,14.83,0,1.01.11,2.65,1.23,4.19.65,1,.74-3.3,3.22-3.55,3.22Z"/>
  <path class="cls-1" d="M466.48,834.19v1.93h-7.74c1.51-2.75,5.14-1.81,7.74-1.93Z"/>
  <path class="cls-1" d="M476.15,781.95c-3.2,4.36-8.21,3.11-12.9,3.21-.15-.98,1.21-.76,1.94-.95,3.6-.92,7.31-1.62,10.96-2.26Z"/>
  <path class="cls-1" d="M454.22,767.76c-.28,1.79-3.11,0-3.55,0-5.26,0-10.91-.29-16.12,0-.71.04-2.27,1.2-3.55.64-2.01-1.8,6.04-2.56,6.74-2.6,5.79-.4,10.92.66,16.48,1.97Z"/>
  <path class="cls-1" d="M485.18,857.4l-.67,4.48-6.42-.62c.65-1.66,2.81-1.75,4.05-2.56,1.24-.81.37-2.52,3.05-1.31Z"/>
  <path class="cls-1" d="M483.24,865.16c-.36.87-3.33,1.09-4.26,1.21-5.41.67-12.18,1.74-17.03-.89,0-.52,9.15-2.17,10.08-2.19,3.37-.07,7.63,2.19,11.21,1.87Z"/>
  <path class="cls-1" d="M129.79,496.88l-1.61,7.09c-3.67-1.68-2.48-3.84-2.25-7.09h3.86Z"/>
  <path class="cls-1" d="M133.04,450.8c.87,2.8,3.78,2.45,5.78.93.08,12.51-9.9,21.78-13.2,32.91-1.03,3.5-2.63,11.04-2.84,14.59-.16,2.64,0,4.34,2.17,6.06.91.72,2.53.18,2.33,1.55.28,1.81-.63,3.56-.73,5.22-.09,1.3.78,2.58.55,3.69-.15.76-1.25,1.5-1.52,2.37-1.19,3.75.98,4.55.97,6.71-.03,5.41-1.59,15.76-2.63,21.31-.35,1.87-1.4,3.57-1.21,5.55l-14.06-21.73c-6.5-11.41-12.76-23.47-16.92-35.96-.88-2.62-3.31-14.18-4.16-15.19-1.79-2.15-6.1,1.8-7.33-1.74.55-3.98.7-7.96,1.38-11.94.82-4.85,4.06-11.36,1.6-16.17-2.27-4.43-4.59,1.21-7.59,1.47-1.16-12.89,5.52-24.38,8.18-36.62l4.09-1.17,19.99,53.27,1.85-.08,1.68-4.44c2.39,2.78,3.23,7.16,5.59,9.88.58.67.64,1.35,1.82,1.07l10.34-51.58,1.93,1.28-1.93-7.74c2.11.91,1.77,5.2,2.88,6.46.82.93,2.72.43,3.28,1.24.44.64.91,6.33,1.88,8.44.98,2.12,2.54,4.44,3.75,6.9.2.41,1.46.47,1.56,1.09.81,4.46-6.72,9.51-9.47,12.35Z"/>
  <path class="cls-1" d="M122.7,413.67c-.52-3.8,3.75-3.98,6.44-5.15.4,3.6-4.51,2.96-6.44,5.15Z"/>
  <path class="cls-1" d="M226.94,423.02l-3.63,8.06c-1.67.19-1.03,0-1.3-.94-.79-2.68-3.19-12.65-3.11-14.9.06-1.71,3.03-6.06,4.42-7.39.08,5.25,1.63,10.38,3.63,15.16Z"/>
  <path class="cls-1" d="M119.47,431.08c-.44-1.49-.81-2.64-.05-4.13l1.93-.34c1.03,2.02.86,4.25-1.88,4.46Z"/>
  <path class="cls-1" d="M124.28,384.02c-.42-.62-.06-1.91-.42-2.46-.24-.37-1.74-.56-2.41-1.13-2.55-2.11-4.91-4.63-7.47-6.73-7.27-5.98-15.37-10.96-22.22-17.43-2.65,10.32-3.55,21.46-6,31.73-.44,1.85-1.07,3.17-2.14,4.71l24.27,64.18,2.88-16.13c5.09-14.72,6.42-34.59,11.89-48.74.77-1.99,3.16-4.47,4.04-6.6,1.74-1,4.82,1.87,6.01,3.09l.97-3.86h1.93l.64,2.57,1.94-3.54c-2.56-.61-12.57,2.29-13.89.34ZM101.41,380.79c.17,1.13-1.48.64-2.1.49-1.8-.42-4.24-1.48-4.34-3.72,3.17-.74,3.72,2.7,6.44,3.23ZM100.12,403.35c-2.6.23-4.17-1.89-5.79-3.55l1.26-1.32c1.13-.53,5.24,3.08,4.52,4.87ZM91.74,388.21c.21-1.09,1.58-1.03,2.56-.65,2.86,1.11,9.34,7.49,11.64,9.97-3.14.94-14.69-6.8-14.19-9.32Z"/>
  <path class="cls-1" d="M142.04,432.37c-3.3-2.03-3.37-6.87-3.86-10.32,3.39,1.99,5.25,6.7,3.86,10.32Z"/>
  <path class="cls-1" d="M133.66,476.23c-2.25,6.13-.51,13.82-5.48,18.69-2-1.74-.57-4.89,0-7.07.94-3.58,2.85-9.16,5.47-11.62Z"/>
  <path class="cls-1" d="M138.83,553.95c-.1.3-2.05,1.95-2.27,2.91l-1.4-2.83,3.66-10.73c-.52,2.82.7,8.24,0,10.64Z"/>
  <path class="cls-1" d="M580.63,831.61c-.15.17-3.18-.8-3.85-1-.67-.21-2.56,0-1.95-1.24.98-2.02,7.31-1.52,5.79,2.25Z"/>
  <path class="cls-1" d="M141.4,495.59l-.65,12.25c-1.3.18-1.06.12-1.46-.8-.91-2.06.36-7.29,1.01-9.64.18-.67.15-1.96,1.09-1.8Z"/>
  <path class="cls-1" d="M123.86,443.01l-5.03,26.78c-1.51.32-1.04-.19-1.45-.83-1.92-2.99-4-7.02-5-10.45l6.44,7.41c-1.27-4.95-8.51-11.46-3.87-16.13,1.05,2.73,2.59,5.54,5.16,7.1-.93-4.89-7.8-11.05-3.23-15.48l4.52,6.45c-.52-5.36-7.25-8.49-2.26-13.55,1.98,2.68,4.54,5.14,4.71,8.7Z"/>
  <path class="cls-1" d="M98.83,158.27c-4.88,4.86-12.91,5.28-19.34,3.86.14-.93,2.24-1.48,3.05-1.77,4.86-1.74,11.21-2.67,16.3-2.08Z"/>
  <path class="cls-1" d="M238.02,402.93c-1.84,2.55-2.73,6.13-5.02,8.17.1-7.45-4.72-15.3,1.6-21.27l3.42,13.1Z"/>
  <path class="cls-1" d="M258.81,372.68l-7.77,11.32c-.95-.13-1.06-2.79-1.2-3.63-.38-2.52-1.33-8.39-1.08-10.57.06-.52.25-1.48.98-1.27l1.94,9.02c.99-4.1-2.99-10.29,1.29-12.89l1.3,9.02,1.28-3.22,1.28,4.51c.59-4.46-1.06-8.87-1.3-13.2-.05-.71-.42-2.45.66-2.28l2.61,13.18Z"/>
  <path class="cls-1" d="M232.75,412.06c0,1.19-4.23,8.84-5.55,10,0-7.83-5.29-17.46,1.92-23.22-.53,3.4,3.64,11.02,3.64,13.22Z"/>
  <path class="cls-1" d="M249.64,385.44l-10.21,15.97c-.87-.11-1.13-.87-1.25-1.63-.32-1.95-1.48-12.18-1.18-13.35.14-.54,1.78-2.95,2.26-3.55.4-.51-.03-1.19,1.47-.82.14,2.12.55,4.28,1.12,6.32.35,1.26.95,3.99,2.1,4.66.35-3.56-2.35-10.73-1.82-13.72.25-1.45,3.86-5.58,5.05-6.92l2.47,13.06Z"/>
  <path class="cls-1" d="M156.23,212.43c-8.46,5-17.9,4.21-27.11,6.1-11.36,2.33-19.72,9.69-31.57,10.03,11.82-9,22.19-17.68,37.28-20.44,3.11-.58,12.31-1.94,14.78-.97.91.35,3.57,2.26,4.45,2.97.51.42,1.75,1.7,2.17,2.31Z"/>
  <path class="cls-1" d="M157.75,194.6c-1.43,1.49-2.51,4.81-3.64,6.04-2.96,3.2-15.55,3.91-19.96,4.88-6.99,1.54-14.65,4.24-21.14,7.22-10.91,5-20.52,12.74-32.57,15.17-1.97.1-.43-.68.13-1.17,16.62-14.2,35.37-25.61,55.68-33.97,2.4-.98,5.8.14,5.16-4.18-1.12-1.2-15.97,5.44-18.29,6.54-18.86,8.87-31.84,17.64-47.51,31.18-3.68,3.18-4.59,6.86-10.95,6.13-.34,1.94,1.63,1.54,2.57,2.26-3.5,3.25-8.82,7.3-13.1,9.47-.84.42-8.49,2.29-6.88,3.75l2.73-.16,8.88-3.38c-3.68,3.65-6.91,7.71-10.33,11.61-.8.91-.94,2.46-1.76,2.91-1.33.73-5.33,1.46-6.93,1.31-3.29-.29-12.87-6.62-14.9-9.29-6.93-9.12,1.07-10.41,3.94-17.82,4.13-10.65,5.9-25.01,10.14-35.65.69-1.74,4.44-4.69,4.88-6.1,1.13-3.7-2.9-5.31-1.68-9.4.65-2.16,4.57-3.53,5.99-4.97,1.11-1.13,7.41-15.42,7.77-17.39.41-2.17.33-4.28.3-6.47l4.57,4.13c3.59,2.29,7.2,4.91,11.55,5.54-.41,2.13-2.54,3.32-3.26,5.45-1.26,3.7-1.08,9.72,3.62,10.64.65.13,1.75.4,1.57-.61-5.87-2.12-3.14-11.72,1.58-13.61,1.65-.67,10.88,1.16,14.71.55,2.51-.39,14.84-5.35,10.8-8.55-4.26-3.38-16.76-.17-21.53,1.7-1.28.5-2.48,1.87-3.6,2.21-5.91,1.78-15.26-5.44-16.8-11.31,13.15-4.97,24.9-14.77,39.66-13.55,4.77.41,13.17,2.8,17.31,5.26,9.9,5.91,12.69,21.22,21.7,28.61,7.82,6.4,18.07,5.16,23.36,14.05,5,8.39.71,6.3-3.77,10.98Z"/>
  <path class="cls-1" d="M181.39,402.06c-2.2-.79-5.47-.66-7-2.33-.22-.64.44-12.73.67-13.36.36-1.04,2.14-1.42,2.8-2.35l3.54,18.05Z"/>
  <path class="cls-1" d="M84.65,230.51c-10.07,11.29-21.7,24.89-36.77,29.01,4.13-3.91,8.33-7.8,12.26-11.91,7.44-7.76,12.24-16.52,24.5-17.1Z"/>
  <polygon class="cls-1" points="753.49 811.61 747.05 807.4 748.66 805.17 753.49 811.61"/>
  <path class="cls-1" d="M677.38,803.87l-7.72,4.52c-.08-4.94-8.94-1.3-9.65-1.98-1.29-4.87.98-2.55,2.86-2.55h14.51Z"/>
  <path class="cls-1" d="M701.89,814.19h-5.16c1.3-3.8.83-5.96-2.53-8.16l.61-2.8c2.58-1.85,7.58,10.47,7.08,10.95Z"/>
  <path class="cls-1" d="M727.05,817.43l-2.29,5.15c-7.93-3.13-5.99-8.76,2.29-5.15Z"/>
  <path class="cls-1" d="M714.15,812.25l-8.38,1.66-5.8-10.97c.24-1.15,5.18-1.97,6.45-1.33.78.39,8.16,10.1,7.73,10.64Z"/>
  <polygon class="cls-1" points="720.6 780.02 705.76 780.02 713.83 778.68 720.6 780.02"/>
  <polygon class="cls-1" points="707.02 831.58 695.44 832.89 697.41 821.97 705.1 820.64 707.02 831.58"/>
  <path class="cls-1" d="M687.7,791.63l-6.2,1.87-2.83-.6c-.17-1.73,0-1.03.96-1.26,2.93-.71,5.13-.58,8.06,0Z"/>
  <path class="cls-1" d="M670.23,817.68c-.98.9-9.02,6.76-9.61,6.19-.24-6.23,5.94-7.61,10.96-8.38.27,1.24-.64,1.54-1.35,2.19Z"/>
  <path class="cls-1" d="M677.38,827.74l-3.04,3.15-4.7-1.88c1.75-3.84,4.52-1.85,7.73-1.27Z"/>
  <path class="cls-1" d="M685.77,779.37l-4.04,1.81c-7.76-4.46-17.66-7.6-26.61-8.25-5-.38-11.37.69-16.07-.05-1.12-.18-2.56-.68-2.94-1.89,17.23-2.66,34.08,1.02,49.67,8.38Z"/>
  <path class="cls-1" d="M694.15,823.87c-.38,10.59-5.22,10.54-14.18,11.6l10.36-10.6,3.83-1Z"/>
  <path class="cls-1" d="M771.22,789.05l-40.94-11.63c-.28-.65,1.5-1.28,1.61-1.28,3.44,0,7.65-.34,10.96,0,7.58.77,19.43,6.06,25.81,10.31.76.5,2.86,1.48,2.56,2.6Z"/>
  <path class="cls-1" d="M756.72,820.63l-3.22,1.3c.66-7.77-9.96-4.38-12.26-9.97.06-.23,2.25-1.85,2.57-1.95,1.48-.41,11.12,7.31,12.26,9.01.37.54.9.67.64,1.61Z"/>
  <path class="cls-1" d="M127.85,547.82l-.64-3.53,1.28-7.42c1.95,3.82.04,6.98-.65,10.95Z"/>
  <path class="cls-1" d="M739.29,803.62c-1.43-.38-9.48-4.04-10.64-4.9-1.42-1.04-7.6-10.15-6.76-10.96,5.23.32,18.19,6.56,19.73,11.58.54,1.77-.08,4.87-2.32,4.28Z"/>
  <path class="cls-1" d="M716.01,822.65l-.89,5.74c-6.17,2.45-5.68-3.83-7.42-7.74l8.31,2.01Z"/>
  <path class="cls-1" d="M725.73,809.01c-2.3-.15-6.5,2.85-8.36,1.67-.49-.31-2.15-3.77-2.95-4.81-1.01-1.32-3.6-3.55-4.14-4.91-.56-1.44,4.14-1.26,5.03-1.49l3.67,3.76-.96-3.22c4.47.02,7.5,4.98,7.7,9.01Z"/>
  <path class="cls-1" d="M724.46,827.74l-1.08,3.27c-1.63.97-3.05.4-4.72-.06-.48-.63,5.41-3.63,5.8-3.21Z"/>
  <path class="cls-1" d="M747.68,798.71l-11.61-10.95c5.27,1.52,12.7,4.18,11.61,10.95Z"/>
  <path class="cls-1" d="M571.61,813.22c-.83-1.75,5.11-1.76,5.79-1.6.31,3.47-3.8,4.07-5.79,1.6Z"/>
  <path class="cls-1" d="M615.13,776.8c-7.19-.87-14.63-1.02-21.93-1.3-.79-.03-2.4.49-2.25-.65,6.32.46,13.44-.62,19.67,0,.66.07,5.01.81,4.5,1.95Z"/>
  <path class="cls-1" d="M608.36,790.33c-.13.97-2.78,1.06-3.64,1.2-6.43,1.01-13.07,1.45-19.58,1.38.27-1.29,1.33-1.1,2.27-1.28,6.63-1.29,14.19-1.26,20.95-1.29Z"/>
  <path class="cls-1" d="M609.66,768.41c.17,1.08-1.57.7-2.28.67-1.75-.11-3.28-.68-5.1-.69-5.14-.04-12.23,2.9-15.2-2.55,7.68-.64,15.04,1.57,22.57,2.57Z"/>
  <polygon class="cls-1" points="607.72 794.86 599.58 797.36 595.47 796.46 607.72 794.86"/>
  <path class="cls-1" d="M623.85,796.78l-5,2.41c-3.69.62-8.66,4.66-11.12.48l16.12-2.89Z"/>
  <path class="cls-1" d="M615.46,764.54l-4.75.56-21.68-3.78c8.74-1.93,18.08.59,26.44,3.22Z"/>
  <path class="cls-1" d="M586.44,769.69c-2.77.96-4.39-.62-6.52-2.21-.72-.53-1.6.02-1.21-1.66,3.45-.54,5.99.98,7.73,3.87Z"/>
  <polygon class="cls-1" points="577.4 807.74 570.95 807.75 570.95 805.81 575.73 805.32 577.4 807.74"/>
  <path class="cls-1" d="M673.15,785.14c-7.51.98-14.53-.96-21.69-2.74l-8.9-5.6c11.74-.62,23.36,1.33,34.18,5.8,1.09,1.2-2.92,2.45-3.59,2.54Z"/>
  <path class="cls-1" d="M594.83,786.47l-4.28,1.2c-11.9,2.56-23.04,1.67-35.06.73l.95-1.29,38.39-.64Z"/>
  <path class="cls-1" d="M578.05,838.05c-6.1,3.06-5.66.33-9.02-3.86,1.21-.02,10.42,1.99,9.02,3.86Z"/>
  <path class="cls-1" d="M638.04,783.25c-1.58,2.81-5.25.22-7.73.62v-2.56s7.73,1.94,7.73,1.94Z"/>
  <path class="cls-1" d="M594.83,874.83c-2,2.1-6.18,2.93-9.03,3.21l5.78-2.91,3.25-.3Z"/>
  <path class="cls-1" d="M655.45,798.07c-8.59-.6-18.86-2.56-26.46-6.78-.6-.34-1.72-.08-1.26-1.27.85-2.24,5.53-2.02,7.36-.9.64.39.89,1.43,1.22,1.64,5.31,3.21,11.55,4.25,17.35,6.22.67.23,1.95.14,1.79,1.09Z"/>
  <path class="cls-1" d="M644.48,781.32l-.32,1.28c-3.37-.65-8.06-1.56-10.64-3.88,4.71-1.58,6.97.75,10.96,2.59Z"/>
  <path class="cls-1" d="M649.65,817.73c-2.71,1.79-5.91,3.9-9.03,4.85,1.08-1.18,9.67-6.97,10.32-6.44,1.24,1.01-.96,1.38-1.28,1.59Z"/>
  <path class="cls-1" d="M635.46,799.36l-8.38.64c1.98-4.08,5.46-3.46,8.38-.64Z"/>
  <path class="cls-1" d="M606.44,810.97c.09-1.25-.45-3.4.63-4.2l13.51-3.48.7,2.52-14.84,5.17Z"/>
  <path class="cls-1" d="M598.05,804.52c-2.95-.25-12.79,4.6-11.19-.63,3.58.09,9.15-3.36,11.19.63Z"/>
  <path class="cls-1" d="M624.5,784.52c-2.57.13-3.31,2.05-4.79,3.67l-7.46-1.09c-.02-1.27,2.74-.72,3.14-1.37.37-.57.15-2.49-.23-3.15l-7.42-2.56c5.2-.88,9.85,1.97,14.81.66l1.96,3.85Z"/>
  <path class="cls-1" d="M531.61,782.6c.17,1.08-1.56.7-2.28.66-1.62-.09-3.98-.5-5.59-.88-1.13-.27-2.88.03-2.45-1.72l10.32,1.94Z"/>
  <path class="cls-1" d="M496.79,872.9c-.26,1.08-2.88,1.46-3.83,1.64-5.54,1.07-14.02,1.18-19.7.93-1.96-.09-5.75-.55-7.42-1.61,5.62-1.82,11.87-.74,17.76-.94,4.54-.16,8.55-2.34,13.19-.02Z"/>
  <path class="cls-1" d="M496.14,880.63l-.66,2.57-5.79-1.29c-.14-.92,1.79-1.01,2.43-1.1,1.34-.19,2.66-.29,4.01-.18Z"/>
  <path class="cls-1" d="M486.92,885.94l-9.84,1.79-4.16-.67c-.19-1.24.52-1.73,1.62-1.93,3.1-.59,8.55,1.31,12.38.8Z"/>
  <path class="cls-1" d="M463.9,885.78c-3.35.65-6.6,1.8-8.39-1.92,2.85.32,6.94-1.25,8.39,1.92Z"/>
  <path class="cls-1" d="M497.43,773.57l-29.02,5.79c.38-.9,2.76-1.42,3.74-1.74,8.03-2.64,16.85-3.83,25.28-4.06Z"/>
  <path class="cls-1" d="M522.59,887.73c-.82,1.48-3.93,1.53-5.44,1.88l-7.46-3.17,12.9,1.29Z"/>
  <path class="cls-1" d="M538.06,879.33c-.66-.2-1.39.66-1.61.66-5.48,0-13.62.7-18.71,0-.26-.04-1.84-.64-1.61-1.28,4.31-.54,16.14,3.91,10.96-4.52l10.96.65c-1.62,1.97-1.65,2.54,0,4.5Z"/>
  <path class="cls-1" d="M456.16,772.27c0,1.95-1.52,3.3-3.21,3.87l-1.3-3.21c1.84-.62,2.46-1.66,4.51-.66Z"/>
  <path class="cls-1" d="M500.66,765.82l-4.92,1.21c-6.27-.33-12.45,1.59-18.62,2.03-1.6.12-1.79-.16-.1-.74,1.98-.67,8.07-2.51,9.76-2.51h13.87Z"/>
  <path class="cls-1" d="M523.22,759.69c-2.54,2.08-2.71,6.15-6.73,6.15l-11.31-9.04c2.06-.75,18.06,1.29,18.04,2.89Z"/>
  <path class="cls-1" d="M323.29,709.72c.41-4.57-2.07-8.7.66-12.9l1.27,12.9h-1.93Z"/>
  <path class="cls-1" d="M318.9,869.48c-.15.93.7,1.96.22,2.77-.21.35-1.21.48-1.68,1.11-.58.77-.21,2.38-1.86,2.45l-29.38,4.82,10.33-4.5c1.2-.93,2.02-3.01.51-3.95-.93-.58-18.72.13-21.84.1-5.69-.07-11.42-.87-17.4-.7-10.42.29-20.3,2.64-30.85,1.24-4.75-.64-9.16-2.73-13.94-3.15-.12-.94,1.69-1.16,2.3-1.22,7-.76,15.34-.06,22.51-.71,13.27-1.21,39.28-3.46,50.21-9.78,2.47-1.44,5.43-5.01,8.17-4.73-1.28,1.11-5.75,7.03-1.1,5.35,6.22-2.25,12.31-19.21,12.72-25.66l4.19,9.03,1.58-1.02c-3.1-12.58-8-24.36-7.07-37.67l2.59,9.67,1.93-.33-6.46-38.69.97-1.61.95,1.28,3.24-4.82c-.21-1-4.85-2.29-5.49-.35l-.89-1.04-5.25-59.25h1.29l5.17,52.56.67-4.21c-1.15-13.15-3.05-26.21-4.54-39.32-.31-2.78-.09-7.8-.66-10.2-.12-.49-1.25-.41-1.31-.84-.18-1.36,1.24-4.44,1.33-6.04l5.03,14.62c.93,2.08,4.92,9.98,6.26,11.17,2.22,1.95,3.92-1.26,4.18-3.21l1.27,9.35c1.66,23.59,2.74,45.39,1.92,68.98-.18,5.33.21,10.71,0,16.05l2.6.41c-.29,2.96.4,6.54.05,9.4-.31,2.52-2.71,2.19-1.99,8.34.7,5.89,3.95,9.07,7.02,13.45-2.18,3.67-8.28,7.41-7.54,12.22.25,1.63,2.47,2.71,2.36,3.88-.11,1.22-2.1,3.3-2.35,4.78Z"/>
  <path class="cls-1" d="M439.12,820.02c-.14.48-4.19,8.31-4.62,8.96-3.89,5.92-17.37,7.5-23.93,10.25-3.42,1.44-8.52,5.33-11.28,6.13-3.52,1.03-9.99.63-14.22,1.26-10.14,1.5-22.63,4.23-32.64,6.71-6.31,1.55-15.18,5.59-20.59,6.5-3.24.55-6.61-.4-9.83.8-1.47-1.66,8.46-9.77,8.2-12.66-1.61-9-4.78-17.58-5.62-26.68l9.96,1.31c1.65-.22,3.07-3.89,6.52-4.49,4.63-.82,5.66,1.92,8.26,1.84,7-.19,12.35-2.94,18.22-3.75,6.5-.9,13.94-.74,20.56-1.37,13.03-1.22,23.59-3.62,36.8.03l10.21-1.13c2.44.8,4.79,3.67,4,6.29Z"/>
  <path class="cls-1" d="M300.72,821.61v11.93h-.65v-9.34c0-.71-1.31-2.76-.64-4.19h.63c-.14.61.66,1.31.66,1.61Z"/>
  <path class="cls-1" d="M452.93,886.43c-9.47-.23-18.63-2.83-27.73-5.16-1.37-1.34,3.26-2.14,3.85-2.28,3.8-.89,7.72-1.11,11.61-.93l.64,2.91,10.94,1.63.69,3.82Z"/>
  <path class="cls-1" d="M570.64,762.61c-3.77.45-11.61-1.84-16.09-1.98-8.21-.24-16.7,4.15-22.91-2.23,12.97-6.21,27.15-.8,39.98,2.9.94.88-.09,1.2-.97,1.3Z"/>
  <polygon class="cls-1" points="427.13 843.22 424.78 847.65 407.78 850.31 414.53 847.07 427.13 843.22"/>
  <path class="cls-1" d="M434.22,876.75l-8.38,1.28,5.51-3.23c1.46-.22,3.07.15,2.87,1.95Z"/>
  <path class="cls-1" d="M413.59,878.69c-.26,1.29-1.33,1.1-2.27,1.28-5.48,1.06-11.16.88-16.45-.96,6.39-2.75,12.19-.87,18.72-.32Z"/>
  <path class="cls-1" d="M386.4,873.19c-.85,5.25-7.82,1.82-11.8,3.6-8.23-.61-17.06-.41-25.2-1.29-.96-.11-2-.14-2.24-1.31,5.16-1.11,12.23-1.52,17.09-3.24,1.57-.56,2.8-2.37,4.53-2.3,2.16.09,12.79,2.47,15.15,3.28.68.23,2.4.5,2.48,1.27Z"/>
  <path class="cls-1" d="M649.52,827.28c-.88,1.56-3.44,5.6-4.61,6.68-.99.93-10.26,5.78-10.74,5.38,3.41-6.95,9.7-10.02,15.81-14.18.94.49-.14,1.56-.46,2.12Z"/>
  <path class="cls-1" d="M747.68,821.94l-3.56,2.4c-6.49-6.47-6.38.46-8.72,2.41-1.15.95-4.02.86-5.5,1.43l-2.8-3.43c1.55-1.46,2.12-5.75,2.82-6.7,1.03-1.4,10.07-.52,12.08.21,2.28.84,3.37,3.11,5.67,3.68Z"/>
  <path class="cls-1" d="M736.71,832.57c-7.13,3.49-14.42,6.96-22.56,6.77-.24-1.31.59-1.54,1.56-1.98,3.43-1.53,11.42-3.62,15.36-4.64,1.69-.43,4.38-1.93,5.64-.15Z"/>
  <path class="cls-1" d="M716.09,847.1c-4.92,6.4-13.42,8.69-20.63,11.6,1.08-1.29-.08-4.26.04-4.45.21-.35,5.52-3.56,6.73-4.57.94-.79,1.47-2.27,2.05-2.62,2.47-1.48,8.94-.41,11.81.05Z"/>
  <polygon class="cls-1" points="707.05 869.02 702.39 871.13 695.45 872.88 700.9 870.29 707.05 869.02"/>
  <path class="cls-1" d="M762.5,819.07c-3.1-5.67-.07-11.3-2.56-17.12l-1.97.29-.5.78c-.6,2.39.4,4.65.56,6.98.04.59.29,2.2-.67,1.3-1-2.86-5.71-6.62-6.62-8.9-.67-1.64.66-5.7.05-8.38-.5-2.19-2.77-3.15-3.73-4.97,6.8-.91,23.79,10.58,25.94,16.3,3.3,8.77-3.08,12.16-10.48,13.72Z"/>
  <path class="cls-1" d="M778.15,816.6c-1.46,4.01-7.68,8.06-11.11,10.5-.05-.81.16-1.97-.29-2.63-.41-.59-3.63-.51-2.29-1.88.25-.26,5.63-1.8,6.88-2.48,10-5.35,6.69-16.91-.43-23.32.6-.54,6.19,3.37,6.87,4.1,2.58,2.83,1.65,12.2.38,15.72Z"/>
  <path class="cls-1" d="M134.95,603.29l-6.45-8.38c3.68.92,6.38,4.65,6.45,8.38Z"/>
  <path class="cls-1" d="M757.19,827.89c-3.22,1.48-7.98,1.2-11.44,2.43-2.03-2.22,6.94-4.21,8.16-4.29,1.24-.08,2.73.68,4.1.42.2,1.38.05,1.04-.82,1.44Z"/>
  <path class="cls-1" d="M699.95,847.1c-1.11,1.46-4.78,4.56-6.4,4.85-1.67.3-4.12-3.22-6.49-2.28-.44,2.48,1.8,2.87,3.22,4.19l-5.1,1.54c-.08-1.21-.7-3.22-2.21-3.07-.59.06-8.65,4.81-10.52,5.62-8.86,3.84-17.64,5.25-27.32,5.25.26-1.04,1.47-1.54,2.4-1.78,6.36-1.63,15.97-1.21,21.92-4.52,1.55-.87,4.03-3.96,5.92-5.07.6-2.23-1.57-1.43-1.86-2.8,8.66-2.03,17.6-2.06,26.44-1.94Z"/>
  <path class="cls-1" d="M683.62,861.36c-5.76,1.72-10.94,4.14-17.2,3.14-.15-.99,1.21-.76,1.94-.95,5.5-1.41,11.2-2.44,16.77-3.56.31,1.88-.44,1.05-1.5,1.37Z"/>
  <path class="cls-1" d="M607.42,879.99c-6.7.79-13.61.61-20.34,1.28l8.77-3.17,12.51.6c1.01.77.02,1.18-.94,1.29Z"/>
  <path class="cls-1" d="M614.02,850.63c.33,3.62-6.47,1.68-7.59-.31,1.68.39,7.32-2.61,7.59.31Z"/>
  <path class="cls-1" d="M604.5,882.57l-18.35,2.6-19.7-.68c0-1.09,2.14-1.22,2.89-1.28,8.46-.68,17.87.33,26.48.03,2.76-.1,5.72-1.22,8.68-.67Z"/>
  <path class="cls-1" d="M551.61,818.06c-.94,3.77-4.91,5.33-7.72,2.26,1.69-2.38,5.08-1.47,7.72-2.26Z"/>
  <path class="cls-1" d="M579.99,890.96c-.19,1.13-3.36.71-4.22.67-5.68-.32-12.05-1.11-17.59-2.4-1.03-.25-3.64-.46-3.98-1.49l25.79,3.23Z"/>
  <path class="cls-1" d="M628.7,881.28c-4.33,2.23-9.74,3.64-14.52,4.5l5.5-3.2c2.3-4.26,8.22-3.54,12.55-4.53,1.14.99-3.09,3-3.53,3.23Z"/>
  <path class="cls-1" d="M634.81,812.91l-8.79,5.06c-6.41,2.19-12.47,6.65-19.58,5.88l7.57-4.35,20.81-6.6Z"/>
  <path class="cls-1" d="M208.86,607.21c-1.52.65-2.6.78-4.24.59-2.68-2.74,9.41-7.76,11.61-7.73,1.11,1.09-6.35,6.71-7.37,7.14ZM214.31,615.82c-.65-2.44,7.04-5.02,9.01-5.44,1.26,3.58-8.12,8.83-9.01,5.44ZM348.45,637.48c2.3,1.22,4.7,4.75,2.26,7.08-.33-.5-1.2-.44-1.48-.79-.9-1.13-.78-4.77-.78-6.29ZM341.9,651.56l-2.42.03-2-10.9c3.42-.2,6.38,9.67,4.42,10.87ZM327.16,646.5c2.53-.33,5.22,3.52,5.65,5.63.59,2.85-.89,13.16-3.07,7.59-.66-1.68-3.35-12.41-2.58-13.22ZM269.55,447.97c-.89,4.64-.96,8.81-1.78,13.36-6.19.77-3.58-10.18-2.74-14.02,2.02-9.18,6.26-19.46,12.46-26.55-2.29,9.09-6.16,17.97-7.94,27.21ZM279.83,480.71c-3.73-.62-.56-12.5.39-14.98.66-1.75,2.25-3.01,2.45-4.97l.67,6.15c-1.01,2.35-.36,14.32-3.5,13.8ZM289.43,487.2l.32,14.18c-5.51.09-3.8-11.72-.32-14.18ZM300.63,518.71c-2.92.95-2.98-1.34-3.6-3.64-1.89-7.16.16-13.21,1.75-20.12l.65,5.8,1.92-1.94c-1.8,6.67.69,13.57-.72,19.9ZM309.1,525.25c-.61-.57-1.53-12,1.28-12.9-.15,3.59,4.17,12.8-1.28,12.9ZM332.7,554.22c-1.75-2.72-5.53-12.76-5.53-15.75v-10.64l7.18,20.23c1.77,3.84,3.85,7.5,6.99,10.4-3.18,3.02-6.94-1.63-8.64-4.24ZM356.08,563.74c-3.54-6.1-4.81-12.77-5.04-19.78l7.86,16.31c1.79,4.58,7.74,7.03,7.61,12.05-4.44.6-8.4-5.08-10.42-8.59ZM385.86,575.56c-5.73.75-5.87-4.75-6.44-9.03l4.51,6.14c.29.57,1.63.82,1.78,1.07.32.55.1,1.22.14,1.81ZM517.11,499.46c5.07-5.6,14.4-17.45,15.03-25,.07-.76-.95-3.78-1.23-3.98-.41-.3-3.02.6-4.11.63-54.72,1.15-84.76-26.46-128.1-53.19-34.01-20.97-76.03-39.85-113.65-53.4-1.52-.55-13.52-3.9-14.21-3.67-6.4,7.21-12.73,14.48-18.39,22.29-12.13,16.76-25.9,40.46-33.76,59.76-2.44,6.01-4.46,12.13-5.7,18.49-1.81.08-2.76-1.91-3.57-3.2-3.1-4.96-4.45-11.37-6.42-16.79-3.81,8.44-3.86,18.59-11.28,25.15,2.33-6.17-1.37-11.27-2.92-17.4-1.94-7.71-3.7-16.39-4.74-24.28-.36-2.71-1.07-18.01-2.01-18.66-2.91,1.06-4.4-.67-7.11-.94l-2.59,16.13-1.6-2.57c-1.37,1.52-2.86,1.88-3.89,3.85-.41.78-3.33,8.75-3.34,9.24-.07,1.89.67,12.63,1.08,14.19.15.63,1.4.56,1.81,1.53.61,1.42.62,4.37.79,6.02l3.21-1.29c1.02,2.4-2.22,4.46-2.42,5.55-.47,2.49,1.87,8.8,1.81,11.58-.03,1.26-.98,1.89-1.01,2.9-.11,4.49,3.69,10.87,5.03,14.93,2.37,7.13,4.11,14.48,6.88,21.47-.49,1.18-1.08,3.45-2.84,2.92l-3.91-6.47c-1.26,2.41,1.01,4.84,1.45,6.94.77,3.86.6,7.81,2,11.55,2.02,5.45,7.19,9.43,10.45,14.07l-2.18,1.56-7.51-7.04c-.38,2.69,1.25,5.55,1.27,8.07.04,3.92-.14,12.39-.59,16.15-.06.47-2.91,4.11-3.02,5.13-.13,1.28,1.85,4.21,1.75,6.47-.05,1.12-1.13.95-1.31,1.44-1.06,2.99-.64,6.06-.68,9.18l6.13-15.48,1.57.95-12.58,45.47c2.36,1.55,3.74,3.89,5.86,5.79,4.33,3.92,11.3,8.8,16.23,12.16,2.42,1.65,19.22,12.35,20.4,12.24,1.31-.14,2-1.36,4.55-1.13,1.1.11,9.81,3.25,10.43,3.81.91.79,1.3,2.86,2.22,3.9-4.17,1.15-6.46-.32-10.32-1.27l2.01,16.05c3.4.27,14.28,4.85,16.72,3.63,1.18-.59,1.35-3.62,4.7-2.96.64.13,1.11,2.61,2.83,3.13,2.93.88,6.6-1.33,9.74.26l.78,7.61c1.13-.21,1.08-1.87,2.2-2.62,3.31-2.22,3.48,1.62,4.62,1.89.55.13,2.05-.6,3.15-.59,3.83.06,2.61,2.22,2.97,2.54.67.62,2.85-.84,2.55,1.05-.26,1.53-2.83,4.29-3.24,6.12.65.55,6.59-4.92,7.68-1.52.67,2.05-3.36,7.99-3.16,10.55.63.69,8.41-5.64,9.37-6.44,2.81-2.35,1.79-.95,2.9-1.59,1.16-.67,1.02-4.44,3.84-3.57l-6.44,29.02c4.78-2.89,11.52-14.76,16.15-16.43,4.58-1.65,2.44,2.16,2.69,4.3.89,7.77,5.35,17.59,9.22,24.38l7.1-38.04c.23-1.11,4.97.4,5.15.59.67.72,2.76,8.16,3.86,10.38,1.26,2.54,3.31,5.97,5.5,7.72,1.4-9.95-1.58-19.13-3.85-28.66l1.28-.72c2.5.6,3.75,6.6,7.08,6.8,1.03-1.17-2.88-8.36-3.09-10.15-.18-1.53,2.51-5.64,4.05-5.34.4.07,3.69,4.86,6.78,3.24l1.98-8.65,24.49-15.51c2.33-2.63.84-9.04,1.65-12.62-2.83-.78-5.64-1.03-8.47-1.88-20.14-6.09-44.37-23.62-57.68-39.72-3.71-4.47-6.68-9.57-10.66-13.84.13,3.81,1.91,7.48,2.25,11.29.43,4.99.6,10.35-3.91,13.49-4.03,2.82-7.48,2.47-11.52,0-10.54-6.44-26.89-30.61-32.2-41.97-4.44-9.51-7.92-20.2-9.77-30.54-1.13-.15-.61,1.47-.64,2.25-.2,5.13.15,10.99.65,16.12.51,5.35,1,10.86,3.22,15.8-2.49,2.4-4.92-10.41-5.07-11.37-6.3-38.74-.02-101.64,16.36-137.61.96-2.13,3.41-4.96,4.18-6.79.15-.38.12-1.09-.32-.94-1.98.99-13.45,9.48-14.51,8.37.07-.94-.18-2.01,0-2.9.33-1.68,8.87-6.58,10.95-7.74,13.01-7.34,27.9-12.9,42.58-15.78l-16.56,8.91c-29.88,17.84-38.68,68.71-40.23,101.02-1.59,33.37,15.05,70.43,38.39,93.88,8.82,8.86,15.39,9.35,13.16-5.43-1.59-10.59-7.75-21-8.77-31.22-.08-.7-.76-2.19.44-2.05,7.7,10.78,15.31,21.78,23.89,31.91,8.35,9.84,16.06,17.51,26.87,24.72,9.37,6.27,30.3,17.54,41.16,17.54h21.93c.11,0,1.88-.64,1.61-1.28-10.75-2.49-20.89-8.67-30.01-14.83-4.04-2.73-23.52-16.86-24.07-20.46-.17-1.16-.05-1.43.87-2.12,15.47,10.82,33.54,26.85,52.05,31.79,10.94,2.92,28.44.79,38.7-4.25,1.69-.83,5.43-2.5,5.05-4.63-5.13-3.41-25-11.24-27.14-16.11-.39-.89-1-.56.35-1.63,12.7,4.85,33.85,16.91,47.44,14.53,4.6-.8,9.83-3.67,10.85-8.51.29-1.32-.07-.68-.85-.89-14.93-4.2-30.78-6.74-41.33-19.96-.81-1.01-3.01-3.54-1.26-4.53,1.54-.33,5.89,4.33,7.46,5.42,9.86,6.89,28.79,15.34,40.89,13.92,9.08-1.06,14.66-14.26,9.71-21.95-16.63-11.27-31.24-24.93-45.5-38.99,1.03-.66,2.91.77,3.89,1.28,6.53,3.4,13.06,8.18,19.99,10.96,9.59,3.86,13.83,4.19,7.84-6.55-6.7-12.03-19.29-20.36-29.14-29.55-3.03-2.82-5.66-6.37-9.02-8.73-.14-1.21,1.29-.52,1.94-.33,4.52,1.37,8.25,5.5,10.93,6.38,1.75.57,11.24.68,13.1.27,6.71-1.5,4.63-10.13,2.51-14.49-5.84-12.04-21.87-15.11-30.76-24.07,1.36-3.52,6.14.58,8.72.32l-25.8-21.6c2.83.86,5.79,2.7,8.34,4.23,10.53,6.35,21.15,15.68,30.38,23.8,3.08,2.7,10.15,10.27,12.13,13.66,7.45,12.77,6.68,26.64-11.5,24.4,5.07,4.43,10.75,8.76,15.17,13.87,5.45,6.31,18.12,23.18,2.25,24.84,1.89.94,5.15,4.39,6.92,4.74,3.04.61,9.9-5.84,13.02-7.1l-.6-3.12,7.1-1.95-3.24-.94c-1-.88-.77-1.11,0-1.99.98-1.14,7.26-2.76,9.51-4.04,4.28-2.45,14.83-12.12,17.23-16.3.62-1.06,1.26-2.78.94-4-1.38-5.11-15.73,2.44-16.68,1.48l1.28-4.79-1.95-1.93c.18-2.02,6.85-7.3,8.74-9.39ZM189.48,598.77c-1.08-.21-1.04-1.57-.65-2.56,1.44-3.62,6.96-9.02,9.98-11.62-.72,2.54-6.51,14.75-9.33,14.18Z"/>
  <path class="cls-1" d="M619.34,876.11c1.76-4.84-2.01-4.91-4.51-7.73.96-.79,6.71-.27,7.04.05.23.21,0,3.1,1.05,3.79l4.8,3.9h-8.38Z"/>
  <path class="cls-1" d="M494.85,898.68h-12.57c-.99,0-7.25-1.8-8.68-2.28-.92-.31-9.88-4.01-9.05-4.81,4.44-1.19,5.85-2.94,10.49-.5,8.09,4.26,8.13,4.52,17.56,6.31.94.18,2.01,0,2.26,1.28Z"/>
  <polygon class="cls-1" points="171.07 569.75 169.14 569.75 167.86 557.5 170.91 567 171.07 569.75"/>
  <polygon class="cls-1" points="168.48 596.84 166.11 587.93 165.27 580.08 167.66 588.97 168.48 596.84"/>
  <path class="cls-1" d="M161.39,414.94l-6.44,1.31c-.4-.36,3.82-5.68,4.33-6.28.4-.46-.03-1.21,1.48-.82l.64,5.79Z"/>
  <path class="cls-1" d="M172.39,539.9l-1.31,5.99-2.58-12.26c.39-.39,4.91,1.8,5.05,2.03.66,1.07.35,3.79-1.16,4.23Z"/>
  <path class="cls-1" d="M264.6,697.13c-.69.74-6.32,3.55-8.05,4.85-5.65,4.23-10.03,10.08-15.81,14.17-.07-1.32-.17-2.4.6-3.59.99-1.53,7.54-6.2,9.41-8,3.62-3.48,7.17-7.06,10.31-10.98l1.36,1.91,2.83-.62c.14,1.03.09,1.48-.64,2.26Z"/>
  <path class="cls-1" d="M144.62,378.85c.12.94-1.68,1.16-2.3,1.22-4.49.51-9.42.26-13.81,1.35-.28-1.67.24-1.17,1.39-1.48,4.5-1.21,10.07-1.08,14.72-1.1Z"/>
  <path class="cls-1" d="M144.47,599.2l-1.14,4.09c-2.29,1.83-3.89-9.82-3.86-10.95l4.99,6.87Z"/>
  <path class="cls-1" d="M154.3,521.38c-8.17-.19-2.82-7.87-3.9-13.1l2.6-1.08v10.32c0,.24,2.41,0,1.29,3.87Z"/>
  <path class="cls-1" d="M273.61,136.02c-.33-3.62-2.1-7.05-2.5-10.4-.46-3.9.4-8.31-.13-12.13-.83-6-6.89-11.65-5.71-18.08.27-1.5,1.8-2.8,1.87-4.61.14-4.06-12.81-24.61-16.4-28.02-2.19-2.08-5.21-3.51-7.45-5.45-9.79-8.48-18.12-22.1-31.6-26.45-3.74-1.21-7.34-.5-10.95-1.62-.06,3.71,3.31,6.11,5.08,8.78.72,1.1.42,2.55.89,3.3.54.86,9.67,7.46,11.23,8.45,1.62,1.03,6.7,1.79,3.65,3.9-4.08,1.28-12.19-6.68-15.49-8.84-8.28-5.43-17.89-12.03-26.22-17.01-7.66-4.57-19.18,2.13-27.34,3.87l-16.73,13.59-1.52-.23c-.38-2.98,2.88-4.37,4.51-6.45l-.95-.32c-6.57,5.2-14.1,9.11-20.91,13.92-19.48,13.77-24.59,19.89-35.87,40.88-6.45,12-11.88,24.6-18.11,36.71-.73,1.41-2.69,2.94-3.19,4.55-1.11,3.59-1.01,9.1-2.22,12.93,9.29-4.89,20.21-13.87,30.8-15.31,8.93-1.21,25.12,1.66,32.36,7.3,8.23,6.41,9.68,19.7,18.08,27.07,6.77,5.94,17.08,5.67,23.26,12.22,6.47,6.85,6.75,13.09,3.53,21.61-.85,2.24-5.38,9.2-5.5,10.05-.41,2.78,2.75,3.92,3.21,6.44,2.29,12.47-9.97,34.31-13.24,46.68-.37.63-.96,1.45-1.81,1.31-3.1-.52-1.12-9.32-1.36-11.57-2.27,2.44-4.87,4.62-7.11,7.08-9.09,10.02-16.41,18.8-21.43,31.45-6.33,15.94-12.41,34.77-15.46,51.63-.84,4.68.17,7.1-.14,10.77-.12,1.31-1.19,2.86-1.16,3.23.19,2.63,20.03,15.47,23.06,18.68,1.02,1.07,1.75,2.03,1.96,3.56l7.69-1.28-2.58-.65v-1.93c12.09,1.01,24.18,2.02,36.35.54,1.19-.4,1.89-3.2,2.72-4.37,2.32-3.24,6.15-2.82,9.95-4.25,15.12-5.69,32.98-20.9,44.52-32.22,2.77-2.71,19.78-21.04,19.78-23.22-1.74-2.66-1.23-6.44-1.9-9.52-.13-.63-.22-1.94-1.11-1.77-1.11,4.78-2.23,10.06-3.7,14.71-.34,1.09.28,1.7-1.46,1.4.09-2.24-.15-4.51,0-6.76.47-6.7,4.13-17.54,2.24-23.56-.19-.61-.1-1.47-.94-1.27l-18.19,33.38-1.8.14c-1.1-1.08,6.47-14.39,7.63-16.56,9.12-17.18,19.06-33.96,28.17-51.15,3.25-12.48,1.78-25.56,4.19-38.06.65-.28,1.28,1.5,1.28,1.6v13.23l7.12-31.91-5.72-1.74c-1.61-4.07,3.99-6.79,6.04-10.84,2.02-3.98,2.15-8.63,3.84-12.29.59-1.27,1.22-2.08,1.79-2.42-.16-4.56.62-12.76.61-13.37-.16-6.03,1.09-13,.5-19.33ZM93.06,110.25c-.78.64-2.55.07-2.59-.67-.13-1.83,8.57-6.77,10.94-5.49l-8.35,6.16ZM98.86,90.26l-1.96-.69c.93-3.14,4.52-3.08,7.1-2.89l-5.14,3.59ZM148.66,142.62c-11.9,4.78-15.27-19.26-2.9-21.65,3.79-.73,11.49,4.17,11.74,7.97.36,5.27-3.95,11.7-8.84,13.67ZM214.65,302.13l-.79.52-6.03-.56.32-1.95,6.78.02-.28,1.97ZM223.68,273.75c-11.5,2.61-11.68-3.43.29-1.97l-.29,1.97ZM228.48,257.26c-1.14,1.92-5.81.56-5.81-1.28l1.08-1.55c1.54-.19,5.44.55,4.73,2.83ZM230.42,235.96c-.65-2.19,3.91-4.34,5.79-4.17,2.56,3.27-4.95,6.99-5.79,4.17ZM243.82,212.94c-.55.47-5.57,1.33-5.65-.17.07-2.55,6.95-8.28,7.73-4.5.05.25-1.89,4.51-2.08,4.68ZM245.61,177.65c-1.19,3.63-5.97,3.21-4.58-1.99.69-2.62,1.93-4.71,4.86-3.86-.1,1.9.33,4-.28,5.84ZM243.41,147.84l.28-3.2c2.33-1.1,4.37-.29,6.72.08.32,3.52-4.41,4.59-7,3.12ZM247.83,113.11l.73-3.78,3.79-.09c.54,3.14-1.76,4.03-4.52,3.87Z"/>
  <path class="cls-1" d="M157.52,612.97c-1.99-2.35-5.56-7.23-6.43-10.01-.11-.34-.18-1.06.31-.95l4.7,4,1.43,6.96Z"/>
  <path class="cls-1" d="M166.56,379.49l-.65,3.86c-2.83-2.66-6.09-1.88-9.67-1.94l10.32-1.92Z"/>
  <path class="cls-1" d="M155.58,584.58l-5.67-8.85.52-5.33c.94-.14.85,1.09,1.12,1.77,1.58,3.98,2.82,8.3,4.03,12.41Z"/>
  <path class="cls-1" d="M296.2,801.3l-25.16,4.51.02-38.4-1.99-38,.02-31.94c-1.64.81.53,4.5-1.92,5.16.94-5.25-1.48-15.56,3.86-18.06.06,2.79-3.21,7.68-1.34,10.05,2.64,3.36,10.09-4.39,11.02-3.6-1.43,4.85-3.33,10.18-3.79,15.23-.15,1.68-.74,10.59,1.53,10.55l7.74-7.08c1.86,2.67,1.17,5.87,1.76,8.55,2.29,10.39,6.21,25.11,6.32,35.61.02,1.46-.03,1.73-.82.18-1.87-3.64-4.05-7.07-5.66-10.81-1.01-.17-.7.91-.64,1.6.37,3.8,1.92,9.98,3.04,13.74,1.22,4.07,5.45,11.44,5.95,14.68,1.3,8.26-.88,19.44.05,28.02Z"/>
  <path class="cls-1" d="M267.17,820.98c-.59-6.74.25-14.42.03-21.32-.75-23.51-.89-46.77-.65-70.25.11-10.04-.05-20.02-.67-30.02-2.34-.15-2.33,2.62-3.5,3.91-.74.83-1.97,1.2-2.62,1.89-5.27,5.69-10.24,12.58-17.57,15.65l.15,5.63c4.23-4.13,8.24-8.57,12.91-12.24.86-.67,7.58-5.6,8.05-5.17-2.86,3.27-5.2,7.05-8.05,10.33-2.14,2.45-11.47,10.89-11.93,13.22-.51,2.64.17,6.15.94,8.7,5.62-5.73,11.28-11.55,18.38-15.48l-7.4,9.68c-1.92,2.12-9.59,8.72-10.32,10.33-1.62,3.56.95,10.21.32,14.17l11.59-11.3,7.11-5.47c-4.44,9.4-12.98,15.8-18.57,24.32l.67,25.58c.67,1.58,3.96,1.54,3.1,5.15l-7.13,2.02,6.82,4.86.16.81c-1.54,4.08-2.77,4.03-6.98,3.69,3.17,5.77-2.28,1.85-3.44,2.05-.7.13-1.75,1.4-3.37,1.77-4.9,1.12-10.57.24-15.43.69-5.26.48-10.46,2.16-15.81,1.93,1.16,1.64,5.27,1.67,7.42,1.92,4.42.53,9.11.97,13.55,1.29,4.04.3,14.46-2.02,9.97,4.18l-51.59,12.58c11.13-.57,22.85,4.02,33.85,3.22,8.91-.64,21.73-3.94,30.65-6.1,3.05-.74,19.44-4.69,20.34-6.13.86-2.07-.8-3.91-.99-6.12ZM252.02,770.99c-1.12,1.19-2.26,2.89-4.19,2.56-.28-1.21.69-1.52,1.29-2.26,2-2.43,4.73-4.67,7.09-6.77-.68,2.1-2.69,4.88-4.18,6.46Z"/>
  <path class="cls-1" d="M139.46,585.23c-1.79-.71-6.59-6.47-3.54-7.73l3.54,7.73Z"/>
  <g>
    <path class="cls-2" d="M411.65,797.42c5.55-1.21,11.43-1.08,17.01-2.02.76-.13,3-.19,2.99-1.2-6.16,1.22-15.55-1.29-20,3.21Z"/>
    <path class="cls-2" d="M451,827.1l-9.67,5.79c5.11-.15,7.15-1.46,9.67-5.79Z"/>
    <path class="cls-2" d="M530.32,761.96c-3.59-1.88-5.98-1.53-8.38,1.93l8.38-1.93Z"/>
    <path class="cls-2" d="M461.95,865.47c4.85,2.62,11.62,1.55,17.03.89.94-.12,3.91-.34,4.26-1.21-3.59.32-7.85-1.94-11.21-1.87-.93.02-10.08,1.67-10.08,2.19Z"/>
    <path class="cls-2" d="M476.15,781.95c-3.65.64-7.37,1.34-10.96,2.26-.73.19-2.09-.03-1.94.95,4.7-.1,9.7,1.15,12.9-3.21Z"/>
    <path class="cls-2" d="M485.18,857.4c-2.68-1.21-1.8.5-3.05,1.31-1.24.81-3.4.9-4.05,2.56l6.42.62.67-4.48Z"/>
    <path class="cls-2" d="M434.55,767.76c5.22-.29,10.86,0,16.12,0,.43,0,3.27,1.79,3.55,0-5.55-1.31-10.68-2.36-16.48-1.97-.7.05-8.75.8-6.74,2.6,1.28.56,2.83-.6,3.55-.64Z"/>
    <path class="cls-2" d="M466.48,834.19c-2.6.12-6.23-.82-7.74,1.92h7.74s0-1.92,0-1.92Z"/>
    <polygon class="cls-2" points="425.84 778.72 425.19 780.01 429.71 779.36 425.43 774.98 417.46 777.44 422.48 779.26 425.84 778.72"/>
    <path class="cls-2" d="M486.79,761.31h12.58c-5.12-4.72-11.08-1.39-16.77,0,.37,1.84,3.69,0,4.18,0Z"/>
    <path class="cls-2" d="M431.65,773.24c5.08,6.83,14.64,1.72,20-2.25-6.78-.41-13.48.46-20,2.25Z"/>
    <path class="cls-2" d="M175.05,386.36c-.22.64-.89,12.73-.67,13.36,1.53,1.68,4.8,1.54,7,2.33l-3.54-18.05c-.66.94-2.44,1.31-2.8,2.35Z"/>
    <path class="cls-2" d="M251.04,384l7.77-11.32-2.61-13.18c-1.08-.17-.7,1.56-.66,2.28.24,4.33,1.89,8.74,1.3,13.2l-1.28-4.51-1.28,3.22-1.3-9.02c-4.28,2.6-.3,8.79-1.29,12.89l-1.94-9.02c-.73-.2-.93.75-.98,1.27-.25,2.18.7,8.05,1.08,10.57.14.85.24,3.51,1.2,3.63Z"/>
    <path class="cls-2" d="M60.15,247.61c-3.93,4.11-8.14,7.99-12.26,11.91,15.06-4.13,26.7-17.72,36.77-29.01-12.26.59-17.06,9.34-24.5,17.1Z"/>
    <path class="cls-2" d="M239.43,401.41l10.21-15.97-2.47-13.06c-1.2,1.34-4.8,5.48-5.05,6.92-.53,2.99,2.17,10.16,1.82,13.72-1.15-.67-1.75-3.39-2.1-4.66-.57-2.03-.97-4.19-1.12-6.32-1.49-.37-1.06.31-1.47.82-.47.6-2.12,3.01-2.26,3.55-.31,1.18.86,11.41,1.18,13.35.13.76.39,1.52,1.25,1.63Z"/>
    <path class="cls-2" d="M161.52,183.62c-5.29-8.89-15.54-7.65-23.36-14.05-9.02-7.39-11.8-22.7-21.7-28.61-4.14-2.47-12.53-4.86-17.31-5.26-14.76-1.22-26.51,8.58-39.66,13.55,1.53,5.87,10.89,13.09,16.8,11.31,1.12-.34,2.31-1.71,3.6-2.21,4.77-1.87,17.27-5.08,21.53-1.7,4.04,3.2-8.29,8.17-10.8,8.55-3.84.61-13.07-1.21-14.71-.55-4.72,1.9-7.45,11.49-1.58,13.61.18,1-.93.73-1.57.61-4.7-.93-4.88-6.94-3.62-10.64.72-2.13,2.85-3.32,3.26-5.45-4.35-.64-7.96-3.25-11.55-5.54l-4.57-4.13c.03,2.19.11,4.3-.3,6.47-.37,1.98-6.66,16.27-7.77,17.39-1.42,1.44-5.34,2.81-5.99,4.97-1.22,4.09,2.81,5.7,1.68,9.4-.43,1.42-4.18,4.37-4.88,6.1-4.24,10.64-6.02,24.99-10.14,35.65-2.87,7.41-10.88,8.7-3.94,17.82,2.02,2.66,11.61,9,14.9,9.29,1.6.14,5.6-.58,6.93-1.31.83-.45.96-2.01,1.76-2.91,3.41-3.9,6.64-7.95,10.33-11.61l-8.88,3.38-2.73.16c-1.61-1.47,6.05-3.33,6.88-3.75,4.28-2.17,9.6-6.22,13.1-9.47-.94-.71-2.91-.32-2.57-2.26,6.36.72,7.27-2.95,10.95-6.13,15.67-13.55,28.65-22.31,47.51-31.18,2.32-1.1,17.17-7.73,18.29-6.54.65,4.33-2.76,3.2-5.16,4.18-20.32,8.36-39.06,19.77-55.68,33.97-.56.48-2.09,1.26-.13,1.17,12.05-2.43,21.66-10.16,32.57-15.17,6.5-2.98,14.15-5.68,21.14-7.22,4.41-.97,17-1.68,19.96-4.88,1.14-1.22,2.22-4.54,3.64-6.04,4.48-4.69,8.77-2.59,3.77-10.98Z"/>
    <path class="cls-2" d="M418.74,781.31l-5.97-1.83-10.8,5.04c4.83-.1,11.19-.52,15.83-1.91.94-.28,1.12.37.94-1.3Z"/>
    <path class="cls-2" d="M154.06,210.11c-.89-.71-3.55-2.62-4.45-2.97-2.47-.96-11.67.4-14.78.97-15.09,2.76-25.46,11.45-37.28,20.44,11.85-.34,20.21-7.69,31.57-10.03,9.22-1.89,18.66-1.1,27.11-6.1-.42-.62-1.66-1.89-2.17-2.31Z"/>
    <path class="cls-2" d="M238.02,402.93l-3.42-13.1c-6.33,5.97-1.5,13.82-1.6,21.27,2.29-2.03,3.18-5.62,5.02-8.17Z"/>
    <path class="cls-2" d="M82.54,160.35c-.81.29-2.91.85-3.05,1.77,6.43,1.43,14.46,1,19.34-3.86-5.08-.59-11.44.35-16.3,2.08Z"/>
    <path class="cls-2" d="M353.54,798.99c1.21-1.72,4.16-.65,3.92-2.85-6.21-.04-13.52.96-19.49,2.76-.8.24-2.96.78-3.09,1.75l17.69,1.34c.61-.12.25-1.98.95-2.99Z"/>
    <path class="cls-2" d="M212.81,444.49c-1.39-4.64-1.84-9.48-3.36-14.05l-1.65,1.08c.33,7.87,3.45,15.21,5.2,22.77,3.91-3.66.84-6.4-.19-9.81Z"/>
    <path class="cls-2" d="M252.87,321.87l-2.46-8.17c-5.28,11.78-14.6,22.51-24.59,30.57-11.12,8.98-28.3,18.7-41.41,24.37-2.38,1.02-11.08,3.08-12.09,4.84-.95,1.66-.15,4.23-2.39,5.67l4.04,5.48,2.89-6.73c-6.54-2.91-1.34-5.18,2.57-1.94,2.36,1.97,3.8,9.84,4.37,13.04,1.73,9.47,2.49,19.14,4.25,28.66,1.74,9.5,4.09,18.86,6.25,28.26,1.67.3.99-.24,1.34-.92,1.38-2.72,2.29-6.37,3.7-9.2,9.59-19.32,38.29-67.14,53.64-80.51,5.61-4.89,12.63-7.69,18.07-12.56-9.21-3.06-14.18-12.67-18.18-20.86ZM187.21,378.53c-.58.81-1.86-.22-1.95-.67-.45-2.26,8.49-10.03,11.61-8.69l-9.66,9.36ZM195.31,396.94c-2.74,1.3-4.34.6-1.88-1.88,1.04-1.05,8.29-6.77,9.25-5.9.73.68-6.15,7.21-7.37,7.78ZM196.23,409.79c.02-4.02,4.11-6.09,7.09-7.73.51.54-5.44,9.35-7.09,7.73ZM197.53,380.46c-1.83,1.76-5.27,5.09-7.75,4.83-1.67-1.68,6.3-8.17,7.79-9.3.83-.63,5.8-4.13,6.4-3.59.38.34-5.7,7.34-6.44,8.06Z"/>
    <path class="cls-2" d="M232.75,412.06c0-2.2-4.17-9.82-3.64-13.22-7.21,5.76-1.91,15.39-1.92,23.22,1.32-1.16,5.55-8.81,5.55-10Z"/>
    <path class="cls-2" d="M357.8,803.23c3.21.44,8.15,0,11.61,0,.44,0,3.6-.5,4.53-.63.97-.14,1.99-.1,2.24-1.3l-19.99.64c-.24.66,1.34,1.25,1.61,1.29Z"/>
    <path class="cls-2" d="M204.15,437.95c-.22,2.29,4.71,14.67,5.95,17.64.45,1.08,1.22,3.36,2.25,3.88,1.42-3.64-2.38-7.55-3.24-11.26l-3.85-13.24c.02,1.06-1.01,2.05-1.11,2.99Z"/>
    <path class="cls-2" d="M223.31,431.08l3.63-8.06c-2.01-4.77-3.56-9.91-3.63-15.16-1.39,1.33-4.36,5.68-4.42,7.39-.08,2.25,2.32,12.22,3.11,14.9.27.94-.37,1.13,1.3.94Z"/>
    <path class="cls-2" d="M216.21,447.21c-.26-3.97,5.77-11.34,5.77-14.51,0-2.38-5.63-10.57-4.47-14.51l-1.93,2.27,2.57,17.72-2.77-5.28-1.75-8.9c-1.14.41-1.92,3.19-1.97,4.19-.14,2.87,2.2,13.76,3.17,16.85.27.86.22,1.97,1.38,2.17Z"/>
    <path class="cls-2" d="M523.75,782.38c1.61.38,3.97.79,5.59.88.71.05,2.45.42,2.28-.66l-10.32-1.94c-.43,1.75,1.32,1.45,2.45,1.72Z"/>
    <path class="cls-2" d="M679.64,791.63c-.96.23-1.14-.46-.96,1.26l2.83.6,6.2-1.87c-2.93-.57-5.13-.7-8.06,0Z"/>
    <path class="cls-2" d="M694.15,823.87l-3.83,1-10.36,10.6c8.97-1.06,13.81-1.01,14.18-11.6Z"/>
    <path class="cls-2" d="M696.73,814.19h5.16c.5-.48-4.49-12.8-7.08-10.95l-.61,2.8c3.36,2.2,3.83,4.36,2.53,8.16Z"/>
    <path class="cls-2" d="M639.05,772.88c4.71.74,11.07-.33,16.07.05,8.95.66,18.85,3.79,26.61,8.25l4.04-1.81c-15.58-7.36-32.44-11.04-49.67-8.38.39,1.21,1.82,1.71,2.94,1.89Z"/>
    <polygon class="cls-2" points="697.41 821.97 695.44 832.89 707.02 831.58 705.1 820.64 697.41 821.97"/>
    <path class="cls-2" d="M644.48,781.32c-3.99-1.84-6.25-4.17-10.96-2.59,2.58,2.31,7.28,3.23,10.64,3.88l.32-1.28Z"/>
    <path class="cls-2" d="M714.15,812.25c.42-.54-6.95-10.26-7.73-10.64-1.27-.64-6.21.18-6.45,1.33l5.8,10.97,8.38-1.66Z"/>
    <path class="cls-2" d="M673.15,785.14c.67-.09,4.68-1.34,3.59-2.54-10.82-4.47-22.44-6.42-34.18-5.8l8.9,5.6c7.16,1.77,14.18,3.72,21.69,2.74Z"/>
    <path class="cls-2" d="M671.58,815.49c-5.02.77-11.2,2.15-10.96,8.38.6.57,8.63-5.29,9.61-6.19.71-.65,1.62-.94,1.35-2.19Z"/>
    <path class="cls-2" d="M662.87,803.87c-1.88,0-4.16-2.32-2.86,2.55.71.67,9.57-2.96,9.65,1.98l7.72-4.52h-14.51Z"/>
    <path class="cls-2" d="M677.38,827.74c-3.21-.58-5.98-2.56-7.73,1.27l4.7,1.88,3.04-3.15Z"/>
    <path class="cls-2" d="M638.04,783.25l-7.74-1.94v2.56c2.49-.4,6.16,2.19,7.74-.62Z"/>
    <path class="cls-2" d="M736.07,787.76l11.61,10.95c1.09-6.77-6.33-9.43-11.61-10.95Z"/>
    <path class="cls-2" d="M728.65,798.72c1.17.86,9.22,4.52,10.64,4.9,2.25.59,2.86-2.51,2.32-4.28-1.53-5.02-14.5-11.26-19.73-11.58-.84.81,5.34,9.92,6.76,10.96Z"/>
    <polygon class="cls-2" points="747.05 807.4 753.49 811.61 748.66 805.17 747.05 807.4"/>
    <polygon class="cls-2" points="713.83 778.68 705.76 780.02 720.6 780.02 713.83 778.68"/>
    <path class="cls-2" d="M756.72,820.63c.26-.94-.27-1.07-.64-1.61-1.15-1.7-10.79-9.42-12.26-9.01-.33.1-2.52,1.72-2.57,1.95,2.29,5.59,12.91,2.2,12.26,9.97l3.22-1.3Z"/>
    <path class="cls-2" d="M771.22,789.05c.31-1.13-1.79-2.1-2.56-2.6-6.38-4.25-18.23-9.54-25.81-10.31-3.32-.34-7.52,0-10.96,0-.11,0-1.89.64-1.61,1.28l40.94,11.63Z"/>
    <path class="cls-2" d="M723.38,831.01l1.08-3.27c-.4-.41-6.29,2.58-5.8,3.21,1.68.46,3.1,1.03,4.72.06Z"/>
    <path class="cls-2" d="M727.05,817.43c-8.28-3.61-10.22,2.02-2.29,5.15l2.29-5.15Z"/>
    <path class="cls-2" d="M715.12,828.39l.89-5.74-8.31-2.01c1.75,3.91,1.25,10.19,7.42,7.74Z"/>
    <path class="cls-2" d="M717.37,810.68c1.86,1.19,6.06-1.82,8.36-1.67-.2-4.02-3.23-8.99-7.7-9.01l.96,3.22-3.67-3.76c-.9.23-5.59.06-5.03,1.49.54,1.36,3.12,3.59,4.14,4.91.8,1.04,2.46,4.5,2.95,4.81Z"/>
    <path class="cls-2" d="M594.83,874.83l-3.25.3-5.78,2.91c2.84-.28,7.03-1.11,9.03-3.21Z"/>
    <path class="cls-2" d="M555.49,788.4c12.01.94,23.16,1.83,35.06-.73l4.28-1.2-38.39.64-.95,1.29Z"/>
    <path class="cls-2" d="M628.99,791.29c7.6,4.21,17.87,6.18,26.46,6.78.15-.94-1.12-.86-1.79-1.09-5.79-1.97-12.03-3.01-17.35-6.22-.34-.21-.59-1.25-1.22-1.64-1.82-1.12-6.51-1.34-7.36.9-.45,1.2.67.94,1.26,1.27Z"/>
    <path class="cls-2" d="M579.92,767.48c2.13,1.59,3.75,3.17,6.52,2.21-1.75-2.88-4.28-4.41-7.73-3.87-.39,1.68.49,1.13,1.21,1.66Z"/>
    <path class="cls-2" d="M602.28,768.38c1.82,0,3.36.59,5.1.69.7.04,2.45.41,2.28-.67-7.53-1-14.89-3.21-22.57-2.57,2.97,5.45,10.06,2.51,15.2,2.55Z"/>
    <path class="cls-2" d="M571.61,813.22c2,2.47,6.1,1.87,5.79-1.6-.68-.16-6.62-.15-5.79,1.6Z"/>
    <path class="cls-2" d="M578.05,838.05c1.4-1.87-7.82-3.88-9.02-3.86,3.37,4.18,2.92,6.91,9.02,3.86Z"/>
    <path class="cls-2" d="M615.46,764.54c-8.36-2.63-17.7-5.15-26.44-3.22l21.68,3.78,4.75-.56Z"/>
    <path class="cls-2" d="M560.32,864.56l5.48-1.34c-3.22-.39-6.74-1.07-10-.66-.89.12-2,.45-.96,1.29l5.49.7Z"/>
    <path class="cls-2" d="M564.51,765.18c-1.54.59-3.18-.54-4.19-.65-4.7-.47-10.05.35-14.83,0l-.91,1.02.58,2.84h15.8c.25,0,4.55-2.48,3.55-3.22Z"/>
    <path class="cls-2" d="M580.63,831.61c1.51-3.77-4.81-4.26-5.79-2.25-.61,1.23,1.28,1.03,1.95,1.24.67.2,3.69,1.18,3.85,1Z"/>
    <polygon class="cls-2" points="570.95 805.81 570.95 807.75 577.4 807.74 575.73 805.32 570.95 805.81"/>
    <path class="cls-2" d="M621.28,805.8l-.7-2.52-13.51,3.48c-1.08.8-.54,2.95-.63,4.2l14.84-5.17Z"/>
    <path class="cls-2" d="M610.63,774.85c-6.23-.62-13.35.46-19.67,0-.15,1.14,1.46.62,2.25.65,7.3.28,14.73.43,21.93,1.3.51-1.14-3.85-1.88-4.5-1.95Z"/>
    <path class="cls-2" d="M640.62,822.58c3.12-.95,6.33-3.06,9.03-4.85.32-.21,2.53-.58,1.28-1.59-.65-.53-9.24,5.26-10.32,6.44Z"/>
    <path class="cls-2" d="M598.05,804.52c-2.04-3.98-7.62-.54-11.19-.63-1.59,5.23,8.24.38,11.19.63Z"/>
    <path class="cls-2" d="M627.08,799.99l8.38-.64c-2.92-2.83-6.4-3.44-8.38.64Z"/>
    <path class="cls-2" d="M607.73,780.02l7.42,2.56c.39.67.6,2.58.23,3.15-.4.65-3.16.1-3.14,1.37l7.46,1.09c1.48-1.62,2.22-3.55,4.79-3.67l-1.96-3.85c-4.96,1.31-9.61-1.53-14.81-.66Z"/>
    <path class="cls-2" d="M607.73,799.68c2.46,4.17,7.42.13,11.12-.48l5-2.41-16.12,2.89Z"/>
    <polygon class="cls-2" points="607.72 794.86 595.47 796.46 599.58 797.36 607.72 794.86"/>
    <path class="cls-2" d="M608.36,790.33c-6.76.03-14.32,0-20.95,1.29-.94.18-2,0-2.27,1.28,6.51.07,13.15-.37,19.58-1.38.86-.14,3.51-.22,3.64-1.2Z"/>
    <path class="cls-2" d="M558.71,806.45l1.08,1.82,5.37.11c-1.22-2.39-4.24-1.95-6.45-1.93Z"/>
    <path class="cls-2" d="M554.54,760.64c4.48.13,12.32,2.43,16.09,1.98.89-.11,1.92-.42.97-1.3-12.82-3.7-27.01-9.11-39.98-2.9,6.21,6.37,14.7,1.99,22.91,2.23Z"/>
    <path class="cls-2" d="M492.13,880.81c-.64.09-2.57.18-2.43,1.1l5.79,1.29.66-2.57c-1.35-.11-2.67,0-4.01.18Z"/>
    <path class="cls-2" d="M492.59,897.4c-9.43-1.78-9.47-2.04-17.56-6.31-4.64-2.44-6.06-.68-10.49.5-.83.8,8.14,4.5,9.05,4.81,1.43.47,7.68,2.28,8.68,2.28h12.57c-.25-1.28-1.31-1.1-2.26-1.28Z"/>
    <path class="cls-2" d="M468.41,779.36l29.02-5.79c-8.43.23-17.25,1.42-25.28,4.06-.98.32-3.37.84-3.74,1.74Z"/>
    <path class="cls-2" d="M486.92,885.94c-3.83.51-9.29-1.39-12.38-.8-1.1.2-1.81.68-1.62,1.93l4.16.67,9.84-1.79Z"/>
    <path class="cls-2" d="M483.6,872.92c-5.89.19-12.14-.89-17.76.94,1.68,1.06,5.47,1.52,7.42,1.61,5.68.25,14.15.14,19.7-.93.94-.18,3.57-.56,3.83-1.64-4.64-2.32-8.65-.14-13.19.02Z"/>
    <path class="cls-2" d="M517.15,889.61c1.5-.35,4.62-.4,5.44-1.88l-12.9-1.29,7.46,3.17Z"/>
    <path class="cls-2" d="M527.1,874.18c5.18,8.43-6.65,3.98-10.96,4.52-.23.65,1.35,1.24,1.61,1.28,5.08.7,13.23,0,18.71,0,.22,0,.95-.86,1.61-.66-1.65-1.97-1.62-2.54,0-4.5l-10.96-.65Z"/>
    <path class="cls-2" d="M477.03,768.33c-1.7.58-1.5.86.1.74,6.17-.44,12.35-2.36,18.62-2.03l4.92-1.21h-13.87c-1.69,0-7.78,1.83-9.76,2.51Z"/>
    <path class="cls-2" d="M543.89,820.32c2.82,3.08,6.78,1.51,7.72-2.26-2.64.79-6.04-.13-7.72,2.26Z"/>
    <path class="cls-2" d="M523.22,759.69c.02-1.6-15.98-3.64-18.04-2.89l11.31,9.04c4.02,0,4.19-4.07,6.73-6.15Z"/>
    <path class="cls-2" d="M383.92,871.91c-2.35-.81-12.99-3.19-15.15-3.28-1.74-.07-2.96,1.75-4.53,2.3-4.86,1.72-11.93,2.13-17.09,3.24.24,1.17,1.27,1.21,2.24,1.31,8.15.88,16.97.68,25.2,1.29,3.98-1.77,10.95,1.65,11.8-3.6-.08-.77-1.79-1.04-2.48-1.27Z"/>
    <path class="cls-2" d="M394.87,879.01c5.29,1.84,10.97,2.02,16.45.96.94-.18,2.01,0,2.27-1.28-6.53-.55-12.32-2.43-18.72.32Z"/>
    <path class="cls-2" d="M431.35,874.81l-5.51,3.23,8.38-1.28c.19-1.79-1.42-2.17-2.87-1.95Z"/>
    <path class="cls-2" d="M455.51,883.86c1.79,3.72,5.04,2.56,8.39,1.92-1.45-3.17-5.53-1.6-8.39-1.92Z"/>
    <path class="cls-2" d="M385.06,846.62c4.23-.64,10.7-.23,14.22-1.26,2.76-.8,7.86-4.7,11.28-6.13,6.57-2.75,20.05-4.33,23.93-10.25.42-.65,4.47-8.48,4.62-8.96.79-2.61-1.56-5.49-4-6.29l-10.21,1.13c-13.21-3.64-23.78-1.25-36.8-.03-6.61.63-14.06.47-20.56,1.37-5.87.81-11.22,3.56-18.22,3.75-2.6.08-3.64-2.66-8.26-1.84-3.45.61-4.87,4.27-6.52,4.49l-9.96-1.31c.84,9.1,4.01,17.68,5.62,26.68.26,2.89-9.66,11-8.2,12.66,3.22-1.2,6.6-.25,9.83-.8,5.41-.91,14.28-4.95,20.59-6.5,10.01-2.48,22.49-5.21,32.64-6.71ZM341.22,851.92c-3.37,1.21-6.85,2.46-9.36,3.01,2.04-2.55,3.38-4.84,3.16-7.39l-.02-.21-.04-.2c-.68-3.8-1.62-7.5-2.53-11.08-.79-3.12-1.56-6.14-2.15-9.14l4.27.56.64-.08c2.38-.32,3.87-1.91,4.96-3.06.62-.66,1.31-1.39,1.76-1.48.3-.05.57-.08.8-.08.54,0,.81.13,1.66.58,1.06.57,2.66,1.42,4.85,1.42h.24c4.74-.14,8.77-1.27,12.32-2.28,2.25-.64,4.37-1.23,6.43-1.52,3.49-.48,7.46-.65,11.3-.81,3-.13,6.09-.25,9.04-.53,2.48-.23,4.85-.51,7.14-.77,5.02-.58,9.76-1.12,14.48-1.12s9.08.56,13.45,1.76l.89.24,9.63-1.06c.07.07.13.14.18.2-.94,1.88-3.38,6.6-3.9,7.49-1.76,2.56-8.92,4.54-13.66,5.84-2.97.82-5.78,1.59-8.07,2.56-1.93.81-4.04,2.1-6.09,3.37-1.51.93-3.81,2.33-4.68,2.58-1.47.43-4.35.54-6.89.64-2.29.09-4.64.18-6.68.48-8.91,1.32-20.97,3.81-33.08,6.8-3.1.77-6.64,2.04-10.07,3.27Z"/>
    <polygon class="cls-2" points="414.53 847.07 407.78 850.31 424.78 847.65 427.13 843.22 414.53 847.07"/>
    <path class="cls-2" d="M451.64,772.93l1.3,3.21c1.69-.57,3.22-1.92,3.21-3.87-2.05-1-2.67.04-4.51.66Z"/>
    <path class="cls-2" d="M441.29,880.98l-.64-2.91c-3.89-.18-7.81.04-11.61.93-.59.13-5.22.94-3.85,2.28,9.1,2.32,18.26,4.93,27.73,5.16l-.69-3.82-10.94-1.63Z"/>
    <path class="cls-2" d="M614.01,819.51l-7.57,4.35c7.12.77,13.17-3.69,19.58-5.88l8.79-5.06-20.81,6.6Z"/>
    <path class="cls-2" d="M110.76,440.75c5.09-14.72,6.42-34.59,11.89-48.74.77-1.99,3.16-4.47,4.04-6.6,1.74-1,4.82,1.87,6.01,3.09l.97-3.86h1.93l.64,2.57,1.94-3.54c-2.56-.61-12.57,2.29-13.89.34-.42-.62-.06-1.91-.42-2.46-.24-.37-1.74-.56-2.41-1.13-2.55-2.11-4.91-4.63-7.47-6.73-7.27-5.98-15.37-10.96-22.22-17.43-2.65,10.32-3.55,21.46-6,31.73-.44,1.85-1.07,3.17-2.14,4.71l24.27,64.18,2.88-16.13ZM101.41,380.79c.17,1.13-1.48.64-2.1.49-1.8-.42-4.24-1.48-4.34-3.72,3.17-.74,3.72,2.7,6.44,3.23ZM100.12,403.35c-2.6.23-4.17-1.89-5.79-3.55l1.26-1.32c1.13-.53,5.24,3.08,4.52,4.87ZM91.74,388.21c.21-1.09,1.58-1.03,2.56-.65,2.86,1.11,9.34,7.49,11.64,9.97-3.14.94-14.69-6.8-14.19-9.32Z"/>
    <path class="cls-2" d="M731.07,832.73c-3.94,1.02-11.93,3.1-15.36,4.64-.97.43-1.8.67-1.56,1.98,8.14.19,15.44-3.28,22.56-6.77-1.26-1.77-3.95-.28-5.64.15Z"/>
    <polygon class="cls-2" points="695.45 872.88 702.39 871.13 707.05 869.02 700.9 870.29 695.45 872.88"/>
    <path class="cls-2" d="M742.01,818.26c-2.02-.73-11.05-1.61-12.08-.21-.69.95-1.26,5.25-2.82,6.7l2.8,3.43c1.48-.57,4.35-.47,5.5-1.43,2.33-1.95,2.23-8.88,8.72-2.41l3.56-2.4c-2.29-.57-3.39-2.84-5.67-3.68Z"/>
    <path class="cls-2" d="M770.91,796.78c7.13,6.41,10.43,17.97.43,23.32-1.25.67-6.63,2.22-6.88,2.48-1.33,1.37,1.89,1.29,2.29,1.88.45.67.24,1.82.29,2.63,3.42-2.44,9.65-6.49,11.11-10.5,1.27-3.52,2.21-12.89-.38-15.72-.67-.73-6.27-4.64-6.87-4.1Z"/>
    <path class="cls-2" d="M699.95,847.1c-8.84-.13-17.78-.1-26.44,1.94.29,1.37,2.46.57,1.86,2.8-1.89,1.11-4.37,4.2-5.92,5.07-5.95,3.32-15.55,2.89-21.92,4.52-.94.24-2.14.74-2.4,1.78,9.67,0,18.45-1.41,27.32-5.25,1.87-.81,9.93-5.56,10.52-5.62,1.5-.15,2.13,1.85,2.21,3.07l5.1-1.54c-1.42-1.32-3.66-1.72-3.22-4.19,2.37-.94,4.82,2.57,6.49,2.28,1.62-.29,5.29-3.39,6.4-4.85Z"/>
    <path class="cls-2" d="M788.45,799.18c-11.49-18.46-31-29.92-50.9-29.92-1.13,0-2.28.03-3.4.11-2.03.13-4.1.66-6.09,1.16-1.46.37-3.1.79-3.91.79h-.19c-2.04,0-4.21-.16-6.51-.35-2.5-.19-5.08-.4-7.74-.4-1.17,0-2.24.04-3.29.12-2.17.16-4.85.79-7.43,1.4-1.95.46-4.33,1.02-5.67,1.13-1.24-.53-4.15-2.03-6.14-3.07-3.55-1.83-5.81-2.99-7.23-3.52-10.44-3.97-21-5.81-33.22-5.81-2.12,0-4.36.05-6.65.16-1.64.08-3.32.41-4.95.74-1.48.3-2.99.61-4.03.61-.14,0-.25,0-.34-.02-.98-.25-3.98-1.77-5.79-2.68-2.14-1.08-4.16-2.1-5.69-2.67-8.55-3.2-16.57-4.76-24.54-4.76-2.64,0-5.29.18-7.9.54-1.59.22-3.45.73-5.42,1.28-1.69.47-4.24,1.19-5.06,1.19-1.24-.12-4.99-1.61-7.48-2.59-2.84-1.13-5.52-2.2-7.68-2.74-5.01-1.28-10.37-1.97-15.5-1.97-4.38,0-8.4.5-11.96,1.48-1.21.33-2.59.95-4.06,1.61-.62.28-1.48.67-2.01.88-1.17-.17-3.68-.88-5.58-1.41-3.9-1.08-7.93-2.2-11.11-2.38-.73-.04-1.45-.07-2.16-.07-3.19,0-6.08.4-8.89.77-2.13.28-4.16.55-6.2.64-.73.04-1.48.05-2.26.05-1.46,0-2.96-.04-4.49-.09-1.65-.04-3.35-.09-5.06-.09-8.14,0-17.25,1.04-23.14,8.75l-2.78,3.64c-4.75-1.51-9.73-2.29-14.85-2.29-9.48,0-19.61,2.62-30.11,7.78-5.39,2.65-9.74,5.86-13.94,8.97-2.3,1.7-4.47,3.3-6.77,4.78-2.14.75-11.51,2.61-13.27,2.7h-.19c-1.8,0-4.32-.46-6.75-.92-2.76-.5-5.61-1.03-8.3-1.1-.45,0-.93-.02-1.42-.02-6.46,0-20.63,1.14-28.96,5.36,0-1.67-.03-3.32-.06-4.94-.04-1.91-.08-3.71-.05-5.52,0-.23.12-.74.22-1.19.2-.9.46-2.01.47-3.3.02-3-.23-6.24-.48-9.38-.28-3.67-.58-7.46-.41-10.57.49-.46.98-1.09,1.34-1.93.6-1.4,1.16-2.72-.4-39.44.33.04.67.07,1.01.07,1.37,0,3.96-.45,6.07-3.52,3.1-4.48,2.77-13.59,2.07-19.8l2.51.28,1.36-3.4c1.42-3.54,1.24-7.09.45-10.36,1.53-.09,3.02-.45,4.43-1.08l.32-.14.29-.18c.62-.39,1.18-.87,1.66-1.42l-2.35,8.81,11.13-8.32c2.37-1.76,4.33-3.78,5.55-5.15,1.81-2.03,3.73-4.59,5.76-7.3,2.65-3.53,5.65-7.53,7.87-9.46.21-.17.92-.52,1.39-.76,1.39-.69,2.97-1.48,4.17-2.94,1.69-2.06,2.01-4.44,2.22-6.01,0-.07.02-.14.03-.23,1-.78,1.65-1.79,1.92-3.04.18-.84.21-1.7.18-2.56,5.99-.14,11.87-.95,18.34-2.54,1.39-.35,2.56-.95,3.5-1.45.6-.32,1.28-.67,1.65-.73,3.27-.55,6.33-.83,9.3-1.1,5.34-.48,10.86-.97,17.62-3.05.13-.04,13.62-4.51,15.68-6.56.83-.83,1.58-1.92,1.9-3.3.47.02.94.03,1.43.03,4.25,0,14.76-.74,20.38-7.56,1.73-2.09,2.78-4.52,3.13-7.19,6.65-1.16,12.55-5.46,16.54-12.21,7-11.86,2.84-20.31-2.86-27.53.37-.23.67-.44.91-.61,19.83-14.06,33.03-25.31,40.34-34.43,1.18-1.47,2.18-2.97,3.15-4.42,1.21-1.82,2.37-3.55,3.7-4.96l1.95-2.08-3.69-11.43-5.59,5.95c-1.1,1.17-2.2,2.35-3.3,3.54-.08.08-.14.15-.22.23-.08-1.14-.37-2.25-.93-3.34-.78-1.52-2.85-3.02-4.81-3.86.63-.66,1.25-1.36,1.88-2.09,5.58-6.46,12.88-19.65,12.22-29.32,2.33-.34,4.45-.82,6.09-1.23l.46-.11c2.15-.49,5.4-1.23,6.94-3.91l4.38-7.66-8.8.44c-6.39.32-11.29.45-15.9.45-7.36,0-13.8-.37-20.28-1.16-16.05-1.98-31.97-6.35-45.42-10.37-8.45-2.53-22.89-12.82-34.49-21.11-4.95-3.53-9.61-6.86-13.34-9.26-3.19-2.05-6.4-4.13-9.63-6.21-23.75-15.35-48.31-31.22-73.66-42.97-11.92-5.52-29.85-13.31-47.59-18.98-1.86-.6-3.75-.94-5.58-1.25-1.62-.29-3.15-.56-4.27-.95-.51-.18-1.2-.62-1.92-1.14.27-.31.51-.64.73-1,4.19-6.95-4.56-12.77-9.27-15.9-1.03-.68-2.2-1.46-2.6-1.82-3.18-2.83-5.16-5.69-6.63-9.55-.5-1.32-1.04-4.2-1.47-6.53-.8-4.27-1.25-6.59-2.26-8.21-1.41-2.3-4.29-3.37-6.59-3.42-.12-.28-.25-.56-.4-.85-.53-.97-1.26-1.61-1.87-2.02-.47-3.13,1.95-8.87,3.61-12.8.97-2.3,1.89-4.48,2.49-6.47l1.43-4.78-4.83-1.26c-.39-.1-.78-.17-1.17-.21l10.57-19.56,1.23-7.98c2.81-.82,5.38-2.82,6.52-4.71,1.09-1.81,1.24-3.6,1.35-4.77.03-.32.06-.75.1-.87,1.61-4.54,3.61-8.22,5.6-10.32.27-.27,1.22-.91,1.85-1.32,1.75-1.18,3.58-2.39,4.77-4.16,3.03-4.48,4.99-13.71,6.68-23,.58-3.19,2.42-16.28,3.86-28.71,3.04-26.17,2-27.28.26-29.11l-.77-.83-1.07-.39c-.71-.27-1.47-.41-2.23-.41-2.94,0-5.37,1.94-7.09,4.43-.07-2.99-.2-5.79-.4-8.04-.22-2.32-.93-4.36-1.54-6.14-.45-1.33-.89-2.58-1.02-3.68-.19-1.65-.12-3.55-.03-5.55.1-2.57.21-5.25-.21-7.95-.37-2.32-1.4-4.51-2.3-6.45-.59-1.24-1.25-2.66-1.37-3.4-.26-1.69,0-3.81.27-5.86.24-1.94.49-3.93.37-5.88-.69-10.03-15.48-29.44-21.28-34.61-1.34-1.2-2.79-2.18-4.19-3.13-1.42-.95-2.75-1.86-3.68-2.8-1.44-1.43-2.69-3.41-4.02-5.52-1.43-2.27-2.9-4.6-4.84-6.68-13.93-14.89-26.4-22.87-37.01-23.72l-.17-.02c-.37-.05-.92-.13-1.53-.13-2.34,0-3.73,1.05-4.49,1.93-1.01,1.18-1.46,2.77-1.22,4.36l.4,2.65-.73,1.36c-4.16-3.26-8.76-5.25-15.18-5.25-1.78,0-3.65.14-5.72.44-27.07,3.92-59.2,25.25-81.37,42.43l-.32.25c-4.17,3.11-6.63,5.52-6.94,8.54-.09.87.02,1.72.3,2.5-10.3,14.4-18.93,29.95-24,43.35-.72,1.92-1.21,3.87-1.67,5.76-.45,1.86-.89,3.63-1.48,4.97-.16.38-.71,1.06-1.16,1.61-.81.99-1.72,2.13-2.29,3.58-1.49,3.81-2.14,9.45-2.83,15.42-.45,3.91-.93,7.95-1.59,10.62-.67,2.76-4.38,12.19-5.51,13.79-.57.74-1.48,1.34-2.54,2.02-2.74,1.78-7.82,5.09-5.84,13.61.26,1.07.7,1.94,1.18,2.65-3.08,2.32-5.66,4.49-6.88,6.99-3.16,6.42-4.65,14.09-6.09,21.5-1.02,5.24-1.99,10.19-3.43,14.14-.39,1.03-.94,1.63-1.97,2.7-1.98,2.04-4.97,5.15-4.36,12.09.39,4.5,3.73,9.07,6.68,11.41,2.02,1.59,13.37,7.95,16.03,8.83,1.44.47,2.87.71,4.25.71,2.28,0,4.02-.65,5.18-1.07.2-.08.45-.17.65-.23.04.02.09.04.14.05.98.4,2.63,1.05,5.05,1.05.57,0,1.17-.04,1.77-.11,10.59-1.27,17.85-8.67,24.26-15.19,3.36-3.42,6.54-6.65,9.97-8.92,4.44-2.94,11-4.98,17.36-6.97,2.9-.91,5.64-1.75,8.22-2.71,7.29-2.67,14.01-4.2,21.13-5.82,5.25-1.21,10.68-2.44,16.33-4.17-1.81,6.11-4.49,13.86-5.49,15.6-3.53,5.87-8.71,11.45-14.19,17.36-6.68,7.2-13.6,14.65-17.63,23.03-6.96,14.43-17.45,47.26-19.05,62.32-.16,1.56-.18,3.21-.16,4.88-.82-.18-1.66-.29-2.5-.29-1.97,0-3.73.6-5.09,1.72-2.91,2.38-4.19,8.06-6.86,25.05-.65,4.17-1.32,8.47-1.75,9.97-.13.44-.64,1.35-1.01,2.02-.79,1.39-1.61,2.82-1.78,4.47-.24,2.32.59,4.4,1.31,6.22.62,1.55,1.21,3.02,1,4.15-1.07,5.92-3.96,13.89-6.75,21.61-1.81,5.01-3.53,9.75-4.78,14-1.06,3.59-1.96,7.22-2.83,10.74-1.54,6.2-3,12.05-5.23,17.71l8.86,3.78,4.44-9.7c.61.48,1.31.87,2.1,1.14-.93,3.52-1.86,7.15-2.49,10.95-.94,5.65-1.55,9.39.96,12.55,1.8,2.28,4.51,3.16,8.02,3.61,1.68,15.85,8.65,31.13,14.7,42.95,5.19,10.08,9.98,18.07,14.67,24.43.65.88,1.67,2.04,2.96,3.52,1.23,1.41,3.63,4.12,4.61,5.55-.11.49-.25,1.1-.36,1.57-.56,2.4-1.05,4.49-.66,6.39l-.58.54c-1.15,1.1-1.74,2.69-1.61,4.36.16,2.1,1.86,5.08,3.69,7.62-.75,1.28-1.04,2.75-.87,4.43.04.34.12,1.04.85,3l-4.01-2.07-2.45,3.28c-1.27,1.71-3.02,4.05,6.01,19.88,4.71,8.29,12.27,18.59,19.75,26.87.95,1.07,4.31,4.53,7.69,7.72,6.7,6.33,9.1,7.48,11.41,7.48,1.22,0,2.37-.4,3.31-1.15l2.41-1.95-2.9-11.43c.97-.35,1.82-.94,2.47-1.74.05,0,2.76-.39,2.76-.39l6.01-12.99c11.18,8.68,23.82,18.37,37.3,23.3,2.24.81,4.48,1.57,7.02,2.02l.18,2.06c-.62-.32-1.17-.53-1.75-.66-.43-.09-.87-.13-1.3-.13-1.65,0-3.16.66-4.26,1.85-1.14,1.24-1.72,2.96-1.57,4.72l.23,2.75,2.48,1.2c1.93.94,3.7,2.34,5.58,3.84.1.07.18.14.27.21-.22.02-.44.04-.66.06-3.61.32-7.02.62-9.56,2.02-3.59,1.98-3.85,4.86-3.42,6.93l.58,2.89,2.84.8c2.45.67,4.93,1.09,7.51,1.23,0,.57.09,1.15.26,1.74.93,3.15,3.68,4.3,6.3,4.92-1.14,1.49-1.8,3.32-1.26,5.51,1.08,4.36,6.16,5.81,11.57,6.51l.22,2.78c-1.46,1.05-3.63,2.85-3.77,5.89-.07,1.5.38,3.74,2.89,5.88l1.35,1.16c-1.57,1.8-3.55,4.64-2.65,8.29.28,1.12.83,2.07,1.56,2.81-.41,1.01-.58,2.14-.33,3.42.34,1.7,1.28,3.08,2.59,3.92-.48.58-.96,1.24-1.38,2.02-1.9,3.57-1.23,6.08-.34,7.57,1.14,1.9,3.17,2.99,5.59,2.99.23,0,.46,0,.7-.03,0,.16,0,.32,0,.46-.9.93-2.37,2.77-2.11,5.72.16,1.99,1.21,3.37,1.83,4.2l.17.23c.14.94.36,2.88.5,4.51-4.41,3.21-2.94,7.92-2.33,9.89.24.77.47,1.5.52,2.16l.45,5.36,3.25-.64.97,10.42-7.79.57-.7,3.62c-.32,1.63-.18,2.98.15,4.08-.97.75-1.73,1.8-2.04,3.26l-1.51-.23-1.07,4.26c-.14.58-.22,1.13-.25,1.64-8.54.5-17.57,1.75-26.32,2.96-7.67,1.06-15.59,2.16-22.97,2.72-.35.02-.79.03-1.3.03-.79,0-1.71-.02-2.72-.04-1.28-.03-2.7-.05-4.15-.05-8.29,0-14.26.9-16.44,5.31-.94,1.9-1.11,3.83-.5,5.78,1.44,4.44,8.13,5.88,13.48,6.31,2.8.23,5.9.35,9.49.35,2.28,0,4.59-.05,6.87-.11-.21.05-.41.09-.6.13-1.74.36-4.01.55-6.21.74-3.1.27-6.02.52-8.38,1.21-1.62.45-2.83,1.51-3.99,2.54-.27.24-.67.59-.85.71l-2.21,1.26-.14,2.61c-.32,5.52,6.72,6.33,9.76,6.68,2.79.31,5.66.65,8.59.99,11.32,1.32,23.03,2.7,33.73,2.94.47,0,.95.02,1.43.02,8.5,0,16.71-1.68,24.64-3.29,4.64-.95,9.42-1.92,14.1-2.52,1.25-.15,2.94-.24,4.72-.33,7.24-.35,16.26-.79,20.68-6.61,2.01-2.61,2.36-5.47,2.25-7.95h15.36c.2,1.62.38,3.16.25,4.56-.42.65-1.07,1.68-1.31,3.15-.09.54-.1,1.06-.07,1.52-1.45,1.14-3.17,3.05-3.23,6.14l-.02,1.02.4.94c.16.4.36.74.57,1.05-1.54,1.35-3.34,2.41-5.67,3.79l-.78.46c-7.25,4.3-11.99,4.6-19.15,5.05-2.58.17-5.52.36-8.83.77-3.56.44-7.1,1.11-10.52,1.75-4.96.93-9.63,1.8-14.34,2.08-.43.03-1.05.03-1.79.03-1.27,0-2.88-.02-4.7-.05-2.38-.04-5.09-.08-7.83-.08-13.82,0-18.41.95-20.48,4.28-2.51,4.03.34,8.8,3.35,10.71l.78.49.91.16c3.55.67,7.31,2.03,11.28,3.48,4.43,1.61,9.01,3.28,13.56,4.01,3.39.56,6.85.63,10.18.68,2.87.06,5.61.11,8.17.45-16.12,5.46-16.94,6.84-17.91,8.47-1.52,2.55-1.66,5.3-.38,7.57,1.26,2.23,3.71,3.57,6.56,3.57.64,0,1.28-.07,2-.21,9.06-1.96,18.21-4.18,27.06-6.33,13.94-3.39,28.34-6.9,42.6-9.38,1.98.64,4.04.95,6.15.95,4.75,0,9.03-1.55,13.19-3.07,3.69-1.34,7.18-2.61,10.6-2.61.22,0,.43,0,.65,0,3.48.17,6.71,1.15,10.12,2.17,3.21.96,6.54,1.96,10.23,2.34.64.07,1.32.11,2.08.11.41,0,.82,0,1.23-.03.69,1.56,1.76,2.93,3.21,4.08l4.58,3.63,2.69-5.18c.76-1.47.88-2.96.87-4.14,2.27-.28,6.29-.54,11.19-.54,3.1,0,4.5.12,4.79.16,1.69.26,3.64.87,5.71,1.51,3.28,1.02,6.99,2.17,10.92,2.38.32.02.65.03.98.03,3.27,0,7.21-.82,10.69-1.55.19-.04.4-.08.6-.13,1.81,5.61,7.43,8.71,10.51,10.4,6.73,3.7,13.65,5.59,20.58,5.59,1.28,0,2.57-.07,3.85-.2,2.29-.23,5.08-1.25,8.79-2.67.78-.3,1.75-.67,2.48-.93.44.28.96.63,1.33.88,1.18.79,2.29,1.54,3.37,2.02,8.56,3.74,15.76,5.49,22.67,5.49,5.49,0,10.97-1.1,17.11-3.47l.29,2.24c.67.08,1.44.12,2.27.12.59,0,14.4-.09,18.73-7.41.67-1.15,1.07-2.37,1.18-3.64.57-.22,1.13-.44,1.68-.67,2.7-1.08,5.03-2.02,7.76-2.26,1.02-.09,2.01-.14,2.92-.14,4.26,0,6.85.94,10.42,2.23,2.41.87,5.14,1.85,8.72,2.65,4.89,1.09,10.94,1.64,18,1.64,17.15,0,42.04-3.56,56.13-11.37l.29-.16c.6-.32,1.42-.77,2.27-1.38,1.21,1.1,2.62,1.35,3.58,1.38l4.17.11.23-1.38c2.88.41,5.93.75,8.96.75,3.77,0,7.07-.51,10.09-1.54,1.07-.38,1.96-.96,2.65-1.46.24.06.48.13.68.18,1.17.32,2.48.67,3.78.74,1.49.07,3,.1,4.48.1,13.64,0,26.83-2.86,40.34-8.75,2.43-1.06,4.69-2.39,6.87-3.67,2.01-1.19,3.91-2.3,5.69-3.06,4.72-2.02,10.27-3.1,16.14-4.25,5.16-1,10.5-2.05,15.41-3.81l.78-.29.65-.52c2.28-1.87,3.24-4.62,2.52-7.17-.61-2.17-2.34-3.8-4.63-4.43,2.17-1.9,3.33-4.11,2.75-6.88,2.83-1.62,5.77-3.52,8.91-5.79l1.37.14c.34.04.67.06.99.06,5.18,0,8.86-4.29,10.26-5.91,5.9-6.87,12.97-21.45,6.79-31.36ZM278.95,172.28c.06-.77.07-1.48.02-2.12.27-.82.59-1.73.91-2.61.32-.91.58-1.67.8-2.31-.96,8.91-2.05,17.89-3.51,26.63l-.1.55c-2.58,15.48-4.1,19.94-4.69,21.19-.23.13-.55.28-.81.4-.69.34-1.53.73-2.4,1.28,1.09-4.99,2.51-10.15,3.91-15.22,2.56-9.33,5.22-18.99,5.87-27.79ZM777.99,827.4c-1.73,2.01-4.23,4.51-7.08,4.2l-.32-2.56c-5.78,4.5-11.88,8.73-18.59,11.72-2.1.94-5.18.61-6.25,3.1.77.61,8.04-4.73,9.62-.9.94,3.96-16.08,8.95-18.65,11.55-.27,1.47.64.9,1.6.96,1.57.12,3.62.13,5.19.03,3.09-.19,10.1-2.29,12.22-2,2,.28,2.19,2.05.68,3.29-9.9,3.56-22.2,4.06-31.81,8.17-4.11,1.75-8.25,4.85-12.6,6.75-13.7,5.98-27.68,8.95-42.68,8.25-1.69-.08-4.45-1.3-5.73-1.09-.78.14-2.03,1.48-3.18,1.88-6.77,2.33-14.49.97-21.41-.14l-.34,1.95c-1.15-.03-.8-1.76-1.61-2.57-.67-.67-2.02-.83-2.89-1.3.22,2.42-2.21,3.61-4.08,4.64-16.33,9.05-52.71,13.27-70.75,9.25-9.58-2.14-12.65-5.78-23.53-4.84-5.48.47-9.37,3.06-14.52,4.51,4.15,7.55-11,9.93-16.13,9.34l14.17-5.52-.61-2.23c-4.16-1.73-5.53.8-8.18,2.17-15.96,8.24-27.03,9.15-44.07,1.7-1.65-.72-4.84-3.41-6.17-3.55-1.34-.13-8.9,3.54-12.23,3.88-7.67.77-14.95-1.15-21.61-4.82-3.24-1.78-7.39-4.21-8.37-8.07,4.12,1.84,7.63,4.78,11.81,6.57,5.97,2.54,11.56,3.68,18.11,3.04l5.54-1.86c-10.73-1.19-20.56-3.1-30.11-8.26-1.3-.7-3.37-2.98-4.48-3.16-2.68-.44-12.11,2.7-17.35,2.41-5.72-.31-11.27-3.08-16.14-3.85-2.89-.46-18.78-.26-20.66,1.19-1.71,1.3-.36,4.19-1.22,5.86-1.68-1.33-2.38-2.98-2.29-5.13-2.22-.21-4.53.19-6.74-.04-7.04-.73-13.07-4.16-20.61-4.53-10.78-.52-19.93,8.78-30.39,4.56-23.89,4.06-47.37,10.85-71.1,15.97-2.67.54-4.59-1.12-3.03-3.73,1.59-2.68,36.53-13.13,41.93-14.82,1.16-.36,3.69-.8,4.18-1.94l-30.03,1.31c-6.42-1.21-13.51-.35-19.89-1.39-7.98-1.29-16.62-5.96-24.73-7.47-1.13-.71-2.61-2.82-1.82-4.09,1.91-3.07,26.07-1.63,30.99-1.92,8.47-.5,16.81-2.81,25.18-3.86,12.08-1.51,18.66.16,29.83-6.46,4.66-2.77,8-4.57,11.11-9.36.67-1.54-2.82-.94-3.24-1.95.05-2.51,3.11-3.11,3.57-4.13.28-.62-.48-1.9-.33-2.88.16-1,1.12-1.68,1.26-2.67.57-3.78-.6-7.52-.62-11.25-.5-.14-.78.64-.96.64h-24.18c.3,3.28,1.61,6.9-.64,9.84-4.01,5.27-16.03,4.31-22.18,5.08-13.24,1.68-26.04,6.05-39.46,5.75-13.25-.3-28.57-2.43-41.89-3.91-.92-.11-5.52-.76-5.48-1.61,1.05-.6,2.7-2.49,3.67-2.76,3.61-1.04,9.87-.97,14.26-1.87,8.8-1.77,22.14-4.72,30.43-7.62.96-.34,2.3-.39,2.57-1.61-5.25.58-10.73-.53-15.77-.67-10.87-.33-22.91.9-33.55,0-1.81-.14-8.71-1.17-9.29-2.99-.24-.77-.11-1.46.24-2.16,1.86-3.77,16.58-2.28,20.64-2.58,16.74-1.25,35.21-5.11,51.61-5.79,3.32-.14,4.98.18,8.06,1.27-1.71-2.54-6.74-2.73-5.81-6.44l8.39,1.28c-1.56-2.18-5.52-2.34-5.79-5.44.34-1.53,5.47-1.48,6.75-1.67.88-.13,2.02-.3.97-1.27-2.78-.41-6.52-.87-5.8-4.51l9.02-.66-1.94-20.63-3.19.63c-.35-4.17-3.59-6.85,1.94-8.79.2-.79-.54-7.71-.8-8.79-.32-1.3-1.74-2.25-1.83-3.4-.16-1.86,1.48-2.15,1.83-3.31.91-2.96-.58-6.83-.53-9.86-2.22,3.11-8.35,4.1-5.7-.88,1.7-3.2,6.06-3.85,4.42-9.44-.28-.32-4.65,2.88-5.16.3-.4-2.04,5.72-5.2,3.87-8.69-.79.28-4.52,4.76-5.15,2.24-.75-3.05,3.99-5.4,4.21-7.68.35-3.6-.67-5.86-4.46-4.27-3.67-3.13,2.18-4.37,2.73-6.22l-.64-8.16-.96-.97c-20.97-1.89-4.13-7.86-4.12-9.44-4.74-4.26-17.96-.41-7.73-9.99-5.13.68-9.78.75-14.83-.66-.22-1.1.26-1.33,1.1-1.79,3.91-2.18,16.22-.56,17.36-4.63.62-2.18-2.44-2.35-3.84-3.36-3.15-2.25-5.89-4.95-9.46-6.67-.07-.82.41-1.52,1.31-1.33,1.42.31,7.42,5.22,8.36,4.23l-1.33-14.78c-3.6-.03-6.45-.91-9.81-2.13-14.67-5.36-28.51-16.85-40.79-26.29l-7.44,16.1c-.68.1-1.3.13-1.92-.29-1.66-1.09-6.06-9.65-8.32-11.51-.91-.74-1.6-.41-2.63-.42l9.34,11.62c.82,2.26.67,3.1-1.79,2.43-11.15-12.86-23.4-24.33-36.9-34.69-.96.5.18,1.56.43,2.15,7.14,16.87,22.66,33.05,35.69,45.58l.95-1.29.66,2.57c-1.58,1.27-14.19-11.73-15.81-13.53-6.62-7.35-14.25-17.43-19.13-26.02-1.14-2-7.27-13.36-6.33-14.62l3.18,1.65,21.32,18.34-7.09-11.94-.65,1.63c-.7.04-1.31.05-1.96-.31-1.31-.73-8.05-14.95-8.26-16.96-.11-1,.08-1.5.84-2.16,1.25-1.08,2.53,1.08,2.29-.89-1.38-.96-6.87-8.34-5.8-9.36l8.38,1.29c-.7-4.05,3.19-9.26-1.92-10.96.26,1.87-1.34,2.19-1.89,3.1-.11.18-1.53,5.46-2.58,1.66-.4-1.45,1.21-5.95,1.21-7.76,0-1.89-6.94-8.95-8.63-11.24-5.31-7.22-10.15-15.8-14.26-23.79-7.11-13.85-13.81-29.47-14.49-45.17-10.43-.68-10.24-1.78-8.73-10.97.99-6.03,2.88-11.78,4.21-17.71-1.73-.78-2.61,2.03-4.71,1.51-3.43-.86-3.44-9.23-3.1-11.89.15-1.17,1.14-.8,1.31-1.38.43-1.46.28-4.31.67-5.99l-7.25,20.8-4.35,9.51c3.69-9.36,5.37-19.25,8.21-28.87,3.17-10.73,9.8-25.87,11.65-36.11.78-4.32-2.54-8.03-2.26-10.72.14-1.28,2.05-3.64,2.63-5.65,1.51-5.3,4.08-30.21,7.03-32.63,2.11-1.74,6.94.48,8.53,2.4.19.09.96-1.51.96-1.61,0-3.23-.33-7.22,0-10.32,1.57-14.85,11.98-47.01,18.6-60.74,6.85-14.22,23.3-26.2,31.61-39.99,1.75-2.9,8.98-24.55,7.84-26.01-2.38,1.23-4.87,2.38-7.45,3.18-13.04,4.05-24.79,5.32-38.15,10.22-8.29,3.04-19.45,5.46-26.58,10.18-10.79,7.14-18.28,21.68-32.14,23.33-3.57.42-4.58-1.09-6.28-1.09-2.38,0-4.27,2.35-8.68.9-1.94-.65-12.85-6.69-14.55-8.03-2.24-1.77-4.62-5.19-4.86-8.03-.68-7.74,4.09-7.43,6.04-12.72,3.69-10,4.28-24.92,9.33-35.17,1.44-2.94,8.2-6.94,8.46-7.71.73-2.2-1.9-3.15-2.38-5.18-1.8-7.74,4.25-7.34,7.51-11.58,1.63-2.12,5.64-12.65,6.36-15.56,1.71-6.84,2-19.75,4.22-25.45.61-1.53,2.55-3.11,3.37-5,1.42-3.23,1.9-7.41,3.24-10.95,6.06-16.02,16.48-33.18,26.75-46.78l-.32-.95-2.26,1.28c-1.26-1.42,4.14-5.24,5.22-6.06,20.9-16.21,52.7-37.66,79.12-41.49,12.08-1.75,16.73,2.4,24.35,10.79.35-2.66-1.71-5.12-.3-7.73,6.82,1.04,13.32.13,19.97,2.57-5.33-4.65-11.79-8.5-18.71-10.33-.16-1.1,1.53-.68,2.24-.63,12.22.97,25.79,13.55,33.9,22.22,3.39,3.63,5.49,8.83,8.98,12.31,2.3,2.3,5.66,3.96,8.07,6.11,6.03,5.37,19.14,23.48,19.68,31.34.23,3.42-1.21,8.01-.59,12.14.44,2.93,3.17,6.66,3.67,9.87.67,4.24-.28,9.03.22,13.32.4,3.35,2.23,6.32,2.55,9.72.63,6.78.54,19.63-.04,26.47-.08.92-1.92,5.73-2.82,8.54.14.54.17,1.28.11,2.23-1.23,16.52-10.01,36.59-11.51,53.7.4,2.04-3.09,3.54-3.2,4.03-.65,2.73-.27,8.14-.63,11.17,5.54-2.6,4.35-7.69,6.41-12.61.97-2.33,3.65-6.38,5.49-8.06,1.67-1.53,4.06-2.02,5.22-3.16,2.41-2.4,5.26-19.96,6-24.33,2.39-14.34,3.79-29.01,5.25-43.43-1.03,0-1.37,2.56-2.25,2.56-2.78.04,1.49-10.24,4.83-9.02,1.9,2.02-4.22,47.43-5.36,53.65-.96,5.33-3.09,16.95-5.93,21.17-1.16,1.7-4.71,3.37-6.11,4.84-2.99,3.14-5.23,7.98-6.66,12.03-.56,1.59-.13,3.28-1.03,4.77-.93,1.53-4.73,3.81-6.5,2.21l-1.76,11.41-15.64,28.96,1.92,10.58c.65-2.19,1.24-4.47,2.1-6.6,1.05-2.61,2.18-7.84,5.64-6.93-1.9,6.34-8.45,16.94-5.66,23.42.41.98,1.52.99,1.82,1.54.78,1.46.7,3.54,2.24,4.71l.89-.09c-.33-2.04,3.33-1.22,3.99-.14,1.13,1.83,1.97,10.37,3.33,13.93,1.77,4.65,4.25,8.15,7.93,11.43,2.68,2.39,13.36,7.65,10.95,11.64-1.49,2.47-6.07-.74-6.13,3.2,3.49,1.01,6.6,4.82,9.84,5.97,2.87,1.02,6.79,1.23,10,2.26,15.46,4.95,32.28,11.93,47.02,18.76,28.48,13.2,56.24,31.86,82.71,48.87,12.56,8.07,36.09,27.05,49.06,30.92,14.99,4.48,30.51,8.61,46.21,10.54,12.67,1.55,24.28,1.37,37.01.73-.57.99-3.25,1.47-4.38,1.75-3.57.89-7.42,1.61-11.1,1.48.17,1.6,1.1,2.4,1.3,4.17.94,7.92-5.93,20.56-11,26.44-3.44,4.01-7.47,7.59-12.56,9.37-.86,1.6,1.82,0,1.95,0h9.67c.46,0,2.93,1.33,3.24,1.93,2.76,5.4-9.02,16.18-9.36,21.94,7.98-6.27,14.68-13.9,21.61-21.28l.31.95c-2.76,2.93-4.6,6.54-7.11,9.67-9.15,11.41-27.2,24.89-39.37,33.51-1.58,1.12-3.88,2.44-5.76,2.96,7.48,8.58,13,15.4,6.35,26.66-3.68,6.24-9.79,10.66-17.33,10.1,2.68,13.85-16.69,16.16-26.44,13.55-.78.69,3.3,3.44,1.12,5.63-.68.68-11.83,4.78-13.68,5.35-9.94,3.05-16.95,2.42-26.3,4-2.03.34-3.68,1.8-5.5,2.25-7.29,1.78-13.95,2.61-21.47,2.39-1.27.89-.26,4.76-.61,6.37-.12.52-1.16.46-1.48,1.22-.76,1.77-.33,4.33-1.71,6.02-.98,1.2-3.61,1.92-4.97,3.1-4.36,3.79-9.87,12.49-14.08,17.2-1.43,1.6-3.12,3.22-4.84,4.5,1.71-6.39,6.7-10.87,10.31-16.11l-18.48,10.22c-.14,0-.28,0-.4-.02.45,2.62.14,5.55-1.54,6.61-3.55,1.58-6.51.06-9.88-.69,1.97,4.47,4.44,9.85,2.49,14.74l-5.07-.56c1.03,5.04,2.54,18.35-.36,22.53-3.06,4.44-6.07-2.64-8.02-4.47.1,2.68-.15,5.41-.03,8.09.2,4.8,1.68,38.27.89,40.13-.36.83-1.4.47-1.55,1.74-.78,6.39.76,15.08.71,21.98,0,1.52-.67,2.94-.69,4.46-.11,6.33.61,12.85-.62,19.04,2.99.2,4.95-2.73,7.28-3.99,6.87-3.72,20.7-5.24,28.54-5.05,4.79.12,11.02,2.1,15.45,2.02,2.07-.05,14.14-2.41,15.49-3.28,6.87-4.4,12.59-9.77,20.52-13.66,14.72-7.24,31.04-10.42,46.47-3.24,3.79-3.49,7.54-7.44,12.66-8.91.15-1.18-1.35-.53-1.97-.36-2.68.75-5.47,3.64-7.71,1.97,7.09-9.28,20.97-6.3,31.32-6.73,5.66-.24,10.77-1.7,16.77-1.35,5.04.3,14.49,3.9,17.4,3.84,1.14-.03,5.03-2.19,6.9-2.7,7.68-2.1,17.34-1.45,25,.51,4.24,1.08,12.47,5.13,15.87,5.47,2.51.25,8.48-2.06,11.62-2.5,10.35-1.41,20.37.33,30.08,3.96,3.15,1.18,10.12,5.3,12.47,5.61,2.93.4,7.14-1.15,10.24-1.29,13.47-.64,25.31.55,37.93,5.34,2.84,1.08,13.03,6.83,14.37,6.91,3.07.19,10.24-2.26,14.17-2.55,5.92-.43,11.89.67,17.4.64,2.72,0,7.02-1.75,10.3-1.96,20.43-1.34,39.46,10.8,49.9,27.55,4.64,7.43-1.2,19.67-6.35,25.67ZM154.09,639.56l-.68.93c-5.2-5.11-10.64-10.78-15.61-16.77,4.62,4.54,9.05,9.26,13.34,14.19l.96,1.12,1.42.39c.2.05.4.1.58.14Z"/>
    <path class="cls-2" d="M772.98,805.35c-2.15-5.72-19.14-17.2-25.94-16.3.96,1.81,3.23,2.78,3.73,4.97.61,2.68-.71,6.74-.05,8.38.92,2.28,5.62,6.04,6.62,8.9.96.9.71-.71.67-1.3-.16-2.33-1.16-4.59-.56-6.98l.5-.78,1.97-.29c2.5,5.82-.54,11.45,2.56,17.12,7.41-1.56,13.78-4.95,10.48-13.72Z"/>
    <path class="cls-2" d="M753.91,826.03c-1.21.08-10.19,2.07-8.16,4.29,3.45-1.23,8.22-.95,11.44-2.43.87-.4,1.02-.06.82-1.44-1.37.25-2.85-.5-4.1-.42Z"/>
    <path class="cls-2" d="M608.36,878.69l-12.51-.6-8.77,3.17c6.72-.67,13.63-.49,20.34-1.28.96-.12,1.96-.52.94-1.29Z"/>
    <path class="cls-2" d="M668.36,863.55c-.73.19-2.09-.04-1.94.95,6.26.99,11.45-1.43,17.2-3.14,1.06-.32,1.81.51,1.5-1.37-5.56,1.12-11.27,2.15-16.77,3.56Z"/>
    <path class="cls-2" d="M558.18,889.22c5.53,1.29,11.91,2.08,17.59,2.4.87.05,4.03.46,4.22-.67l-25.79-3.23c.34,1.03,2.95,1.24,3.98,1.49Z"/>
    <path class="cls-2" d="M619.68,882.58l-5.5,3.2c4.78-.86,10.19-2.28,14.52-4.5.44-.23,4.67-2.24,3.53-3.23-4.34.99-10.25.27-12.55,4.53Z"/>
    <path class="cls-2" d="M595.82,883.23c-8.61.3-18.02-.71-26.48-.03-.75.06-2.89.19-2.89,1.28l19.7.68,18.35-2.6c-2.96-.56-5.92.57-8.68.67Z"/>
    <path class="cls-2" d="M606.44,850.32c1.12,1.99,7.92,3.92,7.59.31-.27-2.92-5.91.08-7.59-.31Z"/>
    <path class="cls-2" d="M627.72,876.11l-4.8-3.9c-1.06-.68-.82-3.58-1.05-3.79-.33-.32-6.07-.84-7.04-.05,2.51,2.83,6.28,2.89,4.51,7.73h8.38Z"/>
    <path class="cls-2" d="M649.98,825.16c-6.11,4.17-12.4,7.23-15.81,14.18.48.4,9.75-4.45,10.74-5.38,1.17-1.08,3.73-5.12,4.61-6.68.32-.56,1.41-1.63.46-2.12Z"/>
    <path class="cls-2" d="M299.43,820c-.67,1.44.64,3.48.64,4.19v9.34h.65v-11.93c0-.3-.8-1-.66-1.61h-.63Z"/>
    <path class="cls-2" d="M704.27,847.05c-.59.36-1.12,1.83-2.05,2.62-1.21,1.01-6.52,4.22-6.73,4.57-.12.19,1.04,3.16-.04,4.45,7.21-2.91,15.72-5.2,20.63-11.6-2.87-.46-9.34-1.52-11.81-.05Z"/>
    <path class="cls-2" d="M128.5,594.91l6.45,8.38c-.07-3.73-2.77-7.46-6.45-8.38Z"/>
    <path class="cls-2" d="M139.46,585.23l-3.54-7.73c-3.05,1.26,1.75,7.02,3.54,7.73Z"/>
    <path class="cls-2" d="M128.5,536.86l-1.28,7.42.64,3.53c.68-3.97,2.59-7.14.65-10.95Z"/>
    <path class="cls-2" d="M143.33,603.29l1.14-4.09-4.99-6.87c-.03,1.14,1.56,12.79,3.86,10.95Z"/>
    <path class="cls-2" d="M165.91,383.35l.65-3.86-10.32,1.92c3.58.06,6.85-.72,9.67,1.94Z"/>
    <path class="cls-2" d="M151.55,572.17c-.27-.68-.18-1.92-1.12-1.77l-.52,5.33,5.67,8.85c-1.21-4.11-2.45-8.43-4.03-12.41Z"/>
    <path class="cls-2" d="M128.18,503.96l1.61-7.09h-3.86c-.23,3.25-1.43,5.41,2.25,7.09Z"/>
    <path class="cls-2" d="M128.51,381.42c4.39-1.09,9.31-.84,13.81-1.35.63-.07,2.42-.29,2.3-1.22-4.66.02-10.22-.11-14.72,1.1-1.15.31-1.67-.19-1.39,1.48Z"/>
    <path class="cls-2" d="M168.07,376.16c1.19-.4,1.89-3.2,2.72-4.37,2.32-3.24,6.15-2.82,9.95-4.25,15.12-5.69,32.98-20.9,44.52-32.22,2.77-2.71,19.78-21.04,19.78-23.22-1.74-2.66-1.23-6.44-1.9-9.52-.13-.63-.22-1.94-1.11-1.77-1.11,4.78-2.23,10.06-3.7,14.71-.34,1.09.28,1.7-1.46,1.4.09-2.24-.15-4.51,0-6.76.47-6.7,4.13-17.54,2.24-23.56-.19-.61-.1-1.47-.94-1.27l-18.19,33.38-1.8.14c-1.1-1.08,6.47-14.39,7.63-16.56,9.12-17.18,19.06-33.96,28.17-51.15,3.25-12.48,1.78-25.56,4.19-38.06.65-.28,1.28,1.5,1.28,1.6v13.23l7.12-31.91-5.72-1.74c-1.61-4.07,3.99-6.79,6.04-10.84,2.02-3.98,2.15-8.63,3.84-12.29.59-1.27,1.22-2.08,1.79-2.42-.16-4.56.62-12.76.61-13.37-.16-6.03,1.09-13,.5-19.33-.33-3.62-2.1-7.05-2.5-10.4-.46-3.9.4-8.31-.13-12.13-.83-6-6.89-11.65-5.71-18.08.27-1.5,1.8-2.8,1.87-4.61.14-4.06-12.81-24.61-16.4-28.02-2.19-2.08-5.21-3.51-7.45-5.45-9.79-8.48-18.12-22.1-31.6-26.45-3.74-1.21-7.34-.5-10.95-1.62-.06,3.71,3.31,6.11,5.08,8.78.72,1.1.42,2.55.89,3.3.54.86,9.67,7.46,11.23,8.45,1.62,1.03,6.7,1.79,3.65,3.9-4.08,1.28-12.19-6.68-15.49-8.84-8.28-5.43-17.89-12.03-26.22-17.01-7.66-4.57-19.18,2.13-27.34,3.87l-16.73,13.59-1.52-.23c-.38-2.98,2.88-4.37,4.51-6.45l-.95-.32c-6.57,5.2-14.1,9.11-20.91,13.92-19.48,13.77-24.59,19.89-35.87,40.88-6.45,12-11.88,24.6-18.11,36.71-.73,1.41-2.69,2.94-3.19,4.55-1.11,3.59-1.01,9.1-2.22,12.93,9.29-4.89,20.21-13.87,30.8-15.31,8.93-1.21,25.12,1.66,32.36,7.3,8.23,6.41,9.68,19.7,18.08,27.07,6.77,5.94,17.08,5.67,23.26,12.22,6.47,6.85,6.75,13.09,3.53,21.61-.85,2.24-5.38,9.2-5.5,10.05-.41,2.78,2.75,3.92,3.21,6.44,2.29,12.47-9.97,34.31-13.24,46.68-.37.63-.96,1.45-1.81,1.31-3.1-.52-1.12-9.32-1.36-11.57-2.27,2.44-4.87,4.62-7.11,7.08-9.09,10.02-16.41,18.8-21.43,31.45-6.33,15.94-12.41,34.77-15.46,51.63-.84,4.68.17,7.1-.14,10.77-.12,1.31-1.19,2.86-1.16,3.23.19,2.63,20.03,15.47,23.06,18.68,1.02,1.07,1.75,2.03,1.96,3.56l7.69-1.28-2.58-.65v-1.93c12.09,1.01,24.18,2.02,36.35.54ZM248.56,109.33l3.79-.09c.54,3.14-1.76,4.03-4.52,3.87l.73-3.78ZM243.69,144.64c2.33-1.1,4.37-.29,6.72.08.32,3.52-4.41,4.59-7,3.12l.28-3.2ZM241.03,175.66c.69-2.62,1.93-4.71,4.86-3.86-.1,1.9.33,4-.28,5.84-1.19,3.63-5.97,3.21-4.58-1.99ZM245.9,208.26c.05.25-1.89,4.51-2.08,4.68-.55.47-5.57,1.33-5.65-.17.07-2.55,6.95-8.28,7.73-4.5ZM236.2,231.8c2.56,3.27-4.95,6.99-5.79,4.17-.65-2.19,3.91-4.34,5.79-4.17ZM223.74,254.43c1.54-.19,5.44.55,4.73,2.83-1.14,1.92-5.81.56-5.81-1.28l1.08-1.55ZM223.97,271.78l-.29,1.97c-11.5,2.61-11.68-3.43.29-1.97ZM208.15,300.14l6.78.02-.28,1.97-.79.52-6.03-.56.32-1.95ZM93.06,110.25c-.78.64-2.55.07-2.59-.67-.13-1.83,8.57-6.77,10.94-5.49l-8.35,6.16ZM98.86,90.26l-1.96-.69c.93-3.14,4.52-3.08,7.1-2.89l-5.14,3.59ZM148.66,142.62c-11.9,4.78-15.27-19.26-2.9-21.65,3.79-.73,11.49,4.17,11.74,7.97.36,5.27-3.95,11.7-8.84,13.67Z"/>
    <path class="cls-2" d="M154.3,521.38c1.12-3.88-1.29-3.63-1.29-3.87v-10.32l-2.6,1.08c1.08,5.24-4.27,12.91,3.9,13.1Z"/>
    <path class="cls-2" d="M129.15,408.52c-2.69,1.17-6.96,1.35-6.44,5.15,1.93-2.19,6.85-1.55,6.44-5.15Z"/>
    <path class="cls-2" d="M121.35,426.62l-1.93.34c-.76,1.48-.4,2.63.05,4.13,2.74-.21,2.91-2.44,1.88-4.46Z"/>
    <path class="cls-2" d="M128.19,487.85c-.58,2.18-2.01,5.33,0,7.07,4.97-4.87,3.23-12.55,5.48-18.69-2.61,2.46-4.53,8.04-5.47,11.62Z"/>
    <path class="cls-2" d="M117.38,468.95c.4.64-.07,1.15,1.45.83l5.03-26.78c-.17-3.56-2.74-6.02-4.71-8.7-4.99,5.06,1.74,8.19,2.26,13.55l-4.52-6.45c-4.57,4.43,2.3,10.59,3.23,15.48-2.56-1.55-4.11-4.37-5.16-7.1-4.65,4.67,2.59,11.18,3.87,16.13l-6.44-7.41c1,3.43,3.09,7.46,5,10.45Z"/>
    <path class="cls-2" d="M127.27,506.84c.19-1.37-1.43-.83-2.33-1.55-2.17-1.73-2.33-3.42-2.17-6.06.21-3.55,1.81-11.09,2.84-14.59,3.3-11.13,13.28-20.4,13.2-32.91-2,1.52-4.91,1.87-5.78-.93,2.75-2.84,10.28-7.89,9.47-12.35-.11-.62-1.36-.68-1.56-1.09-1.21-2.47-2.77-4.78-3.75-6.9-.97-2.1-1.44-7.8-1.88-8.44-.56-.81-2.46-.32-3.28-1.24-1.11-1.26-.77-5.55-2.88-6.46l1.93,7.74-1.93-1.28-10.34,51.58c-1.19.28-1.24-.41-1.82-1.07-2.36-2.72-3.2-7.11-5.59-9.88l-1.68,4.44-1.85.08-19.99-53.27-4.09,1.17c-2.66,12.25-9.33,23.73-8.18,36.62,3-.26,5.32-5.89,7.59-1.47,2.46,4.81-.78,11.32-1.6,16.17-.67,3.97-.83,7.95-1.38,11.94,1.22,3.54,5.53-.41,7.33,1.74.85,1,3.28,12.56,4.16,15.19,4.17,12.5,10.42,24.56,16.92,35.96l14.06,21.73c-.18-1.99.87-3.68,1.21-5.55,1.04-5.55,2.6-15.9,2.63-21.31,0-2.16-2.16-2.96-.97-6.71.27-.87,1.37-1.61,1.52-2.37.23-1.11-.64-2.39-.55-3.69.11-1.66,1.01-3.4.73-5.22Z"/>
    <path class="cls-2" d="M138.18,422.05c.49,3.44.56,8.28,3.86,10.32,1.39-3.62-.46-8.33-3.86-10.32Z"/>
    <path class="cls-2" d="M140.75,507.83l.65-12.25c-.94-.15-.91,1.14-1.09,1.8-.66,2.35-1.92,7.58-1.01,9.64.4.92.15.98,1.46.8Z"/>
    <path class="cls-2" d="M321.25,864.7c.11-1.17-2.11-2.25-2.36-3.88-.74-4.81,5.36-8.54,7.54-12.22-3.07-4.38-6.32-7.56-7.02-13.45-.72-6.15,1.68-5.82,1.99-8.34.36-2.86-.34-6.44-.05-9.4l-2.6-.41c.21-5.34-.18-10.72,0-16.05.82-23.58-.26-45.39-1.92-68.98l-1.27-9.35c-.26,1.95-1.97,5.16-4.18,3.21-1.34-1.19-5.33-9.08-6.26-11.17l-5.03-14.62c-.09,1.6-1.51,4.68-1.33,6.04.06.43,1.2.35,1.31.84.57,2.4.35,7.42.66,10.2,1.49,13.11,3.39,26.17,4.54,39.32l-.67,4.21-5.17-52.56h-1.29l5.25,59.25.89,1.04c.64-1.94,5.27-.66,5.49.35l-3.24,4.82-.95-1.28-.97,1.61,6.46,38.69-1.93.33-2.59-9.67c-.94,13.32,3.96,25.09,7.07,37.67l-1.58,1.02-4.19-9.03c-.4,6.45-6.5,23.41-12.72,25.66-4.65,1.68-.18-4.24,1.1-5.35-2.74-.28-5.7,3.3-8.17,4.73-10.92,6.32-36.94,8.56-50.21,9.78-7.17.66-15.51-.05-22.51.71-.62.07-2.42.28-2.3,1.22,4.78.42,9.19,2.52,13.94,3.15,10.56,1.4,20.43-.95,30.85-1.24,5.99-.16,11.72.64,17.4.7,3.12.04,20.91-.67,21.84-.1,1.5.94.68,3.03-.51,3.95l-10.33,4.5,29.38-4.82c1.65-.07,1.28-1.68,1.86-2.45.46-.63,1.47-.76,1.68-1.11.48-.81-.38-1.84-.22-2.77.25-1.48,2.25-3.56,2.35-4.78Z"/>
    <path class="cls-2" d="M135.16,554.04l1.4,2.83c.21-.96,2.17-2.61,2.27-2.91.7-2.4-.52-7.83,0-10.64l-3.66,10.73Z"/>
    <path class="cls-2" d="M151.4,602c-.49-.11-.41.62-.31.95.87,2.78,4.44,7.66,6.43,10.01l-1.43-6.96-4.7-4Z"/>
    <path class="cls-2" d="M267.17,820.97c-.59-6.74.25-14.42.03-21.32-.75-23.5-.89-46.77-.65-70.25.11-10.04-.05-20.01-.67-30.01-2.34-.16-2.34,2.62-3.5,3.91-.74.83-1.97,1.2-2.62,1.89-5.28,5.69-10.24,12.58-17.57,15.65l.15,5.63c4.23-4.13,8.25-8.57,12.91-12.23.86-.68,7.58-5.61,8.05-5.17-2.86,3.27-5.19,7.05-8.05,10.32-2.14,2.45-11.47,10.89-11.92,13.22-.52,2.65.17,6.15.94,8.7,5.62-5.73,11.28-11.55,18.38-15.48l-7.4,9.69c-1.92,2.12-9.59,8.71-10.31,10.32-1.62,3.56.95,10.21.31,14.18l11.59-11.3,7.11-5.47c-4.44,9.4-12.98,15.8-18.57,24.32l.67,25.58c.68,1.58,3.97,1.54,3.1,5.14l-7.13,2.03,6.82,4.86.16.81c-1.54,4.08-2.76,4.03-6.98,3.69,3.18,5.77-2.27,1.85-3.44,2.06-.7.12-1.74,1.39-3.37,1.77-4.9,1.12-10.57.24-15.43.69-5.27.49-10.46,2.16-15.81,1.93,1.15,1.64,5.27,1.67,7.42,1.92,4.42.53,9.11.98,13.55,1.29,4.04.3,14.46-2.02,9.97,4.19l-51.59,12.58c11.13-.57,22.85,4.02,33.86,3.22,8.91-.63,21.73-3.94,30.65-6.1,3.05-.74,19.44-4.69,20.33-6.13.86-2.08-.8-3.92-.99-6.13ZM252.03,770.98c-1.13,1.2-2.26,2.9-4.2,2.58-.28-1.22.69-1.53,1.29-2.26,2-2.43,4.73-4.67,7.09-6.77-.68,2.1-2.7,4.88-4.18,6.45Z"/>
    <path class="cls-2" d="M325.22,709.72l-1.27-12.9c-2.73,4.2-.24,8.33-.66,12.9h1.93Z"/>
    <path class="cls-2" d="M264.6,697.13c.72-.78.77-1.22.64-2.26l-2.83.62-1.36-1.91c-3.13,3.92-6.69,7.5-10.31,10.98-1.87,1.8-8.42,6.47-9.41,8-.77,1.19-.67,2.27-.6,3.59,5.79-4.1,10.16-9.94,15.81-14.17,1.74-1.3,7.36-4.11,8.05-4.85Z"/>
    <path class="cls-2" d="M302.14,695.65c.89,7.77,5.35,17.59,9.22,24.38l7.1-38.04c.23-1.11,4.97.4,5.15.59.67.72,2.76,8.16,3.86,10.38,1.26,2.54,3.31,5.97,5.5,7.72,1.4-9.95-1.58-19.13-3.85-28.66l1.28-.72c2.5.6,3.75,6.6,7.08,6.8,1.03-1.17-2.88-8.36-3.09-10.15-.18-1.53,2.51-5.64,4.05-5.34.4.07,3.69,4.86,6.78,3.24l1.98-8.65,24.49-15.51c2.33-2.63.84-9.04,1.65-12.62-2.83-.78-5.64-1.03-8.47-1.88-20.14-6.09-44.37-23.62-57.68-39.72-3.71-4.47-6.68-9.57-10.66-13.84.13,3.81,1.91,7.48,2.25,11.29.43,4.99.6,10.35-3.91,13.49-4.03,2.82-7.48,2.47-11.52,0-10.54-6.44-26.89-30.61-32.2-41.97-4.44-9.51-7.92-20.2-9.77-30.54-1.13-.15-.61,1.47-.64,2.25-.2,5.13.15,10.99.65,16.12.51,5.35,1,10.86,3.22,15.8-2.49,2.4-4.92-10.41-5.07-11.37-6.3-38.74-.02-101.64,16.36-137.61.96-2.13,3.41-4.96,4.18-6.79.15-.38.12-1.09-.32-.94-1.98.99-13.45,9.48-14.51,8.37.07-.94-.18-2.01,0-2.9.33-1.68,8.87-6.58,10.95-7.74,13.01-7.34,27.9-12.9,42.58-15.78l-16.56,8.91c-29.88,17.84-38.68,68.71-40.23,101.02-1.59,33.37,15.05,70.43,38.39,93.88,8.82,8.86,15.39,9.35,13.16-5.43-1.59-10.59-7.75-21-8.77-31.22-.08-.7-.76-2.19.44-2.05,7.7,10.78,15.31,21.78,23.89,31.91,8.35,9.84,16.06,17.51,26.87,24.72,9.37,6.27,30.3,17.54,41.16,17.54h21.93c.11,0,1.88-.64,1.61-1.28-10.75-2.49-20.89-8.67-30.01-14.83-4.04-2.73-23.52-16.86-24.07-20.46-.17-1.16-.05-1.43.87-2.12,15.47,10.82,33.54,26.85,52.05,31.79,10.94,2.92,28.44.79,38.7-4.25,1.69-.83,5.43-2.5,5.05-4.63-5.13-3.41-25-11.24-27.14-16.11-.39-.89-1-.56.35-1.63,12.7,4.85,33.85,16.91,47.44,14.53,4.6-.8,9.83-3.67,10.85-8.51.29-1.32-.07-.68-.85-.89-14.93-4.2-30.78-6.74-41.33-19.96-.81-1.01-3.01-3.54-1.26-4.53,1.54-.33,5.89,4.33,7.46,5.42,9.86,6.89,28.79,15.34,40.89,13.92,9.08-1.06,14.66-14.26,9.71-21.95-16.63-11.27-31.24-24.93-45.5-38.99,1.03-.66,2.91.77,3.89,1.28,6.53,3.4,13.06,8.18,19.99,10.96,9.59,3.86,13.83,4.19,7.84-6.55-6.7-12.03-19.29-20.36-29.14-29.55-3.03-2.82-5.66-6.37-9.02-8.73-.14-1.21,1.29-.52,1.94-.33,4.52,1.37,8.25,5.5,10.93,6.38,1.75.57,11.24.68,13.1.27,6.71-1.5,4.63-10.13,2.51-14.49-5.84-12.04-21.87-15.11-30.76-24.07,1.36-3.52,6.14.58,8.72.32l-25.8-21.6c2.83.86,5.79,2.7,8.34,4.23,10.53,6.35,21.15,15.68,30.38,23.8,3.08,2.7,10.15,10.27,12.13,13.66,7.45,12.77,6.68,26.64-11.5,24.4,5.07,4.43,10.75,8.76,15.17,13.87,5.45,6.31,18.12,23.18,2.25,24.84,1.89.94,5.15,4.39,6.92,4.74,3.04.61,9.9-5.84,13.02-7.1l-.6-3.12,7.1-1.95-3.24-.94c-1-.88-.77-1.11,0-1.99.98-1.14,7.26-2.76,9.51-4.04,4.28-2.45,14.83-12.12,17.23-16.3.62-1.06,1.26-2.78.94-4-1.38-5.11-15.73,2.44-16.68,1.48l1.28-4.79-1.95-1.93c.18-2.02,6.85-7.3,8.74-9.39,5.07-5.6,14.4-17.45,15.03-25,.07-.76-.95-3.78-1.23-3.98-.41-.3-3.02.6-4.11.63-54.72,1.15-84.76-26.46-128.1-53.19-34.01-20.97-76.03-39.85-113.65-53.4-1.52-.55-13.52-3.9-14.21-3.67-6.4,7.21-12.73,14.48-18.39,22.29-12.13,16.76-25.9,40.46-33.76,59.76-2.44,6.01-4.46,12.13-5.7,18.49-1.81.08-2.76-1.91-3.57-3.2-3.1-4.96-4.45-11.37-6.42-16.79-3.81,8.44-3.86,18.59-11.28,25.15,2.33-6.17-1.37-11.27-2.92-17.4-1.94-7.71-3.7-16.39-4.74-24.28-.36-2.71-1.07-18.01-2.01-18.66-2.91,1.06-4.4-.67-7.11-.94l-2.59,16.13-1.6-2.57c-1.37,1.52-2.86,1.88-3.89,3.85-.41.78-3.33,8.75-3.34,9.24-.07,1.89.67,12.63,1.08,14.19.15.63,1.4.56,1.81,1.53.61,1.42.62,4.37.79,6.02l3.21-1.29c1.02,2.4-2.22,4.46-2.42,5.55-.47,2.49,1.87,8.8,1.81,11.58-.03,1.26-.98,1.89-1.01,2.9-.11,4.49,3.69,10.87,5.03,14.93,2.37,7.13,4.11,14.48,6.88,21.47-.49,1.18-1.08,3.45-2.84,2.92l-3.91-6.47c-1.26,2.41,1.01,4.84,1.45,6.94.77,3.86.6,7.81,2,11.55,2.02,5.45,7.19,9.43,10.45,14.07l-2.18,1.56-7.51-7.04c-.38,2.69,1.25,5.55,1.27,8.07.04,3.92-.14,12.39-.59,16.15-.06.47-2.91,4.11-3.02,5.13-.13,1.28,1.85,4.21,1.75,6.47-.05,1.12-1.13.95-1.31,1.44-1.06,2.99-.64,6.06-.68,9.18l6.13-15.48,1.57.95-12.58,45.47c2.36,1.55,3.74,3.89,5.86,5.79,4.33,3.92,11.3,8.8,16.23,12.16,2.42,1.65,19.22,12.35,20.4,12.24,1.31-.14,2-1.36,4.55-1.13,1.1.11,9.81,3.25,10.43,3.81.91.79,1.3,2.86,2.22,3.9-4.17,1.15-6.46-.32-10.32-1.27l2.01,16.05c3.4.27,14.28,4.85,16.72,3.63,1.18-.59,1.35-3.62,4.7-2.96.64.13,1.11,2.61,2.83,3.13,2.93.88,6.6-1.33,9.74.26l.78,7.61c1.13-.21,1.08-1.87,2.2-2.62,3.31-2.22,3.48,1.62,4.62,1.89.55.13,2.05-.6,3.15-.59,3.83.06,2.61,2.22,2.97,2.54.67.62,2.85-.84,2.55,1.05-.26,1.53-2.83,4.29-3.24,6.12.65.55,6.59-4.92,7.68-1.52.67,2.05-3.36,7.99-3.16,10.55.63.69,8.41-5.64,9.37-6.44,2.81-2.35,1.79-.95,2.9-1.59,1.16-.67,1.02-4.44,3.84-3.57l-6.44,29.02c4.78-2.89,11.52-14.76,16.15-16.43,4.58-1.65,2.44,2.16,2.69,4.3ZM348.45,637.48c2.3,1.22,4.7,4.75,2.26,7.08-.33-.5-1.2-.44-1.48-.79-.9-1.13-.78-4.77-.78-6.29ZM341.9,651.56l-2.42.03-2-10.9c3.42-.2,6.38,9.67,4.42,10.87ZM327.16,646.5c2.53-.33,5.22,3.52,5.65,5.63.59,2.85-.89,13.16-3.07,7.59-.66-1.68-3.35-12.41-2.58-13.22ZM269.55,447.97c-.89,4.64-.97,8.81-1.79,13.36-6.19.77-3.58-10.18-2.73-14.01,2.03-9.18,6.25-19.46,12.46-26.56-2.3,9.09-6.17,17.97-7.94,27.21ZM279.83,480.71c-3.74-.62-.56-12.49.38-14.98.66-1.75,2.25-3.01,2.45-4.97l.66,6.15c-1.01,2.36-.36,14.32-3.5,13.8ZM383.93,572.68c.29.57,1.63.82,1.78,1.07.33.55.1,1.22.15,1.81-5.73.75-5.87-4.75-6.44-9.02l4.51,6.14ZM358.89,560.27c1.79,4.58,7.74,7.03,7.61,12.05-4.45.6-8.39-5.08-10.43-8.59-3.53-6.1-4.81-12.77-5.04-19.78l7.86,16.32ZM327.16,527.83l7.19,20.22c1.77,3.84,3.85,7.51,6.99,10.41-3.18,3.02-6.95-1.63-8.64-4.25-1.75-2.72-5.54-12.76-5.54-15.74v-10.64ZM289.43,487.2l.32,14.18c-5.5.08-3.79-11.72-.32-14.18ZM310.39,512.35c-.16,3.59,4.17,12.81-1.28,12.9-.61-.57-1.53-12,1.28-12.9ZM299.43,500.74l1.92-1.93c-1.8,6.67.69,13.56-.73,19.9-2.93.96-2.98-1.34-3.59-3.65-1.9-7.17.16-13.21,1.75-20.12l.64,5.8ZM189.48,598.77c-1.08-.21-1.04-1.57-.65-2.56,1.44-3.62,6.96-9.02,9.98-11.62-.72,2.54-6.51,14.75-9.33,14.18ZM208.86,607.21c-1.52.65-2.6.78-4.24.59-2.68-2.74,9.41-7.76,11.61-7.73,1.11,1.09-6.35,6.71-7.37,7.14ZM214.31,615.82c-.65-2.44,7.04-5.02,9.01-5.44,1.26,3.58-8.12,8.83-9.01,5.44Z"/>
    <path class="cls-2" d="M290.21,758.59c-1.12-3.76-2.67-9.94-3.04-13.74-.07-.69-.38-1.77.64-1.6,1.61,3.74,3.79,7.17,5.66,10.81.79,1.54.84,1.27.82-.18-.11-10.5-4.02-25.21-6.32-35.61-.6-2.68.1-5.88-1.76-8.55l-7.74,7.08c-2.28.04-1.69-8.87-1.53-10.55.46-5.05,2.36-10.38,3.79-15.23-.94-.79-8.38,6.95-11.02,3.6-1.87-2.36,1.4-7.26,1.34-10.05-5.33,2.5-2.91,12.8-3.86,18.06,2.45-.66.28-4.35,1.92-5.16l-.02,31.94,1.99,38-.02,38.4,25.16-4.51c-.93-8.58,1.25-19.76-.05-28.02-.5-3.25-4.72-10.62-5.95-14.68Z"/>
    <polygon class="cls-2" points="165.27 580.08 166.11 587.93 168.48 596.84 167.66 588.97 165.27 580.08"/>
    <polygon class="cls-2" points="170.91 567 167.86 557.5 169.14 569.75 171.07 569.75 170.91 567"/>
    <path class="cls-2" d="M159.28,409.97c-.51.6-4.72,5.92-4.33,6.28l6.44-1.31-.64-5.79c-1.5-.4-1.08.36-1.48.82Z"/>
    <path class="cls-2" d="M172.39,539.9c1.5-.44,1.81-3.16,1.16-4.23-.14-.23-4.67-2.42-5.05-2.03l2.58,12.26,1.31-5.99Z"/>
  </g>
</svg>