<?xml version="1.0" encoding="UTF-8"?>
<svg id="Layer_1" data-name="Layer 1" xmlns="http://www.w3.org/2000/svg" viewBox="0 0 1230.9 536.54">
  <g>
    <path d="M72.36,210.45c.77-7.29,5.88-23.08,9.13-29.82,3.36-6.98,11.44-12.86,15.52-19.63.86-1.42,4.41-12.05,3.85-12.77-1.17.61-2.39,1.17-3.66,1.56-6.4,1.99-12.17,2.61-18.73,5.02-4.07,1.49-9.55,2.68-13.05,5-5.3,3.51-8.98,10.64-15.78,11.46-1.75.21-2.25-.54-3.08-.54-1.17,0-2.09,1.16-4.26.44-.95-.31-6.31-3.29-7.14-3.94-1.1-.87-2.27-2.55-2.39-3.94-.33-3.8,2.01-3.65,2.97-6.25,1.81-4.91,2.1-12.23,4.58-17.27.71-1.44,4.03-3.41,4.15-3.78.36-1.08-.93-1.55-1.17-2.55-.89-3.8,2.09-3.6,3.69-5.68.8-1.04,2.77-6.21,3.13-7.64.84-3.36.98-9.7,2.07-12.49.3-.75,1.25-1.53,1.66-2.46.69-1.58.93-3.64,1.59-5.38,2.98-7.86,8.09-16.29,13.13-22.97l-.15-.47-1.11.63c-.62-.7,2.03-2.57,2.56-2.98,10.26-7.95,25.88-18.49,38.85-20.37,5.93-.86,8.21,1.18,11.95,5.3.17-1.31-.84-2.52-.14-3.8,3.35.51,6.54.06,9.8,1.26-2.61-2.28-5.79-4.17-9.18-5.07-.08-.54.75-.34,1.1-.31,6,.48,12.66,6.65,16.65,10.91,1.66,1.78,2.69,4.33,4.41,6.04,1.13,1.13,2.78,1.95,3.96,3,2.96,2.63,9.39,11.53,9.66,15.38.12,1.68-.59,3.93-.29,5.96.22,1.44,1.56,3.27,1.8,4.85.33,2.08-.14,4.44.11,6.54.19,1.64,1.09,3.1,1.25,4.77.31,3.33.27,9.64-.02,12.99-.05.59-.31,1.15-.32,1.74-1.03.91-1.5-4.15-1.52-4.59-.08-2.96.53-6.38.25-9.49-.16-1.78-1.03-3.46-1.23-5.11-.23-1.91.2-4.08-.06-5.95-.41-2.94-3.39-5.72-2.8-8.88.14-.74.89-1.38.92-2.27.07-1.99-6.29-12.08-8.05-13.76-1.07-1.02-2.56-1.72-3.66-2.68-4.81-4.16-8.9-10.85-15.52-12.98-1.84-.59-3.6-.25-5.38-.79-.03,1.82,1.62,3,2.49,4.31.36.54.21,1.25.44,1.62.26.42,4.75,3.66,5.51,4.15s3.29.88,1.8,1.92c-2,.63-5.99-3.28-7.61-4.34-4.06-2.67-8.78-5.91-12.87-8.35-3.76-2.25-9.42,1.04-13.43,1.9l-8.22,6.67-.75-.11c-.18-1.46,1.42-2.14,2.22-3.17l-.47-.15c-3.23,2.55-6.92,4.47-10.27,6.83-9.57,6.76-12.07,9.77-17.61,20.07-3.17,5.89-5.84,12.07-8.89,18.02-.36.69-1.32,1.44-1.56,2.24-.55,1.76-.5,4.47-1.09,6.35,4.56-2.4,9.92-6.81,15.12-7.52,4.39-.6,12.33.81,15.89,3.58,4.04,3.15,4.75,9.67,8.88,13.29,3.32,2.91,8.38,2.78,11.42,6,3.18,3.36,3.31,6.43,1.73,10.61-.42,1.1-2.64,4.51-2.7,4.93-.2,1.36,1.35,1.93,1.58,3.16,1.12,6.12-4.9,16.84-6.5,22.92-.18.31-.48.71-.89.64-1.52-.25-.55-4.57-.67-5.68-1.11,1.2-2.39,2.27-3.49,3.48-4.46,4.92-8.06,9.23-10.52,15.44-3.11,7.82-6.09,17.07-7.59,25.35-.41,2.3.08,3.49-.07,5.29-.06.64-.58,1.41-.57,1.59.09,1.29,9.83,7.59,11.33,9.17.5.53.86,1,.96,1.75l3.78-.63-1.27-.31v-.95c5.94.5,11.87.99,17.84.26.59-.19.93-1.57,1.34-2.14,1.14-1.59,3.02-1.38,4.88-2.09,7.42-2.79,16.19-10.27,21.86-15.82,1.36-1.33,9.72-10.34,9.71-11.4-.85-1.3-.6-3.16-.93-4.67-.07-.31-.11-.95-.55-.87-.55,2.35-1.09,4.94-1.82,7.22-.17.54.13.83-.72.69.04-1.1-.07-2.22,0-3.32.23-3.29,2.02-8.61,1.1-11.56-.09-.3-.05-.72-.47-.63l-8.93,16.39-.89.07c-.54-.53,3.18-7.06,3.74-8.13,4.48-8.44,9.36-16.67,13.83-25.11,1.59-6.12.87-12.55,2.06-18.68.32-.14.63.74.63.79v6.49l3.49-15.66-2.81-.85c-.79-2,1.96-3.33,2.97-5.32.99-1.96,1.05-4.24,1.88-6.03.83-1.79,1.84-1.71,1.68.38-.61,8.11-4.91,17.97-5.65,26.36.2,1-1.52,1.74-1.57,1.98-.31,1.34-.13,4-.31,5.48,2.72-1.28,2.13-3.77,3.15-6.19.48-1.14,1.79-3.13,2.69-3.96.82-.75,1.99-.99,2.56-1.55,1.18-1.17,2.58-9.8,2.94-11.94,1.17-7.04,1.86-14.24,2.58-21.32-.51,0-.67,1.25-1.11,1.26-1.36.02.73-5.03,2.37-4.43.93.99-2.08,23.28-2.63,26.34-.48,2.61-1.52,8.32-2.91,10.39-.56.84-2.31,1.66-3,2.38-1.47,1.54-2.56,3.92-3.27,5.91-.28.78-.06,1.61-.51,2.34-.45.75-2.32,1.87-3.19,1.08l-.87,5.6-7.68,14.22.94,5.19c.32-1.08.61-2.2,1.03-3.24.52-1.28,1.07-3.85,2.77-3.4-.93,3.11-4.14,8.32-2.78,11.5.21.48.75.48.89.76.38.72.35,1.74,1.1,2.31l.44-.04c-.16-1,1.63-.6,1.96-.07.55.9.96,5.09,1.63,6.84.87,2.28,2.09,4,3.89,5.61,1.31,1.17,6.56,3.75,5.38,5.71-.73,1.21-2.99-.36-3.01,1.57,1.71.5,3.24,2.36,4.83,2.93,1.41.5,3.33.6,4.91,1.11,7.59,2.43,15.85,5.86,23.09,9.21,13.98,6.48,27.61,15.64,40.61,23.99,6.17,3.96,17.72,13.28,24.08,15.18,7.36,2.2,14.98,4.23,22.69,5.17,6.22.76,11.92.67,18.17.36-.28.49-1.59.72-2.15.85-1.75.44-3.64.79-5.45.73.08.79.54,1.18.64,2.05.46,3.89-2.91,10.09-5.4,12.98-1.69,1.97-3.67,3.72-6.17,4.6-.43.79.89,0,.95,0h4.75c.23,0,1.44.65,1.59.94,1.35,2.65-4.43,7.95-4.59,10.77,3.92-3.08,7.2-6.83,10.61-10.45l.15.47c-1.35,1.44-2.26,3.21-3.49,4.75-4.5,5.6-13.35,12.22-19.33,16.45-.78.55-1.9,1.2-2.83,1.45,3.67,4.22,6.38,7.56,3.12,13.09-1.81,3.06-4.8,5.24-8.51,4.95,1.32,6.8-8.19,7.94-12.98,6.65-.38.34,1.62,1.69.55,2.77-.34.34-5.81,2.35-6.71,2.63-4.88,1.5-8.32,1.19-12.92,1.96-1,.17-1.81.89-2.7,1.1-3.58.88-6.85,1.28-10.54,1.18-.63.43-.13,2.34-.3,3.13-.06.26-.57.23-.73.6-.37.87-.16,2.13-.84,2.95-.48.59-1.77.94-2.44,1.52-2.14,1.86-4.85,6.13-6.91,8.44-.7.79-1.53,1.58-2.38,2.21.84-3.14,3.29-5.34,5.06-7.91l-9.08,5.02c-1,.09-.37-1.56-1.38-1.71l.03-.6,12.02-7.61c1.15-1.29.41-4.44.81-6.2-1.38-.38-2.77-.51-4.15-.92-9.89-2.99-21.79-11.6-28.32-19.49-1.82-2.2-3.28-4.7-5.24-6.8.06,1.87.94,3.67,1.1,5.54.21,2.45.3,5.08-1.92,6.62-1.98,1.38-3.67,1.21-5.66,0-5.18-3.16-13.21-15.03-15.81-20.61-2.18-4.67-3.89-9.92-4.8-14.99-.55-.07-.3.72-.31,1.1-.1,2.52.08,5.4.32,7.92.25,2.62.49,5.33,1.58,7.76-1.22,1.18-2.41-5.11-2.49-5.58-3.09-19.02,0-49.9,8.03-67.56.48-1.04,1.68-2.43,2.06-3.33.08-.19.06-.54-.15-.47-.97.49-6.6,4.66-7.13,4.11.03-.46-.09-.99,0-1.42.16-.83,4.36-3.23,5.38-3.81,6.39-3.6,13.7-6.33,20.9-7.75l-8.13,4.38c-14.67,8.76-18.99,33.73-19.75,49.6-.78,16.38,7.39,34.58,18.85,46.09,4.33,4.35,7.55,4.6,6.46-2.66-.78-5.2-3.81-10.31-4.31-15.33-.03-.35-.37-1.08.22-1.01,3.78,5.29,7.52,10.69,11.73,15.66,4.1,4.83,7.89,8.6,13.19,12.14,4.6,3.07,14.88,8.61,20.21,8.61h10.77c.05,0,.93-.31.79-.63-5.28-1.22-10.26-4.25-14.73-7.28-1.98-1.34-11.54-8.28-11.81-10.05-.09-.56-.02-.7.43-1.04,7.59,5.31,16.47,13.19,25.55,15.61,5.38,1.43,13.97.39,19-2.09.83-.41,2.67-1.23,2.48-2.27-2.52-1.68-12.27-5.52-13.32-7.91-.19-.43-.49-.28.17-.8,6.24,2.38,16.62,8.3,23.29,7.13,2.26-.4,4.82-1.8,5.33-4.18.14-.65-.04-.33-.42-.44-7.33-2.06-15.11-3.31-20.29-9.8-.39-.49-1.48-1.74-.62-2.22.76-.16,2.9,2.13,3.66,2.66,4.85,3.38,14.13,7.53,20.08,6.84,4.46-.52,7.19-7,4.77-10.78-8.17-5.53-15.34-12.24-22.34-19.14.5-.32,1.43.38,1.9.63,3.21,1.67,6.42,4.02,9.82,5.38,4.71,1.89,6.79,2.06,3.85-3.22-3.29-5.91-9.47-10-14.31-14.51-1.48-1.38-2.78-3.13-4.43-4.28-.06-.6.64-.26.95-.16,2.22.67,4.05,2.7,5.37,3.13.85.28,5.52.34,6.43.13,3.29-.74,2.27-4.98,1.23-7.12-2.87-5.91-10.74-7.42-15.1-11.82.67-1.73,3.01.28,4.28.16l-12.66-10.61c1.39.42,2.85,1.33,4.09,2.08,5.17,3.12,10.39,7.7,14.92,11.68,1.51,1.33,4.98,5.04,5.96,6.71,3.66,6.27,3.28,13.08-5.65,11.98,2.49,2.17,5.28,4.3,7.44,6.81,2.68,3.1,8.89,11.38,1.11,12.19.93.46,2.53,2.16,3.4,2.33,1.49.3,4.86-2.87,6.39-3.48l-.29-1.53,3.48-.96-1.59-.46c-.49-.43-.38-.54,0-.97.48-.56,3.56-1.36,4.67-1.98,2.1-1.2,7.28-5.95,8.46-8,.3-.52.62-1.37.46-1.96-.67-2.51-7.72,1.19-8.19.72l.63-2.35-.96-.95c.09-.99,3.36-3.58,4.29-4.61,2.49-2.75,7.07-8.57,7.38-12.28.03-.37-.47-1.85-.61-1.95-.2-.15-1.48.3-2.01.31-26.87.56-41.62-12.99-62.9-26.11-16.7-10.29-37.32-19.56-55.8-26.22-.75-.27-6.64-1.91-6.98-1.8-3.14,3.54-6.25,7.11-9.03,10.95-5.96,8.23-12.72,19.86-16.58,29.34-1.2,2.95-2.19,5.95-2.8,9.08-.89.03-1.35-.94-1.75-1.57-1.53-2.43-2.19-5.58-3.16-8.24-1.87,4.14-1.89,9.13-5.54,12.35,1.15-3.03-.67-5.53-1.43-8.55-.95-3.79-1.82-8.05-2.33-11.92-.18-1.33-.52-8.85-.98-9.16-1.43.52-2.16-.33-3.49-.46l-1.27,7.92-.79-1.26c-.67.75-1.4.93-1.91,1.89-.2.38-1.63,4.29-1.64,4.53-.03.93.33,6.21.53,6.97.08.31.69.28.89.75.3.7.3,2.15.39,2.95l1.58-.63c.5,1.18-1.09,2.19-1.19,2.73-.23,1.22.92,4.32.89,5.68-.01.62-.48.93-.5,1.43-.05,2.21,1.81,5.34,2.47,7.33,1.16,3.5,2.01,7.11,3.38,10.54-.24.58-.53,1.7-1.39,1.44l-1.92-3.18c-.62,1.18.5,2.38.71,3.41.38,1.89.29,3.83.98,5.67,1,2.67,3.53,4.63,5.13,6.91l-1.07.76-3.69-3.45c-.18,1.32.62,2.73.63,3.96.02,1.93-.07,6.09-.29,7.93-.03.23-1.43,2.02-1.48,2.51-.07.63.91,2.07.86,3.18-.02.55-.56.47-.64.71-.52,1.47-.31,2.98-.34,4.51l3.01-7.6.77.47-6.18,22.33c1.16.76,1.84,1.91,2.88,2.85,2.13,1.92,5.55,4.32,7.97,5.97,1.19.81,9.44,6.06,10.02,6.01.64-.06.98-.67,2.23-.55.54.05,4.82,1.6,5.12,1.87.44.39.64,1.41,1.09,1.92-2.05.56-3.17-.16-5.07-.63l.98,7.88c1.67.13,7.01,2.38,8.21,1.78.58-.29.67-1.78,2.31-1.45.31.06.54,1.28,1.39,1.54,1.44.43,3.24-.65,4.78.13l.38,3.74c.56-.11.53-.92,1.08-1.29,1.62-1.09,1.71.79,2.27.92.27.06,1.01-.29,1.55-.29,1.88.03,1.28,1.09,1.46,1.25.33.3,1.4-.41,1.25.52-.13.75-1.39,2.1-1.59,3,.32.27,3.23-2.41,3.77-.74.33,1.01-1.65,3.92-1.56,5.18.31.34,4.13-2.77,4.6-3.16,1.38-1.15.88-.47,1.43-.78s.5-2.18,1.88-1.75l-3.16,14.25c2.35-1.42,5.65-7.25,7.93-8.07,2.25-.81,1.2,1.06,1.32,2.11.44,3.82,2.63,8.64,4.53,11.97l3.49-18.68c.11-.55,2.44.19,2.53.29.33.35,1.35,4,1.9,5.1.62,1.25,1.62,2.93,2.69,3.79.69-4.89-.77-9.39-1.89-14.07l.63-.36c1.22.29,1.84,3.24,3.47,3.34.51-.58-1.42-4.11-1.52-4.98-.09-.76,1.23-2.77,1.99-2.63.19.04,1.81,2.39,3.33,1.59l-.95-3.48c1.15.52,3.85,3.82,2.32,4.78-1.74.78-3.2.03-4.85-.34.97,2.2,2.19,4.84,1.22,7.24l-2.49-.27c.51,2.48,1.24,9.01-.18,11.06-1.5,2.17-2.98-1.3-3.94-2.2.05,1.32-.07,2.65-.02,3.97.1,2.36.82,18.79.44,19.7-.17.41-.69.23-.76.85-.38,3.14.37,7.41.35,10.8,0,.75-.33,1.44-.34,2.19-.05,3.11.3,6.31-.3,9.35,1.47.1,2.43-1.34,3.57-1.96,3.37-1.83,10.16-2.57,14.01-2.48,2.35.06,5.41,1.03,7.58.99,1.02-.02,6.94-1.18,7.61-1.61,3.37-2.16,6.19-4.79,10.07-6.71,7.23-3.56,15.24-5.12,22.81-1.59,1.86-1.71,3.7-3.65,6.21-4.37.08-.58-.66-.26-.97-.18-1.31.37-2.68,1.78-3.78.97,3.48-4.56,10.3-3.09,15.37-3.31,2.78-.12,5.29-.83,8.23-.66,2.47.14,7.11,1.91,8.54,1.88.56-.01,2.47-1.07,3.39-1.32,3.77-1.03,8.52-.71,12.28.25,2.08.53,6.12,2.52,7.79,2.69,1.23.12,4.17-1.01,5.71-1.22,5.08-.69,10,.16,14.77,1.94,1.55.58,4.97,2.61,6.12,2.76,1.44.19,3.5-.56,5.03-.64,6.61-.31,12.42.27,18.62,2.62,1.4.53,6.39,3.35,7.06,3.39,1.5.1,5.03-1.1,6.96-1.25,2.91-.22,5.84.32,8.55.31,1.33,0,3.45-.86,5.05-.96,10.03-.66,19.38,5.3,24.5,13.52,2.28,3.65-.59,9.66-3.12,12.61-.84.98-2.08,2.21-3.47,2.06l-.15-1.26c-2.84,2.21-5.83,4.29-9.13,5.76-1.03.46-2.54.3-3.07,1.52.38.3,3.95-2.33,4.73-.44.46,1.95-7.89,4.39-9.16,5.67-.13.72.31.44.78.47.78.06,1.78.06,2.55.01,1.51-.09,4.95-1.12,6-.98.98.14,1.08,1.01.34,1.61-4.86,1.75-10.9,2-15.62,4.01-2.01.86-4.05,2.38-6.19,3.31-6.73,2.94-13.59,4.39-20.95,4.06-.83-.04-2.19-.64-2.81-.54-.39.07-1,.73-1.56.92-3.32,1.14-7.11.48-10.51-.07l-.17.95c-.56-.01-.39-.87-.79-1.26-.33-.33-.99-.41-1.42-.64.11,1.19-1.09,1.77-2,2.28-8.02,4.44-25.88,6.51-34.74,4.54-4.7-1.05-6.21-2.83-11.55-2.37-2.69.23-4.6,1.5-7.13,2.22,2.03,3.7-5.4,4.87-7.92,4.59l6.96-2.71-.3-1.1c-2.04-.85-2.72.4-4.01,1.07-7.83,4.05-13.27,4.49-21.64.83-.81-.35-2.38-1.68-3.03-1.74s-4.37,1.74-6,1.9c-3.77.38-7.34-.56-10.61-2.37-1.59-.88-3.63-2.07-4.11-3.96,2.02.9,3.75,2.35,5.8,3.22,2.93,1.25,5.68,1.81,8.89,1.49l2.72-.91c-5.27-.59-10.09-1.52-14.78-4.06-.64-.35-1.65-1.46-2.2-1.55-1.32-.22-5.95,1.33-8.52,1.19-2.81-.15-5.53-1.51-7.92-1.89-1.42-.23-9.22-.12-10.15.58-.84.64-.17,2.06-.6,2.88-.82-.65-1.17-1.46-1.12-2.52-1.09-.1-2.22.1-3.31-.02-3.46-.36-6.42-2.04-10.12-2.22-5.29-.26-9.78,4.31-14.92,2.24-11.73,1.99-23.26,5.32-34.91,7.84-1.31.26-2.25-.55-1.49-1.84.78-1.31,17.94-6.45,20.59-7.27.57-.18,1.81-.39,2.05-.95l-14.74.65c-3.16-.59-6.64-.17-9.77-.68-3.92-.64-8.16-2.92-12.14-3.67-.55-.35-1.28-1.38-.89-2.01.94-1.51,12.8-.8,15.22-.95,4.15-.25,8.25-1.38,12.36-1.89,5.93-.74,9.16.08,14.65-3.17,2.29-1.36,3.93-2.24,5.45-4.59.33-.76-1.38-.46-1.59-.96.02-1.23,1.53-1.53,1.75-2.03.14-.3-.24-.93-.16-1.42s.55-.82.62-1.31c.28-1.86-.29-3.69-.31-5.53-.25-.07-.38.32-.47.32h-11.87c.15,1.61.79,3.39-.31,4.83-1.97,2.59-7.87,2.12-10.89,2.5-6.5.82-12.79,2.97-19.37,2.82-6.5-.15-14.02-1.19-20.57-1.92-.45-.05-2.71-.37-2.69-.79.52-.29,1.33-1.22,1.8-1.36,1.77-.51,4.85-.48,7-.91,4.32-.87,10.87-2.32,14.94-3.74.47-.16,1.13-.19,1.27-.79-2.58.29-5.27-.26-7.75-.33-5.34-.16-11.25.44-16.47,0-.89-.07-4.27-.57-4.56-1.47-.12-.38-.05-.71.12-1.06.91-1.85,8.14-1.12,10.14-1.27,8.22-.62,17.29-2.51,25.34-2.84,1.63-.07,2.45.09,3.96.63-.84-1.25-3.31-1.34-2.85-3.16l4.12.63c-.77-1.07-2.71-1.15-2.84-2.67.16-.76,2.68-.73,3.31-.82.43-.06.99-.15.48-.62-1.37-.2-3.2-.43-2.85-2.22l4.43-.32-.95-10.13-1.57.31c-.17-2.05-1.76-3.36.95-4.32.1-.39-.27-3.79-.39-4.32-.16-.64-.85-1.1-.9-1.67-.08-.91.72-1.06.9-1.62.45-1.45-.28-3.35-.26-4.84-1.09,1.53-4.1,2.01-2.8-.43.83-1.57,2.98-1.89,2.17-4.63-.14-.16-2.28,1.42-2.53.15-.2-1,2.81-2.55,1.9-4.27-.39.14-2.22,2.34-2.53,1.1-.37-1.5,1.96-2.65,2.07-3.78.17-1.76-.33-2.88-2.19-2.1-1.8-1.54,1.07-2.14,1.34-3.05l-.31-4.01-.48-.47c-10.3-.93-2.02-3.86-2.02-4.63-2.33-2.1-8.82-.2-3.79-4.9-2.52.33-4.8.37-7.28-.32-.11-.54.13-.65.54-.88,1.92-1.07,7.96-.27,8.52-2.27.3-1.07-1.2-1.16-1.89-1.65-1.54-1.1-2.89-2.43-4.64-3.28-.03-.4.2-.75.64-.65.69.15,3.64,2.56,4.1,2.08l-.65-7.26c-1.77-.02-3.16-.45-4.81-1.05-7.2-2.63-14-8.27-20.03-12.91l-3.65,7.91c-.34.05-.64.06-.94-.14-.81-.54-2.98-4.74-4.08-5.65-.45-.37-.79-.21-1.29-.21l4.59,5.7c.4,1.11.33,1.52-.88,1.2-5.47-6.32-11.49-11.94-18.12-17.03-.48.25.09.76.21,1.05,3.5,8.29,11.12,16.23,17.52,22.38l.47-.63.32,1.26c-.78.63-6.97-5.76-7.76-6.64-3.25-3.61-7-8.56-9.39-12.77-.56-.98-3.57-6.56-3.11-7.18l1.56.81,10.47,9.01-3.48-5.86-.32.8c-.35.02-.64.03-.96-.15-.65-.36-3.95-7.34-4.06-8.33-.05-.49.03-.74.41-1.06.62-.53,1.24.53,1.12-.43-.67-.47-3.37-4.09-2.85-4.59l4.11.63c-.35-1.99,1.56-4.54-.94-5.38.13.92-.66,1.07-.93,1.52-.06.09-.76,2.68-1.27.81-.2-.71.59-2.92.6-3.81,0-.93-3.41-4.4-4.23-5.52-2.61-3.55-4.99-7.76-7-11.68-3.49-6.8-6.78-14.46-7.12-22.17-5.12-.34-5.03-.88-4.28-5.39.49-2.96,1.42-5.78,2.07-8.7-.85-.38-1.29,1-2.31.74-1.69-.42-1.69-4.53-1.52-5.84.08-.58.56-.39.64-.68.21-.71.14-2.11.33-2.94l-3.56,10.21-2.13,4.67c1.81-4.6,2.63-9.45,4.03-14.17,1.56-5.27,4.81-12.7,5.72-17.73.38-2.12-1.24-3.94-1.11-5.26.06-.63,1.01-1.79,1.29-2.78.75-2.61,2-14.83,3.45-16.02,1.04-.85,3.41.24,4.19,1.18.09.04.47-.74.47-.79,0-1.59-.16-3.54,0-5.07ZM101.29,137.89c2.2-2.3,4.31-1.27,1.85-5.39-2.6-4.36-7.63-3.75-11.47-6.9-4.43-3.62-5.79-11.14-10.66-14.04-2.03-1.21-6.15-2.39-8.5-2.58-7.25-.61-13.01,4.21-19.47,6.65.75,2.88,5.34,6.43,8.25,5.55.55-.17,1.14-.84,1.77-1.09,2.34-.92,8.48-2.49,10.57-.83,1.98,1.57-4.07,4.01-5.3,4.2-1.88.3-6.42-.6-7.22-.27-2.32.93-3.66,5.64-.78,6.68.09.49-.45.36-.77.3-2.31-.45-2.4-3.41-1.78-5.22.36-1.05,1.4-1.63,1.6-2.67-2.13-.31-3.91-1.6-5.67-2.72l-2.24-2.03c.02,1.07.05,2.11-.15,3.18-.18.97-3.27,7.99-3.81,8.54-.7.71-2.62,1.38-2.94,2.44-.6,2.01,1.38,2.8.82,4.62-.21.7-2.05,2.14-2.39,3-2.09,5.22-2.95,12.27-4.98,17.5-1.41,3.64-5.34,4.27-1.94,8.75,1,1.31,5.7,4.42,7.31,4.56.79.07,2.75-.29,3.41-.65.41-.22.47-.98.86-1.43,1.68-1.91,3.26-3.91,5.07-5.7l-4.36,1.66-1.34.08c-.79-.72,2.97-1.63,3.38-1.84,2.1-1.06,4.71-3.05,6.43-4.65-.47-.35-1.43-.16-1.26-1.11,3.12.35,3.57-1.45,5.38-3.01,7.69-6.65,14.06-10.95,23.32-15.31,1.14-.54,8.43-3.8,8.98-3.21.32,2.13-1.35,1.57-2.53,2.06-9.97,4.1-19.18,9.7-27.34,16.68-.28.24-1.03.62-.06.57,5.92-1.19,10.63-4.99,15.99-7.44,3.19-1.46,6.95-2.79,10.38-3.55,2.16-.48,8.34-.82,9.8-2.39.56-.6,1.09-2.23,1.79-2.96ZM72.36,120.05c-2.5-.29-5.61.17-8,1.02-.4.14-1.43.41-1.5.87,3.16.7,7.1.49,9.5-1.89ZM99.47,145.5c-.44-.35-1.74-1.29-2.18-1.46-1.21-.47-5.73.2-7.26.48-7.4,1.36-12.5,5.62-18.3,10.04,5.82-.16,9.92-3.78,15.5-4.92,4.53-.93,9.16-.54,13.31-3-.21-.3-.81-.93-1.07-1.14ZM65.39,155.51c-6.02.29-8.37,4.59-12.02,8.4-1.94,2.02-4,3.92-6.02,5.85,7.4-2.03,13.11-8.7,18.05-14.24ZM156.91,210.61c-4.52-1.5-6.96-6.22-8.92-10.24l-1.21-4.01c-2.59,5.78-7.17,11.05-12.07,15.01-5.46,4.41-13.9,9.18-20.34,11.96-1.17.5-5.44,1.51-5.93,2.38-.47.82-.08,2.08-1.17,2.78l1.99,2.69,1.42-3.3c-3.21-1.43-.66-2.54,1.26-.95,1.16.96,1.86,4.83,2.15,6.4.85,4.65,1.22,9.4,2.08,14.07.86,4.67,2.01,9.26,3.07,13.87.82.15.49-.12.66-.45.68-1.33,1.13-3.13,1.81-4.51,4.71-9.49,18.8-32.96,26.34-39.53,2.76-2.4,6.2-3.78,8.87-6.17ZM84.64,229.68c-.12-.18-.85-.28-1.19-.55-1.25-1.04-2.41-2.27-3.67-3.31-3.57-2.93-7.55-5.38-10.91-8.56-1.3,5.06-1.74,10.54-2.95,15.58-.22.91-.52,1.56-1.05,2.31l11.91,31.51,1.42-7.92c2.5-7.23,3.15-16.98,5.84-23.93.38-.98,1.55-2.2,1.98-3.24.85-.49,2.37.92,2.95,1.52l.48-1.9h.95s.31,1.27.31,1.27l.95-1.74c-1.26-.3-6.18,1.13-6.82.17-.21-.31-.03-.94-.21-1.21ZM147.09,230.87l3.81-5.56-1.28-6.47c-.53-.08-.35.77-.33,1.12.12,2.13.93,4.29.64,6.48l-.63-2.21-.63,1.58-.64-4.43c-2.1,1.28-.15,4.32-.63,6.33l-.95-4.43c-.36-.1-.45.37-.48.62-.12,1.07.34,3.95.53,5.19.06.42.11,1.72.59,1.78ZM141.39,239.42l5.01-7.84-1.21-6.41c-.59.66-2.36,2.69-2.48,3.4-.26,1.47,1.07,4.99.9,6.73-.57-.33-.86-1.66-1.04-2.28-.28-1-.48-2.06-.55-3.1-.73-.18-.52.15-.72.4-.23.29-1.04,1.48-1.11,1.74-.15.58.42,5.6.58,6.56.06.37.19.75.62.8ZM94.84,228.34c-2.29,0-5.02-.05-7.23.54-.56.15-.82-.09-.68.72,2.16-.53,4.57-.41,6.78-.66.31-.03,1.19-.14,1.13-.6ZM105.61,228.66l-5.06.94c1.76.03,3.36-.36,4.75.95l.32-1.9ZM112.89,239.74l-1.74-8.86c-.32.46-1.2.64-1.38,1.16-.11.31-.43,6.25-.33,6.56.76.83,2.36.76,3.44,1.15ZM138.23,244.17c1.13-1,1.56-2.76,2.47-4.01l-1.68-6.44c-3.11,2.93-.74,6.78-.79,10.44ZM135.38,249.56c.65-.57,2.73-4.33,2.73-4.91,0-1.08-2.04-4.82-1.78-6.49-3.54,2.83-.94,7.56-.94,11.4ZM133.47,253.99l1.79-3.96c-.98-2.34-1.74-4.87-1.78-7.44-.68.65-2.14,2.78-2.17,3.63-.04,1.1,1.14,6,1.53,7.31.13.46-.18.55.64.46ZM87.24,242.91c-1.32.57-3.42.67-3.16,2.53.95-1.08,3.36-.77,3.16-2.53ZM102.76,243.23c-.74-.2-.53.17-.72.4-.25.29-2.32,2.91-2.12,3.08l3.16-.64-.31-2.84ZM76.8,271.09l-9.81-26.15-2.01.58c-1.31,6.01-4.58,11.65-4.02,17.98,1.47-.13,2.61-2.89,3.73-.72,1.21,2.36-.38,5.56-.79,7.94-.33,1.95-.41,3.91-.68,5.86.6,1.74,2.72-.2,3.6.85.42.49,1.61,6.17,2.04,7.46,2.04,6.14,5.12,12.06,8.31,17.66l6.9,10.67c-.09-.98.43-1.81.6-2.73.51-2.73,1.28-7.8,1.29-10.46,0-1.06-1.06-1.45-.48-3.29.13-.43.67-.79.75-1.16.11-.54-.31-1.17-.27-1.81.05-.82.5-1.67.36-2.56.1-.67-.7-.41-1.14-.76-1.07-.85-1.15-1.68-1.07-2.98.11-1.74.89-5.44,1.4-7.16,1.62-5.46,6.52-10.02,6.48-16.16-.98.75-2.41.92-2.83-.45,1.35-1.4,5.04-3.88,4.65-6.07-.05-.3-.67-.33-.77-.53-.6-1.21-1.36-2.35-1.84-3.39-.48-1.03-.7-3.83-.92-4.14-.28-.4-1.21-.15-1.61-.61-.55-.62-.38-2.73-1.42-3.17l.95,3.8-.94-.63-5.07,25.33c-.58.14-.61-.2-.9-.52-1.16-1.33-1.57-3.49-2.74-4.86l-.83,2.18-.91.04ZM129.99,261.91c-.13-1.95,2.83-5.56,2.83-7.12,0-1.17-2.77-5.19-2.2-7.13l-.95,1.11,1.26,8.7-1.36-2.59-.86-4.37c-.56.2-.95,1.57-.97,2.06-.06,1.41,1.08,6.75,1.56,8.28.13.42.11.96.68,1.06ZM93.57,254.62c.68-1.78-.23-4.09-1.89-5.07.24,1.69.27,4.07,1.89,5.07ZM83.42,251.79l-.95.17c-.37.73-.19,1.29.03,2.03,1.34-.1,1.43-1.2.92-2.19ZM128.41,265.39c1.92-1.8.41-3.14-.09-4.82-.68-2.27-.9-4.65-1.65-6.9l-.81.53c.16,3.86,1.7,7.47,2.55,11.18ZM82.18,272.99l2.47-13.14c-.08-1.75-1.34-2.95-2.31-4.27-2.45,2.48.85,4.02,1.11,6.65l-2.22-3.17c-2.25,2.18,1.13,5.2,1.58,7.6-1.26-.76-2.02-2.15-2.53-3.48-2.28,2.29,1.27,5.49,1.9,7.92l-3.17-3.64c.49,1.69,1.52,3.66,2.46,5.13.2.31-.03.56.71.41ZM128.09,267.92c.7-1.79-1.17-3.71-1.59-5.53l-1.89-6.5c0,.52-.5,1.01-.55,1.47-.11,1.13,2.31,7.2,2.92,8.66.22.53.6,1.64,1.1,1.9ZM89.46,276.16c-1.28,1.21-2.23,3.95-2.69,5.7-.28,1.07-.98,2.62,0,3.47,2.44-2.39,1.59-6.17,2.69-9.18ZM92.94,291.67l.32-6.01c-.46-.07-.44.56-.53.88-.32,1.16-.94,3.72-.5,4.74.2.45.08.48.72.39ZM87.56,286.29h-1.9c-.11,1.6-.7,2.66,1.11,3.48l.79-3.48ZM98.96,291.36l-1.28.53c.53,2.57-2.1,6.34,1.91,6.43.55-1.9-.63-1.78-.63-1.9v-5.07ZM109.04,305.34c-.07-.11-2.29-1.19-2.48-1l1.27,6.01.65-2.94c.74-.22.89-1.55.56-2.08ZM86.61,311.3c.34-1.95,1.27-3.5.32-5.38l-.63,3.64.31,1.74ZM91.99,314.31c.35-1.18-.25-3.84,0-5.22l-1.8,5.27.69,1.38c.11-.47,1.07-1.28,1.11-1.43ZM107.83,322.07l-.08-1.35-1.5-4.67.63,6.02h.95ZM100.22,329.35c-.6-2.02-1.21-4.14-1.98-6.09-.13-.34-.09-.94-.55-.87l-.26,2.62,2.78,4.35ZM92.31,329.67l-1.74-3.8c-1.5.62.86,3.44,1.74,3.8ZM106.56,335.37l-.41-3.86-1.17-4.37.41,3.86,1.16,4.37ZM94.21,338.54l.56-2.01-2.45-3.38c-.01.56.76,6.28,1.89,5.38ZM90.09,338.54c-.03-1.83-1.36-3.67-3.16-4.11l3.16,4.11ZM100.47,339.87l-2.31-1.96c-.24-.05-.2.31-.15.47.43,1.36,2.18,3.76,3.16,4.91l-.7-3.42ZM161.66,381.61c-.46-.39-4.11,3.41-5.41,1.77-.92-1.16.69-3.57.66-4.94-2.62,1.23-1.43,6.29-1.89,8.87,1.2-.32.14-2.13.94-2.53v15.69s.97,18.66.97,18.66v18.85s12.34-2.21,12.34-2.21c-.46-4.21.61-9.7-.02-13.76-.25-1.6-2.32-5.21-2.92-7.21-.55-1.84-1.31-4.88-1.49-6.75-.03-.34-.19-.87.31-.78.79,1.84,1.86,3.52,2.78,5.3.39.76.41.63.4-.09-.05-5.16-1.97-12.38-3.1-17.48-.29-1.32.05-2.89-.86-4.2l-3.8,3.48c-1.12.02-.83-4.36-.75-5.18.23-2.48,1.16-5.1,1.86-7.48ZM154.06,383.5l-1.39.3-.66-.93c-1.54,1.93-3.29,3.68-5.06,5.39-.92.89-4.14,3.18-4.62,3.93-.38.58-.33,1.11-.29,1.76,2.84-2.02,4.99-4.88,7.76-6.96.85-.64,3.61-2.02,3.95-2.38s.38-.6.31-1.11ZM183.51,390.79l-.63-6.33c-1.34,2.06-.12,4.09-.32,6.33h.95ZM154.37,385.72c-1.15-.08-1.15,1.29-1.72,1.92-.37.41-.97.58-1.29.93-2.59,2.79-5.03,6.17-8.63,7.68l.08,2.77c2.08-2.03,4.05-4.21,6.34-6.01.42-.33,3.72-2.75,3.95-2.54-1.41,1.6-2.55,3.46-3.95,5.07-1.05,1.21-5.63,5.35-5.85,6.49-.25,1.29.09,3.02.47,4.27,2.76-2.81,5.54-5.67,9.02-7.6l-3.63,4.75c-.94,1.04-4.71,4.28-5.07,5.07-.79,1.75.47,5.02.16,6.96l5.69-5.55,3.49-2.69c-2.17,4.61-6.37,7.76-9.11,11.94l.33,12.56c.33.78,1.95.75,1.52,2.53l-3.5.99,3.35,2.39.08.4c-.76,2-1.36,1.98-3.43,1.81,1.56,2.83-1.11.91-1.69,1.01-.35.06-.86.69-1.66.87-2.4.55-5.19.12-7.58.34-2.58.24-5.13,1.06-7.76.95.57.81,2.59.82,3.64.94,2.17.26,4.47.47,6.65.63,1.99.15,7.1-.99,4.9,2.05l-25.32,6.18c5.46-.28,11.22,1.97,16.62,1.58,4.37-.32,10.67-1.94,15.05-3,1.49-.36,9.54-2.3,9.98-3.01.42-1.02-.39-1.92-.49-3.01-.29-3.31.12-7.08.02-10.47-.37-11.54-.44-22.96-.32-34.49.05-4.93-.02-9.83-.33-14.74ZM178.76,397.12c-.13.96-.97,2.53-2.06,1.58-.66-.58-2.61-4.46-3.07-5.48l-2.47-7.18c-.04.79-.74,2.3-.65,2.96.03.21.59.17.64.41.28,1.18.17,3.64.32,5.01.73,6.44,1.67,12.85,2.23,19.3l-.33,2.07-2.53-25.8h-.64s2.58,29.09,2.58,29.09l.43.51c.32-.95,2.59-.32,2.69.17l-1.59,2.37-.47-.63-.48.79,3.17,18.99-.95.16-1.27-4.75c-.46,6.54,1.95,12.32,3.47,18.5l-.78.5-2.06-4.43c-.2,3.17-3.19,11.49-6.24,12.6-2.28.82-.09-2.08.54-2.63-1.34-.14-2.8,1.62-4.01,2.32-5.36,3.1-18.13,4.21-24.65,4.8-3.52.32-7.62-.02-11.05.35-.31.03-1.19.14-1.13.6,2.35.21,4.51,1.24,6.85,1.55,5.18.69,10.03-.47,15.15-.61,2.94-.08,5.75.31,8.55.34,1.53.02,10.27-.33,10.72-.05.74.46.34,1.48-.25,1.94l-5.07,2.21,14.42-2.37c.81-.03.63-.82.91-1.2.23-.31.72-.37.82-.54.24-.4-.18-.9-.11-1.36.12-.73,1.1-1.74,1.15-2.35.05-.57-1.04-1.1-1.16-1.91-.36-2.36,2.63-4.19,3.7-6-1.51-2.15-3.1-3.71-3.45-6.6-.36-3.02.82-2.86.97-4.1.17-1.41-.17-3.16-.02-4.61l-1.28-.2c.11-2.62-.09-5.26,0-7.88.4-11.58-.13-22.28-.94-33.87l-.63-4.59ZM304.48,416.12c-6.3-1.82-13.26-4.47-19.63-1.43,3.05,3.13,7.22.98,11.25,1.1,2.2.06,6.05,1.19,7.9.97.44-.05.94-.21.48-.64ZM271.86,413.9l5.55,4.44c1.97,0,2.06-2,3.31-3.02,0-.79-7.85-1.79-8.86-1.42ZM269.01,416.12c-2.51-2.32-5.44-.68-8.23,0,.18.9,1.81,0,2.06,0h6.17ZM284.21,416.44c-1.76-.92-2.94-.75-4.11.94l4.11-.94ZM326.01,417.7c-4.11-1.29-8.69-2.53-12.98-1.58l10.64,1.86,2.33-.27ZM298.93,417.7c-2.31-.23-4.93.17-7.28,0l-.44.5.29,1.4h7.76c.12,0,2.23-1.22,1.74-1.58-.75.29-1.56-.27-2.06-.32ZM237.18,419.28c2.56-.14,5.33,0,7.92,0,.21,0,1.6.88,1.74,0-2.73-.64-5.24-1.16-8.09-.97-.35.02-4.3.4-3.31,1.28.63.27,1.39-.3,1.74-.31ZM269.64,418.33h-6.81c-.83,0-3.82.9-4.79,1.23-.84.28-.74.42.05.36,3.03-.22,6.06-1.16,9.14-1l2.41-.59ZM311.76,420.23c-.86-1.42-2.1-2.16-3.8-1.89-.19.82.24.55.6.82,1.05.78,1.84,1.56,3.2,1.08ZM323.16,419.6c-3.7-.49-7.31-1.58-11.08-1.27,1.45,2.68,4.93,1.23,7.46,1.25.9,0,1.65.29,2.51.34.35.02,1.2.2,1.12-.33ZM360.52,424.99c-7.65-3.61-15.92-5.42-24.38-4.12.19.59.89.84,1.44.93,2.31.37,5.44-.16,7.89.02,4.39.33,9.25,1.86,13.06,4.05l1.98-.89ZM245.58,420.87c-3.33-.2-6.62.23-9.81,1.1,2.49,3.35,7.19.84,9.81-1.1ZM247.79,421.5c-1.01-.49-1.31.02-2.22.32l.64,1.58c.83-.28,1.58-.94,1.58-1.9ZM268.06,422.14c-4.14.11-8.47.69-12.41,1.99-.48.16-1.65.41-1.83.85l14.25-2.84ZM234.81,424.98l-2.1-2.15-3.91,1.21,2.46.9,1.66-.27-.32.63,2.22-.32ZM323.63,422.77c-3.06-.3-6.55.22-9.66,0-.07.56.72.3,1.1.32,3.58.14,7.23.21,10.77.64.25-.56-1.89-.92-2.21-.95ZM388.55,423.4c-1.63-.16-3.69,0-5.38,0-.05,0-.93.31-.79.63l20.1,5.71c.15-.55-.88-1.03-1.26-1.28-3.13-2.09-8.95-4.68-12.67-5.06ZM356.09,426.57c-5.31-2.2-11.02-3.15-16.78-2.85l4.37,2.75c3.52.87,6.96,1.83,10.65,1.34.33-.04,2.3-.66,1.76-1.24ZM340.25,425.94c-1.96-.9-3.07-2.05-5.38-1.27,1.27,1.14,3.57,1.58,5.22,1.9l.16-.63ZM370.34,425.3h7.28l-3.32-.65-3.96.65ZM229.43,425.94l-2.93-.9-5.3,2.47c2.37-.05,5.5-.26,7.77-.94.46-.14.55.18.46-.64ZM329.48,425.62c-2.44.64-4.72-.75-7.27-.32l3.64,1.26c.19.33.3,1.27.12,1.55-.2.31-1.55.05-1.54.67l3.66.54c.73-.79,1.09-1.74,2.35-1.8l-.96-1.89ZM284.84,426.57l-5.06-.95c-.22.86.65.71,1.2.84.79.19,1.95.39,2.75.43.35.02,1.2.21,1.11-.32ZM337.09,426.89l-3.8-.95v1.26c1.22-.2,3.02,1.07,3.8-.31ZM257.61,426.25c-1.79.31-3.62.66-5.38,1.11-.36.09-1.03-.02-.95.47,2.31-.05,4.76.56,6.33-1.58ZM315.87,428.47l-18.85.31-.47.63c5.9.46,11.37.9,17.21-.36l2.1-.59ZM378.26,429.1c-.41.4,2.62,4.87,3.32,5.38.57.42,4.53,2.22,5.22,2.4,1.1.29,1.41-1.23,1.14-2.1-.75-2.47-7.12-5.53-9.69-5.69ZM390.92,434.48c.53-3.33-3.11-4.63-5.7-5.38l5.7,5.38ZM336.24,430.58c-.17-.1-.29-.61-.6-.8-.9-.55-3.2-.66-3.61.44-.22.59.33.46.62.62,3.73,2.07,8.77,3.03,12.99,3.33.07-.46-.55-.42-.88-.53-2.84-.96-5.91-1.48-8.51-3.05ZM396.94,436.07c1.23,2.86-.26,5.62,1.26,8.41,3.64-.77,6.77-2.43,5.15-6.74-1.06-2.81-9.39-8.45-12.74-8,.48.89,1.59,1.37,1.83,2.44.3,1.32-.35,3.31-.02,4.11.45,1.12,2.76,2.97,3.26,4.37.47.44.35-.35.33-.64-.08-1.14-.57-2.25-.27-3.43l.25-.38.96-.14ZM322.52,430.37c-3.32.01-7.03,0-10.29.63-.46.09-.98,0-1.11.63,3.19.04,6.45-.18,9.61-.67.42-.07,1.72-.11,1.78-.59ZM361.47,431c-1.44-.28-2.52-.35-3.96,0-.47.12-.56-.23-.47.62l1.38.29,3.05-.92ZM235.76,432.27c-3.02.6-7.63-.64-9.81,1.58,2.73-.6,5.61-.53,8.35-.99.37-.06,1.47-.1,1.47-.59ZM322.21,432.59l-6.01.79,2.02.45,4-1.23ZM199.34,433.22c-3.05-.02-6.64.47-9.57,1.35-.4.12-1.45.38-1.51.86l8.69.66c.3-.05.12-.97.47-1.47.59-.84,2.04-.32,1.92-1.4ZM330.12,433.54l-7.91,1.42c1.21,2.05,3.64.06,5.46-.24l2.45-1.18ZM335.82,434.8c-1.43-1.38-3.15-1.69-4.12.32l4.12-.32ZM405.69,435.55c-.33-.36-3.07-2.28-3.37-2.01,3.5,3.15,5.13,8.82.21,11.45-.61.33-3.25,1.09-3.38,1.22-.65.67.93.63,1.13.92.22.33.12.89.14,1.29,1.68-1.2,4.74-3.18,5.45-5.15.63-1.73,1.09-6.33-.19-7.72ZM375.03,434.85c-.44.11-2.74.03-2.47.73.26.67,1.53,1.76,2.03,2.41.39.51,1.21,2.21,1.45,2.36.92.58,2.97-.9,4.11-.82-.1-1.97-1.59-4.41-3.79-4.42l.47,1.58-1.81-1.85ZM199.5,436.7c1.58.22,4,0,5.7,0,.22,0,1.76-.25,2.23-.31s.97-.05,1.1-.64l-9.81.32c-.12.32.66.61.79.63ZM374.46,441.13c.21-.27-3.41-5.04-3.8-5.23-.62-.31-3.05.09-3.16.65l2.85,5.39,4.11-.81ZM317.46,437.33c-1-1.95-3.74-.27-5.5-.31-.78,2.57,4.05.18,5.5.31ZM328.52,436.73l-6.63,1.71c-.53.39-.27,1.45-.31,2.06l7.28-2.54-.34-1.24ZM356.41,437.02h-7.12c-.93,0-2.04-1.14-1.4,1.25.35.33,4.7-1.46,4.74.97l3.79-2.22ZM368.44,442.08c.25-.24-2.21-6.29-3.48-5.38l-.3,1.37c1.65,1.08,1.88,2.14,1.24,4.01h2.53ZM307.32,438.92l-.83-1.19-2.34.24v.95s3.17,0,3.17,0ZM393.77,440.81l-2.37-3.16-.79,1.1,3.17,2.07ZM301.31,439.23c-.6-1.18-2.08-.96-3.16-.95l.53.89,2.64.05ZM395.35,445.24c.13-.47-.13-.53-.31-.79-.56-.83-5.3-4.63-6.02-4.42-.16.05-1.24.84-1.27.96,1.13,2.74,6.34,1.08,6.02,4.89l1.58-.64ZM307.32,440.82c-.34-.08-3.26-.07-2.85.79.98,1.21,2.99.92,2.85-.79ZM181.93,464.88c1.58-.58,3.24-.12,4.83-.39,2.65-.45,7.01-2.43,10.11-3.19,4.91-1.21,11.04-2.55,16.02-3.3,2.08-.31,5.25-.11,6.98-.62,1.36-.39,3.86-2.31,5.54-3.01,3.22-1.35,9.84-2.13,11.75-5.03.21-.32,2.2-4.16,2.27-4.4.39-1.28-.77-2.69-1.96-3.09l-5.01.56c-6.48-1.79-11.67-.61-18.07-.01-3.25.31-6.9.23-10.1.67-2.88.4-5.51,1.75-8.94,1.84-1.28.04-1.79-1.31-4.06-.91-1.7.3-2.39,2.1-3.2,2.21l-4.89-.64c.41,4.47,1.97,8.68,2.76,13.1.13,1.42-4.74,5.4-4.03,6.22ZM335.51,441.45l-10.21,3.24-3.72,2.14c3.49.38,6.46-1.82,9.61-2.89l4.32-2.49ZM353.56,442.72c-2.47.38-5.5,1.06-5.38,4.11.29.28,4.24-2.6,4.72-3.04.35-.32.8-.47.66-1.08ZM343.42,443.03c-.32-.26-4.53,2.58-5.06,3.16,1.53-.47,3.1-1.5,4.44-2.38.15-.1,1.24-.28.63-.78ZM380.79,443.67c-4.07-1.77-5.02.99-1.13,2.53l1.13-2.53ZM390.92,445.89c-1.13-.28-1.67-1.4-2.79-1.81-.99-.36-5.42-.79-5.93-.1-.34.47-.62,2.57-1.38,3.29l1.37,1.69c.73-.28,2.14-.23,2.7-.7,1.14-.95,1.1-4.36,4.28-1.18l1.75-1.17ZM294.66,443.98c-1.3.38-2.96-.06-3.79,1.11,1.38,1.51,3.33.74,3.79-1.11ZM171.48,451.58v-5.86c0-.15-.39-.49-.32-.79h-.31c-.33.7.31,1.71.31,2.06v4.59h.32ZM370.02,445.24l-3.78.65-.97,5.37,5.68-.64-.94-5.38ZM375.37,446.23l-4.08-.98c.86,1.92.62,5,3.64,3.8l.43-2.82ZM364.64,446.83l-1.88.49-5.08,5.2c4.4-.52,6.78-.5,6.97-5.69ZM340.46,451.79c.57-.53,1.83-2.51,2.26-3.28.16-.28.69-.8.22-1.04-3,2.04-6.09,3.55-7.76,6.96.23.19,4.79-2.19,5.27-2.64ZM395.99,448.1c-.67.13-1.4-.25-2.01-.21s-5,1.02-4,2.1c1.69-.6,4.03-.47,5.61-1.19.43-.2.5-.03.4-.71ZM356.41,448.74c-1.58-.28-2.93-1.26-3.8.63l2.31.92,1.49-1.55ZM245.26,448.42l-4.75,2.84c2.51-.08,3.51-.71,4.75-2.84ZM379.52,448.73c-.19-.2-3.08,1.27-2.85,1.58.82.23,1.52.5,2.32.03l.53-1.6ZM308.91,450.63c.75-1.85-2.36-2.09-2.84-1.1-.3.61.63.51.96.61s1.81.58,1.89.49ZM374.46,454.43c3.99.1,7.58-1.61,11.08-3.32-.62-.87-1.94-.14-2.77.08-1.94.5-5.86,1.52-7.54,2.28-.48.21-.89.33-.77.97ZM252.86,451.9c-1.28.06-3.06-.4-3.8.95h3.8s0-.95,0-.95ZM307.64,453.8c.69-.92-3.84-1.9-4.43-1.89,1.65,2.06,1.44,3.4,4.43,1.89ZM233.54,456.34l-6.19,1.89-3.31,1.59,8.35-1.31,1.15-2.17ZM375.41,458.24c-1.41-.23-4.58-.75-5.8-.02-.29.17-.55.9-1.01,1.28-.59.5-3.2,2.08-3.3,2.25-.06.1.51,1.55-.02,2.19,3.54-1.43,7.72-2.55,10.13-5.7ZM367.49,458.24c-4.34-.06-8.73-.05-12.98.95.14.67,1.21.28.91,1.38-.92.54-2.14,2.06-2.9,2.49-2.92,1.63-7.64,1.42-10.76,2.22-.46.12-1.05.36-1.18.87,4.75,0,9.06-.69,13.41-2.58.92-.4,4.87-2.73,5.17-2.76.74-.07,1.04.91,1.08,1.51l2.5-.76c-.69-.65-1.8-.84-1.58-2.06,1.17-.46,2.37,1.26,3.19,1.12.79-.14,2.6-1.67,3.14-2.38ZM321.57,459.82c.55.98,3.89,1.92,3.73.15-.13-1.43-2.9.04-3.73-.15ZM262.04,463.3c-1.32-.59-.89.25-1.5.64s-1.67.44-1.99,1.25l3.15.3.33-2.2ZM360.21,464.57c-2.73.55-5.53,1.05-8.23,1.75-.36.09-1.03-.02-.95.47,3.07.49,5.62-.7,8.44-1.54.52-.16.89.25.74-.67ZM301.62,466.15c-1.58-.19-3.31-.52-4.91-.32-.44.06-.98.22-.47.63l2.69.35,2.69-.66ZM261.09,467.1c-1.76.16-3.85-.95-5.51-.92-.45,0-4.94.82-4.94,1.07,2.38,1.29,5.7.76,8.36.44.46-.06,1.92-.16,2.09-.59ZM329.15,468.71c-.16-.15-2.98-.41-3.46-.02,1.23,1.38,3.08,1.42,2.22,3.79h4.11s-2.36-1.91-2.36-1.91c-.52-.34-.4-1.76-.51-1.86ZM194.28,471.54c.12.57.62.59,1.1.64,4,.43,8.33.34,12.37.63,1.96-.87,5.38.81,5.79-1.77-.04-.38-.88-.51-1.21-.62-1.16-.39-6.38-1.56-7.44-1.61-.85-.04-1.45.86-2.23,1.13-2.38.84-5.86,1.05-8.39,1.59ZM370.97,469l-3.02.62-2.68,1.27,3.41-.86,2.29-1.03ZM267.74,470.9c-2.28-1.14-4.25-.07-6.48,0-2.89.1-5.96-.44-8.72.46.82.52,2.69.75,3.65.79,2.79.12,6.95.07,9.67-.46.47-.09,1.75-.27,1.88-.81ZM278.03,474.38c2.49.35,6.49,0,9.18,0,.11,0,.47-.42.79-.32-.81-.97-.8-1.24,0-2.21l-5.38-.32c2.54,4.14-3.27,1.95-5.38,2.22-.12.32.66.61.79.63ZM237.02,472.8c.09-.88-.7-1.06-1.41-.96l-2.7,1.59,4.11-.63ZM315.87,471.85l-1.59.15-2.84,1.43c1.4-.14,3.45-.55,4.43-1.58ZM226.89,473.75c-3.2-.27-6.05-1.2-9.19.16,2.59.9,5.39.99,8.07.47.46-.09.98,0,1.11-.63ZM240.18,473.44c-1.91-.09-3.84.02-5.7.45-.29.07-2.56.46-1.89,1.12,4.47,1.14,8.96,2.42,13.62,2.53l-.34-1.87-5.37-.8-.31-1.43ZM322.52,473.75l-6.14-.29-4.3,1.56c3.3-.33,6.69-.24,9.98-.63.47-.06.96-.25.47-.63ZM334.24,473.43c-2.13.48-5.03.13-6.16,2.22l-2.7,1.57c2.35-.42,5-1.12,7.13-2.21.22-.11,2.29-1.1,1.74-1.59ZM267.42,474.7c-.66-.05-1.31,0-1.97.09-.31.04-1.26.09-1.19.54l2.84.64.32-1.27ZM320.62,475.65c-1.45-.27-2.91.28-4.26.33-4.23.15-8.85-.35-13-.01-.37.03-1.42.1-1.42.63l9.67.33,9.01-1.28ZM251.59,477.23c-.71-1.56-2.71-.79-4.12-.94.88,1.83,2.48,1.26,4.12.94ZM263.31,477.24c-1.88.47-4.86-.63-6.49-.32-.54.1-.89.34-.79.95l2.04.33,5.24-.96ZM280.41,478.19l-6.33-.63,3.66,1.56c.74-.17,2.27-.2,2.67-.93ZM308.59,479.77l-12.66-1.58c.17.51,1.45.61,1.96.73,2.72.64,5.85,1.03,8.64,1.18.42.02,1.98.23,2.07-.33ZM266.79,483.57c-.13-.63-.65-.54-1.11-.63-4.63-.88-4.65-1-8.62-3.1-2.28-1.2-2.97-.34-5.15.25-.41.39,4,2.21,4.45,2.36.7.23,3.77,1.12,4.26,1.12h6.17Z"/>
    <path d="M95.4,101.74c1.86-.36,5.64,2.05,5.77,3.91.17,2.59-1.94,5.74-4.34,6.71-5.84,2.35-7.5-9.45-1.42-10.63Z"/>
    <path d="M155.3,268.84c-3.04.38-1.76-5-1.34-6.88.99-4.51,3.07-9.56,6.12-13.04-1.13,4.46-3.03,8.82-3.9,13.36-.44,2.28-.47,4.33-.88,6.56Z"/>
    <path d="M184.46,301.49l3.53,9.93c.87,1.88,1.89,3.68,3.43,5.11-1.56,1.48-3.41-.8-4.24-2.09-.86-1.33-2.72-6.26-2.72-7.73v-5.22Z"/>
    <path d="M203.77,323.34c-2.18.29-4.12-2.5-5.12-4.22-1.73-3-2.36-6.27-2.48-9.71l3.86,8.01c.88,2.25,3.8,3.45,3.74,5.92Z"/>
    <path d="M170.85,288.19l.94-.95c-.89,3.27.34,6.66-.36,9.77-1.44.47-1.46-.66-1.76-1.79-.93-3.52.08-6.49.86-9.88l.32,2.85Z"/>
    <path d="M162.61,268.56l.33,3.02c-.5,1.16-.17,7.03-1.72,6.78-1.83-.3-.27-6.13.19-7.36.32-.86,1.1-1.48,1.2-2.44Z"/>
    <path d="M184.46,359.75c1.24-.16,2.56,1.73,2.77,2.76.29,1.4-.44,6.46-1.51,3.73-.32-.82-1.64-6.09-1.27-6.49Z"/>
    <path d="M121.44,329.35c-.35,1.25-3.19,7.25-4.58,6.97-.53-.11-.51-.77-.32-1.26.71-1.78,3.42-4.43,4.9-5.71Z"/>
    <path d="M124.29,340.75c-1.32-1.35,4.62-3.81,5.7-3.8.54.53-3.12,3.3-3.61,3.51-.75.32-1.28.39-2.08.29Z"/>
    <path d="M166.09,288.5c-2.7.04-1.86-5.76-.16-6.96l.16,6.96Z"/>
    <path d="M191.7,362.24h-1.19s-.98-5.33-.98-5.33c1.68-.1,3.13,4.75,2.17,5.33Z"/>
    <path d="M144.56,126.69c-.05.93.16,1.96-.14,2.87-.58,1.78-2.93,1.58-2.25-.98.34-1.29.95-2.31,2.39-1.89Z"/>
    <path d="M175.59,300.22c-.3-.28-.75-5.89.63-6.33-.08,1.76,2.05,6.29-.63,6.33Z"/>
    <path d="M133.47,342.02c.62,1.76-3.98,4.33-4.42,2.67-.31-1.2,3.46-2.46,4.42-2.67Z"/>
    <path d="M143.54,146.89c-.27.23-2.73.65-2.77-.08.03-1.25,3.41-4.07,3.79-2.21.03.12-.93,2.21-1.02,2.3Z"/>
    <path d="M73.63,93.45l-4.1,3.02c-.39.31-1.25.03-1.27-.33-.06-.9,4.21-3.32,5.37-2.69Z"/>
    <path d="M146.78,113.4c.16,1.73-2.16,2.25-3.44,1.53l.14-1.57c1.15-.54,2.15-.14,3.3.04Z"/>
    <path d="M213.2,324.03c.16.27.05.6.07.89-2.81.37-2.88-2.33-3.16-4.43l2.22,3.02c.14.28.8.4.87.53Z"/>
    <path d="M133.79,175.78l-.14.97c-5.65,1.28-5.73-1.69.14-.97Z"/>
    <path d="M139.8,156.15c1.26,1.61-2.43,3.43-2.84,2.04-.32-1.07,1.91-2.13,2.84-2.04Z"/>
    <path d="M133.68,167.26c.76-.1,2.67.27,2.32,1.39-.56.94-2.85.28-2.85-.63l.53-.76Z"/>
    <polygon points="129.36 189.71 129.22 190.68 128.83 190.93 125.88 190.66 126.03 189.7 129.36 189.71"/>
    <path d="M195.3,358.41c-.44-.55-.38-2.34-.38-3.09,1.13.6,2.31,2.34,1.11,3.48-.16-.25-.59-.22-.72-.39Z"/>
    <path d="M147.73,95.98c.27,1.54-.86,1.98-2.22,1.9l.36-1.85,1.86-.04Z"/>
    <path d="M74.89,84.9l-2.52,1.76-.96-.34c.45-1.54,2.22-1.51,3.48-1.42Z"/>
    <path d="M123.98,225.18c.19.17-2.8,3.61-3.16,3.96-.9.86-2.59,2.5-3.8,2.37-.82-.82,3.09-4.01,3.82-4.56.4-.31,2.84-2.03,3.14-1.77Z"/>
    <path d="M120.49,223.59l-4.74,4.59c-.29.4-.91-.11-.96-.33-.22-1.11,4.17-4.92,5.7-4.26Z"/>
    <path d="M123.34,233.41c.36.33-3.02,3.54-3.62,3.82-1.34.64-2.13.29-.92-.92.51-.52,4.07-3.33,4.54-2.9Z"/>
    <path d="M120.18,243.54c0-1.98,2.01-2.99,3.48-3.8.25.27-2.67,4.59-3.48,3.8Z"/>
    <path d="M145.51,422.13c-.14-.6.34-.75.63-1.11.98-1.19,2.32-2.29,3.48-3.32-.33,1.03-1.32,2.4-2.05,3.17-.55.58-1.11,1.42-2.06,1.26Z"/>
    <path d="M75.84,237.52c-1.54.46-7.21-3.34-6.97-4.58.1-.53.78-.5,1.26-.32,1.41.55,4.59,3.68,5.71,4.9Z"/>
    <path d="M72.99,240.37c-1.28.11-2.05-.93-2.84-1.74l.62-.65c.55-.26,2.57,1.51,2.22,2.39Z"/>
    <path d="M73.62,229.3c.09.55-.72.31-1.03.24-.88-.21-2.08-.73-2.13-1.83,1.56-.36,1.83,1.33,3.16,1.59Z"/>
  </g>
  <g>
    <g>
      <path d="M425.76,358.44h24.46v3.83h-20.1v10.95h18.26v3.68h-18.26v12.16h20.68v4.02h-25.04v-34.63Z"/>
      <path d="M481.06,358.44h4.6l15.79,24.07c1.16,1.79,2.52,4.46,2.52,4.46h.1v-28.53h4.07v34.63h-4.46l-15.89-24.12c-1.11-1.7-2.57-4.31-2.57-4.31h-.1v28.43h-4.07v-34.63Z"/>
      <path d="M537.62,358.44h27.41v3.83h-11.53v30.81h-4.36v-30.81h-11.53v-3.83Z"/>
      <path d="M594.51,358.44h24.46v3.83h-20.1v10.95h18.26v3.68h-18.26v12.16h20.68v4.02h-25.04v-34.63Z"/>
      <path d="M649.8,358.44h16.18c6.1,0,10.22,3.83,10.22,9.49,0,4.21-1.84,7.22-6.01,8.57v.15c3.54,1.26,4.65,3.68,4.99,8.82.39,5.57.97,6.97,1.6,7.41v.19h-4.7c-.73-.63-.87-1.94-1.26-7.75-.34-5.09-2.37-6.88-7.03-6.88h-9.64v14.63h-4.36v-34.63ZM654.16,374.91h10.27c4.84,0,7.27-2.42,7.27-6.35,0-4.21-1.94-6.34-7.03-6.34h-10.51v12.69Z"/>
      <path d="M703.75,358.44h27.41v3.83h-11.53v30.81h-4.36v-30.81h-11.53v-3.83Z"/>
      <path d="M766.26,358.44h4.89l12.79,34.63h-4.75l-3.68-10.56h-13.8l-3.73,10.56h-4.45l12.74-34.63ZM762.96,378.98h11.33l-3.97-11.62c-.68-1.94-1.55-4.89-1.55-4.89h-.1s-.92,2.91-1.6,4.89l-4.12,11.62Z"/>
      <path d="M812.93,358.44h4.36v34.63h-4.36v-34.63Z"/>
      <path d="M849.06,358.44h4.6l15.79,24.07c1.16,1.79,2.52,4.46,2.52,4.46h.1v-28.53h4.07v34.63h-4.46l-15.89-24.12c-1.11-1.7-2.57-4.31-2.57-4.31h-.1v28.43h-4.07v-34.63Z"/>
      <path d="M907.79,358.44h5.57l11.24,28.77h.09l11.14-28.77h5.67v34.63h-4.17v-28.48h-.1s-.92,2.71-1.55,4.36l-9.49,24.12h-3.34l-9.49-24.12c-.68-1.74-1.55-4.36-1.55-4.36h-.1v28.48h-3.92v-34.63Z"/>
      <path d="M973.16,358.44h24.46v3.83h-20.1v10.95h18.26v3.68h-18.26v12.16h20.68v4.02h-25.04v-34.63Z"/>
      <path d="M1028.46,358.44h4.6l15.79,24.07c1.16,1.79,2.52,4.46,2.52,4.46h.1v-28.53h4.07v34.63h-4.46l-15.89-24.12c-1.11-1.7-2.57-4.31-2.57-4.31h-.1v28.43h-4.07v-34.63Z"/>
      <path d="M1085.01,358.44h27.41v3.83h-11.53v30.81h-4.36v-30.81h-11.53v-3.83Z"/>
    </g>
    <g>
      <path d="M419.88,181.54c-2.78.18-3.9-3.16-5.57-4.83-.93-.93-2.04-1.67-2.79-2.41-1.3-1.11-2.04-2.6-3.34-3.34-4.09-2.6-10.22-5.39-15.04-5.39-2.97,0-8.54,2.04-9.84,4.83-.37.56-.93,8.91-.93,10.03,0,1.86.55,3.53.93,5.2.18,2.04,0,3.9.37,5.76.74,2.6,2.41,4.46,3.35,6.69,1.11,2.79,1.3,5.57,2.41,8.17,1.86,4.09,4.83,7.43,6.68,11.51,1.49,3.16,2.79,6.69,3.9,10.03.74,2.41,1.11,5.01,2.41,7.24.37.93,1.49,1.67,1.86,2.79,1.3,3.53,1.12,7.43,1.86,10.96.37,1.67,1.11,2.79,1.11,4.46,0,2.23-.56,4.46-.56,6.5v7.99c0,4.27-.18,9.47-2.41,13.19-1.11,1.67-3.16,2.6-4.27,4.27-1.67,2.04-3.34,4.09-4.83,6.13-1.86,2.6-4.83,4.27-7.24,6.31-1.86,1.67-3.53,3.53-5.57,4.83-.74-.18-1.49-.37-2.23-.37-3.72,0-4.83,2.6-7.43,3.16-1.3.37-2.78,0-4.09,0-1.49,0-2.97.56-4.64.56-1.48,0-3.71-1.86-5.2-2.41-1.49-.74-3.34-1.11-4.64-2.04-.93-.37-1.3-1.3-2.04-1.86-.74-.37-1.67-.37-2.41-.93-3.53-2.6-9.66-8.54-9.66-13.37,0-2.04,1.49-4.46,3.72-4.46,4.46,0,6.68,9.1,9.84,11.7,1.86,1.3,4.09,1.3,5.76,2.79,1.11.93,5.76,3.34,7.24,3.34,2.41,0,4.83-1.3,7.06-2.41,4.46-1.86,6.5-2.79,10.03-6.13,3.53-3.53,7.24-9.1,7.24-14.12,0-6.69-3.53-14.3-4.83-20.8-.55-2.6-.37-5.2-.93-7.62-1.11-4.09-3.53-7.61-4.27-11.51-.56-2.23-.74-4.64-2.41-6.31v-.93c0-2.23-1.12-3.34-1.86-5.2-1.86-5.02-5.01-9.29-6.68-13.93-.37-.93-.56-1.86-1.11-2.79-.74-1.86-2.41-3.16-2.79-5.39-.37-1.49,0-2.97,0-4.46,0-2.04-.37-4.09-.37-6.13,0-5.39,1.48-13.93,5.2-18.01.18-.37.56-.56.93-.93.74-1.11.74-2.42,1.49-3.34l.93-.56c1.49-3.53,7.62-5.76,10.4-8.54h3.35c2.6,0,5.94,0,8.17-1.49,5.01.56,8.54,3.53,12.44,6.31,4.64,3.16,8.91,4.83,11.89,10.03.74,1.11,1.86,2.6,1.86,4.09,0,1.3-.74,2.41-1.86,2.97l-.56.19Z"/>
      <path d="M493.44,271.24c0,1.11.18,2.23.18,3.34,0,4.09-4.64,6.69-8.17,6.69-2.97,0-4.83-1.49-6.87-3.34-4.27-4.46-2.78-8.54-2.78-13.93,0-6.87-1.3-13.74-2.41-20.62-.74-4.27-1.67-7.24-3.9-10.96-1.3-2.41-2.41-4.83-5.57-4.83-3.53,0-7.25,5.39-9.66,7.61-2.97,2.6-4.09,4.09-4.27,8.17-2.41,2.41-4.09,5.2-5.39,8.17-.74,1.67-.55,5.2-.93,7.24-.37,1.49-1.11,2.97-1.49,4.64-.18,1.86-.18,3.71-.18,5.76,0,4.64.56,9.29.56,13.93,0,2.97-.56,4.64-2.6,6.69-1.67,1.49-5.38,3.72-7.8,3.72-1.3,0-3.9-.37-4.27-1.86h-.56c-3.16,0-3.16-11.89-3.16-13.74-.18-2.41-1.11-4.46-1.11-6.87,0-2.04.37-4.27.37-6.5,0-2.97-1.3-5.57-1.3-7.61,0-1.67.56-3.34.56-4.83,0-7.43-2.04-14.49-2.04-21.92,0-1.86.56-3.53.56-5.39,0-2.23-1.12-4.46-1.49-6.69-.18-2.6-.18-5.01-.18-7.61,0-6.13.55-12.44.55-18.57,0-2.04-.18-3.9-.37-5.94,0-1.67-.74-3.16-.93-4.64-.19-2.04.18-3.9.18-5.94,0-3.34-2.04-6.13-2.04-9.47,0-2.41.93-5.01.93-7.61,0-3.53-1.12-6.87-1.12-10.4,0-.93.18-2.04.74-2.97,1.11-.37,2.04-1.49,3.34-1.49,1.67,0,3.34.18,4.64,1.49,4.27,4.09,4.46,12.26,5.39,17.64.18,1.11.37,2.23.37,3.34,0,1.67-.37,3.16-.37,4.83,0,2.04,1.49,4.64,1.86,6.69.18,1.3.37,2.6.56,3.9.93,6.69.37,13.56.93,20.43.37,5.76.93,11.51.93,17.27,0,2.41-.55,4.64-.55,7.06,0,2.23,1.11,4.27,1.11,6.69,0,1.67-.56,3.53-.56,5.39,0,.74.19,1.67.37,2.41,3.53-.37,3.34-4.46,4.46-6.69,2.04-1.86,4.27-3.34,6.13-5.39,1.86-1.86,2.97-4.27,4.83-6.13,4.09-4.46,9.29-9.1,15.79-9.1,7.43,0,14.49,5.76,17.64,12.44.74,1.67.74,3.9,1.49,5.76.56,1.67,1.86,2.97,2.41,4.83.56,1.67.37,3.72.93,5.57.74,3.53,1.86,7.06,2.41,10.59.18,1.86,0,3.9.37,5.76.56,2.42,2.04,4.83,2.04,7.43,0,1.86-.56,3.72-.56,5.57Z"/>
      <path d="M551.76,235.21c-.18,3.34-1.67,6.5-1.67,9.66,0,1.86.37,3.71.37,5.57,0,2.6-.55,5.01-1.3,7.43-.56,1.3-1.3,2.41-1.67,3.71-.37,1.67-.19,3.34-.56,4.83-.18,1.3-.93,2.41-1.12,3.71-.18,1.86.19,3.72.19,5.57,0,2.6-1.3,4.46-1.67,6.87-.37,2.23-.19,7.99-.74,9.66-1.12,2.79-4.83,8.54-8.17,8.54-3.53,0-8.17-3.9-8.17-7.61,0-2.41,1.3-4.46,1.3-6.69,0-.74-.19-1.49-.37-2.23.93-2.6,1.67-3.16,1.67-6.13,0-.93-.18-2.23-.55-3.16-.93-.37-1.86-.56-2.79-.56-3.16,0-6.13,1.49-9.29,1.49-2.41,0-4.83-.37-7.06-.37-1.48,0-2.97.19-4.46.19-.56,0-1.12,0-1.67-.19-2.41-.56-12.26-9.66-13-11.7-.18-.93-.37-2.04-.37-2.97,0-3.16,1.67-5.76,3.16-8.36.93-1.67,1.86-4.09,3.16-5.39.55-.74,1.86-.93,2.6-1.67.93-.56,1.3-1.49,2.23-2.04,3.9-2.79,9.1-4.09,13.74-4.09,1.3,0,2.79,0,4.09.18,2.79.56,4.83,2.23,7.43,3.34.93.37,3.71.56,4.27,1.11.37.19.56.56.56.93.93.37,1.86.18,2.78.56,1.86-1.49.93-5.02.93-7.24,0-3.72,1.11-7.43,1.11-11.33,0-4.83-3.53-15.97-9.1-16.9h-1.3c-4.64,0-7.06,4.27-12.63,4.27-3.9,3.34-6.13,6.31-10.77,8.73-.93.37-2.04,1.49-3.16,1.49-.37,0-.74-.18-1.11-.56-.56-.74-.93-1.67-.93-2.6,0-5.2,5.76-7.24,7.24-10.77,1.11-.37,2.04-.93,2.78-1.67l.56-.93c1.49-.74,3.34-1.3,4.83-2.23.56-.37.93-1.11,1.49-1.67,2.97-1.67,8.36-2.79,11.89-2.79,2.23,0,7.06.37,9.1,1.3.74.18,1.11.74,1.67,1.11,3.53,1.48,5.57,2.79,7.99,5.76,4.83,5.76,6.68,14.49,6.68,21.73,0,1.3,0,2.79-.18,4.09ZM528.17,255.09c-2.78-2.79-12.26-4.46-16.16-4.46-3.53,0-8.17.93-8.17,5.39,0,2.97,2.04,7.06,4.46,8.73,2.41,1.67,6.13,1.49,9.1,1.67,1.67.19,3.34.56,5.01.56,2.97,0,6.68-.56,8.36-3.16l.19-1.11c0-2.6-.93-5.76-2.79-7.61Z"/>
      <path d="M623.64,172.25c-.93,5.57-.18,11.33-.93,16.9-.18,1.3-.74,2.23-1.11,3.53,0,.93.18,2.04.18,3.16,0,2.6-1.11,5.39-1.11,8.17-.19,6.31-1.3,12.63-1.86,18.94-.18,1.86-.93,3.53-.93,5.39,0,1.11.37,2.04.37,3.16,0,1.3-.74,1.67-.93,2.79-.74,3.16-.18,6.69-.55,10.03-.37,3.16-1.67,6.13-1.86,9.47-.37,2.79-.18,5.57-2.04,7.8-.18,3.53,0,7.06-.56,10.59-.37,1.67-1.11,3.16-1.49,4.83-.93,4.46-.56,11.89-2.97,15.42-2.41,1.3-5.76,1.48-8.54,1.48-2.04-2.23-4.46-3.9-4.46-7.43,0-3.16,1.67-6.13,1.67-9.47,0-.93-.18-2.04-.56-2.97-.55-.18-1.11-.18-1.48-.18-1.86,0-3.35.93-5.02,1.3-2.97.37-5.94.37-8.73.37-2.6,0-5.2,0-7.61-.37-1.3-.37-2.41-1.11-3.53-1.49-1.11-.56-2.41-.37-3.53-1.11-1.12-.56-1.86-2.04-2.97-2.97-2.41-2.23-5.94-4.09-7.99-6.87-2.6-4.09-4.64-10.22-4.64-14.86,0-5.57,2.78-8.91,5.2-13.56.55-1.11.74-2.41,1.48-3.34,2.04-2.97,7.25-6.5,10.4-7.99,1.11-.56,2.41-.56,3.53-1.11.93-.19,1.49-1.11,2.41-1.49,1.49-.37,8.17-.93,9.66-.93,2.97,0,5.39,2.41,8.54,2.41.93,0,1.86-.19,2.79-.37,3.34,1.3,4.46,5.57,7.8,6.87,2.97-2.97,3.16-7.99,3.53-11.89,1.11-9.47,1.11-19.32,2.97-28.79.74-3.34,2.6-6.5,2.6-9.84,0-1.11-.56-2.04-.56-3.16,0-1.67,1.12-3.53,1.49-5.39.74-4.27.18-16.9,6.31-16.9,3.53,0,6.5,6.69,6.5,9.66,0,3.34-.93,6.87-1.49,10.21ZM596.34,237.81c-1.3-2.6-3.16-3.9-4.83-5.94-.56-.56-.56-1.49-1.12-2.04-.93-1.3-5.94-2.6-7.61-2.6-.56,0-.74,0-1.3.19-3.53,1.3-9.66,1.67-11.89,5.01-.56.74-.74,2.04-.93,2.97-1.11,2.97-1.67,6.13-1.67,9.1,0,4.27,1.86,5.76,3.53,9.29.37.74.56,1.67,1.12,2.41,1.11,2.23,4.46,6.5,6.87,7.43,1.67.56,3.72.56,5.39.56,7.06,0,10.96-1.67,13.93-7.99.93-1.67,1.67-3.53,1.67-5.39,0-2.97-1.67-10.22-3.16-13Z"/>
      <path d="M673.61,272.54c-1.11,1.11-2.04,2.6-3.34,3.34-1.67,1.11-3.9,1.67-5.76,2.41-1.49.74-3.72,2.04-5.2,2.41s-3.16,0-4.64,0c-1.86,0-3.71.37-5.57.37s-3.53-.56-5.2-1.86c-5.02-.37-10.03-2.23-13.75-5.76-.74-.56-.93-1.3-1.48-1.86-.56-.37-1.3-.56-1.86-.93-5.76-4.27-6.87-8.73-6.87-15.6,0-6.5,3.34-12.26,6.31-17.83.19-.56.19-1.11.56-1.48.56-.74,1.67-1.11,2.41-1.86,1.3-1.49,2.04-3.53,3.72-4.83.56-.56,1.3-.56,1.86-.93,1.12-.74,1.86-2.42,2.97-2.97,3.53-1.86,9.66-2.23,13.56-2.23,7.8,0,18.57,2.6,22.66,10.03.93,1.3,1.3,2.6,2.41,3.71,1.49,1.3,3.34,2.23,4.46,3.9.19.37.19.93.37,1.3,1.67,3.53,2.23,7.06,2.23,10.96,0,8.73-3.72,13.93-9.85,19.69ZM668.42,243.94c-.56-.56-1.12-.93-1.49-1.48-1.67-1.86-2.79-5.39-5.2-6.13-1.3-.56-11.89-2.97-12.81-2.97-1.11,0-4.09,2.23-5.01,2.97-.74.56-1.49.93-2.41,1.3-5.2,2.97-6.31,5.57-6.31,11.7,0,4.46,1.67,7.61,4.46,10.77,1.67,1.86,6.13,6.87,8.17,7.61,3.16,1.3,7.99.74,11.51,1.11,2.6-1.67,6.31-4.46,7.62-7.24l.93-.56c.56-.74.56-1.86.93-2.79,1.3-2.97,2.23-2.79,2.23-7.06,0-2.6-1.11-5.2-2.6-7.24Z"/>
      <path d="M800.85,232.98c-1.12,2.23-1.3,4.83-2.23,7.06-1.12,2.41-5.02,9.84-6.5,12.07-2.23,3.53-4.27,4.64-4.27,9.1v.56c-3.34,4.27-5.39,9.47-8.17,14.3-1.49,2.23-2.97,4.09-4.64,6.13-.18.37-.37.93-.37,1.3,0,.56.18,1.11.18,1.86,0,4.64-6.69,4.64-10.03,4.64-3.9,0-4.46-1.86-6.68-4.64-2.41-2.79-2.97-5.39-4.27-8.73-.55-1.11-1.3-2.04-1.86-3.16-.37-1.3-.37-2.79-.93-4.27-.74-2.23-2.04-4.46-2.97-6.87-.56-1.11-.74-2.41-1.3-3.72-1.3-2.6-2.41-5.01-3.34-7.8-.18-.93-.37-1.86-.74-2.79-.18-.74-.74-1.11-1.11-1.86-.93-2.23-.18-6.31-3.16-7.24-2.79,1.3-2.04,3.9-2.04,6.31,0,3.9-4.64,15.04-6.87,18.57-1.12,1.67-2.6,2.97-3.53,4.64-.56,1.11-.56,2.41-.93,3.53-1.11,2.41-2.79,4.64-4.09,7.06-.93,1.49-2.23,6.5-2.6,8.36-.18,1.3-.18,2.79-.55,3.9-1.3,4.09-6.31,5.02-10.03,5.39-2.23-.93-2.78-3.53-3.9-5.39-1.11-1.86-2.6-3.71-3.53-5.94-.74-1.67-.37-3.71-.93-5.57-.37-.93-1.12-1.49-1.3-2.23-.18-.93,0-2.04-.18-2.97-.74-2.23-1.67-4.27-2.6-6.5-.93-2.04-1.48-4.27-2.23-6.5-.37-1.11-.93-2.41-1.3-3.71-.18-1.3,0-2.79-.37-4.27-.37-1.49-1.49-2.97-1.86-4.46-.37-1.3-.18-2.6-.37-3.9-.37-.93-.93-1.86-1.3-2.79-.74-2.04-.93-4.46-1.67-6.5-.37-.93-.93-1.86-1.11-2.79-.19-.18-.19-.37-.19-.74,0-.74.19-1.67.19-2.41,0-3.53-2.79-6.87-2.79-10.77,0-.56,0-1.11.18-1.67,1.3-1.3,4.09-2.04,5.94-2.04,1.11,0,2.04,0,2.6,1.11,2.41.93,3.16,2.97,4.27,4.83,1.12,1.86,2.41,3.71,2.97,5.57.37,1.3.18,2.6.37,3.71.55,1.67,1.86,2.97,2.41,4.64.55,1.49.55,3.16.93,4.64.37,1.48.93,2.79,1.49,4.27,1.49,5.02,1.86,13.19,5.57,17.27.18,1.86.74,6.87,3.53,6.87,3.34,0,3.9-3.71,5.2-5.94.55-1.11,1.86-1.86,2.6-3.16.56-1.11.74-2.6,1.49-3.9,1.3-2.41,2.78-4.64,4.09-7.24.93-1.86,1.3-4.09,2.23-5.94.37-.56,1.11-1.11,1.3-1.49.74-1.67.18-4.46.74-6.5.74-2.23,2.6-4.09,3.34-6.5.55-2.04-.19-4.46,1.11-6.31,2.04-1.11,4.09-2.41,6.31-2.41,1.3,0,2.6.37,3.72.93,3.9,1.67,5.39,5.76,7.24,9.29,1.67,3.53,3.16,7.06,4.83,10.59.74,1.67.93,3.53,1.49,5.2.18.56.93,1.11,1.11,1.67.56,1.67.37,3.53,1.12,5.2.55,1.67,1.49,3.16,2.23,4.64,1.48,2.97,3.15,6.13,4.27,9.1.56,1.3.56,4.09,2.41,4.09,2.6,0,2.97-2.42,3.9-4.09,2.41-1.86,3.53-6.13,4.83-8.73,1.49-2.97,3.72-5.57,5.57-8.17.93-1.49,1.3-3.16,2.41-4.64,1.86-2.97,6.87-11.14,6.87-14.67,0-1.86-.37-3.53-.37-5.39s.37-5.39,1.86-6.69c.74-.74,3.34-1.86,4.46-1.86,5.02,0,6.31,6.5,6.87,10.21-.93,2.97-3.72,4.64-5.01,7.24Z"/>
      <path d="M961.34,219.8c-.37,1.67-1.11,2.97-1.11,4.46,0,1.3.18,2.41.18,3.71,0,3.16-1.86,4.46-2.41,7.24-.56,2.04-.18,4.27-.18,6.5,0,4.83-2.41,7.06-4.64,11.14-2.23,4.09-3.34,7.8-6.13,11.89-1.49,2.23-3.16,4.09-4.46,6.31-.37.56-.55,1.3-.93,1.86l-.93.56c-1.49,3.34-3.9,3.16-5.76,5.2-.74.93-.74,2.04-1.3,2.97-.56.74-5.2,5.2-5.76,5.57-1.67,1.11-3.9,1.3-5.76,2.04-4.46,1.86-11.14,6.13-15.79,6.13-1.67,0-11.89-2.97-13.93-3.71-3.34-1.3-9.47-5.2-12.44-5.39-2.41-2.79-6.5-3.16-7.05-7.61-1.49-.74-2.97-1.11-4.46-1.86-.74-1.3-1.3-3.34-2.23-4.27-.93-.74-1.86-.19-3.9-2.97-.74-.93-.93-2.23-1.49-3.34-1.49-2.97-4.46-5.39-5.76-8.54-1.3-3.34-5.39-24.89-5.39-28.6,0-5.02,2.79-8.54,2.79-12.63,0-.56,0-1.3-.19-1.86,2.23-2.97,3.35-5.94,4.27-9.47.93-3.53,2.41-6.13,4.27-9.1,1.12-1.67,2.79-3.16,3.9-4.83.74-1.11,1.12-2.41,1.86-3.34,1.11-1.3,2.6-2.23,3.9-3.34,3.9-3.9,7.62-8.17,12.44-10.96,1.3-.93,2.79-1.67,4.27-2.41.37-.19,1.11-.19,1.48-.56.19-.18.37-.56.37-.93,1.49-.74,3.34-1.11,4.83-1.86s2.79-1.86,4.27-2.41c4.46-1.86,12.82-3.16,17.65-3.16,3.9,0,9.28.19,13,1.3,3.16.74,6.13,2.97,9.1,4.27,2.41,1.11,7.61,2.41,9.47,3.72,1.12.93,5.94,7.06,6.31,8.17,0,.56.19,1.11.19,1.49,0,.74-.37,1.3-.74,1.86-.56.37-1.12.37-1.67.37-3.16,0-3.9-3.16-5.94-4.64-.37-.37-1.11-.19-1.49-.37-.18-.37-.18-.74-.37-1.11-1.49-1.49-3.72-2.41-5.39-3.71-7.06-.19-12.81-4.83-20.06-4.83-3.16,0-5.94,1.48-9.1,1.48-1.3,0-2.6-.56-3.9-.56-2.23,0-6.31,4.09-8.54,5.2-.74.56-1.67.56-2.42,1.11-.55.37-1.11.93-1.86,1.3-1.3.93-2.97,1.49-4.27,2.41-2.41,2.04-4.83,6.87-6.69,9.66-1.11,1.48-2.23,3.16-3.34,4.64-1.11,1.49-2.6,2.79-3.34,4.46-.93,1.86-.93,4.09-1.49,6.13-.56,1.86-1.49,3.34-1.86,5.2-.74,3.9-.37,8.17-.56,12.07-.18,2.97-.37,6.13-.37,9.1,0,3.71.37,7.61,2.42,10.96-.19.93-.37,1.86-.37,2.97,0,7.24,3.16,12.44,6.5,18.57,1.86,3.16,3.34,7.24,5.76,10.03,1.67,2.04,4.27,3.34,6.13,5.2,4.64,4.27,5.76,5.94,12.44,5.94,6.13,0,12.63-2.6,17.83-5.94,1.67-1.11,3.16-2.6,4.64-3.9,2.79-2.04,6.5-7.43,9.1-10.4.93-.93,2.23-1.86,2.97-2.97,1.48-2.6,2.97-5.2,4.27-7.99.56-1.11.93-2.41,1.49-3.34,1.49-2.97,2.78-5.94,3.71-9.1.93-3.16,1.49-6.5,2.97-9.66.93-2.04,1.49-3.34,1.49-5.94,0-2.04-.37-7.61-1.49-9.29-.74-.93-2.04-.74-2.41-1.86-.93.19-1.86.19-2.78.19-3.72,0-7.06-.93-10.77-.93-4.27,0-8.73.74-13,.74-2.97,0-5.94-.37-8.36-2.04l-1.67.19c-2.04,0-3.72-.74-3.72-3.16,0-2.97,5.2-3.72,7.43-3.72,3.16,0,5.94,1.11,8.91,1.11,3.16,0,6.5-.56,9.66-.56,3.53,0,7.06.18,10.59.18,4.46,0,8.17-1.3,11.51-1.3,2.97,0,4.83,1.11,7.06,2.97,0,4.09-.56,7.99-1.49,11.89Z"/>
      <path d="M1029.7,254.9c0,1.67.55,3.34.37,5.02v.56c-.93,1.49-1.67,3.34-2.79,4.64-1.11,1.49-2.97,2.23-3.9,3.9-1.12,2.23-.74,4.83-1.86,7.24-1.67,3.34-9.1,7.43-12.44,10.03-.56-.18-1.3-.37-1.86-.37-3.34,0-6.31,2.23-9.84,2.23-.74,0-15.04-1.86-15.04-1.86-1.86-.93-2.41-2.23-3.9-3.34-1.3-1.11-2.79-1.49-4.27-2.41-8.36-5.94-11.51-12.82-13.37-22.47-.19-1.67-.93-3.16-.93-4.83,0-1.11.56-1.86.93-2.79.93-3.16,1.11-6.31,2.41-9.1.74-1.86,2.04-3.16,2.78-4.83,1.3-2.23,2.41-4.64,3.9-6.69,1.3-1.86,5.2-4.27,7.24-5.76,2.97-2.41,8.73-7.24,12.44-8.17.93-.19,1.86,0,2.78,0,1.49,0,3.16-.19,4.64-.19,5.94,0,13.75,3.16,17.83,7.43.55.56.93,1.3,1.49,1.86,1.67,1.67,4.09,2.41,5.76,4.27.74,1.11,7.24,10.4,7.62,11.51.37,1.49.18,2.97.37,4.27.37,1.3,1.11,2.6,1.11,3.9,0,2.04-1.48,3.9-1.48,5.94ZM1019.11,242.64c-1.86-.56-2.23-4.27-3.72-5.76-2.78-2.42-8.54-3.16-10.59-6.13-1.49-2.23-1.3-5.2-3.34-7.24-1.67-.37-3.16-.56-4.83-.56-6.87,0-14.12,7.06-16.72,13,.18.37.18.93.18,1.3,0,3.9-2.04,7.24-2.04,11.15,0,7.43.93,13.19,4.83,19.69.56,1.11,1.49,2.97,2.23,3.72,1.3,1.11,4.27,2.23,5.76,2.97,2.23,1.11,4.46,2.79,7.24,2.79,1.3,0,3.9,0,5.2-.37.93-.37,6.31-4.09,6.69-4.83.37-.56.18-.93.55-1.49,1.67-2.79,5.02-4.09,6.69-7.06,1.3-2.42,1.86-5.94,1.86-8.73,1.12-1.86,2.04-3.72,2.04-5.94,0-2.79-.93-4.09-2.04-6.5ZM1095.26,260.47c-1.11,2.41-5.39,5.39-6.87,8.54-.37.93-.37,2.04-.93,2.79-.74,1.48-5.57,5.39-7.24,5.39-.55,0-1.11-.18-1.86-.18-2.04,0-3.53,2.04-5.76,2.04-1.49,0-2.79-.56-4.27-.56-2.41,0-4.46,2.04-7.06,2.04-3.53,0-6.5-2.41-8.17-5.39-2.6-.93-5.2-2.41-6.68-4.64-.74-1.11-1.12-2.41-1.86-3.34-.74-.93-1.49-1.49-2.04-2.41-.37-1.11-.19-2.23-.37-3.34-.37-1.11-.93-2.23-.93-3.34,0-1.86,1.11-10.96,1.86-12.44.56-1.11,1.67-1.86,2.41-2.97.56-.93.74-2.23,1.49-3.34,1.12-1.49,2.79-2.41,4.27-3.72,1.11-1.11,2.97-3.34,4.27-3.9,2.23-.93,5.2-.93,7.62-1.48,2.78-.56,5.57-1.67,8.54-1.67,1.86,0,3.72.37,5.39,1.3,1.49-.56,2.97-1.3,4.64-1.3s2.97.56,4.46,1.3c6.5,3.34,4.09,5.57,7.06,7.61v1.3c0,4.64,2.97,8.54,2.97,13,0,1.11-.74,7.8-.93,8.73ZM1086.53,245.06c-2.6-5.94-11.51-7.06-17.27-7.06-1.48,0-3.16,0-4.64.37-2.79.74-5.57,3.9-5.76,6.69-1.67,1.3-2.6,2.97-2.6,5.2,0,5.02,3.53,14.49,8.73,16.35,1.67.56,3.72.56,5.2.56,2.23,0,4.64-.18,6.87,0,4.09-3.16,6.69-7.61,9.1-12.07-.18-.56-.18-1.11-.18-1.67,0-2.6.55-5.2.55-7.8v-.56Z"/>
      <path d="M1135.39,223.14c-4.09,0-2.04-8.17-12.26-8.17-6.87,0-8.17,3.16-8.17,9.29,0,5.57,1.86,7.99,3.9,12.63.74,1.67,1.12,3.53,1.86,5.39,1.3,2.6,2.97,4.64,3.9,7.61.55,2.23,1.11,4.46,1.86,6.69,1.11,2.97,2.6,5.57,3.9,8.54.37,1.11.37,2.23.93,3.34.37.93,1.11,1.49,1.49,2.41.37,1.67.37,3.53.37,5.2,0,5.94-.55,9.84-3.71,14.86-.93,1.11-1.49,2.79-2.41,3.9-1.12,1.11-2.6,1.49-3.9,2.41-2.04,1.11-3.9,2.6-5.76,4.27-.74-.37-1.48-.37-2.23-.37-2.04,0-3.72.93-5.39,1.67-2.6.18-5.39.18-7.99.18-2.23,0-4.83-1.3-6.5-2.41l-.55-.93h-.93c-1.3-1.3-1.86-3.34-2.97-4.83-.74-1.11-2.97-2.6-3.34-3.9-.19-.93-.37-1.86-.37-2.79,0-2.23,1.3-4.64,3.72-4.64,1.67,0,2.97.93,3.9,2.23.55.56.55,1.67.93,2.41,1.49,2.6,6.68,8.17,9.84,8.17,1.86,0,4.83-1.49,6.5-2.42,4.46-2.97,3.9-9.1,4.27-13.93,0-1.11.56-2.41.56-3.53l-.19-.37c0-.93-3.71-10.77-4.27-11.33-.18-.37-.56-.37-.93-.56-1.86-4.09-1.12-8.73-2.79-11.89-1.67-2.79-2.78-5.76-4.27-8.73-2.6-4.64-5.2-8.17-5.2-13.93,0-6.5,4.09-13.93,9.47-17.64.37-.19.93-.56,1.3-.93,1.67-1.11,6.68-3.9,8.36-4.27,1.86-.37,3.9-.56,5.76-.56,5.94,0,14.86,6.31,14.86,12.63,0,2.23-.93,4.27-3.53,4.27Z"/>
      <path d="M1187.59,282.2c-.93.74-1.67,2.23-2.79,2.79-2.04,1.11-9.66,2.79-11.89,2.79s-4.27-.56-6.13-1.86c-.93.19-1.86.37-2.79.37-2.78,0-5.57-.56-8.36-.74-1.86-.18-5.02-3.34-6.31-4.46-.74-.56-1.67-.93-2.41-1.49-1.67-.93-3.72-4.09-5.02-5.76-4.46-5.94-5.76-9.47-5.76-17.09,0-2.97.18-6.69.93-9.66.56-1.67,5.2-11.7,6.31-13,.37-.37.74-.74,1.12-1.11.18-.37.18-.93.37-1.3,1.11-1.67,9.1-7.8,11.14-9.29,3.16-2.41,6.5-4.83,10.77-4.83.74,0,9.1,1.67,9.66,1.86,1.67.74,10.4,8.73,11.14,10.21.56.93.18,2.41.56,3.34.74,2.97,3.34,5.2,3.34,8.36,0,2.04-.93,3.9-.93,5.94,0,1.11-3.16,2.79-4.09,2.79-1.3,0-2.42-.93-3.72-.93s-2.6.37-3.9.37c-5.01,0-10.03-1.11-15.04-1.11-7.06,0-10.22,0-10.22,7.61,0,3.16.18,7.06.93,10.03.74,2.97,4.09,9.66,6.87,11.14.74.56,2.04.37,2.97.56.74.18,1.11.74,1.86.93,1.11.37,2.6.37,3.72.37,4.46,0,12.44-2.41,15.23-6.13l.93-.56c.18-.37,0-.74,0-1.11,0-2.23,5.94-6.31,8.54-6.31,2.78,0,3.53,4.46,3.53,6.31,0,6.13-6.68,7.62-10.59,10.96ZM1175.52,228.16c-.74-.19-2.97-.37-3.9-.37-1.3-.19-2.6-.56-4.09-.56-2.6,0-7.62,3.72-9.1,5.76-.56.93-.56,2.04-.93,2.97-.37.74-1.11,1.67-1.11,2.41,0,2.6,3.71,3.53,5.76,3.53,2.78,0,5.39-.74,7.99-1.11h5.2c1.86,0,4.27,0,5.58-1.86,0-3.9-1.49-9.1-5.39-10.77Z"/>
    </g>
  </g>
</svg>