<?xml version="1.0" encoding="UTF-8"?>
<svg id="Layer_1" data-name="Layer 1" xmlns="http://www.w3.org/2000/svg" viewBox="0 0 804.16 920.33">
  <path d="M91.54,336.92c1.62-15.4,12.42-48.75,19.28-62.99,7.11-14.74,24.17-27.16,32.78-41.47,1.81-3.01,9.31-25.46,8.13-26.98-2.47,1.28-5.05,2.47-7.73,3.3-13.53,4.2-25.71,5.52-39.57,10.6-8.6,3.15-20.17,5.66-27.57,10.56-11.19,7.41-18.96,22.48-33.33,24.2-3.7.44-4.75-1.13-6.52-1.13-2.46,0-4.42,2.44-9,.93-2.01-.66-13.33-6.94-15.09-8.33-2.33-1.84-4.79-5.38-5.05-8.33-.7-8.04,4.24-7.71,6.27-13.19,3.82-10.37,4.44-25.84,9.67-36.48,1.5-3.05,8.51-7.19,8.77-7.99.76-2.28-1.97-3.28-2.46-5.38-1.88-8.03,4.41-7.61,7.79-12,1.69-2.2,5.85-13.13,6.6-16.14,1.76-7.09,2.07-20.49,4.38-26.39.62-1.59,2.63-3.23,3.5-5.2,1.47-3.34,1.97-7.69,3.36-11.36,6.29-16.61,17.09-34.4,27.74-48.52l-.33-.99-2.34,1.33c-1.31-1.47,4.29-5.43,5.41-6.29,21.68-16.8,54.66-39.06,82.06-43.03,12.53-1.82,17.35,2.5,25.25,11.19.37-2.76-1.77-5.32-.3-8.02,7.07,1.08,13.81.13,20.7,2.67-5.52-4.81-12.22-8.82-19.39-10.7-.17-1.15,1.59-.71,2.32-.65,12.67,1.01,26.74,14.05,35.16,23.04,3.51,3.75,5.68,9.16,9.31,12.77,2.39,2.39,5.87,4.11,8.37,6.34,6.25,5.56,19.84,24.35,20.4,32.5.24,3.55-1.26,8.31-.61,12.59.46,3.04,3.29,6.91,3.81,10.24.69,4.4-.29,9.37.23,13.81.41,3.47,2.3,6.55,2.63,10.08.65,7.03.57,20.36-.03,27.45-.11,1.25-.66,2.42-.67,3.68-2.17,1.93-3.18-8.76-3.2-9.7-.17-6.25,1.13-13.48.52-20.06-.35-3.75-2.18-7.3-2.59-10.79-.48-4.04.42-8.63-.13-12.58-.86-6.22-7.15-12.08-5.92-18.75.29-1.57,1.88-2.91,1.94-4.79.15-4.2-13.29-25.52-17.01-29.06-2.27-2.16-5.4-3.64-7.73-5.65-10.16-8.79-18.79-22.91-32.78-27.43-3.88-1.25-7.61-.52-11.36-1.68-.06,3.84,3.43,6.34,5.27,9.11.76,1.14.44,2.64.93,3.42.55.89,10.03,7.74,11.64,8.76s6.95,1.86,3.8,4.05c-4.23,1.33-12.65-6.93-16.07-9.17-8.58-5.63-18.54-12.48-27.18-17.64-7.95-4.74-19.89,2.21-28.36,4.01l-17.36,14.08-1.58-.24c-.39-3.08,2.99-4.53,4.68-6.69l-.99-.32c-6.82,5.38-14.62,9.44-21.69,14.44-20.21,14.28-25.5,20.63-37.2,42.4-6.69,12.45-12.33,25.51-18.79,38.07-.75,1.46-2.78,3.05-3.3,4.72-1.16,3.72-1.05,9.44-2.3,13.41,9.63-5.08,20.96-14.39,31.94-15.88,9.27-1.26,26.06,1.72,33.56,7.56,8.54,6.66,10.04,20.43,18.75,28.07,7.02,6.16,17.71,5.88,24.12,12.67s7,13.58,3.65,22.41c-.88,2.32-5.57,9.53-5.7,10.42-.42,2.88,2.86,4.07,3.34,6.68,2.37,12.93-10.34,35.57-13.73,48.41-.38.64-1.01,1.5-1.88,1.35-3.21-.54-1.16-9.66-1.41-12-2.35,2.53-5.05,4.79-7.37,7.35-9.43,10.38-17.02,19.5-22.23,32.62-6.57,16.52-12.87,36.06-16.03,53.54-.88,4.85.18,7.36-.16,11.17-.12,1.36-1.23,2.97-1.2,3.35.2,2.72,20.77,16.04,23.92,19.37,1.06,1.12,1.81,2.11,2.02,3.69l7.99-1.33-2.68-.66v-2c12.54,1.05,25.07,2.09,37.69.56,1.24-.41,1.96-3.32,2.83-4.53,2.41-3.36,6.37-2.92,10.31-4.4,15.68-5.9,34.2-21.69,46.18-33.42,2.87-2.81,20.53-21.84,20.5-24.08-1.79-2.76-1.28-6.68-1.96-9.87-.14-.65-.24-2.01-1.15-1.84-1.15,4.96-2.31,10.43-3.84,15.26-.36,1.13.28,1.76-1.52,1.45.09-2.32-.16-4.69,0-7.01.48-6.95,4.28-18.19,2.32-24.43-.2-.64-.11-1.52-.98-1.33l-18.87,34.63-1.87.15c-1.14-1.12,6.72-14.92,7.91-17.17,9.47-17.82,19.77-35.22,29.22-53.05,3.37-12.94,1.85-26.51,4.35-39.47.67-.29,1.33,1.56,1.33,1.67v13.71l7.38-33.08-5.93-1.8c-1.67-4.22,4.14-7.04,6.27-11.24s2.22-8.95,3.98-12.74,3.88-3.61,3.55.81c-1.28,17.13-10.38,37.95-11.94,55.69.42,2.12-3.2,3.67-3.32,4.18-.66,2.83-.28,8.44-.64,11.57,5.74-2.69,4.51-7.97,6.65-13.08,1.01-2.41,3.78-6.61,5.69-8.36,1.73-1.59,4.21-2.09,5.41-3.28,2.49-2.48,5.46-20.7,6.21-25.22,2.48-14.87,3.93-30.09,5.46-45.04-1.08,0-1.42,2.65-2.33,2.66-2.88.04,1.55-10.62,5.01-9.35,1.96,2.08-4.39,49.19-5.56,55.64-1,5.52-3.2,17.58-6.16,21.95-1.19,1.76-4.88,3.5-6.33,5.03-3.1,3.25-5.42,8.27-6.91,12.48-.58,1.64-.14,3.39-1.07,4.95s-4.91,3.95-6.73,2.29l-1.84,11.82-16.22,30.04,1.99,10.97c.67-2.27,1.29-4.65,2.18-6.85,1.09-2.71,2.26-8.13,5.85-7.19-1.97,6.58-8.75,17.57-5.87,24.29.44,1.01,1.58,1.02,1.89,1.6.81,1.51.73,3.67,2.32,4.88l.92-.08c-.34-2.12,3.45-1.27,4.14-.14,1.17,1.89,2.04,10.75,3.45,14.45,1.84,4.81,4.41,8.44,8.22,11.85,2.78,2.48,13.86,7.93,11.36,12.07-1.55,2.57-6.31-.77-6.36,3.32,3.61,1.05,6.84,4.99,10.21,6.19,2.98,1.06,7.04,1.28,10.37,2.34,16.04,5.12,33.49,12.37,48.77,19.46,29.54,13.69,58.33,33.04,85.78,50.68,13.03,8.37,37.42,28.05,50.87,32.07,15.55,4.65,31.64,8.93,47.94,10.93,13.14,1.61,25.18,1.42,38.37.76-.59,1.03-3.37,1.51-4.54,1.81-3.7.92-7.7,1.67-11.51,1.54.18,1.66,1.14,2.49,1.35,4.33.97,8.21-6.15,21.32-11.41,27.43-3.58,4.16-7.75,7.87-13.03,9.72-.9,1.66,1.89,0,2.01,0h10.03c.48,0,3.04,1.38,3.36,1.99,2.86,5.6-9.36,16.78-9.71,22.76,8.28-6.5,15.22-14.42,22.41-22.07l.33.99c-2.86,3.04-4.77,6.78-7.37,10.02-9.5,11.84-28.21,25.81-40.83,34.76-1.64,1.16-4.02,2.53-5.97,3.06,7.76,8.91,13.49,15.98,6.59,27.66-3.82,6.47-10.15,11.06-17.97,10.47,2.78,14.36-17.31,16.77-27.42,14.05-.81.72,3.42,3.58,1.16,5.84-.71.71-12.27,4.96-14.18,5.55-10.31,3.16-17.58,2.51-27.29,4.15-2.11.36-3.82,1.87-5.7,2.33-7.56,1.85-14.47,2.71-22.27,2.48-1.32.92-.27,4.93-.64,6.6-.12.55-1.2.48-1.54,1.27-.79,1.84-.34,4.49-1.77,6.24-1.02,1.24-3.73,1.99-5.15,3.22-4.52,3.92-10.24,12.94-14.6,17.84-1.48,1.66-3.24,3.34-5.02,4.67,1.77-6.64,6.95-11.27,10.7-16.72l-19.18,10.6c-2.1.18-.79-3.3-2.92-3.61l.06-1.27,25.39-16.08c2.42-2.73.88-9.38,1.71-13.1-2.92-.8-5.85-1.07-8.77-1.95-20.9-6.32-46.02-24.49-59.83-41.18-3.85-4.65-6.93-9.93-11.06-14.36.14,3.95,1.99,7.76,2.33,11.71.45,5.18.62,10.73-4.05,13.99-4.19,2.92-7.76,2.56-11.95,0-10.94-6.68-27.9-31.75-33.4-43.53-4.61-9.86-8.21-20.96-10.14-31.67-1.17-.16-.63,1.52-.66,2.33-.21,5.32.17,11.4.67,16.73.53,5.54,1.04,11.26,3.34,16.39-2.58,2.49-5.1-10.8-5.26-11.79-6.53-40.18-.02-105.41,16.97-142.72,1-2.2,3.54-5.13,4.34-7.03.17-.39.12-1.13-.32-.99-2.06,1.04-13.95,9.83-15.05,8.69.06-.97-.19-2.08,0-3.01.35-1.75,9.2-6.82,11.36-8.04,13.5-7.61,28.94-13.38,44.16-16.37l-17.17,9.24c-30.99,18.49-40.12,71.26-41.72,104.77-1.65,34.61,15.61,73.04,39.82,97.36,9.15,9.19,15.96,9.71,13.65-5.62-1.65-10.98-8.04-21.78-9.1-32.38-.07-.74-.79-2.27.47-2.14,7.99,11.18,15.88,22.59,24.78,33.09,8.66,10.21,16.66,18.17,27.87,25.65,9.73,6.49,31.43,18.18,42.69,18.18h22.74c.11,0,1.95-.66,1.67-1.33-11.15-2.58-21.67-8.99-31.12-15.37-4.19-2.83-24.38-17.5-24.96-21.23-.18-1.19-.05-1.48.91-2.2,16.03,11.22,34.78,27.86,53.97,32.98,11.36,3.03,29.51.82,40.14-4.41,1.75-.86,5.63-2.59,5.24-4.8-5.32-3.55-25.92-11.66-28.15-16.71-.4-.92-1.04-.58.35-1.69,13.17,5.03,35.11,17.54,49.21,15.07,4.77-.83,10.19-3.81,11.25-8.83.29-1.37-.07-.7-.88-.93-15.48-4.36-31.93-6.99-42.87-20.7-.83-1.04-3.12-3.67-1.31-4.7,1.6-.34,6.12,4.49,7.74,5.63,10.24,7.14,29.86,15.91,42.42,14.44,9.42-1.1,15.2-14.79,10.07-22.78-17.25-11.69-32.4-25.85-47.19-40.44,1.06-.68,3.02.81,4.02,1.33,6.78,3.53,13.55,8.48,20.74,11.37,9.95,4,14.34,4.35,8.13-6.79-6.95-12.47-20.01-21.12-30.23-30.65-3.14-2.92-5.87-6.61-9.35-9.05-.13-1.27,1.35-.54,2.01-.34,4.69,1.41,8.56,5.7,11.35,6.61,1.8.59,11.65.72,13.59.28,6.96-1.56,4.8-10.51,2.6-15.03-6.06-12.49-22.69-15.67-31.9-24.96,1.41-3.65,6.37.6,9.04.34l-26.75-22.41c2.93.89,6.01,2.81,8.64,4.39,10.92,6.59,21.95,16.26,31.52,24.67,3.19,2.81,10.53,10.65,12.58,14.17,7.73,13.24,6.93,27.62-11.93,25.31,5.26,4.59,11.15,9.09,15.73,14.38,5.66,6.54,18.79,24.05,2.33,25.76,1.96.97,5.34,4.55,7.18,4.92,3.15.63,10.27-6.06,13.5-7.36l-.61-3.24,7.35-2.02-3.36-.97c-1.03-.9-.8-1.15,0-2.06,1.02-1.17,7.53-2.86,9.86-4.19,4.44-2.54,15.38-12.56,17.88-16.9.64-1.11,1.3-2.89.96-4.15-1.42-5.3-16.3,2.52-17.29,1.52l1.33-4.97-2.02-2c.19-2.09,7.1-7.57,9.06-9.74,5.26-5.81,14.93-18.1,15.59-25.93.07-.78-1-3.92-1.29-4.13-.43-.31-3.13.63-4.25.65-56.76,1.19-87.91-27.44-132.87-55.16-35.27-21.75-78.84-41.33-117.87-55.38-1.58-.57-14.02-4.04-14.74-3.8-6.64,7.48-13.2,15.01-19.07,23.12-12.58,17.38-26.87,41.96-35.01,61.98-2.53,6.22-4.63,12.58-5.91,19.18-1.88.07-2.86-1.98-3.7-3.32-3.22-5.13-4.62-11.79-6.67-17.41-3.95,8.75-4,19.28-11.7,26.08,2.43-6.4-1.42-11.69-3.02-18.06-2.02-8-3.85-17-4.93-25.17-.37-2.81-1.11-18.68-2.08-19.35-3.02,1.1-4.56-.7-7.37-.96l-2.69,16.72-1.66-2.67c-1.42,1.58-2.97,1.96-4.03,4-.42.8-3.45,9.06-3.46,9.57-.06,1.96.7,13.11,1.12,14.73.17.65,1.45.58,1.88,1.58.63,1.47.64,4.54.81,6.24l3.33-1.33c1.06,2.49-2.3,4.63-2.51,5.76-.49,2.58,1.94,9.13,1.88,12-.03,1.31-1.02,1.96-1.05,3.02-.11,4.66,3.83,11.27,5.22,15.48,2.45,7.39,4.26,15.02,7.13,22.27-.51,1.22-1.12,3.58-2.95,3.03l-4.05-6.71c-1.31,2.49,1.05,5.02,1.5,7.2.81,3.99.62,8.1,2.07,11.98,2.11,5.65,7.46,9.78,10.84,14.59l-2.26,1.61-7.79-7.29c-.39,2.78,1.3,5.76,1.33,8.37.04,4.07-.15,12.86-.62,16.76-.06.49-3.02,4.26-3.13,5.31-.14,1.33,1.92,4.37,1.81,6.71-.05,1.16-1.17.98-1.36,1.5-1.11,3.1-.66,6.29-.71,9.52l6.36-16.05,1.64.99-13.05,47.16c2.45,1.61,3.88,4.03,6.08,6.01,4.5,4.06,11.72,9.13,16.83,12.6,2.51,1.71,19.94,12.81,21.17,12.69,1.36-.13,2.06-1.41,4.72-1.16,1.14.11,10.17,3.37,10.82,3.94.93.82,1.35,2.97,2.3,4.05-4.32,1.18-6.7-.34-10.7-1.33l2.08,16.65c3.54.28,14.81,5.04,17.34,3.77,1.22-.61,1.41-3.76,4.88-3.07.66.13,1.15,2.71,2.94,3.25,3.04.91,6.84-1.38,10.1.27l.81,7.9c1.17-.23,1.12-1.94,2.28-2.72,3.42-2.3,3.61,1.68,4.79,1.95.57.13,2.13-.62,3.27-.61,3.97.06,2.71,2.3,3.08,2.63.69.63,2.97-.87,2.64,1.09-.26,1.58-2.93,4.44-3.36,6.34.67.57,6.83-5.09,7.97-1.57.69,2.12-3.48,8.28-3.29,10.94.66.72,8.72-5.85,9.72-6.68,2.92-2.44,1.87-.99,3.02-1.65s1.06-4.6,3.98-3.7l-6.68,30.1c4.96-2.99,11.94-15.31,16.74-17.04,4.76-1.71,2.54,2.24,2.79,4.46.92,8.06,5.56,18.24,9.56,25.29l7.36-39.45c.24-1.15,5.15.41,5.34.61.69.75,2.86,8.46,4,10.76,1.3,2.64,3.42,6.19,5.69,8.01,1.45-10.32-1.63-19.83-3.98-29.72l1.33-.75c2.58.62,3.89,6.84,7.34,7.05,1.07-1.22-2.99-8.68-3.21-10.53-.18-1.6,2.6-5.85,4.2-5.55.41.08,3.83,5.05,7.03,3.37l-2-7.35c2.43,1.09,8.12,8.06,4.9,10.09-3.68,1.64-6.75.06-10.26-.72,2.04,4.64,4.62,10.22,2.59,15.28l-5.26-.57c1.07,5.23,2.62,19.02-.38,23.37-3.17,4.59-6.3-2.74-8.32-4.64.1,2.78-.16,5.61-.03,8.39.22,4.98,1.74,39.7.92,41.62-.37.87-1.45.49-1.61,1.8-.8,6.64.79,15.65.74,22.81-.01,1.58-.7,3.05-.72,4.63-.11,6.57.63,13.33-.64,19.76,3.1.21,5.13-2.84,7.55-4.15,7.12-3.86,21.47-5.43,29.6-5.24,4.97.12,11.43,2.18,16.02,2.09,2.15-.04,14.67-2.5,16.07-3.39,7.12-4.56,13.07-10.13,21.28-14.17,15.27-7.51,32.2-10.81,48.19-3.36,3.93-3.62,7.82-7.71,13.13-9.24.17-1.22-1.39-.55-2.04-.37-2.77.78-5.67,3.77-7.99,2.04,7.35-9.63,21.75-6.53,32.48-6.99,5.87-.25,11.17-1.75,17.39-1.39,5.23.3,15.02,4.04,18.05,3.97,1.18-.02,5.23-2.27,7.16-2.8,7.96-2.18,17.99-1.5,25.94.53,4.39,1.12,12.93,5.32,16.45,5.67,2.61.26,8.8-2.14,12.06-2.59,10.73-1.46,21.12.34,31.19,4.1,3.27,1.23,10.5,5.5,12.94,5.83,3.04.4,7.4-1.19,10.62-1.34,13.97-.66,26.24.57,39.34,5.54,2.95,1.12,13.51,7.08,14.91,7.17,3.17.21,10.62-2.33,14.69-2.64,6.14-.45,12.33.68,18.05.66,2.82-.01,7.28-1.81,10.68-2.03,21.2-1.39,40.94,11.2,51.76,28.57,4.81,7.72-1.24,20.4-6.59,26.63-1.78,2.07-4.39,4.68-7.34,4.36l-.33-2.66c-5.99,4.67-12.32,9.05-19.28,12.16-2.18.97-5.37.62-6.48,3.21.8.63,8.34-4.92,9.98-.93.98,4.11-16.68,9.27-19.34,11.98-.28,1.51.66.92,1.66.99,1.64.12,3.75.13,5.39.03,3.19-.2,10.47-2.37,12.66-2.06,2.08.29,2.27,2.13.72,3.4-10.27,3.69-23.02,4.22-33,8.47-4.25,1.81-8.56,5.03-13.07,7-14.21,6.2-28.7,9.28-44.25,8.57-1.75-.08-4.62-1.36-5.94-1.14-.81.14-2.11,1.54-3.31,1.95-7.02,2.41-15.02,1.01-22.2-.15l-.35,2.01c-1.19-.03-.83-1.83-1.67-2.67-.69-.69-2.09-.86-3-1.35.22,2.51-2.3,3.74-4.23,4.81-16.94,9.39-54.67,13.75-73.38,9.58-9.94-2.21-13.12-5.99-24.4-5.01-5.68.49-9.72,3.17-15.06,4.68,4.3,7.82-11.42,10.3-16.73,9.69l14.7-5.72-.63-2.32c-4.31-1.79-5.74.84-8.48,2.25-16.55,8.55-28.03,9.49-45.71,1.76-1.72-.75-5.02-3.54-6.4-3.68s-9.23,3.67-12.68,4.01c-7.95.81-15.5-1.19-22.41-5-3.36-1.85-7.66-4.37-8.68-8.37,4.27,1.91,7.92,4.96,12.25,6.81,6.2,2.64,11.99,3.82,18.78,3.15l5.75-1.93c-11.13-1.24-21.32-3.21-31.23-8.58-1.35-.73-3.49-3.09-4.65-3.28-2.78-.46-12.56,2.81-17.99,2.51-5.93-.33-11.68-3.19-16.74-4-3-.48-19.48-.26-21.43,1.23-1.77,1.35-.37,4.35-1.27,6.08-1.74-1.38-2.47-3.09-2.37-5.32-2.3-.22-4.7.2-6.99-.04-7.3-.76-13.56-4.31-21.39-4.7-11.18-.55-20.67,9.11-31.52,4.73-24.78,4.21-49.13,11.25-73.74,16.56-2.77.55-4.76-1.16-3.14-3.88,1.65-2.77,37.89-13.62,43.49-15.37,1.2-.37,3.82-.83,4.33-2.01l-31.13,1.36c-6.67-1.26-14.02-.36-20.64-1.44-8.27-1.34-17.24-6.18-25.65-7.75-1.17-.74-2.71-2.92-1.89-4.24,1.98-3.19,27.05-1.7,32.14-2,8.78-.52,17.42-2.91,26.11-4,12.54-1.57,19.35.17,30.94-6.7,4.83-2.86,8.31-4.74,11.52-9.7.7-1.6-2.92-.97-3.36-2.02.05-2.6,3.23-3.23,3.7-4.28.29-.64-.5-1.97-.34-3s1.16-1.74,1.31-2.77c.59-3.92-.62-7.79-.65-11.67-.52-.14-.8.67-1,.67h-25.08c.31,3.4,1.67,7.15-.65,10.21-4.16,5.47-16.63,4.47-23,5.27-13.73,1.74-27.02,6.27-40.93,5.95-13.74-.31-29.62-2.51-43.44-4.05-.95-.11-5.73-.79-5.68-1.66,1.09-.62,2.8-2.58,3.81-2.87,3.75-1.07,10.24-1.01,14.79-1.93,9.13-1.85,22.96-4.9,31.56-7.91,1-.35,2.39-.39,2.67-1.67-5.45.6-11.13-.55-16.36-.7-11.27-.34-23.76.94-34.8.02-1.88-.16-9.03-1.21-9.64-3.11-.25-.8-.11-1.5.25-2.24,1.92-3.9,17.2-2.36,21.41-2.68,17.36-1.3,36.52-5.3,53.52-6,3.44-.14,5.18.2,8.36,1.32-1.77-2.63-6.98-2.83-6.02-6.68l8.7,1.33c-1.62-2.26-5.73-2.42-6-5.63.35-1.6,5.67-1.54,7-1.73.91-.13,2.1-.31,1.01-1.32-2.88-.43-6.76-.9-6.02-4.69l9.37-.68-2.01-21.41-3.31.65c-.36-4.32-3.72-7.1,2.01-9.12.21-.82-.56-8-.83-9.12-.33-1.35-1.79-2.32-1.9-3.53-.17-1.93,1.53-2.23,1.9-3.43.95-3.07-.6-7.08-.54-10.23-2.3,3.23-8.66,4.25-5.92-.91,1.76-3.31,6.29-3.98,4.58-9.79-.29-.33-4.82,2.99-5.35.32-.42-2.12,5.93-5.39,4.01-9.02-.82.29-4.69,4.94-5.34,2.32-.78-3.16,4.14-5.6,4.37-7.98.36-3.72-.69-6.08-4.63-4.43-3.81-3.25,2.26-4.52,2.83-6.45l-.66-8.47-1-1c-21.75-1.96-4.28-8.15-4.27-9.79-4.92-4.43-18.63-.42-8.01-10.36-5.33.7-10.14.78-15.38-.68-.23-1.14.27-1.38,1.14-1.86,4.06-2.26,16.82-.58,18-4.79.64-2.27-2.53-2.44-3.98-3.48-3.26-2.33-6.1-5.14-9.81-6.92-.07-.85.43-1.58,1.36-1.38,1.47.32,7.69,5.41,8.67,4.39l-1.38-15.33c-3.73-.03-6.68-.94-10.16-2.21-15.22-5.56-29.57-17.47-42.3-27.26l-7.72,16.7c-.71.1-1.35.12-1.99-.3-1.72-1.13-6.29-10.01-8.63-11.94-.94-.78-1.66-.44-2.73-.44l9.69,12.05c.85,2.34.69,3.22-1.86,2.53-11.56-13.35-24.27-25.23-38.27-35.98-1.01.52.19,1.61.45,2.23,7.4,17.5,23.5,34.28,37.02,47.27l.99-1.33.68,2.67c-1.64,1.32-14.72-12.17-16.4-14.03-6.87-7.62-14.78-18.08-19.84-26.99-1.18-2.08-7.54-13.86-6.57-15.16l3.3,1.71,22.11,19.02-7.35-12.38-.67,1.68c-.73.05-1.35.05-2.03-.32-1.36-.76-8.35-15.5-8.57-17.59-.11-1.04.07-1.56.87-2.24,1.3-1.12,2.62,1.12,2.36-.92-1.42-1-7.13-8.64-6.01-9.7l8.69,1.33c-.73-4.19,3.3-9.59-1.99-11.37.27,1.94-1.39,2.27-1.96,3.21-.12.19-1.6,5.66-2.69,1.72-.41-1.49,1.26-6.17,1.26-8.04s-7.2-9.29-8.94-11.66c-5.51-7.49-10.53-16.39-14.79-24.68-7.37-14.36-14.33-30.55-15.03-46.84-10.82-.71-10.62-1.85-9.05-11.38,1.03-6.25,2.99-12.22,4.37-18.37-1.79-.81-2.72,2.12-4.88,1.57-3.56-.89-3.57-9.57-3.21-12.33.16-1.22,1.18-.83,1.36-1.44.45-1.5.29-4.46.69-6.21l-7.52,21.57-4.51,9.86c3.83-9.71,5.57-19.96,8.51-29.94,3.29-11.13,10.15-26.83,12.08-37.45.81-4.48-2.62-8.33-2.34-11.11.14-1.33,2.13-3.78,2.72-5.86,1.58-5.5,4.23-31.34,7.29-33.85,2.19-1.8,7.2.5,8.86,2.49.2.09,1-1.57,1-1.67,0-3.36-.34-7.49,0-10.7ZM152.64,183.63c4.66-4.87,9.1-2.69,3.91-11.4-5.49-9.21-16.12-7.93-24.23-14.57-9.35-7.65-12.24-23.54-22.51-29.67-4.29-2.56-12.99-5.05-17.95-5.46-15.31-1.28-27.49,8.9-41.13,14.05,1.59,6.09,11.29,13.58,17.42,11.73,1.16-.35,2.4-1.77,3.73-2.29,4.95-1.93,17.91-5.26,22.33-1.76,4.18,3.32-8.6,8.46-11.2,8.87-3.98.62-13.55-1.26-15.26-.57-4.9,1.97-7.73,11.92-1.64,14.12.19,1.04-.96.76-1.62.63-4.88-.95-5.06-7.2-3.75-11.04.75-2.21,2.96-3.44,3.38-5.65-4.5-.66-8.26-3.38-11.98-5.75l-4.74-4.29c.04,2.27.11,4.46-.31,6.72-.38,2.04-6.91,16.87-8.06,18.03-1.48,1.5-5.54,2.91-6.22,5.15-1.27,4.24,2.91,5.91,1.74,9.76-.45,1.47-4.34,4.53-5.06,6.33-4.41,11.03-6.24,25.92-10.53,36.97-2.98,7.68-11.27,9.02-4.09,18.48,2.1,2.77,12.04,9.33,15.45,9.64,1.66.15,5.81-.6,7.2-1.37.86-.47.99-2.08,1.82-3.02,3.55-4.03,6.89-8.25,10.71-12.04l-9.2,3.51-2.83.17c-1.68-1.52,6.27-3.45,7.14-3.89,4.44-2.25,9.95-6.45,13.59-9.82-.98-.74-3.02-.33-2.67-2.33,6.6.75,7.54-3.06,11.36-6.37,16.25-14.05,29.71-23.13,49.27-32.34,2.41-1.14,17.81-8.02,18.97-6.78.67,4.49-2.86,3.32-5.35,4.35-21.07,8.67-40.51,20.5-57.75,35.23-.58.5-2.17,1.31-.14,1.2,12.51-2.52,22.46-10.54,33.78-15.72,6.75-3.09,14.68-5.9,21.94-7.5,4.57-1.01,17.63-1.74,20.7-5.06,1.18-1.28,2.3-4.71,3.78-6.26ZM91.54,145.95c-5.27-.61-11.86.36-16.9,2.16-.84.3-3.03.88-3.17,1.84,6.67,1.48,15.01,1.04,20.06-4ZM148.81,199.72c-.92-.75-3.68-2.72-4.61-3.09-2.56-.99-12.1.42-15.34,1.01-15.64,2.87-26.4,11.87-38.66,21.2,12.29-.35,20.96-7.98,32.74-10.4,9.56-1.96,19.35-1.14,28.12-6.33-.44-.64-1.72-1.97-2.26-2.4ZM76.82,220.87c-12.72.61-17.69,9.69-25.4,17.74-4.09,4.27-8.45,8.29-12.73,12.35,15.63-4.28,27.7-18.37,38.13-30.09ZM270.14,337.26c-9.54-3.17-14.7-13.14-18.85-21.63l-2.55-8.48c-5.48,12.22-15.14,23.35-25.5,31.7-11.54,9.31-29.36,19.4-42.96,25.27-2.46,1.06-11.49,3.2-12.54,5.02-.99,1.73-.16,4.39-2.48,5.88l4.19,5.68,3-6.98c-6.79-3.02-1.39-5.37,2.66-2.01,2.45,2.04,3.94,10.19,4.54,13.52,1.79,9.82,2.58,19.85,4.39,29.72,1.82,9.86,4.24,19.56,6.49,29.31,1.74.31,1.03-.25,1.39-.95,1.43-2.81,2.38-6.61,3.83-9.54,9.95-20.04,39.71-69.63,55.63-83.5,5.82-5.07,13.1-7.98,18.74-13.03ZM117.49,377.53c-.25-.38-1.8-.58-2.5-1.17-2.64-2.19-5.09-4.8-7.75-6.98-7.54-6.2-15.95-11.37-23.05-18.08-2.76,10.7-3.68,22.26-6.23,32.91-.46,1.91-1.1,3.29-2.21,4.88l25.16,66.55,3-16.73c5.28-15.27,6.66-35.87,12.33-50.55.8-2.07,3.28-4.64,4.19-6.84,1.81-1.04,5,1.94,6.23,3.2l1.01-4.01h2s.66,2.68.66,2.68l2.01-3.68c-2.65-.63-13.04,2.39-14.41.36-.44-.65-.06-1.98-.44-2.55ZM249.4,380.06l8.05-11.74-2.7-13.67c-1.12-.18-.73,1.63-.69,2.36.25,4.49,1.96,9.06,1.36,13.69l-1.34-4.68-1.32,3.34-1.35-9.36c-4.44,2.7-.31,9.12-1.34,13.37l-2.01-9.36c-.77-.21-.96.77-1.02,1.31-.26,2.26.72,8.35,1.12,10.96.13.88.24,3.63,1.24,3.77ZM237.36,398.12l10.59-16.56-2.56-13.54c-1.24,1.38-4.98,5.67-5.24,7.18-.55,3.1,2.26,10.53,1.9,14.22-1.2-.69-1.83-3.52-2.19-4.82-.59-2.11-1.01-4.35-1.15-6.55-1.55-.38-1.1.31-1.53.85-.49.62-2.19,3.12-2.34,3.67-.32,1.23.89,11.84,1.22,13.85.13.79.4,1.58,1.3,1.7ZM139.03,374.72c-4.84.02-10.61-.11-15.27,1.14-1.19.32-1.73-.19-1.44,1.53,4.55-1.13,9.66-.87,14.32-1.4.65-.07,2.51-.3,2.39-1.27ZM161.78,375.39l-10.7,1.99c3.71.06,7.1-.75,10.02,2.01l.68-4.01ZM177.16,398.79l-3.67-18.72c-.68.97-2.53,1.36-2.91,2.45-.23.66-.91,13.2-.69,13.85,1.6,1.74,4.98,1.6,7.26,2.42ZM230.68,408.16c2.38-2.11,3.3-5.82,5.21-8.46l-3.54-13.6c-6.57,6.19-1.57,14.33-1.67,22.06ZM224.66,419.53c1.37-1.2,5.76-9.14,5.76-10.37,0-2.28-4.32-10.19-3.77-13.71-7.48,5.97-1.98,15.96-1.99,24.08ZM220.63,428.89l3.77-8.36c-2.08-4.95-3.68-10.29-3.77-15.72-1.44,1.37-4.52,5.88-4.58,7.66-.08,2.32,2.42,12.67,3.23,15.44.28.97-.38,1.17,1.35.97ZM122.98,405.48c-2.79,1.21-7.22,1.41-6.68,5.35,2-2.27,7.1-1.62,6.68-5.35ZM155.75,406.15c-1.55-.42-1.12.37-1.53.85-.53.62-4.9,6.14-4.48,6.5l6.67-1.36-.66-5.99ZM100.91,465.01l-20.72-55.25-4.24,1.22c-2.76,12.7-9.68,24.6-8.48,37.98,3.11-.27,5.52-6.1,7.87-1.52,2.56,4.98-.8,11.73-1.66,16.77-.7,4.12-.86,8.25-1.43,12.38,1.28,3.67,5.74-.42,7.6,1.8.88,1.05,3.41,13.03,4.31,15.75,4.32,12.97,10.81,25.47,17.55,37.3l14.58,22.54c-.18-2.06.91-3.82,1.27-5.76,1.07-5.76,2.7-16.48,2.73-22.1.01-2.23-2.25-3.07-1.01-6.96.28-.9,1.42-1.67,1.58-2.46.24-1.15-.67-2.48-.57-3.83.12-1.73,1.05-3.53.76-5.41.21-1.43-1.48-.87-2.41-1.61-2.25-1.79-2.43-3.55-2.26-6.29.23-3.68,1.88-11.5,2.95-15.13,3.42-11.54,13.77-21.16,13.69-34.13-2.07,1.58-5.09,1.94-5.99-.96,2.85-2.95,10.66-8.19,9.82-12.82-.11-.63-1.42-.7-1.62-1.12-1.26-2.56-2.87-4.96-3.89-7.17s-1.49-8.08-1.95-8.75c-.58-.84-2.56-.32-3.4-1.28-1.15-1.31-.8-5.76-2.99-6.7l2,8.02-2-1.33-10.72,53.51c-1.23.29-1.3-.42-1.89-1.11-2.45-2.82-3.32-7.38-5.8-10.26l-1.75,4.6-1.92.08ZM213.28,445.61c-.27-4.12,5.98-11.75,5.98-15.05,0-2.46-5.84-10.96-4.64-15.05l-2,2.35,2.67,18.38-2.87-5.48-1.81-9.23c-1.18.43-2,3.31-2.05,4.35-.13,2.98,2.28,14.27,3.29,17.48.28.89.23,2.04,1.43,2.24ZM136.35,430.23c1.44-3.75-.48-8.64-4-10.7.5,3.57.57,8.59,4,10.7ZM114.9,424.25l-2.01.36c-.79,1.54-.41,2.73.06,4.28,2.84-.22,3.02-2.53,1.95-4.63ZM209.95,452.97c4.05-3.81.87-6.64-.2-10.18-1.45-4.8-1.91-9.83-3.48-14.57l-1.71,1.12c.35,8.16,3.59,15.77,5.39,23.62ZM112.27,469.03l5.22-27.77c-.18-3.69-2.84-6.24-4.89-9.02-5.18,5.25,1.79,8.49,2.34,14.04l-4.68-6.69c-4.75,4.6,2.38,10.98,3.35,16.05-2.67-1.61-4.26-4.53-5.35-7.36-4.82,4.84,2.69,11.59,4.02,16.72l-6.69-7.69c1.04,3.57,3.21,7.74,5.19,10.84.42.66-.07,1.19,1.5.86ZM209.26,458.32c1.47-3.78-2.46-7.83-3.36-11.68l-3.98-13.73c.02,1.1-1.06,2.13-1.15,3.1-.23,2.39,4.88,15.21,6.17,18.29.47,1.12,1.27,3.47,2.32,4.02ZM127.66,475.72c-2.71,2.55-4.7,8.34-5.67,12.05-.59,2.26-2.07,5.53,0,7.34,5.15-5.06,3.35-13.03,5.68-19.38ZM135.02,508.49l.67-12.7c-.96-.16-.93,1.18-1.13,1.87-.68,2.45-1.99,7.87-1.05,10.01.41.94.16,1.02,1.51.83ZM123.65,497.12h-4.01c-.24,3.37-1.47,5.62,2.34,7.35l1.67-7.35ZM147.73,507.82l-2.7,1.12c1.12,5.43-4.43,13.39,4.04,13.59,1.17-4.02-1.33-3.76-1.33-4.01v-10.7ZM169.02,537.36c-.15-.24-4.84-2.51-5.24-2.11l2.68,12.7,1.36-6.21c1.55-.46,1.88-3.28,1.19-4.39ZM121.63,549.96c.71-4.12,2.69-7.4.67-11.36l-1.32,7.7.65,3.67ZM133.01,556.32c.73-2.49-.54-8.12,0-11.04l-3.8,11.13,1.45,2.92c.22-1,2.26-2.7,2.35-3.01ZM166.46,572.71l-.16-2.85-3.18-9.86,1.33,12.71h2ZM150.4,588.09c-1.26-4.26-2.55-8.74-4.18-12.87-.28-.71-.19-1.99-1.16-1.84l-.54,5.53,5.88,9.18ZM133.68,588.76l-3.67-8.02c-3.16,1.31,1.81,7.28,3.67,8.02ZM163.78,600.8l-.86-8.16-2.47-9.22.87,8.15,2.46,9.24ZM137.69,607.49l1.18-4.24-5.18-7.13c-.03,1.18,1.61,13.27,4,11.37ZM128.99,607.49c-.07-3.88-2.87-7.75-6.68-8.69l6.68,8.69ZM150.93,610.31l-4.87-4.15c-.51-.1-.43.65-.32.99.91,2.88,4.61,7.94,6.67,10.38l-1.48-7.22ZM280.18,698.47c-.97-.82-8.69,7.21-11.43,3.73-1.94-2.45,1.45-7.53,1.39-10.43-5.53,2.59-3.02,13.28-4,18.73,2.54-.68.29-4.5,1.99-5.35l-.02,33.14,2.06,39.41-.02,39.83,26.09-4.68c-.96-8.9,1.3-20.5-.05-29.06-.53-3.37-4.9-11.01-6.17-15.24-1.17-3.89-2.77-10.31-3.15-14.25-.07-.71-.4-1.84.66-1.65,1.67,3.88,3.93,7.44,5.87,11.2.82,1.61.87,1.32.86-.18-.11-10.89-4.17-26.15-6.56-36.94-.62-2.78.11-6.09-1.83-8.87l-8.03,7.34c-2.36.04-1.75-9.2-1.59-10.94.48-5.24,2.45-10.77,3.93-15.8ZM264.12,702.48l-2.93.64-1.4-1.97c-3.25,4.07-6.94,7.78-10.69,11.39-1.94,1.87-8.74,6.71-9.76,8.3-.8,1.23-.69,2.35-.61,3.73,5.99-4.26,10.54-10.31,16.4-14.7,1.8-1.35,7.63-4.26,8.35-5.03s.8-1.27.66-2.34ZM326.33,717.87l-1.33-13.38c-2.83,4.36-.25,8.64-.67,13.38h2ZM264.79,707.16c-2.43-.17-2.42,2.72-3.63,4.06-.78.86-2.05,1.24-2.72,1.96-5.47,5.9-10.63,13.04-18.23,16.23l.16,5.84c4.39-4.29,8.55-8.89,13.39-12.69.89-.7,7.86-5.81,8.35-5.36-2.97,3.39-5.39,7.31-8.35,10.71-2.22,2.55-11.9,11.29-12.37,13.72-.53,2.73.18,6.38.98,9.01,5.82-5.93,11.7-11.97,19.06-16.05l-7.68,10.04c-1.99,2.2-9.95,9.05-10.7,10.71-1.68,3.69,1,10.6.33,14.7l12.02-11.72,7.36-5.67c-4.59,9.74-13.46,16.39-19.25,25.22l.7,26.53c.69,1.64,4.11,1.59,3.21,5.34l-7.4,2.1,7.07,5.04.18.84c-1.61,4.22-2.87,4.17-7.25,3.83,3.3,5.98-2.35,1.91-3.56,2.13-.74.13-1.81,1.45-3.51,1.84-5.07,1.17-10.96.25-16,.72-5.46.5-10.84,2.24-16.4,2,1.2,1.7,5.47,1.73,7.7,1.99,4.58.55,9.45,1,14.05,1.34,4.2.31,15-2.1,10.34,4.34l-53.5,13.05c11.54-.59,23.7,4.17,35.11,3.34,9.24-.67,22.54-4.09,31.79-6.34,3.16-.77,20.15-4.86,21.09-6.36.89-2.15-.83-4.06-1.03-6.35-.61-6.99.26-14.95.03-22.11-.78-24.38-.92-48.51-.67-72.86.11-10.41-.05-20.76-.7-31.13ZM316.31,731.24c-.28,2.03-2.04,5.35-4.34,3.33-1.39-1.22-5.52-9.41-6.48-11.58l-5.23-15.16c-.09,1.67-1.56,4.86-1.37,6.26.06.45,1.24.36,1.36.87.58,2.49.35,7.7.68,10.58,1.54,13.59,3.52,27.14,4.71,40.78l-.69,4.38-5.35-54.51h-1.34s5.44,61.45,5.44,61.45l.91,1.08c.67-2.01,5.47-.68,5.69.36l-3.36,5-.99-1.33-1.01,1.67,6.7,40.12-2,.34-2.69-10.03c-.98,13.81,4.11,26.02,7.33,39.07l-1.64,1.05-4.35-9.36c-.43,6.69-6.74,24.28-13.19,26.61-4.82,1.74-.19-4.4,1.14-5.55-2.84-.29-5.91,3.42-8.48,4.9-11.32,6.56-38.31,8.89-52.07,10.14-7.43.68-16.09-.04-23.34.74-.65.07-2.52.29-2.4,1.27,4.96.44,9.53,2.62,14.46,3.27,10.95,1.45,21.19-.98,32-1.28,6.22-.17,12.15.66,18.06.73,3.24.04,21.69-.7,22.65-.1,1.56.98.71,3.13-.53,4.09l-10.71,4.68,30.46-5.01c1.71-.07,1.33-1.74,1.93-2.54.49-.65,1.52-.78,1.74-1.15.5-.84-.39-1.91-.23-2.87.25-1.54,2.33-3.68,2.44-4.96s-2.19-2.33-2.45-4.02c-.77-4.99,5.56-8.85,7.82-12.67-3.19-4.53-6.55-7.83-7.28-13.94-.76-6.38,1.73-6.04,2.06-8.66.37-2.97-.35-6.67-.05-9.75l-2.7-.43c.23-5.54-.19-11.12,0-16.66.85-24.45-.27-47.06-1.99-71.54l-1.32-9.7ZM581.87,771.38c-13.3-3.84-28.01-9.45-41.46-3.02,6.45,6.61,15.25,2.06,23.76,2.31,4.65.14,12.78,2.52,16.69,2.05.92-.11,1.99-.44,1.01-1.35ZM512.96,766.7l11.73,9.38c4.17,0,4.35-4.22,6.99-6.38.01-1.67-16.58-3.79-18.72-3ZM506.94,771.37c-5.3-4.9-11.49-1.44-17.39,0,.38,1.9,3.83,0,4.34,0h13.04ZM539.05,772.05c-3.72-1.95-6.21-1.59-8.69,1.99l8.69-1.99ZM627.35,774.73c-8.67-2.73-18.36-5.34-27.42-3.34l22.48,3.92,4.93-.58ZM570.16,774.72c-4.88-.49-10.42.36-15.39,0l-.94,1.06.6,2.96h16.39c.26,0,4.72-2.57,3.68-3.34-1.59.61-3.29-.57-4.34-.67ZM439.72,778.06c5.41-.29,11.26,0,16.72,0,.45,0,3.39,1.86,3.68,0-5.76-1.36-11.07-2.45-17.08-2.05-.73.05-9.07.83-6.99,2.7,1.32.58,2.93-.63,3.68-.67ZM508.28,776.06h-14.38c-1.76,0-8.07,1.9-10.12,2.6-1.76.6-1.56.89.1.77,6.4-.46,12.81-2.45,19.31-2.11l5.1-1.26ZM597.25,780.06c-1.82-2.99-4.44-4.57-8.02-4-.4,1.73.52,1.17,1.26,1.72,2.21,1.64,3.89,3.29,6.76,2.28ZM621.33,778.74c-7.81-1.04-15.44-3.33-23.41-2.68,3.07,5.65,10.42,2.6,15.75,2.64,1.9.01,3.48.62,5.3.72.73.04,2.54.43,2.36-.69ZM700.26,790.11c-16.15-7.63-33.63-11.46-51.51-8.7.4,1.25,1.89,1.77,3.05,1.96,4.87.77,11.48-.33,16.67.05,9.28.69,19.54,3.94,27.59,8.56l4.19-1.87ZM457.44,781.41c-7.03-.41-13.98.48-20.73,2.33,5.27,7.08,15.18,1.78,20.73-2.33ZM462.12,782.75c-2.13-1.04-2.77.04-4.68.68l1.35,3.33c1.76-.59,3.34-1.99,3.33-4.01ZM504.93,784.09c-8.74.24-17.89,1.46-26.22,4.2-1.01.33-3.49.87-3.87,1.8l30.1-6.01ZM434.7,790.1l-4.44-4.54-8.27,2.55,5.2,1.89,3.5-.56-.68,1.33,4.69-.67ZM622.33,785.42c-6.46-.64-13.84.47-20.4,0-.15,1.18,1.51.64,2.33.67,7.57.29,15.28.45,22.74,1.34.53-1.18-3.99-1.95-4.68-2.01ZM759.46,786.76c-3.44-.35-7.79,0-11.37,0-.11,0-1.95.66-1.67,1.33l42.47,12.05c.31-1.17-1.87-2.18-2.65-2.7-6.62-4.41-18.91-9.89-26.77-10.69ZM690.9,793.46c-11.22-4.64-23.27-6.66-35.45-6.02l9.23,5.81c7.43,1.85,14.71,3.86,22.5,2.84.69-.09,4.85-1.39,3.72-2.63ZM657.45,792.12c-4.14-1.91-6.48-4.33-11.37-2.68,2.68,2.4,7.55,3.34,11.03,4.01l.34-1.33ZM721,790.77h15.39l-7.02-1.38-8.36,1.38ZM423.33,792.12l-6.19-1.9-11.2,5.23c5.01-.1,11.61-.54,16.41-1.98.97-.29,1.16.38.97-1.35ZM634.69,791.46c-5.14,1.36-9.97-1.59-15.36-.68l7.69,2.66c.4.69.62,2.68.24,3.27-.43.66-3.28.1-3.26,1.41l7.73,1.13c1.54-1.68,2.31-3.68,4.97-3.81l-2.03-3.99ZM540.39,793.46l-10.69-2.01c-.46,1.82,1.37,1.51,2.54,1.78,1.66.39,4.11.82,5.8.92.73.04,2.53.43,2.36-.69ZM650.76,794.12l-8.02-2.01v2.66c2.57-.41,6.38,2.27,8.02-.64ZM482.86,792.79c-3.79.66-7.64,1.4-11.37,2.35-.76.19-2.17-.04-2.01.98,4.87-.1,10.06,1.19,13.38-3.33ZM605.94,797.47l-39.81.66-.99,1.34c12.47.97,24.02,1.9,36.36-.76l4.44-1.24ZM737.73,798.8c-.87.84,5.54,10.29,7.01,11.38,1.21.89,9.56,4.69,11.03,5.08,2.33.61,2.98-2.6,2.41-4.44-1.59-5.21-15.04-11.68-20.46-12.01ZM764.47,810.17c1.13-7.03-6.57-9.78-12.03-11.36l12.03,11.36ZM648.97,801.92c-.36-.22-.61-1.3-1.27-1.7-1.89-1.16-6.75-1.39-7.63.93-.47,1.24.69.97,1.31,1.31,7.87,4.37,18.53,6.41,27.44,7.03.16-.98-1.16-.89-1.87-1.13-6.01-2.04-12.48-3.12-17.98-6.45ZM777.18,813.52c2.6,6.04-.55,11.88,2.67,17.77,7.68-1.62,14.29-5.13,10.87-14.24-2.23-5.93-19.85-17.84-26.9-16.9,1.01,1.89,3.35,2.89,3.87,5.15.64,2.78-.73,6.99-.05,8.69.95,2.36,5.84,6.27,6.88,9.24,1,.92.74-.74.69-1.36-.17-2.42-1.2-4.75-.58-7.24l.52-.81,2.04-.3ZM619.99,801.48c-7.02.03-14.85,0-21.73,1.34-.97.19-2.07,0-2.35,1.32,6.75.07,13.63-.37,20.31-1.42.89-.14,3.63-.24,3.77-1.24ZM702.27,802.82c-3.04-.59-5.32-.73-8.36,0-1,.24-1.18-.48-1,1.31l2.92.62,6.43-1.94ZM436.7,805.5c-6.38,1.27-16.13-1.34-20.73,3.33,5.76-1.26,11.85-1.12,17.64-2.09.79-.13,3.11-.2,3.1-1.24ZM619.32,806.16l-12.7,1.66,4.26.94,8.44-2.61ZM359.78,807.5c-6.44-.04-14.02,1-20.21,2.86-.83.25-3.07.81-3.2,1.81l18.35,1.38c.63-.12.25-2.05.99-3.1,1.24-1.78,4.3-.67,4.07-2.96ZM636.04,808.17l-16.72,3c2.55,4.32,7.69.14,11.53-.5l5.18-2.5ZM648.09,810.83c-3.03-2.92-6.64-3.56-8.7.67l8.7-.67ZM795.68,812.41c-.69-.76-6.49-4.81-7.12-4.24,7.39,6.65,10.83,18.63.45,24.19-1.29.69-6.87,2.3-7.14,2.57-1.38,1.42,1.96,1.34,2.38,1.95.47.69.25,1.89.3,2.73,3.55-2.53,10.01-6.72,11.52-10.88,1.32-3.66,2.29-13.38-.39-16.31ZM730.9,810.95c-.93.23-5.79.06-5.21,1.55.55,1.41,3.24,3.72,4.28,5.08.83,1.09,2.55,4.67,3.06,4.99,1.93,1.23,6.28-1.89,8.68-1.73-.21-4.16-3.35-9.32-8-9.33l1,3.34-3.81-3.9ZM360.11,814.85c3.33.46,8.45,0,12.04,0,.46,0,3.73-.52,4.7-.65s2.06-.1,2.32-1.35l-20.73.67c-.24.67,1.39,1.29,1.67,1.33ZM729.7,824.21c.44-.56-7.21-10.64-8.02-11.05-1.32-.66-6.43.19-6.69,1.38l6.02,11.38,8.69-1.71ZM609.29,816.18c-2.12-4.13-7.91-.56-11.61-.65-1.65,5.42,8.55.39,11.61.65ZM632.65,814.91l-14.01,3.61c-1.12.83-.56,3.06-.65,4.36l15.39-5.36-.73-2.61ZM691.57,815.52h-15.05c-1.96,0-4.31-2.41-2.97,2.64.74.69,9.92-3.07,10,2.05l8.01-4.68ZM716.98,826.22c.52-.51-4.66-13.28-7.34-11.36l-.62,2.9c3.48,2.28,3.97,4.52,2.62,8.46h5.35ZM587.88,819.53l-1.75-2.51-4.95.51v2s6.69,0,6.69,0ZM770.5,823.54l-5.01-6.68-1.68,2.31,6.69,4.36ZM575.17,820.2c-1.27-2.48-4.39-2.02-6.69-2l1.12,1.89,5.57.11ZM773.84,832.9c.27-.99-.27-1.11-.65-1.67-1.19-1.76-11.19-9.77-12.72-9.34-.34.1-2.61,1.78-2.67,2.02,2.38,5.8,13.39,2.28,12.71,10.34l3.34-1.35ZM587.88,823.55c-.71-.16-6.88-.15-6.01,1.66,2.06,2.56,6.32,1.94,6.01-1.66ZM322.99,874.38c3.34-1.24,6.85-.26,10.21-.82,5.6-.94,14.81-5.13,21.35-6.74,10.38-2.56,23.33-5.4,33.84-6.96,4.39-.65,11.1-.24,14.75-1.3,2.86-.83,8.15-4.87,11.7-6.36,6.81-2.85,20.79-4.49,24.82-10.63.44-.67,4.64-8.79,4.79-9.29.82-2.7-1.62-5.68-4.15-6.52l-10.59,1.17c-13.7-3.78-24.66-1.3-38.17-.03-6.87.65-14.58.49-21.33,1.42-6.09.84-11.64,3.69-18.89,3.89-2.7.08-3.77-2.76-8.57-1.92-3.59.63-5.05,4.43-6.76,4.66l-10.33-1.35c.87,9.44,4.17,18.34,5.83,27.66.27,3.01-10.02,11.41-8.5,13.13ZM647.42,824.89l-21.58,6.84-7.85,4.52c7.37.8,13.65-3.84,20.3-6.11l9.12-5.25ZM685.54,827.57c-5.21.81-11.62,2.23-11.37,8.69.62.59,8.95-5.49,9.97-6.41.74-.68,1.68-.99,1.4-2.27ZM664.14,828.23c-.67-.54-9.58,5.46-10.7,6.68,3.24-.98,6.56-3.17,9.37-5.03.32-.21,2.62-.6,1.33-1.65ZM743.07,829.58c-8.59-3.74-10.6,2.09-2.38,5.34l2.38-5.34ZM764.48,834.26c-2.39-.6-3.52-2.96-5.89-3.82-2.09-.76-11.45-1.68-12.52-.22-.72.99-1.31,5.44-2.92,6.94l2.89,3.56c1.54-.59,4.52-.49,5.71-1.48,2.42-2.01,2.31-9.21,9.04-2.5l3.69-2.48ZM561.12,830.24c-2.74.81-6.26-.13-8.01,2.34,2.92,3.19,7.03,1.57,8.01-2.34ZM300.91,846.29v-12.37c0-.31-.83-1.04-.68-1.67h-.65c-.69,1.49.66,3.6.66,4.34v9.7h.67ZM720.32,832.9l-7.98,1.38-2.04,11.34,12.01-1.36-1.99-11.35ZM731.62,834.99l-8.61-2.07c1.81,4.06,1.3,10.57,7.7,8.02l.92-5.95ZM708.96,836.26l-3.97,1.04-10.74,10.99c9.3-1.1,14.32-1.05,14.71-12.03ZM657.89,846.73c1.21-1.12,3.86-5.31,4.78-6.93.33-.59,1.46-1.69.47-2.2-6.34,4.32-12.86,7.5-16.39,14.71.49.41,10.11-4.62,11.14-5.58ZM775.19,838.94c-1.42.26-2.96-.52-4.25-.44s-10.56,2.15-8.45,4.45c3.58-1.28,8.51-.98,11.86-2.51.9-.41,1.06-.06.85-1.49ZM691.57,840.28c-3.33-.6-6.2-2.66-8.02,1.32l4.88,1.94,3.15-3.27ZM456.77,839.61l-10.03,6.01c5.3-.16,7.42-1.5,10.03-6.01ZM740.4,840.28c-.41-.43-6.52,2.68-6.02,3.33,1.73.48,3.21,1.07,4.9.06l1.11-3.39ZM591.22,844.28c1.58-3.91-4.99-4.42-6.01-2.33-.63,1.28,1.33,1.08,2.02,1.29.69.22,3.83,1.22,3.99,1.04ZM729.7,852.31c8.44.2,16.01-3.4,23.4-7.02-1.31-1.84-4.1-.29-5.85.16-4.09,1.06-12.37,3.22-15.93,4.81-1.01.45-1.87.69-1.62,2.05ZM472.83,846.96c-2.7.12-6.45-.85-8.03,2h8.03s0-2,0-2ZM588.55,850.97c1.45-1.94-8.11-4.02-9.36-4,3.49,4.34,3.03,7.17,9.36,4ZM432.02,856.33l-13.07,3.98-7,3.36,17.63-2.76,2.44-4.58ZM731.7,860.35c-2.98-.48-9.68-1.58-12.25-.05-.61.37-1.16,1.9-2.13,2.71-1.25,1.05-6.76,4.38-6.98,4.74-.12.2,1.08,3.28-.04,4.62,7.48-3.02,16.3-5.39,21.4-12.03ZM714.98,860.35c-9.18-.13-18.44-.1-27.42,2.01.3,1.42,2.55.59,1.93,2.91-1.95,1.14-4.52,4.36-6.14,5.26-6.18,3.44-16.13,3-22.73,4.69-.97.25-2.22.77-2.5,1.84,10.03,0,19.15-1.46,28.33-5.44,1.94-.84,10.3-5.77,10.91-5.83,1.56-.16,2.21,1.93,2.29,3.18l5.29-1.6c-1.46-1.36-3.8-1.77-3.34-4.35,2.46-.98,5.01,2.67,6.74,2.36s5.48-3.52,6.64-5.03ZM617.99,863.69c1.16,2.06,8.21,4.07,7.87.32-.28-3.03-6.13.08-7.87-.32ZM492.23,871.04c-2.79-1.25-1.87.52-3.16,1.36-1.28.83-3.52.92-4.19,2.65l6.66.64.7-4.65ZM699.59,873.72c-5.77,1.16-11.69,2.23-17.38,3.69-.76.2-2.17-.04-2.01.98,6.48,1.03,11.87-1.47,17.84-3.25,1.1-.33,1.88.53,1.55-1.42ZM575.84,877.07c-3.34-.4-7-1.11-10.38-.68-.92.12-2.07.47-.99,1.33l5.69.73,5.68-1.39ZM490.22,879.08c-3.72.34-8.14-2.01-11.63-1.94-.96.02-10.44,1.74-10.44,2.27,5.03,2.72,12.04,1.61,17.65.92.98-.12,4.05-.35,4.43-1.25ZM633.99,882.46c-.34-.33-6.3-.86-7.31-.04,2.61,2.92,6.51,2.99,4.68,8.02h8.69s-4.98-4.04-4.98-4.04c-1.1-.71-.85-3.71-1.08-3.94ZM349.08,888.44c.25,1.21,1.31,1.25,2.32,1.36,8.45.91,17.6.71,26.14,1.34,4.14-1.84,11.36,1.71,12.24-3.73-.08-.8-1.85-1.08-2.56-1.32-2.45-.83-13.47-3.3-15.72-3.4-1.8-.07-3.07,1.81-4.7,2.39-5.04,1.78-12.37,2.21-17.72,3.36ZM722.34,883.09l-6.37,1.31-5.66,2.69,7.2-1.82,4.83-2.18ZM504.26,887.1c-4.81-2.4-8.97-.14-13.68.02-6.11.21-12.58-.92-18.42.97,1.74,1.1,5.68,1.59,7.7,1.68,5.89.26,14.68.15,20.43-.96.98-.19,3.7-.58,3.97-1.7ZM526.01,894.45c5.26.73,13.71,0,19.4,0,.23,0,.99-.88,1.67-.68-1.71-2.04-1.68-2.63,0-4.67l-11.37-.67c5.36,8.74-6.9,4.13-11.37,4.68-.24.67,1.39,1.29,1.67,1.33ZM439.38,891.11c.2-1.86-1.47-2.25-2.98-2.02l-5.71,3.36,8.69-1.33ZM605.95,889.11l-3.37.31-6,3.02c2.95-.3,7.29-1.15,9.36-3.33ZM417.98,893.12c-6.77-.57-12.78-2.53-19.41.33,5.48,1.91,11.38,2.1,17.06,1,.97-.19,2.07,0,2.35-1.32ZM446.05,892.47c-4.03-.2-8.1.03-12.04.95-.61.14-5.41.98-3.99,2.36,9.44,2.41,18.94,5.11,28.76,5.35l-.72-3.96-11.35-1.69-.66-3.02ZM619.99,893.12l-12.98-.62-9.09,3.29c6.97-.7,14.13-.51,21.08-1.33,1-.12,2.04-.54.99-1.34ZM644.74,892.45c-4.5,1.02-10.63.28-13.02,4.69l-5.7,3.32c4.96-.89,10.57-2.36,15.05-4.67.47-.24,4.84-2.32,3.67-3.35ZM503.6,895.13c-1.4-.11-2.76,0-4.16.19-.66.09-2.67.19-2.52,1.14l6,1.35.68-2.67ZM615.98,897.14c-3.07-.58-6.14.59-9,.69-8.93.31-18.69-.73-27.46-.03-.78.06-3,.21-3,1.33l20.43.7,19.03-2.7ZM470.15,900.47c-1.5-3.29-5.73-1.66-8.7-1.99,1.86,3.86,5.23,2.66,8.7,1.99ZM494.9,900.48c-3.98.99-10.26-1.32-13.7-.68-1.15.22-1.88.71-1.68,2l4.31.69,11.07-2.02ZM531.02,902.49l-13.37-1.34,7.74,3.29c1.56-.37,4.79-.42,5.63-1.95ZM590.56,905.83l-26.75-3.35c.35,1.07,3.06,1.29,4.13,1.55,5.74,1.35,12.35,2.17,18.24,2.49.9.05,4.18.48,4.38-.69ZM502.26,913.85c-.27-1.33-1.37-1.15-2.35-1.33-9.78-1.85-9.82-2.12-18.21-6.54-4.81-2.54-6.27-.71-10.88.52-.86.82,8.44,4.67,9.39,4.98,1.49.49,7.97,2.37,9,2.37h13.04Z"/>
  <path d="M140.21,107.27c3.93-.76,11.91,4.33,12.18,8.27.37,5.47-4.1,12.13-9.18,14.18-12.33,4.97-15.84-19.97-3-22.45Z"/>
  <path d="M266.74,460.27c-6.42.8-3.71-10.56-2.83-14.53,2.1-9.52,6.48-20.18,12.92-27.54-2.39,9.43-6.4,18.64-8.23,28.22-.92,4.82-1,9.14-1.85,13.86Z"/>
  <path d="M328.34,529.23l7.45,20.98c1.84,3.98,3.99,7.78,7.25,10.8-3.3,3.13-7.2-1.69-8.96-4.41s-5.75-13.23-5.75-16.33v-11.04Z"/>
  <path d="M369.14,575.38c-4.61.62-8.7-5.27-10.81-8.91-3.66-6.33-4.99-13.24-5.23-20.51l8.15,16.92c1.86,4.75,8.03,7.29,7.89,12.5Z"/>
  <path d="M299.58,501.13l1.99-2c-1.87,6.91.71,14.07-.75,20.64-3.04.99-3.09-1.39-3.73-3.78-1.97-7.43.16-13.7,1.82-20.87l.67,6.02Z"/>
  <path d="M282.19,459.67l.69,6.38c-1.05,2.45-.37,14.85-3.63,14.31-3.87-.64-.58-12.96.39-15.54.69-1.82,2.33-3.12,2.54-5.15Z"/>
  <path d="M328.34,652.31c2.62-.35,5.41,3.65,5.86,5.83.61,2.96-.93,13.65-3.18,7.87-.68-1.74-3.47-12.86-2.68-13.7Z"/>
  <path d="M195.22,588.09c-.75,2.64-6.74,15.31-9.68,14.72-1.12-.22-1.07-1.64-.67-2.66,1.49-3.75,7.22-9.36,10.35-12.06Z"/>
  <path d="M201.24,612.17c-2.78-2.84,9.76-8.05,12.04-8.02,1.15,1.13-6.59,6.96-7.64,7.41-1.58.67-2.7.81-4.4.62Z"/>
  <path d="M289.54,501.8c-5.71.08-3.93-12.16-.33-14.71l.33,14.71Z"/>
  <path d="M343.63,657.56l-2.51.03-2.07-11.3c3.55-.22,6.62,10.03,4.58,11.27Z"/>
  <path d="M244.06,159.99c-.1,1.97.33,4.15-.3,6.06-1.23,3.77-6.19,3.33-4.75-2.06.73-2.72,2-4.88,5.05-4Z"/>
  <path d="M309.61,526.56c-.64-.59-1.59-12.44,1.33-13.38-.16,3.72,4.32,13.28-1.33,13.38Z"/>
  <path d="M220.64,614.85c1.31,3.71-8.42,9.15-9.34,5.63-.66-2.53,7.3-5.21,9.34-5.63Z"/>
  <path d="M241.9,202.65c-.57.49-5.77,1.38-5.85-.18.06-2.64,7.21-8.59,8.01-4.67.05.26-1.96,4.68-2.16,4.85Z"/>
  <path d="M94.21,89.76l-8.66,6.39c-.81.65-2.64.07-2.69-.71-.13-1.89,8.9-7.01,11.35-5.68Z"/>
  <path d="M248.74,131.9c.33,3.65-4.57,4.76-7.26,3.24l.29-3.32c2.42-1.14,4.53-.3,6.97.08Z"/>
  <path d="M389.06,576.85c.34.57.1,1.26.15,1.87-5.94.78-6.09-4.93-6.68-9.36l4.68,6.37c.31.59,1.69.85,1.85,1.11Z"/>
  <path d="M221.31,263.67l-.29,2.04c-11.93,2.71-12.11-3.56.29-2.04Z"/>
  <path d="M234,222.21c2.65,3.39-5.13,7.25-6,4.32-.67-2.27,4.04-4.5,6-4.32Z"/>
  <path d="M221.08,245.67c1.6-.2,5.64.58,4.91,2.94-1.18,1.99-6.03.58-6.03-1.33l1.12-1.61Z"/>
  <polygon points="211.94 293.11 211.65 295.15 210.84 295.69 204.59 295.11 204.91 293.09 211.94 293.11"/>
  <path d="M351.23,649.47c-.93-1.17-.81-4.95-.81-6.52,2.39,1.27,4.88,4.94,2.34,7.34-.34-.52-1.24-.46-1.53-.82Z"/>
  <path d="M250.75,95.11c.56,3.26-1.83,4.18-4.68,4.01l.76-3.92,3.92-.09Z"/>
  <path d="M96.89,71.7l-5.32,3.71-2.03-.72c.95-3.25,4.69-3.19,7.35-2.99Z"/>
  <path d="M200.57,368.03c.4.36-5.91,7.62-6.68,8.36-1.9,1.83-5.46,5.28-8.03,5.01-1.74-1.74,6.54-8.47,8.08-9.64.86-.65,6.01-4.28,6.63-3.73Z"/>
  <path d="M193.21,364.68l-10.02,9.71c-.61.85-1.93-.23-2.02-.7-.47-2.34,8.81-10.4,12.04-9.01Z"/>
  <path d="M199.24,385.42c.76.7-6.38,7.47-7.64,8.07-2.84,1.34-4.5.62-1.95-1.95,1.08-1.09,8.6-7.03,9.59-6.12Z"/>
  <path d="M192.55,406.81c.02-4.18,4.26-6.32,7.35-8.02.53.56-5.64,9.7-7.35,8.02Z"/>
  <path d="M246.07,784.08c-.29-1.26.71-1.58,1.33-2.34,2.08-2.52,4.91-4.85,7.35-7.02-.71,2.18-2.79,5.06-4.34,6.69-1.17,1.24-2.34,3-4.35,2.67Z"/>
  <path d="M98.9,394.1c-3.25.98-15.23-7.06-14.72-9.68.22-1.12,1.64-1.06,2.66-.67,2.97,1.15,9.69,7.77,12.06,10.34Z"/>
  <path d="M92.87,400.13c-2.7.24-4.32-1.96-6.01-3.68l1.32-1.37c1.17-.55,5.43,3.19,4.69,5.05Z"/>
  <path d="M94.21,376.73c.18,1.17-1.53.66-2.18.51-1.87-.44-4.4-1.54-4.5-3.86,3.3-.77,3.87,2.8,6.68,3.35Z"/>
</svg>