<?xml version="1.0" encoding="UTF-8"?>
<svg id="Layer_1" data-name="Layer 1" xmlns="http://www.w3.org/2000/svg" viewBox="0 0 804.16 920.33">
  <path d="M420.37,58.97l-23.68-9.46c8.32,1.38,16.69,4.53,24.53,7.61,51.7,20.27,57.69,42.85,78.21,90.3,1.91,4.41,9.19,13.06,9.58,16.18.35,2.75-1.38,4.14-1.4,6.69-.03,5.19,2.29,13.74,2.76,19.64,2.06,25.66.78,56.88-2.78,82.47-1.19,8.55-3.11,17.12-5.33,25.45,1.15,1.16,5.25-7,6.09-7.78s.75-.09.69.69c-.28,3.73-3.03,6.99-3.26,9.62-.5,5.81-2.2,7.22-2.72,10.82-1.36,9.52-4.81,23.05-9.49,31.77-2.54,4.73-4.09,2.33-3.41,9.28.34,3.47,1.77,7.27,1.97,10.88.69,12.01-3.78,29.34-6.98,41.12-.69,2.55-2.94,6.29-3.18,8.38-.33,2.87,1.48,6.13,1.35,9.07,1.33.61,2.69-7.55,3.34-4.45-3,10.73-8.33,21.74-7.32,33.13.31,3.52,3.35,20.46,4.63,22.96.51,1,6.08,1.36,6.78,4.2l-5.25,2.68c.52,4.07,5.1,14.12,4.46,17.45-.86,4.46-3.73,4.75-5.9,7-16.38,16.99-25.22,21.63-44.41,34.09-17.02,11.05-33.57,23.86-50.88,34.39-3.53,2.15-9.34,6.07-13.06,7.24-2.96.93-6.95.55-9.3,1.53-1.83.77-7.06,6.05-9.29,7.63-.99.7-2.27.52-3.04,1.02-.3.2-3.99,5.42-4.24,5.92-1.49,3.03-.59,9.25-6.15,5.94-.81-.48-4.09-6.22-5.87-7.84-1.36-1.23-6.17-4.26-7.83-4.36-1.21-.07-2.59.68-4,.68-12.1.04-19.18,1.49-30.1,6.44-2.43,1.1-3.79,4.98-6.41,4.4l-2.88-5.5c-2.17-.52-3.74,1.24-5.36,1.4-1.47.14-2.69-.66-4.04-.7-3.17-.11-3.96,1.32-7.31-1.43l-29.44-34.18c-4.17-11.34-6.88-24.23-5.43-36.37.84-7.07,1.96-13.83,2.71-20.97,1.06-10.01,5.38-21.77,11.76-29.52.51-.11.43.65.33,1-1.93,6.17-7.18,12.14-8.11,19.64-.18,1.46.36,1.25,1.01.33,2.52-3.58,6.03-9.59,8.14-13.51,1.63-3.03,12.5-25.74,11.15-27.08l-5.39,2.41c-3.98-1.25,3.16-4.2,4.65-5.53,5.09-4.55,7.23-16.91,12.37-24.17,6.64-9.38,16.26-14.61,22.87-22.47,2.28-2.72,4.05-6.44,6.23-9.33,7.48-9.93,19.93-24.58,22.02-36.85,1.11-6.51,3.01-16.8-5.73-18.26-8.75-1.46-8.93,1.05-15.57,3.74-7.65,3.1-18.89,4.47-25.82,8.01-4.18,2.14-10.54,9.46-15.02,12.73-3.07,2.24-19.67,14.22-18.2,3.49.11-.78,2.54-4.62.34-3.77-1.84.72-7.75,5.75-10.29,7.31-9.54,5.85-13.18,6.51-23.37,9.79-11.31,3.64-20.14,13.11-31.2,18.2-11.29,5.2-17.87,5.13-29.59,6.27-4,.39-3.66,3.49-10.16,2.11-4.66-.99-13.41-7.81-14.68-12.39-.38-1.35-.02-2.84-.46-4.27-.49-1.58-2.5-2.58-2.94-4.49-1.53-6.61,7.06-31.22,10.57-37.87,3.54-6.74,5.5-10.78,8.59-17.81,1.35-3.08,11.01-23.02,9.8-24.37-2.89.88-4.92,6-6.44,8.78-4.51,8.25-8.5,16.94-11.84,25.73-1.2.17-.69-1.54-.51-2.21.85-3.26,2.52-7.93,3.78-11.11,3.8-9.64,7.88-14.85,10.59-25.27.82-3.15,4.42-6.58,5.31-10.25,1.05-4.3-.42-6.18-.25-9.66.43-8.61,13.19-17.95,18.65-24.07,1.05-2.28-1.17-3.81-1.07-6.39.22-5.76,7.91-6.54,12.23-7.13,1.17-1.34-6.65-8.52-3.02-14.18,2.21-3.44,8.12-3.42,11.82-3.41.61-.61-2.09-11.07-2.08-13.19.01-3.1,2.04-6.17,2.12-8.82.09-2.9-1.03-5.74-.64-9.38.87-8.1,7.95-23.25,11.99-30.64,2.58-4.71,9.66-13.42,11.1-17.33.91-2.47.93-5.98,1.85-8.97,7.75-25.18,47.52-58.63,71.3-68.78,11.09-4.73,23.52-6.32,33.56-13.18l-.62-2.94c4.29-1.27,8.78-.27,13.13-.75,5.45-.6,11.92-3.04,17.76-3.89,15.35-2.23,31.17-1.35,45.76,4.13,2.1.79,8.62,4.54,9.7,4.59,1.45.07,2.5-1.4,4.66-1.44,3.17-.07,7.13,1.91,10.51,1.42ZM307.35,84.7c-5.25,1.27-11,4.33-14.21,8.78,5.74-.64,10.83-4.29,14.21-8.78ZM469.77,99.58c-1.19-4.55-5.15-9.19-8.78-12.18l1.46,3.61,7.32,8.57ZM376.39,115.82c3.51-1.4,5.8-.37,9.1.7l3.06-3.07c-.84-1.3-1.08-.73-2.01-.69-2.96.13-10.97-.72-10.15,3.06ZM359.46,114.48c-7.99-.51-15.48,1.13-21.6,6.48-.77.68-1.67,1.04-1.4,2.31l23.01-8.79ZM370.29,134.09l.67-12.18c-6.84,3.43-8.49,8.76-.67,12.18ZM250.5,128.69c-.41-.42-7.79,3.94-8.17,4.55-.95,1.53.57,4.03-.78,5.78l-14.05,30.28c1.65-1.13,3.12-3.27,4.19-4.94,4.67-7.3,14.28-23.56,17.59-31.13.32-.73,1.43-4.32,1.22-4.52ZM399.39,136.81c-4,.28-1,7.44-.08,9.89.32.86.15,2.08,1.43,2.29l-1.35-12.18ZM434.59,140.87c-.13,1.17.05,2.27.3,3.41.81,3.69,4.28,15.43,5.73,18.63,1.83,4.03,5.32-2.55,6.05-4.63-3.71-4.98-6.32-10.83-9.94-15.85-.61-.84-.71-1.88-2.15-1.57ZM480.59,178.09c.31-2.25-.97-3.98-1.91-5.87-3.09-6.22-9.78-17.94-13.77-23.45-.5-.68-1-1.63-1.9-1.81,2.67,8.56,6.68,18.53,11.38,26.17,1.82,2.96,2.41,4.3,6.2,4.96ZM376.37,197.03c-.86-10.97-3.09-21.79-6.75-32.15l-4.07-9.8.88,6.89,9.93,35.06ZM341.19,156.43l-3.99.73c-.94,5.36,4.89,3.03,3.99-.73ZM452.6,169.33c-1.16.36-6.44,8.72-6.56,10.45-.15,2.07,3.08,15.58,4.46,15.9,1.52-1.23,6.75-4.82,7.4-6.12.65-1.3,1.66-8.91,1.61-10.48-.07-2.11-4.5-10.49-6.91-9.75ZM317.5,172c-.6-.69-7.26,4.97-8.13,5.74-2.47,2.17-6.03,5.45-8.27,7.78-.56.58-.96,1.27-1.19,2.04l17.24-12.19.35-3.37ZM366.23,218.01c.68-.75-4.41-12.81-5.3-14.66-.99-2.04-4.92-9.51-6.17-10.74-2.32-2.28-4.28.1-3.97,2.57.2,1.62,6.04,14.83,7.19,16.54,1.74,2.58,5.28,5.17,8.25,6.29ZM416.3,234.93c.83-3.06,2.1-7.24,1.99-10.38-.16-4.54-5.3-20.91-6.92-26.3-.29-.97-.91-3.55-1.83-3.92l6.75,40.6ZM435.25,207.86c-1.98-1.9-1.28,5.55-1.34,6.09h2.02s-.68-6.09-.68-6.09ZM299.23,215.31c-1.17-.92-5.66,2.98-6.41,4.03l1.34,3.4,5.08-7.42ZM344.57,243.05c2.7-.05,13.3-1.4,13.57-4.4.1-1.15-8.12-19.71-9.19-19.95-1.38.43-7.56,6.58-7.6,7.1-.41,5.15,9.57.26,10.65,6.13,1.12,6.07-4.79,7.08-7.44,11.13ZM207.87,234.92l-5.41-10.14c-1.92,4.69-.02,9.84,5.41,10.14ZM440.35,225.47c-3.31,2.48-3.15,7.75-.7,10.8l4.39-5.04c-.41-1.15-2.16-6.1-3.69-5.76ZM470.44,272.15c1.5-13.56,5.58-26.91,5.41-40.6l-4.11,28.7c-.9,2.84-1.64,5.97-1.89,8.94-.06.77-.69,3.05.58,2.95ZM372.4,242.29l2.32-.57c1.09-4.33-3.04-7.27-6.45-8.82l4.13,9.39ZM201.78,251.17c-2.49-3.35-4.1-9.05-6.47-12.14-2.1-2.74-4.59.71-4.94,2.5-.58,2.97,7.87,10.11,11.41,9.64ZM193.65,258.62c-1.87.13-6.08-1.96-6.76,1,1.43,3.61,8.18.32,6.76-1ZM454.2,287.72l4.73-24.37c-1.19.28-1.44,1.58-1.87,2.53-2.52,5.66-3.38,14.64-4.17,20.88-.17,1.34.16.97,1.3.96ZM187.34,270.88l-1.12,1.61c8.79,7.73,15.34-1.24,1.12-1.61ZM394.66,322.9l2.37-.67c2.72-7.13,4.61-14.64,7.28-21.82,1.95-5.23,10.05-21.3,10.04-25.22,0-1.17-.02-2.27-1.08-3.03-7.86,16.21-14.26,33.21-18.6,50.75ZM495.49,274.86c-1.98-.34-1.09.48-1.43,1.57-1.98,6.42-3.11,14.11-3.97,20.75,1.14-.19,1.21-1.32,1.54-2.18,2.37-6.18,3.06-13.62,3.86-20.15ZM161.17,278.24c-3.16-1.1-4.9,6.28-4.05,7.44,3.67-1.41,4.6-3.59,4.05-7.44ZM431.87,308.69l5.42-16.91c-1.14.55-1.98,2.68-2.6,3.82-1.66,3.06-6.04,10.6-2.81,13.1ZM237.36,298.93c.43-.56,1.74-1.86,1.33-2.42-5.76-5.62-8.25,3.43-7.12,8.13.31.26,5.42-5.22,5.8-5.71ZM234.28,310.71c1.57,2.26,10.1-4.51,5.06-7.41-1.22,1.46-6.52,5.31-5.06,7.41ZM218.7,330.35c4.25-5.45,9.78-10.04,13.86-15.58,1.41-1.92.4-2.03-1.69-2.38-4.32,5.46-10.54,10.95-12.16,17.96ZM159.15,343.21c1.27.29,1.6-.72,2.37-1.35,1.15-.95,8.15-7.32,8.33-7.93l-1.23-11.69c-3.19,3.63-3.63,9.75-5.76,14.2-1.26,2.64-3.4,4.05-3.71,6.77ZM494.13,338.47l5.42-16.23-5.78,14.17.37,2.06ZM434.59,346.59c4.45-5.22,6.05-13.01,9.87-18.92l-3.44-4.75c-1.24-.04-6.67,21.01-6.42,23.67ZM189.59,325.61c-6.15.22-5.17,8.09-8.17,11.11-2.64,2.66-5.1,1.1-7.89,2.26-1.72.72-3.38,3.39-4.91,4.57,7.8,1.17,2.29,9.01,2.03,13.87,6.94-8.2,15.5-8.51,8.79,4.05,1.06,1.07,4.42-5.26,8.34-3.97,2.94.97,1.1,4.82.46,6.68,1.95,1.98,5.96-7.95,6.74-9.16l-1.33-7.75c-.46-.47-4.61,2.64-6.81,1.06-1.05-1.07-.37-2.72-.77-3.96-.67-2.1-2.96-1.56-1.36-5.71.97-2.51,5.4-6.23,5.97-8.29.44-1.59-1.37-3.06-1.1-4.76ZM152.37,337.79l3.39-10.15c-1.88,1.69-3.81,5.63-4.44,8.07-.36,1.4-.89,2.42,1.06,2.08ZM416.3,339.82l1.35-11.5c-1.01.37-1.86,2.4-2.37,3.37-1.88,3.57-4.01,6.43,1.02,8.13ZM440.68,362.83c4.39.68,4.67-.89,6.21-4.27,2.55-5.61,2.5-11.4,3.26-17.38-2.31,1.51-10.34,20.84-9.46,21.65ZM146.28,385.16l18.27-37.22c-.41-.46-8.92,7.13-9.48,7.77-1.73,1.99-9.28,24-9.49,27.06-.05.72-.43,2.57.7,2.38ZM489.39,377.72c.17-6.78,1.88-15.46.04-22.02-.26-.93-.08-2.1-1.38-2.34l.67,22,.67,2.36ZM259.3,358.1c-5.26,0-8.44,2.74-10.71,7.22-.8,1.58-2.73,5.35.4,4.48,3.47-.97,7.79-8.76,10.31-11.69ZM227.49,369.6l-2.65,1.07-4.11,3.66c1.42.42,8.52-2.88,6.76-4.73ZM480.6,393.96c1.48.25,1.63-.61,1.99-1.72,2.17-6.5,2.06-15.16,2.06-21.96l-3.2,10.66-.85,13.02ZM396.68,374.34c-.74-.78-6.54,4.27-7.45,5.06-9.1,7.95-17.38,17.92-26.85,25.59l-.28,2.19,2.65.83c4.84-5.97,10.53-11.38,16.02-16.79,4.31-4.25,11.48-9.44,14.93-14.15.68-.93,1.28-1.37.98-2.73ZM403.32,387.31l-2.82-1.39c-1.54,1.66-3.49,2.85-5.18,4.32-4.23,3.68-31.31,30.57-32.17,33.48-.53,1.8-.3,3.62-.3,5.44,16.96-9.57,25.38-28.46,40.47-40.03v-1.82ZM402.77,433.21c2.14-7.15,5.97-14.21,6.77-21.65l-5.21,12.71c-.3,2.34-1.57,4.47-2.07,6.73-.15.68-.68,2.38.51,2.2ZM270.81,436.6c1.92-1,3.02-3.17,4.77-4.35,1.27-.86,4.7-1.86,5.09-2.4.58-.81-.43-2.14.33-3.62,1.07-2.05,5.51-6.51,7.27-9.04.54-.77,3.29-4.44,2.82-4.95-8.16,6.32-16.48,14.59-20.29,24.36ZM355.4,412.24l-13.2,9.47c-.08,2.73-.82,5.98-.96,8.55-.06,1.18-.08,1.54.96,2.27,4.72-6.81,12.16-11.39,13.19-20.29ZM481.27,430.5c-.39-2.18,1.99-5.51,1.99-7.1,0-.95-2.15-6.42-3.33-7.1l-.69,5.05,2.03,9.16ZM374.36,450.13l11.49-26.39c-4.23,2.93-9.2,6.2-12.52,10.14-1.29,1.53-7.32,10.45-7.76,11.86-.69,2.22,3.07-.15,3.88-.23,2.37-.23,5.08,2.16,4.92,4.62ZM477.89,428.82c-.74,2.93.54,8.56,0,11.84l2.62-8.46-1.28-4.4c-.22-.18-1.28.77-1.35,1.01ZM270.81,441.34c1.36-.51,8.19-7.97,7.43-8.8-3.08,2-6.17,5.21-7.43,8.8ZM322.25,490.06c1.13-.19,1.22-1.32,1.54-2.18,3.61-9.55,3.18-31.9,3.22-42.86,0-2.42-1.26-5.1-.71-7.75l-1.85,5.24c-1.3,15.72-5.23,31.88-2.2,47.54ZM397.37,473.14c7.38-8.23,13.85-18.93,12.84-30.45l-11.15,22.34-1.69,8.11ZM347.76,516.92c2.84-2.48,3.82-16.11,4.25-20.43.81-7.93,2.73-23.92,2.08-31.17-.25-2.79-2.13-3.86-2.05-5.98.1-2.66,3.07-6.79,3.2-10.41.12-3.26-2.25-1.99-3.29.13-1.19,2.45-2.35,10.03-3.01,13.23-2.37,11.48-7.86,41.84-5.43,52.18.53,2.26,1.99,4.42,4.24,2.45ZM361.48,463.66l2.71-14.88-3.22,5.91c-.24,2.18-.25,4.43-.16,6.62.03.82-.51,2.51.67,2.36ZM341.19,464.34c1.74-.36,3.53-9.71,3.38-10.47-.38-1.88-3.38.21-3.38.65v9.81ZM379.76,488.71l-6.76-.38-4.06,7.81c6.26-.61,10.1.41,10.82-7.44ZM302.61,493.44l-2.04.45-.66,5.64c1.63-.43,3.58-5.21,2.7-6.09ZM270.81,534.39c-.49,3.59,0,9.01,0,12.86,0,.24.89,1,.68,1.69,1.25.94,3.47-6.59,3.72-7.43,3.97-13.48,6.01-28.54,9.17-42.3-1.31-4.21-3.3,2.55-3.93,4.23-2.21,5.89-8.92,25.61-9.64,30.96ZM328.33,498.86c-3.75.94-4.04,5.74-6.49,8.73-1.78,2.19-4.15,3-5.42,5.46l1.09,11.52c1.24-.38,1.63-1.89,2.14-2.93,1.18-2.4,9.5-21.88,8.68-22.79ZM267.42,510.37c-1.45-.26-1.61.65-2.02,1.7-2.68,6.93-4.09,16.16-6.77,23.34,1.47,1.64,4.8-7.48,5.04-8.15,1.88-5.1,3.8-11.5,3.75-16.89ZM402.09,510.37c-6.55,2.62-6.43,10.26-6.08,16.24,2.57-1.5,7.28-14.81,6.08-16.24ZM236.96,539.46c-.42-7.6,3.2-14.98,2.71-22.33-1.21.21-1.16,1.37-1.45,2.27-1.49,4.68-2.15,12.78-1.93,17.7.04.82-.51,2.52.67,2.36ZM297.88,539.46c1.46.25,1.61-.64,2.02-1.7,2.17-5.55,2.47-13.73,4.08-19.61-.07-2.04-.76-.69-1.21.16-.68,1.29-4.9,10.73-4.9,11.35v9.81ZM347.28,524.58l-6.09-1.35c1.18,6.24,4.34,10.28,6.09,1.35ZM337.13,545.55c5.9.51,5.72-3.47,7.24-7.8l-5.88-4.73-1.35.68v11.84ZM306.67,563.15c-5.23,1.55-6.43-6.28-8.11-7.13-1.94-.98-6.44,1.33-9.13-1.67l-2.96,6.57,9.71,7.41c.33-.91,12.79-3.16,10.49-5.17Z"/>
  <path d="M605.8,621.35c4.87,4.99,8.74,10.49,12.3,16.46,15.44,25.92,26.19,56.55,35.09,85.37,5.07,16.39,8.8,33.31,10.13,50.43l-2.7-1.35c-2.61,4.92,2.69,4.79,3.27,6.54.5,1.53-.1,4.04.19,5.9,1.19,7.72,3.55,15.22,4.57,23.18.33,2.58-.24,5.15.38,7.74.93,3.92,9.34,10.1,13.24,11.12-4.17,4.43-9.98-.21-14.2-2.37.12,3.2-2.96,4.24-4.09,5.74-5.24,7.02-7.59,12.88-18.44,11.02-2.22-.38-5.18-2.75-6.92-2.59-2.55.23-.12,4.17-5.12,2.45-3.6-1.24-2.18-6.06-4.36-8.48-2.6,4.56-4.9,9.26-8.44,13.2-7.39,8.23-23.31,18-22.36-1.03-7.79,5.02-22.93,17.61-32.68,14.75-4.08-1.2-3.57-8.84-2.51-12.04-12.5,6.06-26.99,12.62-39.58,2.94-10.56,5.27-23.44,7.35-33.16-.67-11.59,5.61-24.28,10.05-37.23,11.26-3.65.34-7.72-.44-11.34.17-4.35.73-11.97,5.85-17.56,7.48-3.75,1.09-9.14,2.28-13.02,2.55-18.06,1.24-33.99-9.48-44.03-23.71l-1.01,3.38c-.74-.03-.95-.61-1.16-1.2-1.81-5.12-1.47-14.21-2.4-19.94-1.75-10.79-5.48-22.05-7.73-32.88-3.98-19.18-7.35-38.49-11.37-57.66-2.64-12.58-11.36-39.34-10.97-50.55.08-2.44,3.49-4.72.13-7.63-7.77,6.28-3.78-2.62-4.36-4.96-.19-.77-1.97-.53-2.13-2.16-.13-1.38,12.51-20.16,14.39-23.57,4.17-7.59,6.38-15.57,9.88-22.6.9-1.81,2.37-1.88,3.15-2.94,1.31-1.78.5-5.67,4.35-2.23,2.02,18.25,5.99,36.33,10.06,54.23.83,3.66,1.8,11.25,3.31,14.38.21.43,3.75,4.63,4.05,4.69,14.76-12.47,24.06-29.73,35.18-45.25,25.09-35.02,53.5-71.3,88.62-96.81,1.99-1.45,10.53-8.03,12.34-5.96.74.85.53,2.74.96,3.12.27.24,3.66.58,4.77.98,2.32.84,4.82,2.45,7.26,2.89,4.29.78,8.65-.19,12.93.6l.57,3.02-4.67,1.07,12.17,5.76-2.02,1.34c10.22,5.95,20.03,14.39,28.09,23.01,8.25,8.82,12.07,16.31,22.84,23.18,8.79,5.6,16.23,2.87,25.53,6.62-.02.74-3.51,2.02-3.72,2.02h-10.49ZM499.55,578.04c-3.24-.22-5.6,3.62-3.04,6.08l3.04-6.08ZM449.47,612.56l-13.21,13.52-9.8,12.87c8.03-8.35,15.81-17.34,23-26.39ZM580.08,632.85c-1.66-6.36-7.24-12.02-12.17-16.24-.29,1.24.42,1.87.91,2.8,2.47,4.61,6.73,10.77,11.25,13.44ZM605.8,624.72c-2.22-4.06-6.01-4.52-10.15-5.4l.68,5.41c2.57-1.05,3.96-1.91,6.95-1.19.91.22,1.31,1.55,2.52,1.19ZM516.47,638.94c7.38-2.24,2.7-10.58,1.34-15.56-1.17-.16-.64,1.54-.67,2.36-.15,4.43-.39,8.79-.67,13.2ZM548.27,632.17c1.17-2.98-2.25-8.09-4.43-4.76-.92,1.42,3.51,5.76,4.43,4.76ZM488.72,677.51c2.45.42,3.84-2.4,4.86-4.27,3.38-6.18,5.51-13.73,9.2-19.9l.82-21.84-14.88,46.01ZM437.29,634.21c-.67-.75-3.2,2.14-3.73,2.69-4.03,4.2-8.73,10-12.49,14.58-1.37,1.67-3.42,3.74-4.07,5.74,5.12-5.24,11.14-10.74,15.91-16.23.84-.97,5.23-5.82,4.39-6.77ZM622.92,660.4c-4.25-7.24-6.11-15.73-12.4-23.14-2.34-2.75-3.55-3.6-7.42-3.06-.06.54-.02,1.01.14,1.54,1.6,5.2,12.26,17.76,15.78,24.15,6.72,12.21,11.56,25.84,16.5,38.85l3.45.41c-4.36-12.6-8.66-25.36-14.36-37.43-.39-.83-1.46-.96-1.68-1.33ZM591.58,678.19c-2.33-10.38-6.62-20.24-12.57-29.04-3.32-4.91-7.32-10.23-13.14-12.23.89,2.44,2.26,4.66,3.63,6.85,2.72,4.34,17.65,24.05,17.89,26.79.13,1.49-.95,2.56-.22,4.22.37.84,4.16,3.72,4.41,3.41ZM415.64,709.32c12.68-15.29,20.21-34.01,30.88-50.66l.92-2.79-8.55,11.4c-3.49,10.17-15.59,19.18-19.9,28.15-1.71,3.58-2.17,9.88-3.35,13.9ZM563.16,671.43c.53-2.58.82-8.21-2.7-8.79.15,2.73.4,7.01,2.7,8.79ZM518.5,666.69v12.18l5.45-1.73c.23-1.51-2.31-7.45-3.29-8.89-.59-.87-.76-1.85-2.16-1.56ZM453.54,690.37c3.28-3.8,6.58-9.97,8.66-14.68.43-.97,1.05-1.7.8-2.92l-9.46,17.59ZM536.09,689.36c-.66,3.54.48,8.76,0,12.52,9.01-3.96,5.46-9.54,3.38-16.92-1.07-1.01-3.28,3.86-3.38,4.4ZM479.33,685.73l-18.5,36.65.49,2.5,21.26-37.62c.25-1.6-2.12-1.97-3.25-1.53ZM492.79,705.94c1.49.27,1.59-.66,2.01-1.7,1.86-4.6,3.11-11.62,3.39-16.56-.95,0-1.38,1.96-1.66,2.73-1.72,4.73-3.72,10.57-3.75,15.54ZM601.73,754.66l-21.64-65.64c.11,6.84,9.03,20.82-2.04,22.33-1.04,1,10.58,23.49,12.07,26.17,3.22,5.79,6.96,12.54,11.61,17.14ZM465.7,747.21l18.27-46.69-7.55,12.4c-3.42,7.77-7.69,15.27-10.55,23.29-1.3,3.65-4.07,8.08-.18,10.99ZM522.57,718.12c5.56-3.45,5.06-7.74,4.05-13.53-1.14.19-1.21,1.32-1.54,2.18-1.22,3.22-2.16,7.94-2.51,11.36ZM648.43,734.36c-1.84-7.63-3.29-16.78-6.06-24.05-.23-.59-2.84-7.19-4.09-5.72l6.58,22.85,3.56,6.92ZM561.67,715.97c.43-.76.25-2.44-.49-2.97l-3.14.35.39,4.09c.33.23,3.1-1.23,3.24-1.47ZM546.91,720.83c-1.15-1.09-1.13.33-1.41.95-1.05,2.33-1.62,5.44-2.64,7.84,4.16.38,6.3-6.66,4.05-8.79ZM622.05,722.86c-.09,1.97.8,3.77.74,5.75-.08,2.57-2.04,4.04-.91,6.22l9.65,14.78c8.3,1.43,4.48-5.91,2.15-10.3-1.97-3.71-7.19-12.05-9.72-15.32-.58-.75-.68-1.4-1.91-1.13ZM564.87,726.25l-3.54,4.93c1.86,5.32,1.67,13.19,3.35,18.24.25.76.77,1.39,1.52,1.69l7.79-2.9c-3.2-5.74-4.39-15.53-7.59-20.82-.39-.64-.57-1.37-1.53-1.15ZM528.65,731.65c-1.05-.18-1.57.1-2.4.64-1.33.87-9.05,7.67-10.07,8.88-1.97,2.36-2.84,8.8-2.42,11.81.13.93-.39,1.17,1,.99l13.89-11.83v-10.49ZM414.22,736.45c-1.54-.19-3.16-2.22-4.34-.75l-19.03,34.52.42,3.39,22.95-37.16ZM381.8,776.32c4.28-2.56.66-6.47.64-9.12-.02-1.81,1.65-3.87,1.29-5.29-.31-1.2-3.3-2.83-3.33-4.83l-4.69-17.3,6.09,36.54ZM427.81,741.81l-2.59.11-10.93,20.19c3.95-5.08,9.67-11.75,12.75-17.36.53-.97.96-1.79.77-2.94ZM552.25,764.04c.2-1.64,2.3-2.55,2.67-3.77.48-1.57-1.67-10.32-2.46-12.17-.64-1.5-3.26-5.2-5.11-4.84-6.7,3.76-3.55,11.74,2.19,14.53l.41,5.68,2.29.56ZM465.04,776.32c7.54-8.86,10.87-20.82,10.14-32.48l-10.14,32.48ZM630.84,759.39l-8.79-12.85c.39,6.35,2.33,10.99,8.79,12.85ZM589.61,762.05c1.15.32,3.42.16,3.25-1.54l-6-9.91,2.75,11.44ZM493.37,752.04l-3.25-.74c-2.81,8.52-8.17,16.3-6.81,25.7l3.28-.78c-2.06-9.71,7.2-15.39,6.78-24.18ZM615.26,760.73c.49-.6-2.45-7.21-4.04-7.42l2.03,8.12,2-.7ZM644.91,754.85l-1.88-.18c.6,3.83,4.67,5.9,7.43,8.12.68-4.05-4.01-4.96-5.55-7.94ZM572.64,758.05c-1.68-.2-3.24.11-3.93,1.78l1.23,4.98c2.44.75,3.03-6.44,2.7-6.76ZM651.81,777.67c-.11-2.78-.09-7.83-4.05-7.44-.33.32,2.76,7.1,4.05,7.44ZM654.52,781.06c-1.94-.34-1.43.68-1.06,2.08.76,2.87,3.03,8.13,5.12,10.1l-4.06-12.18ZM555.04,791.89l-7.44-1.36-1.07,6.77c1.45,1,4.12,2.77,5.81,1.72l2.69-7.13ZM560.46,791.21c-1.47-1.59-3.36,5.08-3.51,5.63-.34,1.22-1.07,1.39.47,2.48,2.59.5,2.39-6.55,3.03-8.11ZM527.3,793.92c-.5.48.42,12.38.67,13.87.16.9.65,1.91,1.68,1.69,3.17-1.61,6.6-14.41,4.45-15.95-.32-.23-.7-.27-1.08-.32-1.61-.24-3.89,1.12-5.73.72ZM619.84,823.53c2.74-6.66,9.44-17.06,10.22-24.04.23-2.04-4.07-6.34-5.9-3.8-5.43,7.56-6.51,18.51-7.57,27.56.24.98,2.59,1.04,3.25.28ZM461.65,797.3c-1.12-.14-2,.4-2.73,1.17-.41.43-5.33,7.4-5.52,7.84-.39.9-.3,1.84.47,1.8,1.24-.07,6.9-9.08,7.78-10.81ZM495.49,798.66l-2.63.07-2.77,8.72c1.81-.44,6.38-7.9,5.4-8.79ZM657.9,818.28c.02-1.18.13-2.4-.15-3.57-.26-1.12-7.21-13.42-8.05-14.28-.72-.74-.91-1.41-2.27-1.1-2.95,2.62.83,3.29,1.71,4.55,1.52,2.19,2.92,6.41,4.05,8.97l2.01-1.35c-.23,2.66.06,5.45,2.71,6.76ZM631.52,820.98v-18.61c0-.4,1.09-1.38.67-2.37-.18-.22-1.35.86-1.35,1.02v19.96h.68ZM586.85,800.68c-6.93-1.11-12.99,5.84-14.21,12.18,1.06,1.11,16.73-7.57,14.21-12.18ZM599.71,800.69c-.3-.29-2.43-.08-3.05.66-.68.82-.94,3.55-1.78,4.99-.72,1.22-2.98,2.67-3.15,3.58-.28,1.53,1.05,3.26,2.62,1.83.78-.72,5.99-10.46,5.36-11.06ZM406.84,825.04c1.44,1.48,8.4-5.97,9.47-7.11l9.47-16.58-14.19,13.89-4.75,9.79ZM481.95,802.04c-4.42.89-12.48,1.95-10.54,8.16,7.25,3.77,8.7-2.51,10.54-8.16ZM550.31,803.39l-4.43-.04-.31,5.44c3.24.32,4.94-2.49,4.74-5.41ZM558.43,804.07l-3.95.12c-3.29,4.51.43,4.85,1.1,7.81.41,1.79.03,3.79.15,5.61.83-.13,2.7-2.63,2.7-3.05v-10.49ZM609.18,808.81c-3.13.23-4.5-2.61-6.76-4.06l-1.32,3.66,2.6,2.66-4.67,5.86c1.23.21,2.02-.12,3.09-.62,1.22-.58,7.88-6.58,7.06-7.49ZM522.57,816.92c2.98-1.28,2.67-7.2,1-9.47l-1,9.47ZM506.32,813.54c-3.22.31-5.74-.02-7.79-2.69-4.47,2.91-.26,5.7-1.51,8.6-1.03,2.39-3.55,1.94-4.89,3.98l6.39,11.68,7.83-3.74c-.6-6.04-.26-11.77-.02-17.82ZM613.21,822.31l1.38-11.47-9.45,8.46c0,.88,7.14,3.82,8.08,3.02ZM624.08,823.69c1.49.1,3.66.22,4.4-1.34l1-9.48c-.95.04-1.41,1.79-1.81,2.58-.5.98-3.93,7.95-3.59,8.25ZM648.43,812.87c-.97-.97-1.23.06-1.35,1-.28,2.26.47,4.93-.29,7.16-.62,1.83-2.02,1.37-2.41,2.66l4.03-.02c-.74-2.18,2.04-5.18,2.05-6.41,0-.24-1.86-4.22-2.03-4.39ZM550.64,813.55c-1.01.75-6.71,10.24-3.38,10.12.84-.03,6.16-8.69,3.38-10.12ZM587.43,817.52l-.92-2.61c-4.93,3.04-9.97,6.15-15.89,6.78-.16,1.21-.27,3.35,1.38,3.09,5.79-1.62,10.58-3.67,15.42-7.26ZM454.9,822.99c5.73,2.47,9.19-1.53,6.8-7.12-3.69-2.59-7.48,6.13-6.8,7.12ZM510.38,827.75c5.38-.71,3.47-4.98.33-7.43-2.19,1.95-.5,5.01-.33,7.43ZM565.11,827.64l-1.61-7.33c-1.77-.73-3.18,2.98-4.41,4.37-5.66,6.37-8.3,4.66-12.53,7.77-1.94,1.42-6.17,6.64-8.78,8.81-1.27,1.06-9.88,6.32-9.11,7.43l7.44,2.07c-.91-4.06,2.97-7.06,5.77-9.46,6.61-5.65,15.6-9.58,23.24-13.66ZM566.03,856.69c3.98,3.96,19.6-5.76,23.47-8.36,2.49-1.67,6.95-4.63,8.89-6.68,3.85-4.07,5.5-10.83,10.79-14.24-1.96-.8-6.42-4.59-7.95-4.95-1.6-.38-4.21.78-6.02.99-1.35.15-2.45-.93-4.28-.1-2.32,1.05-7.06,9.38-10.16,12.19-6.68,6.07-19.05,9.44-14.74,21.15ZM400.74,825.73c-.44-.38-7.88,4.16-8.36,4.68-1.76,1.9.79,2.78,2.61,2.77,4.08,0,4.63-4.34,5.75-7.45ZM486.01,826.4c-3.16,2.43-3.44,7.11-5.39,10.45l6.36,2.35c2.4-1.55-.41-4.24-.8-6.53-.36-2.08-.09-4.19-.17-6.27ZM526.62,842.64c.98,1.11,16-11.03,16-13.19.01-4.84-4.27-.12-5.66.19-1.77.39-5.16-.29-6.15.29-1.25.73-5.29,11.48-4.2,12.71ZM635.57,837.22l-2.36-9.46c-1.52.99-.69,1.41-.57,2.57.24,2.18,1,5.54,2.93,6.89ZM519.14,833.81c.48-2.12-.92-4.17-3.02-4.73l-3.74,3.74c-.42,2.41,5.46,1.47,6.76.98ZM443.38,831.8c-2.14-3.25-7.03-.33-8.8,2.03l8.8-2.03ZM626.1,830.46l-13.21.6c-3.94,6.15-11.91,8.19-11.82,16.66.02,2.05.93,4.61,3.19,4.94,6.67.98,20.59-15.53,21.84-22.2ZM566.55,831.14c-4.95,1.45-10.71,4.71-15.1,7.57-2.27,1.47-6.84,4.51-8.6,6.29-.71.72-1.6,1.16-1.34,2.38,1.02,1.1,23.32-13.97,25.03-16.23ZM571.96,833.85l-24.36,14.87c9.67-1.28,18.93-6.7,24.36-14.87ZM452.17,838.59c-2.69.56-5.32-3.93-7.07-4.03-4.45-.26-7.6,5.75.68,6.07,1.79.07,5.26-.43,6.39-2.04ZM522.56,837.23c-4.79.33-6.91,3.43-11.74.57-1.13-.67-2.18-2.61-3.36-2.5-1.17.88-11.43,4.54-9.26,6.66,4.78.6,9.53,1.01,14.37.49,3.12-.33,10.49-1.15,10-5.22ZM473.15,850.74l-.65-8.43c-7.08-2.02-13.8-4.21-20.31.71,3.31,5.24-.85,8.24-3.39,12.48,8.34.22,16.38-2.74,24.35-4.76ZM411.42,842.79c-2.06-1.45-7.41-.22-9.31,1.54,0,1.56,8.76,1.98,10.14,1.69.25-.24-.32-2.87-.83-3.23ZM430.52,854.14c7.39,1.03,13.63,4.64,18.95-2.36,7.82-10.31-6.01-7.6-12.55-7.75-2.47-.06-4.46-1.38-7.08-.02.06,2.09,2.59,2.76,2.63,5.05.04,2.03-1.8,3.24-1.96,5.09ZM483.98,844.67c-2.28.2-5.8-2.61-7.1,0-2.97,5.96,8.95,2.02,7.1,0ZM385.41,848.49c2.88,2.92,12.04,4.87,7.2-1.49-4.47,1.76-5.37-1.65-7.79-2.33-2.36-.66.04,3.26.59,3.81ZM521.88,844.67c-4.18-.03-8.42,1.71-12.53,2.02-4.34.32-8.39-.8-12.15-.69-3.17.09-1.68,1.61.14,2.58,6.1,3.23,15.75,1.17,21.81-1.58,1.15-.52,3.17-.58,2.73-2.32ZM429.13,848.09c-3.44-1.89-5.38-1.36-8.76.3,2.83,3.44,8.14,5.96,8.76-.3ZM376.94,848.17l-2.59-.8c-1.92,5.03,6.15,10.13,9.93,12.73,17.1,11.74,33.44,9.54,51.64,1.47.19-1.36.12-1.11-.84-1.51s-10.42-3.15-11.06-3.18c-2.74-.12-9.53,2.5-13.45,2.7-11.1.57-21.76-4.04-32.14-7.16-1.72-.87-1.24-2.68-1.5-4.25ZM403.31,850.21c-.16-.29-5.59-3.22-5.95-2.83v5.41c2.05-.21,7.49.07,5.95-2.59ZM403.45,856.17h10.49c.81,0,5.49-.88,5.07-2.36-3.35-4.47-5.96-4.99-11.5-4.41.81,3.97-1.99,4.4-4.06,6.77Z"/>
  <path d="M259.97,693.08c1.12-5.84,1.77-11.8,3.03-17.62,2.93-13.56,7.37-35.78,12.06-48.17.36-.95,2.86-6.6,3.86-5.94l.34,1.36,1.68-.02,1.04-2.7,2,.69c1.75,4.84,5.64,9.4,7.62,14.03,2.76,6.47,3.49,13.68,6.7,20.37,2.44,5.1,16.36,22.28,16.51,24.84.17,2.91-3.03,3.85-5.42,2.99-1.4,25.47-5.66,50.87-10.35,75.93-2.9,15.48-7.9,32.28-9.87,47.65-2.34,18.25-1.91,24.71-8.01,42.75-1.8,5.31.34,4.62-4.04,9.16-.47.49-.03,1.66-1.35,2.36-2.68,1.43-8.58.5-11.89.98-4.08.58-6.22,3.28-9.84,4.37-12.08,3.63-39.39,4.51-50.69-1.04-.96-.47-3.33-1.37-2.92-2.82,2.42.11,4.72,1.15,7.12,1.34.74.06,2.52.5,2.35-.66-2.94-.49-5.34-1.92-8.44-2.07-8.58-.41-13.35,6.98-21.73,8.1-12.59,1.68-31.69-8.08-32.11-21.97-.05-1.69,1.21-3.57.37-5.05-.58-1.01-2.7.59-4.06.72-11.05.98-17.34-14.22-17.96-23.35-1.07-15.69,5.72-22.35,7.41-34.6,1.74-12.61-.13-26.43,3.64-39,1.54-5.15,4.39-10.66,6.9-15.43,1.04-1.98,4.54-6.46,4.93-7.93.84-3.14.12-8.4,1.03-12.51,2.11-9.55,8.97-19.36,16.05-25.91.65-1.52-2.29-.9-3.4-1.33-2.82-1.09-5-3.21-4.71-6.44,1.47.55.85,2.72,3.37,2.02l-.67-4.05c2.8-1,2.43,2.64,3.08,2.75,1.09.19,5.85-1.69,6.24-2.23.57-.8.56-4.49,2.19-5.93l1,1.34c5.02-4.28,6.04-11.21,10.49-15.56-1.09,8.54-7.25,15.81-12.75,22.1-.22,1.19-.54,1.67.92,1.61,5.08-.2,4.96-5.41,6.73-8.85,1.08-2.09,3.67-4.42,4.25-5.9,2.15-5.38,1.03-12.84,2.53-19.12.85-3.54,4.39-13.12,6.52-15.81.55-.7,6.42-5.44,7.71-6.5,2.43-1.98,6.94-4.33,8.8-6.09,2.75-2.61,1.33-7.59,7.37-6.78.94.13,5.81,2.68,6.16,3.37.64,1.29.85,4.56,1.88,6.92,3.32,7.63,8.4,15.44,12.09,23.1,7.67,15.98,14.12,32.94,22.54,48.52.28.53,1.23,2.36,1.72,2ZM207.19,620l-8.83,6.39c-1.89,2.87-5.23,5.54-5.38,9.17,5.57-4.37,11.33-8.82,14.2-15.56ZM188.24,648.42l.68-10.15c-1.02,0-1.26,2.04-1.53,2.86-.8,2.47-1.3,5.08-1.86,7.61l1.07-1.04,1.64.71ZM150.35,719.47c3.25-4.3,9.15-9.16,11.63-13.74,3.12-5.76,4.89-13.51,8.57-19.25-.58-6.19-6,.52-8.01,2.89-6.76,7.97-12.42,19.5-12.19,30.09ZM180.8,687.67c-1.43-.31-1.54.73-2.15,1.57-1.36,1.89-5.19,7.97-5.68,9.9-.59,2.34,1.37,2.29,2.45.9,1.18-1.52,6.57-11,5.37-12.37ZM264.05,695.12c-.75,2.19-2.39,13.92,1.01,14.19,2.02.16-.37-3.68-.41-4.37-.09-1.97.88-4.18.75-6.78-.04-.74-.24-3.06-1.36-3.04ZM172.67,702.56c-1.37-1.55-4.94,7.65-4.73,8.79l3.94-5.86.79-2.93ZM209.22,719.14v11.84l-2.02-.68-3.42,20.67.7,8.42,5.34-25.45,2.1-21.23-2.7,6.43ZM158.46,714.74c-.93-.98-6.86,7.19-7.14,8.08-.81,2.59-.28,6.61,1.39,8.84l5.75-16.91ZM263.29,722.78c2.47-6.67-4.05-1.8-8.04-3.98l1.38,4.72,6.66-.74ZM158.47,722.18c-.52,3.53-3.19,7.46-3.8,10.8s4.32,2.48,5.03-1.16l-1.23-9.64ZM197.04,749.25l2.7-26.4c-1.3.24-1.12,1.41-1.38,2.34-.94,3.31-1.34,7.25-2.19,10.66-.53,2.11-4.2,12.38-3.19,13.4h4.07ZM149,743.16c3.06-2.23.67-6.35,2.69-9.17l-2.7-7.41c-6.24,9.38-11.32,20.09-12.17,31.47l5.8-9.41c2.81-2.81,5.51-5.45,6.38-9.53v4.06ZM260.66,731.65c-1.8-.34-3.93,4.49-3.89,5.63.03.86,2.51,9.33,3.21,8.58-.31-.88.68-1.99.68-2.37v-11.84ZM158.47,735.72l-4.67.06c-.93,3.84-2.48,6.37-.06,10.08,1.53,1.04,4.08-9.22,4.73-10.14ZM151.59,754.11c-.18-.29-1.52-.29-1.83-1.21-.45-1.33.33-3.01-.42-4.34-1.15-2.1-3.34,3.41-3.54,3.93-.63,1.65-4.04,13.78-3.57,14.36,1.57-1.35,2.86.82,3.67.67,1.64-.31,6.5-12.11,5.69-13.41ZM163.87,767.52c1.56-5.03,4.5-8.65.35-13.52l-.93,11.24.59,2.28ZM270.8,760.76c-2.23-2.44-3.39,10.78-3.41,11.81-.06,3.01.54,5.56.71,8.49,1.55.25,1.32-.14,1.68-1.33,1.68-5.63,2.46-13.31,1.02-18.97ZM144.92,781.05l2.03-11.5c-2.42.95-2.04,3.78-2.61,5.84l.58,5.66ZM140.87,791.21l2.03-18.27c-1.08.36-1.31,3.1-1.56,4.18-.81,3.45-2.27,9.76-1.81,13.09.12.92.49,2.15,1.35,1.01ZM143.58,835.88c-4.2.2-7.94-1.7-9.6-5.62-3.11-7.36,1.23-22.83,1.52-31.24.07-2.19-.05-4.46-1.05-6.45-5.97,12.41-8.91,36.05,3.1,45.62,1.72,1.37,3.71,2.74,6.03,2.43v-4.74ZM172.68,812.87c-.43.64,3.19,2.46,4.09,1.75l1.32-5.14-5.41,3.39ZM197.72,831.13c4.12.51,2.31-4.23,2.86-6.95.7-3.47,6.16-7.8,2.22-12.66l-5.07,19.61ZM170.44,816.36c-1.05.25-5.31,5.11-5.91,6.31-.28.56-1.17.68.02,1.38,5.5,3.24,9.01-1.33,10.84-6.08-.19-.86-4.05-1.81-4.94-1.6ZM264.04,816.93c-2.05-.33-1.08.51-1.36,1.64-1,3.93.42,7.17.02,11.21l1.34-7.11v-5.74ZM182.83,830.46c-.2-1.45.69-9.46-1.01-9.46-2.09,2.41-.59,6.52-1.01,9.46h2.02ZM246.44,820.99c-2.38-2.91-3.1,11.4-.34,11.49,2.59-3.22-.06-7.83.34-11.49ZM222.75,829.1l.38-4.73-3.76-1.35c-.41.41,1.21,6.76,3.38,6.08ZM142.18,827.11l-4.02-.71c.67,2.33,1.49,3.66,3.73,4.73l.29-4.02ZM233.4,829.97c-.17-.19-1.77-.95-1.83-.86.69,1.45-1.65,7.01.34,7.44,1.85.4,2.9-4.94,1.49-6.58ZM164.56,836.54l8.82,1.75c1.09-.8,1.57-9.76-1.39-8.18-1.78.95-5.88,4.77-7.43,6.43ZM155.82,840c.81,8.54,11.09,17.96,19.96,14.87.98-1.35-.96-5.66-1.71-7.19-1.47-1.01-3.53.39-5.1.37-5.6-.05-7.68-4.56-10.5-8.5l-2.64.45ZM184.52,839.95c-5.29,2.33.45,13.44,2.22,7.63.87-2.85-.16-5.61-2.22-7.63ZM188.67,862c.86-.58,2.01-2.29,3.64-2.79-1.57-4.25-4.51-.19-5.88.21-1.1.33-8.39,1.34-10.02,1.48-10.28.89-19.47-7.35-24.02-15.9-3.21,1.48.02,8.09,1.75,10.44,7.82,10.64,23.39,14.18,34.54,6.56ZM219.37,848.06l-6.76-1.36c-.33,1.72.33,1.19,1.31,1.7,1.62.83,4.28,2.11,5.45-.34ZM276.8,850.86c-3.86-2.14-5.12.39-8.02,2.27l7.43,3.05.59-5.32ZM197.71,852.12c-2.02.71-3.38.71-5.4,0-2.02,2.34,6.3,4.84,5.4,0ZM244.41,853.47c-3.22-.7-12.5,3.76-6.75,6.43,3.54,1.64,7.7-5.52,6.75-6.43ZM257.95,853.47c-3.28,1.25-4.17,1.87-7.43,0l-2.04,5.41,6.06-1.75,3.41-3.66Z"/>
</svg>